<svg width="400" height="200" viewBox="0 0 400 200" fill="none" xmlns="http://www.w3.org/2000/svg">
<g clip-path="url(#clip0)">
<path d="M19.3594 10.9922V15H17.0156V3.625H21.4531C22.3073 3.625 23.0573 3.78125 23.7031 4.09375C24.3542 4.40625 24.8542 4.85156 25.2031 5.42969C25.5521 6.0026 25.7266 6.65625 25.7266 7.39062C25.7266 8.50521 25.3438 9.38542 24.5781 10.0312C23.8177 10.6719 22.763 10.9922 21.4141 10.9922H19.3594ZM19.3594 9.09375H21.4531C22.0729 9.09375 22.5443 8.94792 22.8672 8.65625C23.1953 8.36458 23.3594 7.94792 23.3594 7.40625C23.3594 6.84896 23.1953 6.39844 22.8672 6.05469C22.5391 5.71094 22.0859 5.53385 21.5078 5.52344H19.3594V9.09375ZM29.5781 15H27.3125V3H29.5781V15ZM36.3438 15C36.2396 14.7969 36.1641 14.5443 36.1172 14.2422C35.5703 14.8516 34.8594 15.1562 33.9844 15.1562C33.1562 15.1562 32.4688 14.9167 31.9219 14.4375C31.3802 13.9583 31.1094 13.3542 31.1094 12.625C31.1094 11.7292 31.4401 11.0417 32.1016 10.5625C32.7682 10.0833 33.7292 9.84115 34.9844 9.83594H36.0234V9.35156C36.0234 8.96094 35.9219 8.64844 35.7188 8.41406C35.5208 8.17969 35.2057 8.0625 34.7734 8.0625C34.3932 8.0625 34.0938 8.15365 33.875 8.33594C33.6615 8.51823 33.5547 8.76823 33.5547 9.08594H31.2969C31.2969 8.59635 31.4479 8.14323 31.75 7.72656C32.0521 7.3099 32.4792 6.98438 33.0312 6.75C33.5833 6.51042 34.2031 6.39062 34.8906 6.39062C35.9323 6.39062 36.7578 6.65365 37.3672 7.17969C37.9818 7.70052 38.2891 8.4349 38.2891 9.38281V13.0469C38.2943 13.849 38.4062 14.4557 38.625 14.8672V15H36.3438ZM34.4766 13.4297C34.8099 13.4297 35.1172 13.3568 35.3984 13.2109C35.6797 13.0599 35.888 12.8594 36.0234 12.6094V11.1562H35.1797C34.0495 11.1562 33.4479 11.5469 33.375 12.3281L33.3672 12.4609C33.3672 12.7422 33.4661 12.974 33.6641 13.1562C33.862 13.3385 34.1328 13.4297 34.4766 13.4297ZM42.1016 6.54688L42.1719 7.52344C42.776 6.76823 43.5859 6.39062 44.6016 6.39062C45.4974 6.39062 46.1641 6.65365 46.6016 7.17969C47.0391 7.70573 47.263 8.49219 47.2734 9.53906V15H45.0156V9.59375C45.0156 9.11458 44.9115 8.76823 44.7031 8.55469C44.4948 8.33594 44.1484 8.22656 43.6641 8.22656C43.0286 8.22656 42.5521 8.4974 42.2344 9.03906V15H39.9766V6.54688H42.1016ZM52.8828 15.1562C51.6432 15.1562 50.6328 14.776 49.8516 14.0156C49.0755 13.2552 48.6875 12.2422 48.6875 10.9766V10.7578C48.6875 9.90885 48.8516 9.15104 49.1797 8.48438C49.5078 7.8125 49.9714 7.29688 50.5703 6.9375C51.1745 6.57292 51.862 6.39062 52.6328 6.39062C53.7891 6.39062 54.6979 6.75521 55.3594 7.48438C56.026 8.21354 56.3594 9.2474 56.3594 10.5859V11.5078H50.9766C51.0495 12.0599 51.2682 12.5026 51.6328 12.8359C52.0026 13.1693 52.4688 13.3359 53.0312 13.3359C53.901 13.3359 54.5807 13.0208 55.0703 12.3906L56.1797 13.6328C55.8411 14.112 55.3828 14.487 54.8047 14.7578C54.2266 15.0234 53.5859 15.1562 52.8828 15.1562ZM52.625 8.21875C52.1771 8.21875 51.8125 8.36979 51.5312 8.67188C51.2552 8.97396 51.0781 9.40625 51 9.96875H54.1406V9.78906C54.1302 9.28906 53.9948 8.90365 53.7344 8.63281C53.474 8.35677 53.1042 8.21875 52.625 8.21875ZM60.3516 4.46875V6.54688H61.7969V8.20312H60.3516V12.4219C60.3516 12.7344 60.4115 12.9583 60.5312 13.0938C60.651 13.2292 60.8802 13.2969 61.2188 13.2969C61.4688 13.2969 61.6901 13.2786 61.8828 13.2422V14.9531C61.4401 15.0885 60.9844 15.1562 60.5156 15.1562C58.9323 15.1562 58.125 14.3568 58.0938 12.7578V8.20312H56.8594V6.54688H58.0938V4.46875H60.3516ZM67.6328 12.6641C67.6328 12.388 67.4948 12.1719 67.2188 12.0156C66.9479 11.8542 66.5104 11.7109 65.9062 11.5859C63.8958 11.1641 62.8906 10.3099 62.8906 9.02344C62.8906 8.27344 63.2005 7.64844 63.8203 7.14844C64.4453 6.64323 65.2604 6.39062 66.2656 6.39062C67.3385 6.39062 68.1953 6.64323 68.8359 7.14844C69.4818 7.65365 69.8047 8.3099 69.8047 9.11719H67.5469C67.5469 8.79427 67.4427 8.52865 67.2344 8.32031C67.026 8.10677 66.7005 8 66.2578 8C65.8776 8 65.5833 8.08594 65.375 8.25781C65.1667 8.42969 65.0625 8.64844 65.0625 8.91406C65.0625 9.16406 65.1797 9.36719 65.4141 9.52344C65.6536 9.67448 66.0547 9.80729 66.6172 9.92188C67.1797 10.0312 67.6536 10.1562 68.0391 10.2969C69.2318 10.7344 69.8281 11.4922 69.8281 12.5703C69.8281 13.3411 69.4974 13.9661 68.8359 14.4453C68.1745 14.9193 67.3203 15.1562 66.2734 15.1562C65.5651 15.1562 64.9349 15.0312 64.3828 14.7812C63.8359 14.526 63.4062 14.1797 63.0938 13.7422C62.7812 13.2995 62.625 12.8229 62.625 12.3125H64.7656C64.7865 12.7135 64.9349 13.0208 65.2109 13.2344C65.487 13.4479 65.8568 13.5547 66.3203 13.5547C66.7526 13.5547 67.0781 13.474 67.2969 13.3125C67.5208 13.1458 67.6328 12.9297 67.6328 12.6641Z" fill="#FE346E"/>
<rect x="400" y="73" width="400" height="38" rx="4" transform="rotate(-180 400 73)" fill="#FE346E"/>
<rect x="329" y="176" width="258" height="38" rx="4" transform="rotate(-180 329 176)" fill="#8B30FF"/>
<rect x="221" y="146" width="40" height="22" rx="11" fill="#531D99"/>
<rect x="127" y="146" width="72" height="22" rx="11" fill="#531D99"/>
<path d="M233.324 161C233.246 160.848 233.189 160.658 233.154 160.432C232.744 160.889 232.211 161.117 231.555 161.117C230.934 161.117 230.418 160.938 230.008 160.578C229.602 160.219 229.398 159.766 229.398 159.219C229.398 158.547 229.646 158.031 230.143 157.672C230.643 157.312 231.363 157.131 232.305 157.127H233.084V156.764C233.084 156.471 233.008 156.236 232.855 156.061C232.707 155.885 232.471 155.797 232.146 155.797C231.861 155.797 231.637 155.865 231.473 156.002C231.312 156.139 231.232 156.326 231.232 156.564H229.539C229.539 156.197 229.652 155.857 229.879 155.545C230.105 155.232 230.426 154.988 230.84 154.812C231.254 154.633 231.719 154.543 232.234 154.543C233.016 154.543 233.635 154.74 234.092 155.135C234.553 155.525 234.783 156.076 234.783 156.787V159.535C234.787 160.137 234.871 160.592 235.035 160.9V161H233.324ZM231.924 159.822C232.174 159.822 232.404 159.768 232.615 159.658C232.826 159.545 232.982 159.395 233.084 159.207V158.117H232.451C231.604 158.117 231.152 158.41 231.098 158.996L231.092 159.096C231.092 159.307 231.166 159.48 231.314 159.617C231.463 159.754 231.666 159.822 231.924 159.822ZM239.646 156.248C239.416 156.217 239.213 156.201 239.037 156.201C238.396 156.201 237.977 156.418 237.777 156.852V161H236.084V154.66H237.684L237.73 155.416C238.07 154.834 238.541 154.543 239.143 154.543C239.33 154.543 239.506 154.568 239.67 154.619L239.646 156.248ZM243.268 161.117C242.338 161.117 241.58 160.832 240.994 160.262C240.412 159.691 240.121 158.932 240.121 157.982V157.818C240.121 157.182 240.244 156.613 240.49 156.113C240.736 155.609 241.084 155.223 241.533 154.953C241.986 154.68 242.502 154.543 243.08 154.543C243.947 154.543 244.629 154.816 245.125 155.363C245.625 155.91 245.875 156.686 245.875 157.689V158.381H241.838C241.893 158.795 242.057 159.127 242.33 159.377C242.607 159.627 242.957 159.752 243.379 159.752C244.031 159.752 244.541 159.516 244.908 159.043L245.74 159.975C245.486 160.334 245.143 160.615 244.709 160.818C244.275 161.018 243.795 161.117 243.268 161.117ZM243.074 155.914C242.738 155.914 242.465 156.027 242.254 156.254C242.047 156.48 241.914 156.805 241.855 157.227H244.211V157.092C244.203 156.717 244.102 156.428 243.906 156.225C243.711 156.018 243.434 155.914 243.074 155.914ZM250.516 161C250.438 160.848 250.381 160.658 250.346 160.432C249.936 160.889 249.402 161.117 248.746 161.117C248.125 161.117 247.609 160.938 247.199 160.578C246.793 160.219 246.59 159.766 246.59 159.219C246.59 158.547 246.838 158.031 247.334 157.672C247.834 157.312 248.555 157.131 249.496 157.127H250.275V156.764C250.275 156.471 250.199 156.236 250.047 156.061C249.898 155.885 249.662 155.797 249.338 155.797C249.053 155.797 248.828 155.865 248.664 156.002C248.504 156.139 248.424 156.326 248.424 156.564H246.73C246.73 156.197 246.844 155.857 247.07 155.545C247.297 155.232 247.617 154.988 248.031 154.812C248.445 154.633 248.91 154.543 249.426 154.543C250.207 154.543 250.826 154.74 251.283 155.135C251.744 155.525 251.975 156.076 251.975 156.787V159.535C251.979 160.137 252.062 160.592 252.227 160.9V161H250.516ZM249.115 159.822C249.365 159.822 249.596 159.768 249.807 159.658C250.018 159.545 250.174 159.395 250.275 159.207V158.117H249.643C248.795 158.117 248.344 158.41 248.289 158.996L248.283 159.096C248.283 159.307 248.357 159.48 248.506 159.617C248.654 159.754 248.857 159.822 249.115 159.822Z" fill="white"/>
<path d="M87.7266 157.531C87.7266 156.637 87.8457 155.785 88.084 154.977C88.3223 154.168 88.6738 153.453 89.1387 152.832C89.6035 152.207 90.1074 151.773 90.6504 151.531L90.9785 152.445C90.4082 152.867 89.9629 153.52 89.6426 154.402C89.3223 155.285 89.1621 156.316 89.1621 157.496V157.678C89.1621 158.861 89.3203 159.896 89.6367 160.783C89.9531 161.67 90.4004 162.332 90.9785 162.77L90.6504 163.666C90.1191 163.428 89.623 163.006 89.1621 162.4C88.7051 161.799 88.3555 161.104 88.1133 160.314C87.8711 159.525 87.7422 158.701 87.7266 157.842V157.531ZM98.9004 161H97.207V154.473L95.1855 155.1V153.723L98.7188 152.457H98.9004V161ZM107.42 157.473C107.42 158.652 107.176 159.555 106.688 160.18C106.199 160.805 105.484 161.117 104.543 161.117C103.613 161.117 102.902 160.811 102.41 160.197C101.918 159.584 101.666 158.705 101.654 157.561V155.99C101.654 154.799 101.9 153.895 102.393 153.277C102.889 152.66 103.602 152.352 104.531 152.352C105.461 152.352 106.172 152.658 106.664 153.271C107.156 153.881 107.408 154.758 107.42 155.902V157.473ZM105.727 155.75C105.727 155.043 105.629 154.529 105.434 154.209C105.242 153.885 104.941 153.723 104.531 153.723C104.133 153.723 103.838 153.877 103.646 154.186C103.459 154.49 103.359 154.969 103.348 155.621V157.695C103.348 158.391 103.441 158.908 103.629 159.248C103.82 159.584 104.125 159.752 104.543 159.752C104.957 159.752 105.256 159.59 105.439 159.266C105.623 158.941 105.719 158.445 105.727 157.777V155.75ZM114.311 157.473C114.311 158.652 114.066 159.555 113.578 160.18C113.09 160.805 112.375 161.117 111.434 161.117C110.504 161.117 109.793 160.811 109.301 160.197C108.809 159.584 108.557 158.705 108.545 157.561V155.99C108.545 154.799 108.791 153.895 109.283 153.277C109.779 152.66 110.492 152.352 111.422 152.352C112.352 152.352 113.062 152.658 113.555 153.271C114.047 153.881 114.299 154.758 114.311 155.902V157.473ZM112.617 155.75C112.617 155.043 112.52 154.529 112.324 154.209C112.133 153.885 111.832 153.723 111.422 153.723C111.023 153.723 110.729 153.877 110.537 154.186C110.35 154.49 110.25 154.969 110.238 155.621V157.695C110.238 158.391 110.332 158.908 110.52 159.248C110.711 159.584 111.016 159.752 111.434 159.752C111.848 159.752 112.146 159.59 112.33 159.266C112.514 158.941 112.609 158.445 112.617 157.777V155.75ZM119.051 161.732H117.791L120.932 152.469H122.191L119.051 161.732Z" fill="white"/>
<path d="M206.568 157.666C206.568 158.549 206.441 159.398 206.188 160.215C205.934 161.031 205.568 161.752 205.092 162.377C204.615 163.002 204.105 163.432 203.562 163.666L203.234 162.77C203.789 162.352 204.227 161.707 204.547 160.836C204.867 159.965 205.033 158.963 205.045 157.83V157.52C205.045 156.352 204.885 155.322 204.564 154.432C204.248 153.541 203.805 152.873 203.234 152.428L203.562 151.531C204.094 151.762 204.594 152.18 205.062 152.785C205.535 153.391 205.9 154.096 206.158 154.9C206.42 155.705 206.557 156.539 206.568 157.402V157.666ZM210.6 158.814L212.398 156.98L210.6 155.146L211.596 154.162L213.377 155.984L215.164 154.162L216.16 155.146L214.361 156.98L216.16 158.814L215.164 159.799L213.377 157.982L211.596 159.799L210.6 158.814Z" fill="white"/>
<path d="M269.066 156.225H271.182V157.754H269.066V160.145H267.455V157.754H265.334V156.225H267.455V153.934H269.066V156.225ZM276.262 151.801L277.059 152.264C276.723 152.795 276.549 153.334 276.537 153.881V154.859H275.195V153.98C275.195 153.613 275.297 153.223 275.5 152.809C275.707 152.391 275.961 152.055 276.262 151.801ZM278.271 151.801L279.068 152.264C278.732 152.795 278.559 153.334 278.547 153.881V154.859H277.205V153.98C277.205 153.613 277.307 153.223 277.51 152.809C277.717 152.391 277.971 152.055 278.271 151.801ZM285.309 157.303H281.934V159.588H285.895V161H280.176V152.469H285.883V153.893H281.934V155.926H285.309V157.303ZM290.488 161C290.41 160.848 290.354 160.658 290.318 160.432C289.908 160.889 289.375 161.117 288.719 161.117C288.098 161.117 287.582 160.938 287.172 160.578C286.766 160.219 286.562 159.766 286.562 159.219C286.562 158.547 286.811 158.031 287.307 157.672C287.807 157.312 288.527 157.131 289.469 157.127H290.248V156.764C290.248 156.471 290.172 156.236 290.02 156.061C289.871 155.885 289.635 155.797 289.311 155.797C289.025 155.797 288.801 155.865 288.637 156.002C288.477 156.139 288.396 156.326 288.396 156.564H286.703C286.703 156.197 286.816 155.857 287.043 155.545C287.27 155.232 287.59 154.988 288.004 154.812C288.418 154.633 288.883 154.543 289.398 154.543C290.18 154.543 290.799 154.74 291.256 155.135C291.717 155.525 291.947 156.076 291.947 156.787V159.535C291.951 160.137 292.035 160.592 292.199 160.9V161H290.488ZM289.088 159.822C289.338 159.822 289.568 159.768 289.779 159.658C289.99 159.545 290.146 159.395 290.248 159.207V158.117H289.615C288.768 158.117 288.316 158.41 288.262 158.996L288.256 159.096C288.256 159.307 288.33 159.48 288.479 159.617C288.627 159.754 288.83 159.822 289.088 159.822ZM296.811 156.248C296.58 156.217 296.377 156.201 296.201 156.201C295.561 156.201 295.141 156.418 294.941 156.852V161H293.248V154.66H294.848L294.895 155.416C295.234 154.834 295.705 154.543 296.307 154.543C296.494 154.543 296.67 154.568 296.834 154.619L296.811 156.248ZM299.951 153.102V154.66H301.035V155.902H299.951V159.066C299.951 159.301 299.996 159.469 300.086 159.57C300.176 159.672 300.348 159.723 300.602 159.723C300.789 159.723 300.955 159.709 301.1 159.682V160.965C300.768 161.066 300.426 161.117 300.074 161.117C298.887 161.117 298.281 160.518 298.258 159.318V155.902H297.332V154.66H298.258V153.102H299.951ZM303.631 155.352C304.08 154.812 304.645 154.543 305.324 154.543C306.699 154.543 307.396 155.342 307.416 156.939V161H305.723V156.986C305.723 156.623 305.645 156.355 305.488 156.184C305.332 156.008 305.072 155.92 304.709 155.92C304.213 155.92 303.854 156.111 303.631 156.494V161H301.938V152H303.631V155.352ZM308.793 155.088L307.996 154.625C308.332 154.098 308.506 153.553 308.518 152.99V152H309.865V152.908C309.865 153.26 309.768 153.641 309.572 154.051C309.377 154.461 309.117 154.807 308.793 155.088ZM310.826 155.088L310.029 154.625C310.365 154.098 310.539 153.553 310.551 152.99V152H311.898V152.908C311.898 153.26 311.801 153.641 311.605 154.051C311.41 154.461 311.15 154.807 310.826 155.088Z" fill="white"/>
<path d="M140.895 157.303H137.52V159.588H141.48V161H135.762V152.469H141.469V153.893H137.52V155.926H140.895V157.303ZM146.074 161C145.996 160.848 145.939 160.658 145.904 160.432C145.494 160.889 144.961 161.117 144.305 161.117C143.684 161.117 143.168 160.938 142.758 160.578C142.352 160.219 142.148 159.766 142.148 159.219C142.148 158.547 142.396 158.031 142.893 157.672C143.393 157.312 144.113 157.131 145.055 157.127H145.834V156.764C145.834 156.471 145.758 156.236 145.605 156.061C145.457 155.885 145.221 155.797 144.896 155.797C144.611 155.797 144.387 155.865 144.223 156.002C144.062 156.139 143.982 156.326 143.982 156.564H142.289C142.289 156.197 142.402 155.857 142.629 155.545C142.855 155.232 143.176 154.988 143.59 154.812C144.004 154.633 144.469 154.543 144.984 154.543C145.766 154.543 146.385 154.74 146.842 155.135C147.303 155.525 147.533 156.076 147.533 156.787V159.535C147.537 160.137 147.621 160.592 147.785 160.9V161H146.074ZM144.674 159.822C144.924 159.822 145.154 159.768 145.365 159.658C145.576 159.545 145.732 159.395 145.834 159.207V158.117H145.201C144.354 158.117 143.902 158.41 143.848 158.996L143.842 159.096C143.842 159.307 143.916 159.48 144.064 159.617C144.213 159.754 144.416 159.822 144.674 159.822ZM152.396 156.248C152.166 156.217 151.963 156.201 151.787 156.201C151.146 156.201 150.727 156.418 150.527 156.852V161H148.834V154.66H150.434L150.48 155.416C150.82 154.834 151.291 154.543 151.893 154.543C152.08 154.543 152.256 154.568 152.42 154.619L152.396 156.248ZM155.537 153.102V154.66H156.621V155.902H155.537V159.066C155.537 159.301 155.582 159.469 155.672 159.57C155.762 159.672 155.934 159.723 156.188 159.723C156.375 159.723 156.541 159.709 156.686 159.682V160.965C156.354 161.066 156.012 161.117 155.66 161.117C154.473 161.117 153.867 160.518 153.844 159.318V155.902H152.918V154.66H153.844V153.102H155.537ZM159.217 155.352C159.666 154.812 160.23 154.543 160.91 154.543C162.285 154.543 162.982 155.342 163.002 156.939V161H161.309V156.986C161.309 156.623 161.23 156.355 161.074 156.184C160.918 156.008 160.658 155.92 160.295 155.92C159.799 155.92 159.439 156.111 159.217 156.494V161H157.523V152H159.217V155.352ZM164.367 160.168C164.367 159.898 164.457 159.68 164.637 159.512C164.82 159.344 165.049 159.26 165.322 159.26C165.6 159.26 165.828 159.344 166.008 159.512C166.191 159.68 166.283 159.898 166.283 160.168C166.283 160.434 166.193 160.65 166.014 160.818C165.834 160.982 165.604 161.064 165.322 161.064C165.045 161.064 164.816 160.982 164.637 160.818C164.457 160.65 164.367 160.434 164.367 160.168ZM171.445 161C171.367 160.848 171.311 160.658 171.275 160.432C170.865 160.889 170.332 161.117 169.676 161.117C169.055 161.117 168.539 160.938 168.129 160.578C167.723 160.219 167.52 159.766 167.52 159.219C167.52 158.547 167.768 158.031 168.264 157.672C168.764 157.312 169.484 157.131 170.426 157.127H171.205V156.764C171.205 156.471 171.129 156.236 170.977 156.061C170.828 155.885 170.592 155.797 170.268 155.797C169.982 155.797 169.758 155.865 169.594 156.002C169.434 156.139 169.354 156.326 169.354 156.564H167.66C167.66 156.197 167.773 155.857 168 155.545C168.227 155.232 168.547 154.988 168.961 154.812C169.375 154.633 169.84 154.543 170.355 154.543C171.137 154.543 171.756 154.74 172.213 155.135C172.674 155.525 172.904 156.076 172.904 156.787V159.535C172.908 160.137 172.992 160.592 173.156 160.9V161H171.445ZM170.045 159.822C170.295 159.822 170.525 159.768 170.736 159.658C170.947 159.545 171.104 159.395 171.205 159.207V158.117H170.572C169.725 158.117 169.273 158.41 169.219 158.996L169.213 159.096C169.213 159.307 169.287 159.48 169.436 159.617C169.584 159.754 169.787 159.822 170.045 159.822ZM177.768 156.248C177.537 156.217 177.334 156.201 177.158 156.201C176.518 156.201 176.098 156.418 175.898 156.852V161H174.205V154.66H175.805L175.852 155.416C176.191 154.834 176.662 154.543 177.264 154.543C177.451 154.543 177.627 154.568 177.791 154.619L177.768 156.248ZM181.389 161.117C180.459 161.117 179.701 160.832 179.115 160.262C178.533 159.691 178.242 158.932 178.242 157.982V157.818C178.242 157.182 178.365 156.613 178.611 156.113C178.857 155.609 179.205 155.223 179.654 154.953C180.107 154.68 180.623 154.543 181.201 154.543C182.068 154.543 182.75 154.816 183.246 155.363C183.746 155.91 183.996 156.686 183.996 157.689V158.381H179.959C180.014 158.795 180.178 159.127 180.451 159.377C180.729 159.627 181.078 159.752 181.5 159.752C182.152 159.752 182.662 159.516 183.029 159.043L183.861 159.975C183.607 160.334 183.264 160.615 182.83 160.818C182.396 161.018 181.916 161.117 181.389 161.117ZM181.195 155.914C180.859 155.914 180.586 156.027 180.375 156.254C180.168 156.48 180.035 156.805 179.977 157.227H182.332V157.092C182.324 156.717 182.223 156.428 182.027 156.225C181.832 156.018 181.555 155.914 181.195 155.914ZM188.637 161C188.559 160.848 188.502 160.658 188.467 160.432C188.057 160.889 187.523 161.117 186.867 161.117C186.246 161.117 185.73 160.938 185.32 160.578C184.914 160.219 184.711 159.766 184.711 159.219C184.711 158.547 184.959 158.031 185.455 157.672C185.955 157.312 186.676 157.131 187.617 157.127H188.396V156.764C188.396 156.471 188.32 156.236 188.168 156.061C188.02 155.885 187.783 155.797 187.459 155.797C187.174 155.797 186.949 155.865 186.785 156.002C186.625 156.139 186.545 156.326 186.545 156.564H184.852C184.852 156.197 184.965 155.857 185.191 155.545C185.418 155.232 185.738 154.988 186.152 154.812C186.566 154.633 187.031 154.543 187.547 154.543C188.328 154.543 188.947 154.74 189.404 155.135C189.865 155.525 190.096 156.076 190.096 156.787V159.535C190.1 160.137 190.184 160.592 190.348 160.9V161H188.637ZM187.236 159.822C187.486 159.822 187.717 159.768 187.928 159.658C188.139 159.545 188.295 159.395 188.396 159.207V158.117H187.764C186.916 158.117 186.465 158.41 186.41 158.996L186.404 159.096C186.404 159.307 186.479 159.48 186.627 159.617C186.775 159.754 186.979 159.822 187.236 159.822Z" fill="white"/>
<path d="M19.0586 49.4688L21.25 55.6562L23.4297 49.4688H25.7383V58H23.9746V55.668L24.1504 51.6426L21.8477 58H20.6406L18.3438 51.6484L18.5195 55.668V58H16.7617V49.4688H19.0586ZM30.8359 58C30.7578 57.8477 30.7012 57.6582 30.666 57.4316C30.2559 57.8887 29.7227 58.1172 29.0664 58.1172C28.4453 58.1172 27.9297 57.9375 27.5195 57.5781C27.1133 57.2188 26.9102 56.7656 26.9102 56.2188C26.9102 55.5469 27.1582 55.0312 27.6543 54.6719C28.1543 54.3125 28.875 54.1309 29.8164 54.127H30.5957V53.7637C30.5957 53.4707 30.5195 53.2363 30.3672 53.0605C30.2188 52.8848 29.9824 52.7969 29.6582 52.7969C29.373 52.7969 29.1484 52.8652 28.9844 53.002C28.8242 53.1387 28.7441 53.3262 28.7441 53.5645H27.0508C27.0508 53.1973 27.1641 52.8574 27.3906 52.5449C27.6172 52.2324 27.9375 51.9883 28.3516 51.8125C28.7656 51.6328 29.2305 51.543 29.7461 51.543C30.5273 51.543 31.1465 51.7402 31.6035 52.1348C32.0645 52.5254 32.2949 53.0762 32.2949 53.7871V56.5352C32.2988 57.1367 32.3828 57.5918 32.5469 57.9004V58H30.8359ZM29.4355 56.8223C29.6855 56.8223 29.916 56.7676 30.127 56.6582C30.3379 56.5449 30.4941 56.3945 30.5957 56.207V55.1172H29.9629C29.1152 55.1172 28.6641 55.4102 28.6094 55.9961L28.6035 56.0957C28.6035 56.3066 28.6777 56.4805 28.8262 56.6172C28.9746 56.7539 29.1777 56.8223 29.4355 56.8223ZM37.1582 53.248C36.9277 53.2168 36.7246 53.2012 36.5488 53.2012C35.9082 53.2012 35.4883 53.418 35.2891 53.8516V58H33.5957V51.6602H35.1953L35.2422 52.416C35.582 51.834 36.0527 51.543 36.6543 51.543C36.8418 51.543 37.0176 51.5684 37.1816 51.6191L37.1582 53.248ZM41.4121 56.248C41.4121 56.041 41.3086 55.8789 41.1016 55.7617C40.8984 55.6406 40.5703 55.5332 40.1172 55.4395C38.6094 55.123 37.8555 54.4824 37.8555 53.5176C37.8555 52.9551 38.0879 52.4863 38.5527 52.1113C39.0215 51.7324 39.6328 51.543 40.3867 51.543C41.1914 51.543 41.834 51.7324 42.3145 52.1113C42.7988 52.4902 43.041 52.9824 43.041 53.5879H41.3477C41.3477 53.3457 41.2695 53.1465 41.1133 52.9902C40.957 52.8301 40.7129 52.75 40.3809 52.75C40.0957 52.75 39.875 52.8145 39.7188 52.9434C39.5625 53.0723 39.4844 53.2363 39.4844 53.4355C39.4844 53.623 39.5723 53.7754 39.748 53.8926C39.9277 54.0059 40.2285 54.1055 40.6504 54.1914C41.0723 54.2734 41.4277 54.3672 41.7168 54.4727C42.6113 54.8008 43.0586 55.3691 43.0586 56.1777C43.0586 56.7559 42.8105 57.2246 42.3145 57.584C41.8184 57.9395 41.1777 58.1172 40.3926 58.1172C39.8613 58.1172 39.3887 58.0234 38.9746 57.8359C38.5645 57.6445 38.2422 57.3848 38.0078 57.0566C37.7734 56.7246 37.6562 56.3672 37.6562 55.9844H39.2617C39.2773 56.2852 39.3887 56.5156 39.5957 56.6758C39.8027 56.8359 40.0801 56.916 40.4277 56.916C40.752 56.916 40.9961 56.8555 41.1602 56.7344C41.3281 56.6094 41.4121 56.4473 41.4121 56.248Z" fill="white"/>
<path d="M120.199 54.4082C120.199 55.6348 119.969 56.5605 119.508 57.1855C119.051 57.8066 118.354 58.1172 117.416 58.1172C116.494 58.1172 115.799 57.8145 115.33 57.209C114.865 56.5996 114.627 55.6992 114.615 54.5078V53.0312C114.615 51.8047 114.844 50.8848 115.301 50.2715C115.762 49.6582 116.463 49.3516 117.404 49.3516C118.338 49.3516 119.033 49.6504 119.49 50.248C119.951 50.8457 120.188 51.7402 120.199 52.9316V54.4082ZM118.775 52.8145C118.775 52.0137 118.666 51.4277 118.447 51.0566C118.229 50.6816 117.881 50.4941 117.404 50.4941C116.939 50.4941 116.598 50.6719 116.379 51.0273C116.16 51.3789 116.045 51.9297 116.033 52.6797V54.6133C116.033 55.4102 116.145 56.0039 116.367 56.3945C116.59 56.7852 116.939 56.9805 117.416 56.9805C117.873 56.9805 118.211 56.8008 118.43 56.4414C118.648 56.0781 118.764 55.5117 118.775 54.7422V52.8145ZM122.438 56.5C122.703 56.5 122.908 56.5762 123.053 56.7285C123.197 56.877 123.27 57.0645 123.27 57.291C123.27 57.5137 123.197 57.6992 123.053 57.8477C122.908 57.9922 122.703 58.0645 122.438 58.0645C122.184 58.0645 121.982 57.9922 121.834 57.8477C121.686 57.7031 121.611 57.5176 121.611 57.291C121.611 57.0645 121.684 56.877 121.828 56.7285C121.973 56.5762 122.176 56.5 122.438 56.5ZM130.547 58H124.811V57.0215L127.652 53.9219C128.062 53.4648 128.354 53.084 128.525 52.7793C128.701 52.4707 128.789 52.1621 128.789 51.8535C128.789 51.4473 128.674 51.1191 128.443 50.8691C128.217 50.6191 127.91 50.4941 127.523 50.4941C127.062 50.4941 126.705 50.6348 126.451 50.916C126.197 51.1973 126.07 51.582 126.07 52.0703H124.646C124.646 51.5508 124.764 51.084 124.998 50.6699C125.236 50.252 125.574 49.9277 126.012 49.6973C126.453 49.4668 126.961 49.3516 127.535 49.3516C128.363 49.3516 129.016 49.5605 129.492 49.9785C129.973 50.3926 130.213 50.9668 130.213 51.7012C130.213 52.127 130.092 52.5742 129.85 53.043C129.611 53.5078 129.219 54.0371 128.672 54.6309L126.586 56.8633H130.547V58ZM137.004 51.7188C137.004 52.1367 136.896 52.5098 136.682 52.8379C136.467 53.1621 136.174 53.418 135.803 53.6055C136.248 53.8125 136.59 54.0957 136.828 54.4551C137.07 54.8145 137.191 55.2207 137.191 55.6738C137.191 56.4238 136.938 57.0195 136.43 57.4609C135.922 57.8984 135.246 58.1172 134.402 58.1172C133.555 58.1172 132.875 57.8965 132.363 57.4551C131.855 57.0137 131.602 56.4199 131.602 55.6738C131.602 55.2168 131.723 54.8066 131.965 54.4434C132.207 54.0801 132.547 53.8008 132.984 53.6055C132.617 53.418 132.326 53.1621 132.111 52.8379C131.9 52.5098 131.795 52.1367 131.795 51.7188C131.795 50.9922 132.029 50.416 132.498 49.9902C132.967 49.5645 133.6 49.3516 134.396 49.3516C135.197 49.3516 135.832 49.5645 136.301 49.9902C136.77 50.416 137.004 50.9922 137.004 51.7188ZM135.768 55.6035C135.768 55.1816 135.641 54.8418 135.387 54.584C135.137 54.3223 134.805 54.1914 134.391 54.1914C133.977 54.1914 133.645 54.3203 133.395 54.5781C133.148 54.8359 133.025 55.1777 133.025 55.6035C133.025 56.0215 133.146 56.3555 133.389 56.6055C133.635 56.8555 133.973 56.9805 134.402 56.9805C134.832 56.9805 135.166 56.8594 135.404 56.6172C135.646 56.375 135.768 56.0371 135.768 55.6035ZM135.586 51.7715C135.586 51.4004 135.479 51.0957 135.264 50.8574C135.049 50.6152 134.76 50.4941 134.396 50.4941C134.033 50.4941 133.746 50.6094 133.535 50.8398C133.324 51.0664 133.219 51.377 133.219 51.7715C133.219 52.1621 133.324 52.4727 133.535 52.7031C133.75 52.9336 134.039 53.0488 134.402 53.0488C134.766 53.0488 135.053 52.9336 135.264 52.7031C135.479 52.4727 135.586 52.1621 135.586 51.7715ZM143.268 54.959H144.328V56.1016H143.268V58H141.844V56.1016H138.158L138.117 55.2344L141.797 49.4688H143.268V54.959ZM139.611 54.959H141.844V51.3965L141.738 51.584L139.611 54.959ZM153.475 54.1914H149.971V56.8164H154.066V58H148.488V49.4688H154.025V50.6641H149.971V53.0195H153.475V54.1914ZM158.924 58C158.861 57.8789 158.807 57.6816 158.76 57.4082C158.307 57.8809 157.752 58.1172 157.096 58.1172C156.459 58.1172 155.939 57.9355 155.537 57.5723C155.135 57.209 154.934 56.7598 154.934 56.2246C154.934 55.5488 155.184 55.0312 155.684 54.6719C156.188 54.3086 156.906 54.127 157.84 54.127H158.713V53.7109C158.713 53.3828 158.621 53.1211 158.438 52.9258C158.254 52.7266 157.975 52.627 157.6 52.627C157.275 52.627 157.01 52.709 156.803 52.873C156.596 53.0332 156.492 53.2383 156.492 53.4883H155.068C155.068 53.1406 155.184 52.8164 155.414 52.5156C155.645 52.2109 155.957 51.9727 156.352 51.8008C156.75 51.6289 157.193 51.543 157.682 51.543C158.424 51.543 159.016 51.7305 159.457 52.1055C159.898 52.4766 160.125 53 160.137 53.6758V56.5352C160.137 57.1055 160.217 57.5605 160.377 57.9004V58H158.924ZM157.359 56.9746C157.641 56.9746 157.904 56.9062 158.15 56.7695C158.4 56.6328 158.588 56.4492 158.713 56.2188V55.0234H157.945C157.418 55.0234 157.021 55.1152 156.756 55.2988C156.49 55.4824 156.357 55.7422 156.357 56.0781C156.357 56.3516 156.447 56.5703 156.627 56.7344C156.811 56.8945 157.055 56.9746 157.359 56.9746ZM164.947 52.9609C164.76 52.9297 164.566 52.9141 164.367 52.9141C163.715 52.9141 163.275 53.1641 163.049 53.6641V58H161.625V51.6602H162.984L163.02 52.3691C163.363 51.8184 163.84 51.543 164.449 51.543C164.652 51.543 164.82 51.5703 164.953 51.625L164.947 52.9609ZM167.924 50.1191V51.6602H169.043V52.7148H167.924V56.2539C167.924 56.4961 167.971 56.6719 168.064 56.7812C168.162 56.8867 168.334 56.9395 168.58 56.9395C168.744 56.9395 168.91 56.9199 169.078 56.8809V57.9824C168.754 58.0723 168.441 58.1172 168.141 58.1172C167.047 58.1172 166.5 57.5137 166.5 56.3066V52.7148H165.457V51.6602H166.5V50.1191H167.924ZM171.539 52.3516C172.004 51.8125 172.592 51.543 173.303 51.543C174.654 51.543 175.34 52.3145 175.359 53.8574V58H173.936V53.9102C173.936 53.4727 173.84 53.1641 173.648 52.9844C173.461 52.8008 173.184 52.709 172.816 52.709C172.246 52.709 171.82 52.9629 171.539 53.4707V58H170.115V49H171.539V52.3516ZM180.357 56.2773C180.357 56.0234 180.252 55.8301 180.041 55.6973C179.834 55.5645 179.488 55.4473 179.004 55.3457C178.52 55.2441 178.115 55.1152 177.791 54.959C177.08 54.6152 176.725 54.1172 176.725 53.4648C176.725 52.918 176.955 52.4609 177.416 52.0938C177.877 51.7266 178.463 51.543 179.174 51.543C179.932 51.543 180.543 51.7305 181.008 52.1055C181.477 52.4805 181.711 52.9668 181.711 53.5645H180.287C180.287 53.291 180.186 53.0645 179.982 52.8848C179.779 52.7012 179.51 52.6094 179.174 52.6094C178.861 52.6094 178.605 52.6816 178.406 52.8262C178.211 52.9707 178.113 53.1641 178.113 53.4062C178.113 53.625 178.205 53.7949 178.389 53.916C178.572 54.0371 178.943 54.1602 179.502 54.2852C180.061 54.4062 180.498 54.5527 180.814 54.7246C181.135 54.8926 181.371 55.0957 181.523 55.334C181.68 55.5723 181.758 55.8613 181.758 56.2012C181.758 56.7715 181.521 57.2344 181.049 57.5898C180.576 57.9414 179.957 58.1172 179.191 58.1172C178.672 58.1172 178.209 58.0234 177.803 57.8359C177.396 57.6484 177.08 57.3906 176.854 57.0625C176.627 56.7344 176.514 56.3809 176.514 56.002H177.896C177.916 56.3379 178.043 56.5977 178.277 56.7812C178.512 56.9609 178.822 57.0508 179.209 57.0508C179.584 57.0508 179.869 56.9805 180.064 56.8398C180.26 56.6953 180.357 56.5078 180.357 56.2773Z" fill="white"/>
<path d="M264.494 58H263.076V51.1504L260.984 51.8652V50.6641L264.312 49.4395H264.494V58ZM272.275 54.959H273.336V56.1016H272.275V58H270.852V56.1016H267.166L267.125 55.2344L270.805 49.4688H272.275V54.959ZM268.619 54.959H270.852V51.3965L270.746 51.584L268.619 54.959ZM279.096 54.959H280.156V56.1016H279.096V58H277.672V56.1016H273.986L273.945 55.2344L277.625 49.4688H279.096V54.959ZM275.439 54.959H277.672V51.3965L277.566 51.584L275.439 54.959ZM289.461 51.7188C289.461 52.1367 289.354 52.5098 289.139 52.8379C288.924 53.1621 288.631 53.418 288.26 53.6055C288.705 53.8125 289.047 54.0957 289.285 54.4551C289.527 54.8145 289.648 55.2207 289.648 55.6738C289.648 56.4238 289.395 57.0195 288.887 57.4609C288.379 57.8984 287.703 58.1172 286.859 58.1172C286.012 58.1172 285.332 57.8965 284.82 57.4551C284.312 57.0137 284.059 56.4199 284.059 55.6738C284.059 55.2168 284.18 54.8066 284.422 54.4434C284.664 54.0801 285.004 53.8008 285.441 53.6055C285.074 53.418 284.783 53.1621 284.568 52.8379C284.357 52.5098 284.252 52.1367 284.252 51.7188C284.252 50.9922 284.486 50.416 284.955 49.9902C285.424 49.5645 286.057 49.3516 286.854 49.3516C287.654 49.3516 288.289 49.5645 288.758 49.9902C289.227 50.416 289.461 50.9922 289.461 51.7188ZM288.225 55.6035C288.225 55.1816 288.098 54.8418 287.844 54.584C287.594 54.3223 287.262 54.1914 286.848 54.1914C286.434 54.1914 286.102 54.3203 285.852 54.5781C285.605 54.8359 285.482 55.1777 285.482 55.6035C285.482 56.0215 285.604 56.3555 285.846 56.6055C286.092 56.8555 286.43 56.9805 286.859 56.9805C287.289 56.9805 287.623 56.8594 287.861 56.6172C288.104 56.375 288.225 56.0371 288.225 55.6035ZM288.043 51.7715C288.043 51.4004 287.936 51.0957 287.721 50.8574C287.506 50.6152 287.217 50.4941 286.854 50.4941C286.49 50.4941 286.203 50.6094 285.992 50.8398C285.781 51.0664 285.676 51.377 285.676 51.7715C285.676 52.1621 285.781 52.4727 285.992 52.7031C286.207 52.9336 286.496 53.0488 286.859 53.0488C287.223 53.0488 287.51 52.9336 287.721 52.7031C287.936 52.4727 288.043 52.1621 288.043 51.7715ZM296.469 54.4082C296.469 55.6348 296.238 56.5605 295.777 57.1855C295.32 57.8066 294.623 58.1172 293.686 58.1172C292.764 58.1172 292.068 57.8145 291.6 57.209C291.135 56.5996 290.896 55.6992 290.885 54.5078V53.0312C290.885 51.8047 291.113 50.8848 291.57 50.2715C292.031 49.6582 292.732 49.3516 293.674 49.3516C294.607 49.3516 295.303 49.6504 295.76 50.248C296.221 50.8457 296.457 51.7402 296.469 52.9316V54.4082ZM295.045 52.8145C295.045 52.0137 294.936 51.4277 294.717 51.0566C294.498 50.6816 294.15 50.4941 293.674 50.4941C293.209 50.4941 292.867 50.6719 292.648 51.0273C292.43 51.3789 292.314 51.9297 292.303 52.6797V54.6133C292.303 55.4102 292.414 56.0039 292.637 56.3945C292.859 56.7852 293.209 56.9805 293.686 56.9805C294.143 56.9805 294.48 56.8008 294.699 56.4414C294.918 56.0781 295.033 55.5117 295.045 54.7422V52.8145ZM303.289 54.4082C303.289 55.6348 303.059 56.5605 302.598 57.1855C302.141 57.8066 301.443 58.1172 300.506 58.1172C299.584 58.1172 298.889 57.8145 298.42 57.209C297.955 56.5996 297.717 55.6992 297.705 54.5078V53.0312C297.705 51.8047 297.934 50.8848 298.391 50.2715C298.852 49.6582 299.553 49.3516 300.494 49.3516C301.428 49.3516 302.123 49.6504 302.58 50.248C303.041 50.8457 303.277 51.7402 303.289 52.9316V54.4082ZM301.865 52.8145C301.865 52.0137 301.756 51.4277 301.537 51.0566C301.318 50.6816 300.971 50.4941 300.494 50.4941C300.029 50.4941 299.688 50.6719 299.469 51.0273C299.25 51.3789 299.135 51.9297 299.123 52.6797V54.6133C299.123 55.4102 299.234 56.0039 299.457 56.3945C299.68 56.7852 300.029 56.9805 300.506 56.9805C300.963 56.9805 301.301 56.8008 301.52 56.4414C301.738 56.0781 301.854 55.5117 301.865 54.7422V52.8145ZM313.098 54.4082C313.098 55.6348 312.867 56.5605 312.406 57.1855C311.949 57.8066 311.252 58.1172 310.314 58.1172C309.393 58.1172 308.697 57.8145 308.229 57.209C307.764 56.5996 307.525 55.6992 307.514 54.5078V53.0312C307.514 51.8047 307.742 50.8848 308.199 50.2715C308.66 49.6582 309.361 49.3516 310.303 49.3516C311.236 49.3516 311.932 49.6504 312.389 50.248C312.85 50.8457 313.086 51.7402 313.098 52.9316V54.4082ZM311.674 52.8145C311.674 52.0137 311.564 51.4277 311.346 51.0566C311.127 50.6816 310.779 50.4941 310.303 50.4941C309.838 50.4941 309.496 50.6719 309.277 51.0273C309.059 51.3789 308.943 51.9297 308.932 52.6797V54.6133C308.932 55.4102 309.043 56.0039 309.266 56.3945C309.488 56.7852 309.838 56.9805 310.314 56.9805C310.771 56.9805 311.109 56.8008 311.328 56.4414C311.547 56.0781 311.662 55.5117 311.674 54.7422V52.8145ZM319.918 54.4082C319.918 55.6348 319.688 56.5605 319.227 57.1855C318.77 57.8066 318.072 58.1172 317.135 58.1172C316.213 58.1172 315.518 57.8145 315.049 57.209C314.584 56.5996 314.346 55.6992 314.334 54.5078V53.0312C314.334 51.8047 314.562 50.8848 315.02 50.2715C315.48 49.6582 316.182 49.3516 317.123 49.3516C318.057 49.3516 318.752 49.6504 319.209 50.248C319.67 50.8457 319.906 51.7402 319.918 52.9316V54.4082ZM318.494 52.8145C318.494 52.0137 318.385 51.4277 318.166 51.0566C317.947 50.6816 317.6 50.4941 317.123 50.4941C316.658 50.4941 316.316 50.6719 316.098 51.0273C315.879 51.3789 315.764 51.9297 315.752 52.6797V54.6133C315.752 55.4102 315.863 56.0039 316.086 56.3945C316.309 56.7852 316.658 56.9805 317.135 56.9805C317.592 56.9805 317.93 56.8008 318.148 56.4414C318.367 56.0781 318.482 55.5117 318.494 54.7422V52.8145ZM326.738 54.4082C326.738 55.6348 326.508 56.5605 326.047 57.1855C325.59 57.8066 324.893 58.1172 323.955 58.1172C323.033 58.1172 322.338 57.8145 321.869 57.209C321.404 56.5996 321.166 55.6992 321.154 54.5078V53.0312C321.154 51.8047 321.383 50.8848 321.84 50.2715C322.301 49.6582 323.002 49.3516 323.943 49.3516C324.877 49.3516 325.572 49.6504 326.029 50.248C326.49 50.8457 326.727 51.7402 326.738 52.9316V54.4082ZM325.314 52.8145C325.314 52.0137 325.205 51.4277 324.986 51.0566C324.768 50.6816 324.42 50.4941 323.943 50.4941C323.479 50.4941 323.137 50.6719 322.918 51.0273C322.699 51.3789 322.584 51.9297 322.572 52.6797V54.6133C322.572 55.4102 322.684 56.0039 322.906 56.3945C323.129 56.7852 323.479 56.9805 323.955 56.9805C324.412 56.9805 324.75 56.8008 324.969 56.4414C325.188 56.0781 325.303 55.5117 325.314 54.7422V52.8145ZM333.664 54.3145L332.697 55.3398V58H331.215V49.4688H332.697V53.4707L333.518 52.457L336.014 49.4688H337.807L334.637 53.248L337.988 58H336.23L333.664 54.3145ZM339.986 51.6602L340.027 52.3223C340.473 51.8027 341.082 51.543 341.855 51.543C342.703 51.543 343.283 51.8672 343.596 52.5156C344.057 51.8672 344.705 51.543 345.541 51.543C346.24 51.543 346.76 51.7363 347.1 52.123C347.443 52.5098 347.619 53.0801 347.627 53.834V58H346.203V53.875C346.203 53.4727 346.115 53.1777 345.939 52.9902C345.764 52.8027 345.473 52.709 345.066 52.709C344.742 52.709 344.477 52.7969 344.27 52.9727C344.066 53.1445 343.924 53.3711 343.842 53.6523L343.848 58H342.424V53.8281C342.404 53.082 342.023 52.709 341.281 52.709C340.711 52.709 340.307 52.9414 340.068 53.4062V58H338.645V51.6602H339.986ZM354.734 58H348.998V57.0215L351.84 53.9219C352.25 53.4648 352.541 53.084 352.713 52.7793C352.889 52.4707 352.977 52.1621 352.977 51.8535C352.977 51.4473 352.861 51.1191 352.631 50.8691C352.404 50.6191 352.098 50.4941 351.711 50.4941C351.25 50.4941 350.893 50.6348 350.639 50.916C350.385 51.1973 350.258 51.582 350.258 52.0703H348.834C348.834 51.5508 348.951 51.084 349.186 50.6699C349.424 50.252 349.762 49.9277 350.199 49.6973C350.641 49.4668 351.148 49.3516 351.723 49.3516C352.551 49.3516 353.203 49.5605 353.68 49.9785C354.16 50.3926 354.4 50.9668 354.4 51.7012C354.4 52.127 354.279 52.5742 354.037 53.043C353.799 53.5078 353.406 54.0371 352.859 54.6309L350.773 56.8633H354.734V58Z" fill="white"/>
<circle cy="54" r="5" fill="#FFEBF1"/>
<circle cx="231" cy="54" r="5" fill="#FFEBF1"/>
<circle cx="215.5" cy="96.5" r="10.5" fill="#FC7DE1"/>
<circle cx="200" cy="138" r="5" fill="#FFEBF1"/>
<path d="M200 138.5C200 107.5 231 88.5 231 54" stroke="#FC7DE1" stroke-width="4" stroke-linecap="round" stroke-linejoin="round"/>
<circle cx="400" cy="54" r="5" fill="#FFEBF1"/>
<line x1="99" y1="35" x2="99" y2="73" stroke="#981F42" stroke-width="2" stroke-dasharray="4 4"/>
<line x1="245" y1="35" x2="245" y2="73" stroke="#981F42" stroke-width="2" stroke-dasharray="4 4"/>
<path d="M218.035 95.6289H212.797V94.2461H218.035V95.6289ZM218.035 98.166H212.797V96.7832H218.035V98.166Z" fill="white"/>
</g>
<defs>
<clipPath id="clip0">
<rect width="400" height="200" fill="white"/>
</clipPath>
</defs>
</svg>
