<svg width="400" height="200" viewBox="0 0 400 200" fill="none" xmlns="http://www.w3.org/2000/svg">
<g clip-path="url(#clip0)">
<circle cy="54" r="5" fill="#E6EBFF"/>
<circle cy="96" r="5" fill="#E6EBFF"/>
<circle cy="180" r="5" fill="#E6EBFF"/>
<rect y="20" width="400" height="116" rx="4" fill="#FC7DE1"/>
<rect x="16" y="36" width="176" height="38" rx="4" fill="white"/>
<rect x="384" y="120" width="79" height="38" rx="4" transform="rotate(180 384 120)" fill="#FEDFF8"/>
<circle cx="345" cy="120" r="5" fill="#FC7DE1"/>
<circle cx="345" cy="120" r="2" fill="#FEDFF8"/>
<rect x="263" y="200" width="125" height="38" rx="4" transform="rotate(-180 263 200)" fill="#0037FF"/>
<rect x="154" y="170" width="45" height="22" rx="11" fill="#002199"/>
<path d="M164.736 178.628V182.99C164.736 183.298 164.792 183.51 164.904 183.626C165.02 183.742 165.18 183.8 165.384 183.8C165.58 183.8 165.776 183.738 165.972 183.614C166.168 183.49 166.332 183.322 166.464 183.11V178.628H168.36V185H166.704L166.62 184.256C166.404 184.568 166.12 184.804 165.768 184.964C165.416 185.124 165.048 185.204 164.664 185.204C164.048 185.204 163.59 185.026 163.29 184.67C162.99 184.31 162.84 183.828 162.84 183.224V178.628H164.736ZM172.591 183.848C172.907 183.848 173.161 183.798 173.353 183.698C173.549 183.598 173.647 183.448 173.647 183.248C173.647 183.112 173.609 182.998 173.533 182.906C173.457 182.814 173.311 182.726 173.095 182.642C172.879 182.558 172.559 182.458 172.135 182.342C171.551 182.186 171.075 181.962 170.707 181.67C170.343 181.378 170.161 180.95 170.161 180.386C170.161 179.818 170.397 179.348 170.869 178.976C171.345 178.604 172.031 178.418 172.927 178.418C173.495 178.418 173.989 178.492 174.409 178.64C174.833 178.784 175.199 178.968 175.507 179.192L174.751 180.308C174.487 180.144 174.203 180.014 173.899 179.918C173.595 179.818 173.289 179.768 172.981 179.768C172.373 179.768 172.069 179.932 172.069 180.26C172.069 180.368 172.107 180.462 172.183 180.542C172.263 180.618 172.411 180.698 172.627 180.782C172.843 180.862 173.159 180.962 173.575 181.082C173.987 181.198 174.345 181.332 174.649 181.484C174.957 181.636 175.195 181.84 175.363 182.096C175.531 182.348 175.615 182.682 175.615 183.098C175.615 183.562 175.477 183.952 175.201 184.268C174.925 184.58 174.559 184.814 174.103 184.97C173.647 185.126 173.147 185.204 172.603 185.204C171.987 185.204 171.443 185.116 170.971 184.94C170.499 184.764 170.097 184.532 169.765 184.244L170.719 183.176C170.967 183.368 171.247 183.528 171.559 183.656C171.875 183.784 172.219 183.848 172.591 183.848ZM178.875 182.366C178.939 182.886 179.109 183.26 179.385 183.488C179.661 183.712 180.001 183.824 180.405 183.824C180.697 183.824 180.979 183.776 181.251 183.68C181.523 183.584 181.785 183.456 182.037 183.296L182.799 184.328C182.499 184.584 182.135 184.794 181.707 184.958C181.283 185.122 180.799 185.204 180.255 185.204C179.527 185.204 178.917 185.06 178.425 184.772C177.933 184.48 177.563 184.08 177.315 183.572C177.067 183.064 176.943 182.48 176.943 181.82C176.943 181.192 177.063 180.622 177.303 180.11C177.543 179.594 177.893 179.184 178.353 178.88C178.817 178.572 179.383 178.418 180.051 178.418C180.659 178.418 181.185 178.548 181.629 178.808C182.077 179.068 182.423 179.442 182.667 179.93C182.915 180.418 183.039 181.004 183.039 181.688C183.039 181.796 183.035 181.912 183.027 182.036C183.023 182.16 183.015 182.27 183.003 182.366H178.875ZM180.051 179.69C179.711 179.69 179.437 179.812 179.229 180.056C179.021 180.3 178.895 180.69 178.851 181.226H181.191C181.187 180.762 181.097 180.39 180.921 180.11C180.745 179.83 180.455 179.69 180.051 179.69ZM184.486 185V183.728H185.326V179.888H184.486V178.628H186.772L187.12 180.062C187.348 179.514 187.638 179.106 187.99 178.838C188.346 178.57 188.78 178.436 189.292 178.436C189.508 178.436 189.7 178.454 189.868 178.49C190.036 178.522 190.194 178.568 190.342 178.628L189.988 181.292H188.8V180.116C188.44 180.18 188.124 180.376 187.852 180.704C187.58 181.028 187.37 181.428 187.222 181.904V183.728H188.482V185H184.486Z" fill="white"/>
<path d="M205.262 183.866C205.262 183.622 205.322 183.4 205.442 183.2C205.562 182.996 205.724 182.834 205.928 182.714C206.132 182.59 206.356 182.528 206.6 182.528C206.848 182.528 207.072 182.59 207.272 182.714C207.476 182.834 207.638 182.996 207.758 183.2C207.878 183.4 207.938 183.622 207.938 183.866C207.938 184.106 207.878 184.328 207.758 184.532C207.638 184.736 207.476 184.898 207.272 185.018C207.072 185.142 206.848 185.204 206.6 185.204C206.356 185.204 206.132 185.142 205.928 185.018C205.724 184.898 205.562 184.736 205.442 184.532C205.322 184.328 205.262 184.106 205.262 183.866ZM214.359 176.096V182.996C214.359 183.252 214.431 183.436 214.575 183.548C214.723 183.656 214.925 183.71 215.181 183.71C215.345 183.71 215.503 183.692 215.655 183.656C215.807 183.616 215.949 183.57 216.081 183.518L216.537 184.784C216.321 184.896 216.061 184.994 215.757 185.078C215.453 185.162 215.099 185.204 214.695 185.204C213.927 185.204 213.363 184.984 213.003 184.544C212.643 184.1 212.463 183.506 212.463 182.762V177.392H210.585V176.096H214.359ZM220.991 178.418C221.647 178.418 222.205 178.558 222.665 178.838C223.125 179.118 223.477 179.512 223.721 180.02C223.965 180.524 224.087 181.116 224.087 181.796C224.087 182.86 223.815 183.694 223.271 184.298C222.727 184.902 221.967 185.204 220.991 185.204C220.015 185.204 219.255 184.906 218.711 184.31C218.167 183.714 217.895 182.88 217.895 181.808C217.895 181.132 218.017 180.54 218.261 180.032C218.509 179.524 218.863 179.128 219.323 178.844C219.787 178.56 220.343 178.418 220.991 178.418ZM220.991 179.816C220.603 179.816 220.315 179.976 220.127 180.296C219.943 180.612 219.851 181.116 219.851 181.808C219.851 182.512 219.943 183.022 220.127 183.338C220.315 183.654 220.603 183.812 220.991 183.812C221.379 183.812 221.665 183.654 221.849 183.338C222.037 183.022 222.131 182.508 222.131 181.796C222.131 181.108 222.037 180.606 221.849 180.29C221.665 179.974 221.379 179.816 220.991 179.816ZM231.084 177.608L231.528 179C231.304 179.088 231.042 179.152 230.742 179.192C230.442 179.232 230.092 179.252 229.692 179.252C230.092 179.424 230.396 179.638 230.604 179.894C230.816 180.146 230.922 180.478 230.922 180.89C230.922 181.302 230.812 181.67 230.592 181.994C230.372 182.314 230.06 182.566 229.656 182.75C229.252 182.934 228.774 183.026 228.222 183.026C227.958 183.026 227.712 183.002 227.484 182.954C227.344 183.026 227.274 183.148 227.274 183.32C227.274 183.42 227.314 183.51 227.394 183.59C227.478 183.67 227.672 183.71 227.976 183.71H229.02C229.76 183.71 230.35 183.884 230.79 184.232C231.23 184.58 231.45 185.02 231.45 185.552C231.45 186.204 231.164 186.718 230.592 187.094C230.02 187.47 229.17 187.658 228.042 187.658C227.226 187.658 226.594 187.574 226.146 187.406C225.702 187.242 225.392 187.006 225.216 186.698C225.044 186.394 224.958 186.032 224.958 185.612H226.638C226.638 185.796 226.674 185.946 226.746 186.062C226.822 186.182 226.964 186.27 227.172 186.326C227.384 186.382 227.69 186.41 228.09 186.41C228.494 186.41 228.802 186.378 229.014 186.314C229.226 186.25 229.37 186.162 229.446 186.05C229.526 185.942 229.566 185.82 229.566 185.684C229.566 185.496 229.492 185.344 229.344 185.228C229.196 185.112 228.962 185.054 228.642 185.054H227.628C226.94 185.054 226.44 184.928 226.128 184.676C225.816 184.42 225.66 184.122 225.66 183.782C225.66 183.546 225.722 183.322 225.846 183.11C225.974 182.898 226.152 182.72 226.38 182.576C225.972 182.36 225.68 182.106 225.504 181.814C225.328 181.518 225.24 181.164 225.24 180.752C225.24 180.272 225.362 179.86 225.606 179.516C225.85 179.168 226.186 178.9 226.614 178.712C227.046 178.524 227.538 178.43 228.09 178.43C228.566 178.438 228.98 178.406 229.332 178.334C229.684 178.258 230 178.156 230.28 178.028C230.56 177.896 230.828 177.756 231.084 177.608ZM228.138 179.66C227.838 179.66 227.6 179.756 227.424 179.948C227.248 180.136 227.16 180.396 227.16 180.728C227.16 181.08 227.25 181.35 227.43 181.538C227.61 181.726 227.846 181.82 228.138 181.82C228.786 181.82 229.11 181.448 229.11 180.704C229.11 180.008 228.786 179.66 228.138 179.66ZM235.369 175.292C235.697 175.292 235.965 175.394 236.173 175.598C236.381 175.802 236.485 176.056 236.485 176.36C236.485 176.664 236.381 176.92 236.173 177.128C235.965 177.332 235.697 177.434 235.369 177.434C235.037 177.434 234.765 177.332 234.553 177.128C234.345 176.92 234.241 176.664 234.241 176.36C234.241 176.056 234.345 175.802 234.553 175.598C234.765 175.394 235.037 175.292 235.369 175.292ZM236.515 178.628V183.704H238.135V185H232.813V183.704H234.619V179.924H232.873V178.628H236.515ZM239.817 185V178.628H241.473L241.605 179.366C241.889 179.046 242.189 178.808 242.505 178.652C242.821 178.496 243.181 178.418 243.585 178.418C244.129 178.418 244.557 178.584 244.869 178.916C245.181 179.248 245.337 179.716 245.337 180.32V185H243.441V180.866C243.441 180.474 243.397 180.202 243.309 180.05C243.225 179.894 243.065 179.816 242.829 179.816C242.629 179.816 242.437 179.88 242.253 180.008C242.073 180.136 241.893 180.314 241.713 180.542V185H239.817Z" fill="white"/>
<circle cx="263" cy="181" r="5" fill="#E6EBFF"/>
<circle cx="263" cy="181" r="2" fill="#0037FF"/>
<path d="M36.0488 53.9609C35.8613 53.9297 35.668 53.9141 35.4688 53.9141C34.8164 53.9141 34.377 54.1641 34.1504 54.6641V59H32.7266V52.6602H34.0859L34.1211 53.3691C34.4648 52.8184 34.9414 52.543 35.5508 52.543C35.7539 52.543 35.9219 52.5703 36.0547 52.625L36.0488 53.9609ZM38.4629 59H37.0391V52.6602H38.4629V59ZM36.9512 51.0137C36.9512 50.7949 37.0195 50.6133 37.1562 50.4688C37.2969 50.3242 37.4961 50.252 37.7539 50.252C38.0117 50.252 38.2109 50.3242 38.3516 50.4688C38.4922 50.6133 38.5625 50.7949 38.5625 51.0137C38.5625 51.2285 38.4922 51.4082 38.3516 51.5527C38.2109 51.6934 38.0117 51.7637 37.7539 51.7637C37.4961 51.7637 37.2969 51.6934 37.1562 51.5527C37.0195 51.4082 36.9512 51.2285 36.9512 51.0137ZM42.623 57.9805C42.9785 57.9805 43.2734 57.877 43.5078 57.6699C43.7422 57.4629 43.8672 57.207 43.8828 56.9023H45.2246C45.209 57.2969 45.0859 57.666 44.8555 58.0098C44.625 58.3496 44.3125 58.6191 43.918 58.8184C43.5234 59.0176 43.0977 59.1172 42.6406 59.1172C41.7539 59.1172 41.0508 58.8301 40.5312 58.2559C40.0117 57.6816 39.752 56.8887 39.752 55.877V55.7305C39.752 54.7656 40.0098 53.9941 40.5254 53.416C41.041 52.834 41.7441 52.543 42.6348 52.543C43.3887 52.543 44.002 52.7637 44.4746 53.2051C44.9512 53.6426 45.2012 54.2188 45.2246 54.9336H43.8828C43.8672 54.5703 43.7422 54.2715 43.5078 54.0371C43.2773 53.8027 42.9824 53.6855 42.623 53.6855C42.1621 53.6855 41.8066 53.8535 41.5566 54.1895C41.3066 54.5215 41.1797 55.0273 41.1758 55.707V55.9355C41.1758 56.623 41.2988 57.1367 41.5449 57.4766C41.7949 57.8125 42.1543 57.9805 42.623 57.9805ZM48.3594 56.2812L47.7266 56.9316V59H46.3027V50H47.7266V55.1914L48.1719 54.6348L49.9238 52.6602H51.6348L49.2793 55.3027L51.8867 59H50.2402L48.3594 56.2812ZM53.457 57.5C53.7227 57.5 53.9277 57.5762 54.0723 57.7285C54.2168 57.877 54.2891 58.0645 54.2891 58.291C54.2891 58.5137 54.2168 58.6992 54.0723 58.8477C53.9277 58.9922 53.7227 59.0645 53.457 59.0645C53.2031 59.0645 53.002 58.9922 52.8535 58.8477C52.7051 58.7031 52.6309 58.5176 52.6309 58.291C52.6309 58.0645 52.7031 57.877 52.8477 57.7285C52.9922 57.5762 53.1953 57.5 53.457 57.5ZM59.4746 57.2773C59.4746 57.0234 59.3691 56.8301 59.1582 56.6973C58.9512 56.5645 58.6055 56.4473 58.1211 56.3457C57.6367 56.2441 57.2324 56.1152 56.9082 55.959C56.1973 55.6152 55.8418 55.1172 55.8418 54.4648C55.8418 53.918 56.0723 53.4609 56.5332 53.0938C56.9941 52.7266 57.5801 52.543 58.291 52.543C59.0488 52.543 59.6602 52.7305 60.125 53.1055C60.5938 53.4805 60.8281 53.9668 60.8281 54.5645H59.4043C59.4043 54.291 59.3027 54.0645 59.0996 53.8848C58.8965 53.7012 58.627 53.6094 58.291 53.6094C57.9785 53.6094 57.7227 53.6816 57.5234 53.8262C57.3281 53.9707 57.2305 54.1641 57.2305 54.4062C57.2305 54.625 57.3223 54.7949 57.5059 54.916C57.6895 55.0371 58.0605 55.1602 58.6191 55.2852C59.1777 55.4062 59.6152 55.5527 59.9316 55.7246C60.252 55.8926 60.4883 56.0957 60.6406 56.334C60.7969 56.5723 60.875 56.8613 60.875 57.2012C60.875 57.7715 60.6387 58.2344 60.166 58.5898C59.6934 58.9414 59.0742 59.1172 58.3086 59.1172C57.7891 59.1172 57.3262 59.0234 56.9199 58.8359C56.5137 58.6484 56.1973 58.3906 55.9707 58.0625C55.7441 57.7344 55.6309 57.3809 55.6309 57.002H57.0137C57.0332 57.3379 57.1602 57.5977 57.3945 57.7812C57.6289 57.9609 57.9395 58.0508 58.3262 58.0508C58.7012 58.0508 58.9863 57.9805 59.1816 57.8398C59.377 57.6953 59.4746 57.5078 59.4746 57.2773ZM65.9082 59C65.8457 58.8789 65.791 58.6816 65.7441 58.4082C65.291 58.8809 64.7363 59.1172 64.0801 59.1172C63.4434 59.1172 62.9238 58.9355 62.5215 58.5723C62.1191 58.209 61.918 57.7598 61.918 57.2246C61.918 56.5488 62.168 56.0312 62.668 55.6719C63.1719 55.3086 63.8906 55.127 64.8242 55.127H65.6973V54.7109C65.6973 54.3828 65.6055 54.1211 65.4219 53.9258C65.2383 53.7266 64.959 53.627 64.584 53.627C64.2598 53.627 63.9941 53.709 63.7871 53.873C63.5801 54.0332 63.4766 54.2383 63.4766 54.4883H62.0527C62.0527 54.1406 62.168 53.8164 62.3984 53.5156C62.6289 53.2109 62.9414 52.9727 63.3359 52.8008C63.7344 52.6289 64.1777 52.543 64.666 52.543C65.4082 52.543 66 52.7305 66.4414 53.1055C66.8828 53.4766 67.1094 54 67.1211 54.6758V57.5352C67.1211 58.1055 67.2012 58.5605 67.3613 58.9004V59H65.9082ZM64.3438 57.9746C64.625 57.9746 64.8887 57.9062 65.1348 57.7695C65.3848 57.6328 65.5723 57.4492 65.6973 57.2188V56.0234H64.9297C64.4023 56.0234 64.0059 56.1152 63.7402 56.2988C63.4746 56.4824 63.3418 56.7422 63.3418 57.0781C63.3418 57.3516 63.4316 57.5703 63.6113 57.7344C63.7949 57.8945 64.0391 57.9746 64.3438 57.9746ZM69.9336 52.6602L69.9746 53.3926C70.4434 52.8262 71.0586 52.543 71.8203 52.543C73.1406 52.543 73.8125 53.2988 73.8359 54.8105V59H72.4121V54.8926C72.4121 54.4902 72.3242 54.1934 72.1484 54.002C71.9766 53.8066 71.6934 53.709 71.2988 53.709C70.7246 53.709 70.2969 53.9688 70.0156 54.4883V59H68.5918V52.6602H69.9336ZM77.8965 57.9805C78.252 57.9805 78.5469 57.877 78.7812 57.6699C79.0156 57.4629 79.1406 57.207 79.1562 56.9023H80.498C80.4824 57.2969 80.3594 57.666 80.1289 58.0098C79.8984 58.3496 79.5859 58.6191 79.1914 58.8184C78.7969 59.0176 78.3711 59.1172 77.9141 59.1172C77.0273 59.1172 76.3242 58.8301 75.8047 58.2559C75.2852 57.6816 75.0254 56.8887 75.0254 55.877V55.7305C75.0254 54.7656 75.2832 53.9941 75.7988 53.416C76.3145 52.834 77.0176 52.543 77.9082 52.543C78.6621 52.543 79.2754 52.7637 79.748 53.2051C80.2246 53.6426 80.4746 54.2188 80.498 54.9336H79.1562C79.1406 54.5703 79.0156 54.2715 78.7812 54.0371C78.5508 53.8027 78.2559 53.6855 77.8965 53.6855C77.4355 53.6855 77.0801 53.8535 76.8301 54.1895C76.5801 54.5215 76.4531 55.0273 76.4492 55.707V55.9355C76.4492 56.623 76.5723 57.1367 76.8184 57.4766C77.0684 57.8125 77.4277 57.9805 77.8965 57.9805ZM82.9766 53.3516C83.4414 52.8125 84.0293 52.543 84.7402 52.543C86.0918 52.543 86.7773 53.3145 86.7969 54.8574V59H85.373V54.9102C85.373 54.4727 85.2773 54.1641 85.0859 53.9844C84.8984 53.8008 84.6211 53.709 84.2539 53.709C83.6836 53.709 83.2578 53.9629 82.9766 54.4707V59H81.5527V50H82.9766V53.3516ZM91.0332 59.1172C90.1309 59.1172 89.3984 58.834 88.8359 58.2676C88.2773 57.6973 87.998 56.9395 87.998 55.9941V55.8184C87.998 55.1855 88.1191 54.6211 88.3613 54.125C88.6074 53.625 88.9512 53.2363 89.3926 52.959C89.834 52.6816 90.3262 52.543 90.8691 52.543C91.7324 52.543 92.3984 52.8184 92.8672 53.3691C93.3398 53.9199 93.5762 54.6992 93.5762 55.707V56.2812H89.4336C89.4766 56.8047 89.6504 57.2188 89.9551 57.5234C90.2637 57.8281 90.6504 57.9805 91.1152 57.9805C91.7676 57.9805 92.2988 57.7168 92.709 57.1895L93.4766 57.9219C93.2227 58.3008 92.8828 58.5957 92.457 58.8066C92.0352 59.0137 91.5605 59.1172 91.0332 59.1172ZM90.8633 53.6855C90.4727 53.6855 90.1562 53.8223 89.9141 54.0957C89.6758 54.3691 89.5234 54.75 89.457 55.2383H92.1699V55.1328C92.1387 54.6562 92.0117 54.2969 91.7891 54.0547C91.5664 53.8086 91.2578 53.6855 90.8633 53.6855ZM96.207 57.8633H99.582V59H94.4375V58.0684L97.6543 53.8086H94.4961V52.6602H99.459V53.5625L96.207 57.8633ZM101.609 57.5C101.875 57.5 102.08 57.5762 102.225 57.7285C102.369 57.877 102.441 58.0645 102.441 58.291C102.441 58.5137 102.369 58.6992 102.225 58.8477C102.08 58.9922 101.875 59.0645 101.609 59.0645C101.355 59.0645 101.154 58.9922 101.006 58.8477C100.857 58.7031 100.783 58.5176 100.783 58.291C100.783 58.0645 100.855 57.877 101 57.7285C101.145 57.5762 101.348 57.5 101.609 57.5ZM106.678 57.9805C107.033 57.9805 107.328 57.877 107.562 57.6699C107.797 57.4629 107.922 57.207 107.938 56.9023H109.279C109.264 57.2969 109.141 57.666 108.91 58.0098C108.68 58.3496 108.367 58.6191 107.973 58.8184C107.578 59.0176 107.152 59.1172 106.695 59.1172C105.809 59.1172 105.105 58.8301 104.586 58.2559C104.066 57.6816 103.807 56.8887 103.807 55.877V55.7305C103.807 54.7656 104.064 53.9941 104.58 53.416C105.096 52.834 105.799 52.543 106.689 52.543C107.443 52.543 108.057 52.7637 108.529 53.2051C109.006 53.6426 109.256 54.2188 109.279 54.9336H107.938C107.922 54.5703 107.797 54.2715 107.562 54.0371C107.332 53.8027 107.037 53.6855 106.678 53.6855C106.217 53.6855 105.861 53.8535 105.611 54.1895C105.361 54.5215 105.234 55.0273 105.23 55.707V55.9355C105.23 56.623 105.354 57.1367 105.6 57.4766C105.85 57.8125 106.209 57.9805 106.678 57.9805ZM110.088 55.7715C110.088 55.1504 110.211 54.5918 110.457 54.0957C110.703 53.5957 111.049 53.2129 111.494 52.9473C111.939 52.6777 112.451 52.543 113.029 52.543C113.885 52.543 114.578 52.8184 115.109 53.3691C115.645 53.9199 115.934 54.6504 115.977 55.5605L115.982 55.8945C115.982 56.5195 115.861 57.0781 115.619 57.5703C115.381 58.0625 115.037 58.4434 114.588 58.7129C114.143 58.9824 113.627 59.1172 113.041 59.1172C112.146 59.1172 111.43 58.8203 110.891 58.2266C110.355 57.6289 110.088 56.834 110.088 55.8418V55.7715ZM111.512 55.8945C111.512 56.5469 111.646 57.0586 111.916 57.4297C112.186 57.7969 112.561 57.9805 113.041 57.9805C113.521 57.9805 113.895 57.793 114.16 57.418C114.43 57.043 114.564 56.4941 114.564 55.7715C114.564 55.1309 114.426 54.623 114.148 54.248C113.875 53.873 113.502 53.6855 113.029 53.6855C112.564 53.6855 112.195 53.8711 111.922 54.2422C111.648 54.6094 111.512 55.1602 111.512 55.8945ZM118.525 52.6602L118.566 53.3223C119.012 52.8027 119.621 52.543 120.395 52.543C121.242 52.543 121.822 52.8672 122.135 53.5156C122.596 52.8672 123.244 52.543 124.08 52.543C124.779 52.543 125.299 52.7363 125.639 53.123C125.982 53.5098 126.158 54.0801 126.166 54.834V59H124.742V54.875C124.742 54.4727 124.654 54.1777 124.479 53.9902C124.303 53.8027 124.012 53.709 123.605 53.709C123.281 53.709 123.016 53.7969 122.809 53.9727C122.605 54.1445 122.463 54.3711 122.381 54.6523L122.387 59H120.963V54.8281C120.943 54.082 120.562 53.709 119.82 53.709C119.25 53.709 118.846 53.9414 118.607 54.4062V59H117.184V52.6602H118.525Z" fill="#FC7DE1"/>
<path d="M331.52 103.588H335.252V105H329.762V96.4688H331.52V103.588ZM335.891 101.771C335.891 101.143 336.012 100.582 336.254 100.09C336.496 99.5977 336.844 99.2168 337.297 98.9473C337.754 98.6777 338.283 98.543 338.885 98.543C339.74 98.543 340.438 98.8047 340.977 99.3281C341.52 99.8516 341.822 100.562 341.885 101.461L341.896 101.895C341.896 102.867 341.625 103.648 341.082 104.238C340.539 104.824 339.811 105.117 338.896 105.117C337.982 105.117 337.252 104.824 336.705 104.238C336.162 103.652 335.891 102.855 335.891 101.848V101.771ZM337.584 101.895C337.584 102.496 337.697 102.957 337.924 103.277C338.15 103.594 338.475 103.752 338.896 103.752C339.307 103.752 339.627 103.596 339.857 103.283C340.088 102.967 340.203 102.463 340.203 101.771C340.203 101.182 340.088 100.725 339.857 100.4C339.627 100.076 339.303 99.9141 338.885 99.9141C338.471 99.9141 338.15 100.076 337.924 100.4C337.697 100.721 337.584 101.219 337.584 101.895ZM342.693 101.783C342.693 100.811 342.924 100.027 343.385 99.4336C343.85 98.8398 344.475 98.543 345.26 98.543C345.955 98.543 346.496 98.7812 346.883 99.2578L346.953 98.6602H348.488V104.789C348.488 105.344 348.361 105.826 348.107 106.236C347.857 106.646 347.504 106.959 347.047 107.174C346.59 107.389 346.055 107.496 345.441 107.496C344.977 107.496 344.523 107.402 344.082 107.215C343.641 107.031 343.307 106.793 343.08 106.5L343.83 105.469C344.252 105.941 344.764 106.178 345.365 106.178C345.814 106.178 346.164 106.057 346.414 105.814C346.664 105.576 346.789 105.236 346.789 104.795V104.455C346.398 104.896 345.885 105.117 345.248 105.117C344.486 105.117 343.869 104.82 343.396 104.227C342.928 103.629 342.693 102.838 342.693 101.854V101.783ZM344.387 101.906C344.387 102.48 344.502 102.932 344.732 103.26C344.963 103.584 345.279 103.746 345.682 103.746C346.197 103.746 346.566 103.553 346.789 103.166V100.5C346.562 100.113 346.197 99.9199 345.693 99.9199C345.287 99.9199 344.967 100.086 344.732 100.418C344.502 100.75 344.387 101.246 344.387 101.906ZM351.582 105H349.883V98.6602H351.582V105ZM349.783 97.0195C349.783 96.7656 349.867 96.5566 350.035 96.3926C350.207 96.2285 350.439 96.1465 350.732 96.1465C351.021 96.1465 351.252 96.2285 351.424 96.3926C351.596 96.5566 351.682 96.7656 351.682 97.0195C351.682 97.2773 351.594 97.4883 351.418 97.6523C351.246 97.8164 351.018 97.8984 350.732 97.8984C350.447 97.8984 350.217 97.8164 350.041 97.6523C349.869 97.4883 349.783 97.2773 349.783 97.0195ZM354.541 98.6602L354.594 99.3926C355.047 98.8262 355.654 98.543 356.416 98.543C357.088 98.543 357.588 98.7402 357.916 99.1348C358.244 99.5293 358.412 100.119 358.42 100.904V105H356.727V100.945C356.727 100.586 356.648 100.326 356.492 100.166C356.336 100.002 356.076 99.9199 355.713 99.9199C355.236 99.9199 354.879 100.123 354.641 100.529V105H352.947V98.6602H354.541Z" fill="#FC7DE1"/>
<rect x="384" y="74" width="176" height="38" rx="4" transform="rotate(180 384 74)" fill="white"/>
<rect x="128" y="12" width="97" height="3.99999" rx="2" transform="rotate(-180 128 12)" fill="#FC7DE1"/>
<rect x="27" y="12" width="27" height="4" rx="2" transform="rotate(-180 27 12)" fill="#FC7DE1"/>
<path d="M224.797 54.4824C224.797 54.1113 224.914 53.8086 225.148 53.5742C225.387 53.3359 225.701 53.2168 226.092 53.2168C226.494 53.2168 226.812 53.3359 227.047 53.5742C227.281 53.8086 227.398 54.1172 227.398 54.5V54.7168C227.398 55.084 227.281 55.3848 227.047 55.6191C226.816 55.8496 226.5 55.9648 226.098 55.9648C225.711 55.9648 225.398 55.8535 225.16 55.6309C224.926 55.4043 224.805 55.1094 224.797 54.7461V54.4824ZM228.992 54.4824C228.992 54.1113 229.109 53.8086 229.344 53.5742C229.582 53.3359 229.896 53.2168 230.287 53.2168C230.689 53.2168 231.008 53.3359 231.242 53.5742C231.477 53.8086 231.594 54.1172 231.594 54.5V54.7168C231.594 55.084 231.477 55.3848 231.242 55.6191C231.012 55.8496 230.695 55.9648 230.293 55.9648C229.906 55.9648 229.594 55.8535 229.355 55.6309C229.121 55.4043 229 55.1094 228.992 54.7461V54.4824ZM233.188 54.4824C233.188 54.1113 233.305 53.8086 233.539 53.5742C233.777 53.3359 234.092 53.2168 234.482 53.2168C234.885 53.2168 235.203 53.3359 235.438 53.5742C235.672 53.8086 235.789 54.1172 235.789 54.5V54.7168C235.789 55.084 235.672 55.3848 235.438 55.6191C235.207 55.8496 234.891 55.9648 234.488 55.9648C234.102 55.9648 233.789 55.8535 233.551 55.6309C233.316 55.4043 233.195 55.1094 233.188 54.7461V54.4824ZM237.383 54.4824C237.383 54.1113 237.5 53.8086 237.734 53.5742C237.973 53.3359 238.287 53.2168 238.678 53.2168C239.08 53.2168 239.398 53.3359 239.633 53.5742C239.867 53.8086 239.984 54.1172 239.984 54.5V54.7168C239.984 55.084 239.867 55.3848 239.633 55.6191C239.402 55.8496 239.086 55.9648 238.684 55.9648C238.297 55.9648 237.984 55.8535 237.746 55.6309C237.512 55.4043 237.391 55.1094 237.383 54.7461V54.4824ZM241.578 54.4824C241.578 54.1113 241.695 53.8086 241.93 53.5742C242.168 53.3359 242.482 53.2168 242.873 53.2168C243.275 53.2168 243.594 53.3359 243.828 53.5742C244.062 53.8086 244.18 54.1172 244.18 54.5V54.7168C244.18 55.084 244.062 55.3848 243.828 55.6191C243.598 55.8496 243.281 55.9648 242.879 55.9648C242.492 55.9648 242.18 55.8535 241.941 55.6309C241.707 55.4043 241.586 55.1094 241.578 54.7461V54.4824ZM245.773 54.4824C245.773 54.1113 245.891 53.8086 246.125 53.5742C246.363 53.3359 246.678 53.2168 247.068 53.2168C247.471 53.2168 247.789 53.3359 248.023 53.5742C248.258 53.8086 248.375 54.1172 248.375 54.5V54.7168C248.375 55.084 248.258 55.3848 248.023 55.6191C247.793 55.8496 247.477 55.9648 247.074 55.9648C246.688 55.9648 246.375 55.8535 246.137 55.6309C245.902 55.4043 245.781 55.1094 245.773 54.7461V54.4824ZM249.969 54.4824C249.969 54.1113 250.086 53.8086 250.32 53.5742C250.559 53.3359 250.873 53.2168 251.264 53.2168C251.666 53.2168 251.984 53.3359 252.219 53.5742C252.453 53.8086 252.57 54.1172 252.57 54.5V54.7168C252.57 55.084 252.453 55.3848 252.219 55.6191C251.988 55.8496 251.672 55.9648 251.27 55.9648C250.883 55.9648 250.57 55.8535 250.332 55.6309C250.098 55.4043 249.977 55.1094 249.969 54.7461V54.4824ZM254.164 54.4824C254.164 54.1113 254.281 53.8086 254.516 53.5742C254.754 53.3359 255.068 53.2168 255.459 53.2168C255.861 53.2168 256.18 53.3359 256.414 53.5742C256.648 53.8086 256.766 54.1172 256.766 54.5V54.7168C256.766 55.084 256.648 55.3848 256.414 55.6191C256.184 55.8496 255.867 55.9648 255.465 55.9648C255.078 55.9648 254.766 55.8535 254.527 55.6309C254.293 55.4043 254.172 55.1094 254.164 54.7461V54.4824ZM258.359 54.4824C258.359 54.1113 258.477 53.8086 258.711 53.5742C258.949 53.3359 259.264 53.2168 259.654 53.2168C260.057 53.2168 260.375 53.3359 260.609 53.5742C260.844 53.8086 260.961 54.1172 260.961 54.5V54.7168C260.961 55.084 260.844 55.3848 260.609 55.6191C260.379 55.8496 260.062 55.9648 259.66 55.9648C259.273 55.9648 258.961 55.8535 258.723 55.6309C258.488 55.4043 258.367 55.1094 258.359 54.7461V54.4824ZM262.555 54.4824C262.555 54.1113 262.672 53.8086 262.906 53.5742C263.145 53.3359 263.459 53.2168 263.85 53.2168C264.252 53.2168 264.57 53.3359 264.805 53.5742C265.039 53.8086 265.156 54.1172 265.156 54.5V54.7168C265.156 55.084 265.039 55.3848 264.805 55.6191C264.574 55.8496 264.258 55.9648 263.855 55.9648C263.469 55.9648 263.156 55.8535 262.918 55.6309C262.684 55.4043 262.562 55.1094 262.555 54.7461V54.4824ZM266.75 54.4824C266.75 54.1113 266.867 53.8086 267.102 53.5742C267.34 53.3359 267.654 53.2168 268.045 53.2168C268.447 53.2168 268.766 53.3359 269 53.5742C269.234 53.8086 269.352 54.1172 269.352 54.5V54.7168C269.352 55.084 269.234 55.3848 269 55.6191C268.77 55.8496 268.453 55.9648 268.051 55.9648C267.664 55.9648 267.352 55.8535 267.113 55.6309C266.879 55.4043 266.758 55.1094 266.75 54.7461V54.4824ZM270.945 54.4824C270.945 54.1113 271.062 53.8086 271.297 53.5742C271.535 53.3359 271.85 53.2168 272.24 53.2168C272.643 53.2168 272.961 53.3359 273.195 53.5742C273.43 53.8086 273.547 54.1172 273.547 54.5V54.7168C273.547 55.084 273.43 55.3848 273.195 55.6191C272.965 55.8496 272.648 55.9648 272.246 55.9648C271.859 55.9648 271.547 55.8535 271.309 55.6309C271.074 55.4043 270.953 55.1094 270.945 54.7461V54.4824ZM275.141 54.4824C275.141 54.1113 275.258 53.8086 275.492 53.5742C275.73 53.3359 276.045 53.2168 276.436 53.2168C276.838 53.2168 277.156 53.3359 277.391 53.5742C277.625 53.8086 277.742 54.1172 277.742 54.5V54.7168C277.742 55.084 277.625 55.3848 277.391 55.6191C277.16 55.8496 276.844 55.9648 276.441 55.9648C276.055 55.9648 275.742 55.8535 275.504 55.6309C275.27 55.4043 275.148 55.1094 275.141 54.7461V54.4824ZM279.336 54.4824C279.336 54.1113 279.453 53.8086 279.688 53.5742C279.926 53.3359 280.24 53.2168 280.631 53.2168C281.033 53.2168 281.352 53.3359 281.586 53.5742C281.82 53.8086 281.938 54.1172 281.938 54.5V54.7168C281.938 55.084 281.82 55.3848 281.586 55.6191C281.355 55.8496 281.039 55.9648 280.637 55.9648C280.25 55.9648 279.938 55.8535 279.699 55.6309C279.465 55.4043 279.344 55.1094 279.336 54.7461V54.4824ZM283.531 54.4824C283.531 54.1113 283.648 53.8086 283.883 53.5742C284.121 53.3359 284.436 53.2168 284.826 53.2168C285.229 53.2168 285.547 53.3359 285.781 53.5742C286.016 53.8086 286.133 54.1172 286.133 54.5V54.7168C286.133 55.084 286.016 55.3848 285.781 55.6191C285.551 55.8496 285.234 55.9648 284.832 55.9648C284.445 55.9648 284.133 55.8535 283.895 55.6309C283.66 55.4043 283.539 55.1094 283.531 54.7461V54.4824ZM287.727 54.4824C287.727 54.1113 287.844 53.8086 288.078 53.5742C288.316 53.3359 288.631 53.2168 289.021 53.2168C289.424 53.2168 289.742 53.3359 289.977 53.5742C290.211 53.8086 290.328 54.1172 290.328 54.5V54.7168C290.328 55.084 290.211 55.3848 289.977 55.6191C289.746 55.8496 289.43 55.9648 289.027 55.9648C288.641 55.9648 288.328 55.8535 288.09 55.6309C287.855 55.4043 287.734 55.1094 287.727 54.7461V54.4824ZM291.922 54.4824C291.922 54.1113 292.039 53.8086 292.273 53.5742C292.512 53.3359 292.826 53.2168 293.217 53.2168C293.619 53.2168 293.938 53.3359 294.172 53.5742C294.406 53.8086 294.523 54.1172 294.523 54.5V54.7168C294.523 55.084 294.406 55.3848 294.172 55.6191C293.941 55.8496 293.625 55.9648 293.223 55.9648C292.836 55.9648 292.523 55.8535 292.285 55.6309C292.051 55.4043 291.93 55.1094 291.922 54.7461V54.4824ZM296.117 54.4824C296.117 54.1113 296.234 53.8086 296.469 53.5742C296.707 53.3359 297.021 53.2168 297.412 53.2168C297.814 53.2168 298.133 53.3359 298.367 53.5742C298.602 53.8086 298.719 54.1172 298.719 54.5V54.7168C298.719 55.084 298.602 55.3848 298.367 55.6191C298.137 55.8496 297.82 55.9648 297.418 55.9648C297.031 55.9648 296.719 55.8535 296.48 55.6309C296.246 55.4043 296.125 55.1094 296.117 54.7461V54.4824ZM300.312 54.4824C300.312 54.1113 300.43 53.8086 300.664 53.5742C300.902 53.3359 301.217 53.2168 301.607 53.2168C302.01 53.2168 302.328 53.3359 302.562 53.5742C302.797 53.8086 302.914 54.1172 302.914 54.5V54.7168C302.914 55.084 302.797 55.3848 302.562 55.6191C302.332 55.8496 302.016 55.9648 301.613 55.9648C301.227 55.9648 300.914 55.8535 300.676 55.6309C300.441 55.4043 300.32 55.1094 300.312 54.7461V54.4824ZM304.508 54.4824C304.508 54.1113 304.625 53.8086 304.859 53.5742C305.098 53.3359 305.412 53.2168 305.803 53.2168C306.205 53.2168 306.523 53.3359 306.758 53.5742C306.992 53.8086 307.109 54.1172 307.109 54.5V54.7168C307.109 55.084 306.992 55.3848 306.758 55.6191C306.527 55.8496 306.211 55.9648 305.809 55.9648C305.422 55.9648 305.109 55.8535 304.871 55.6309C304.637 55.4043 304.516 55.1094 304.508 54.7461V54.4824ZM308.703 54.4824C308.703 54.1113 308.82 53.8086 309.055 53.5742C309.293 53.3359 309.607 53.2168 309.998 53.2168C310.4 53.2168 310.719 53.3359 310.953 53.5742C311.188 53.8086 311.305 54.1172 311.305 54.5V54.7168C311.305 55.084 311.188 55.3848 310.953 55.6191C310.723 55.8496 310.406 55.9648 310.004 55.9648C309.617 55.9648 309.305 55.8535 309.066 55.6309C308.832 55.4043 308.711 55.1094 308.703 54.7461V54.4824ZM312.898 54.4824C312.898 54.1113 313.016 53.8086 313.25 53.5742C313.488 53.3359 313.803 53.2168 314.193 53.2168C314.596 53.2168 314.914 53.3359 315.148 53.5742C315.383 53.8086 315.5 54.1172 315.5 54.5V54.7168C315.5 55.084 315.383 55.3848 315.148 55.6191C314.918 55.8496 314.602 55.9648 314.199 55.9648C313.812 55.9648 313.5 55.8535 313.262 55.6309C313.027 55.4043 312.906 55.1094 312.898 54.7461V54.4824ZM317.094 54.4824C317.094 54.1113 317.211 53.8086 317.445 53.5742C317.684 53.3359 317.998 53.2168 318.389 53.2168C318.791 53.2168 319.109 53.3359 319.344 53.5742C319.578 53.8086 319.695 54.1172 319.695 54.5V54.7168C319.695 55.084 319.578 55.3848 319.344 55.6191C319.113 55.8496 318.797 55.9648 318.395 55.9648C318.008 55.9648 317.695 55.8535 317.457 55.6309C317.223 55.4043 317.102 55.1094 317.094 54.7461V54.4824ZM321.289 54.4824C321.289 54.1113 321.406 53.8086 321.641 53.5742C321.879 53.3359 322.193 53.2168 322.584 53.2168C322.986 53.2168 323.305 53.3359 323.539 53.5742C323.773 53.8086 323.891 54.1172 323.891 54.5V54.7168C323.891 55.084 323.773 55.3848 323.539 55.6191C323.309 55.8496 322.992 55.9648 322.59 55.9648C322.203 55.9648 321.891 55.8535 321.652 55.6309C321.418 55.4043 321.297 55.1094 321.289 54.7461V54.4824ZM325.484 54.4824C325.484 54.1113 325.602 53.8086 325.836 53.5742C326.074 53.3359 326.389 53.2168 326.779 53.2168C327.182 53.2168 327.5 53.3359 327.734 53.5742C327.969 53.8086 328.086 54.1172 328.086 54.5V54.7168C328.086 55.084 327.969 55.3848 327.734 55.6191C327.504 55.8496 327.188 55.9648 326.785 55.9648C326.398 55.9648 326.086 55.8535 325.848 55.6309C325.613 55.4043 325.492 55.1094 325.484 54.7461V54.4824ZM329.68 54.4824C329.68 54.1113 329.797 53.8086 330.031 53.5742C330.27 53.3359 330.584 53.2168 330.975 53.2168C331.377 53.2168 331.695 53.3359 331.93 53.5742C332.164 53.8086 332.281 54.1172 332.281 54.5V54.7168C332.281 55.084 332.164 55.3848 331.93 55.6191C331.699 55.8496 331.383 55.9648 330.98 55.9648C330.594 55.9648 330.281 55.8535 330.043 55.6309C329.809 55.4043 329.688 55.1094 329.68 54.7461V54.4824ZM333.875 54.4824C333.875 54.1113 333.992 53.8086 334.227 53.5742C334.465 53.3359 334.779 53.2168 335.17 53.2168C335.572 53.2168 335.891 53.3359 336.125 53.5742C336.359 53.8086 336.477 54.1172 336.477 54.5V54.7168C336.477 55.084 336.359 55.3848 336.125 55.6191C335.895 55.8496 335.578 55.9648 335.176 55.9648C334.789 55.9648 334.477 55.8535 334.238 55.6309C334.004 55.4043 333.883 55.1094 333.875 54.7461V54.4824ZM338.07 54.4824C338.07 54.1113 338.188 53.8086 338.422 53.5742C338.66 53.3359 338.975 53.2168 339.365 53.2168C339.768 53.2168 340.086 53.3359 340.32 53.5742C340.555 53.8086 340.672 54.1172 340.672 54.5V54.7168C340.672 55.084 340.555 55.3848 340.32 55.6191C340.09 55.8496 339.773 55.9648 339.371 55.9648C338.984 55.9648 338.672 55.8535 338.434 55.6309C338.199 55.4043 338.078 55.1094 338.07 54.7461V54.4824ZM342.266 54.4824C342.266 54.1113 342.383 53.8086 342.617 53.5742C342.855 53.3359 343.17 53.2168 343.561 53.2168C343.963 53.2168 344.281 53.3359 344.516 53.5742C344.75 53.8086 344.867 54.1172 344.867 54.5V54.7168C344.867 55.084 344.75 55.3848 344.516 55.6191C344.285 55.8496 343.969 55.9648 343.566 55.9648C343.18 55.9648 342.867 55.8535 342.629 55.6309C342.395 55.4043 342.273 55.1094 342.266 54.7461V54.4824ZM346.461 54.4824C346.461 54.1113 346.578 53.8086 346.812 53.5742C347.051 53.3359 347.365 53.2168 347.756 53.2168C348.158 53.2168 348.477 53.3359 348.711 53.5742C348.945 53.8086 349.062 54.1172 349.062 54.5V54.7168C349.062 55.084 348.945 55.3848 348.711 55.6191C348.48 55.8496 348.164 55.9648 347.762 55.9648C347.375 55.9648 347.062 55.8535 346.824 55.6309C346.59 55.4043 346.469 55.1094 346.461 54.7461V54.4824ZM350.656 54.4824C350.656 54.1113 350.773 53.8086 351.008 53.5742C351.246 53.3359 351.561 53.2168 351.951 53.2168C352.354 53.2168 352.672 53.3359 352.906 53.5742C353.141 53.8086 353.258 54.1172 353.258 54.5V54.7168C353.258 55.084 353.141 55.3848 352.906 55.6191C352.676 55.8496 352.359 55.9648 351.957 55.9648C351.57 55.9648 351.258 55.8535 351.02 55.6309C350.785 55.4043 350.664 55.1094 350.656 54.7461V54.4824ZM354.852 54.4824C354.852 54.1113 354.969 53.8086 355.203 53.5742C355.441 53.3359 355.756 53.2168 356.146 53.2168C356.549 53.2168 356.867 53.3359 357.102 53.5742C357.336 53.8086 357.453 54.1172 357.453 54.5V54.7168C357.453 55.084 357.336 55.3848 357.102 55.6191C356.871 55.8496 356.555 55.9648 356.152 55.9648C355.766 55.9648 355.453 55.8535 355.215 55.6309C354.98 55.4043 354.859 55.1094 354.852 54.7461V54.4824Z" fill="#FC7DE1"/>
<rect x="57" y="105" width="10" height="4" rx="2" transform="rotate(-180 57 105)" fill="#FEDFF8"/>
<rect x="43" y="105" width="27" height="4" rx="2" transform="rotate(-180 43 105)" fill="#FEDFF8"/>
<rect x="147" y="105" width="86" height="3.99999" rx="2" transform="rotate(-180 147 105)" fill="#FEDFF8"/>
<path d="M271 181C320 181 345 152 345 128" stroke="#FFD600" stroke-width="4" stroke-linecap="round" stroke-linejoin="round"/>
</g>
<defs>
<clipPath id="clip0">
<rect width="400" height="200" fill="white"/>
</clipPath>
</defs>
</svg>
