<svg width="400" height="200" viewBox="0 0 400 200" fill="none" xmlns="http://www.w3.org/2000/svg">
<g clip-path="url(#clip0)">
<rect x="400" y="73" width="400" height="38" rx="4" transform="rotate(-180 400 73)" fill="#FE346E"/>
<rect x="400" y="11" width="97" height="3.99999" rx="2" transform="rotate(-180 400 11)" fill="#FC7DE1"/>
<rect x="299" y="11" width="27" height="4" rx="2" transform="rotate(-180 299 11)" fill="#FC7DE1"/>
<path d="M19.3594 10.9922V15H17.0156V3.625H21.4531C22.3073 3.625 23.0573 3.78125 23.7031 4.09375C24.3542 4.40625 24.8542 4.85156 25.2031 5.42969C25.5521 6.0026 25.7266 6.65625 25.7266 7.39062C25.7266 8.50521 25.3438 9.38542 24.5781 10.0312C23.8177 10.6719 22.763 10.9922 21.4141 10.9922H19.3594ZM19.3594 9.09375H21.4531C22.0729 9.09375 22.5443 8.94792 22.8672 8.65625C23.1953 8.36458 23.3594 7.94792 23.3594 7.40625C23.3594 6.84896 23.1953 6.39844 22.8672 6.05469C22.5391 5.71094 22.0859 5.53385 21.5078 5.52344H19.3594V9.09375ZM29.5781 15H27.3125V3H29.5781V15ZM36.3438 15C36.2396 14.7969 36.1641 14.5443 36.1172 14.2422C35.5703 14.8516 34.8594 15.1562 33.9844 15.1562C33.1562 15.1562 32.4688 14.9167 31.9219 14.4375C31.3802 13.9583 31.1094 13.3542 31.1094 12.625C31.1094 11.7292 31.4401 11.0417 32.1016 10.5625C32.7682 10.0833 33.7292 9.84115 34.9844 9.83594H36.0234V9.35156C36.0234 8.96094 35.9219 8.64844 35.7188 8.41406C35.5208 8.17969 35.2057 8.0625 34.7734 8.0625C34.3932 8.0625 34.0938 8.15365 33.875 8.33594C33.6615 8.51823 33.5547 8.76823 33.5547 9.08594H31.2969C31.2969 8.59635 31.4479 8.14323 31.75 7.72656C32.0521 7.3099 32.4792 6.98438 33.0312 6.75C33.5833 6.51042 34.2031 6.39062 34.8906 6.39062C35.9323 6.39062 36.7578 6.65365 37.3672 7.17969C37.9818 7.70052 38.2891 8.4349 38.2891 9.38281V13.0469C38.2943 13.849 38.4062 14.4557 38.625 14.8672V15H36.3438ZM34.4766 13.4297C34.8099 13.4297 35.1172 13.3568 35.3984 13.2109C35.6797 13.0599 35.888 12.8594 36.0234 12.6094V11.1562H35.1797C34.0495 11.1562 33.4479 11.5469 33.375 12.3281L33.3672 12.4609C33.3672 12.7422 33.4661 12.974 33.6641 13.1562C33.862 13.3385 34.1328 13.4297 34.4766 13.4297ZM42.1016 6.54688L42.1719 7.52344C42.776 6.76823 43.5859 6.39062 44.6016 6.39062C45.4974 6.39062 46.1641 6.65365 46.6016 7.17969C47.0391 7.70573 47.263 8.49219 47.2734 9.53906V15H45.0156V9.59375C45.0156 9.11458 44.9115 8.76823 44.7031 8.55469C44.4948 8.33594 44.1484 8.22656 43.6641 8.22656C43.0286 8.22656 42.5521 8.4974 42.2344 9.03906V15H39.9766V6.54688H42.1016ZM52.8828 15.1562C51.6432 15.1562 50.6328 14.776 49.8516 14.0156C49.0755 13.2552 48.6875 12.2422 48.6875 10.9766V10.7578C48.6875 9.90885 48.8516 9.15104 49.1797 8.48438C49.5078 7.8125 49.9714 7.29688 50.5703 6.9375C51.1745 6.57292 51.862 6.39062 52.6328 6.39062C53.7891 6.39062 54.6979 6.75521 55.3594 7.48438C56.026 8.21354 56.3594 9.2474 56.3594 10.5859V11.5078H50.9766C51.0495 12.0599 51.2682 12.5026 51.6328 12.8359C52.0026 13.1693 52.4688 13.3359 53.0312 13.3359C53.901 13.3359 54.5807 13.0208 55.0703 12.3906L56.1797 13.6328C55.8411 14.112 55.3828 14.487 54.8047 14.7578C54.2266 15.0234 53.5859 15.1562 52.8828 15.1562ZM52.625 8.21875C52.1771 8.21875 51.8125 8.36979 51.5312 8.67188C51.2552 8.97396 51.0781 9.40625 51 9.96875H54.1406V9.78906C54.1302 9.28906 53.9948 8.90365 53.7344 8.63281C53.474 8.35677 53.1042 8.21875 52.625 8.21875ZM60.3516 4.46875V6.54688H61.7969V8.20312H60.3516V12.4219C60.3516 12.7344 60.4115 12.9583 60.5312 13.0938C60.651 13.2292 60.8802 13.2969 61.2188 13.2969C61.4688 13.2969 61.6901 13.2786 61.8828 13.2422V14.9531C61.4401 15.0885 60.9844 15.1562 60.5156 15.1562C58.9323 15.1562 58.125 14.3568 58.0938 12.7578V8.20312H56.8594V6.54688H58.0938V4.46875H60.3516ZM67.6328 12.6641C67.6328 12.388 67.4948 12.1719 67.2188 12.0156C66.9479 11.8542 66.5104 11.7109 65.9062 11.5859C63.8958 11.1641 62.8906 10.3099 62.8906 9.02344C62.8906 8.27344 63.2005 7.64844 63.8203 7.14844C64.4453 6.64323 65.2604 6.39062 66.2656 6.39062C67.3385 6.39062 68.1953 6.64323 68.8359 7.14844C69.4818 7.65365 69.8047 8.3099 69.8047 9.11719H67.5469C67.5469 8.79427 67.4427 8.52865 67.2344 8.32031C67.026 8.10677 66.7005 8 66.2578 8C65.8776 8 65.5833 8.08594 65.375 8.25781C65.1667 8.42969 65.0625 8.64844 65.0625 8.91406C65.0625 9.16406 65.1797 9.36719 65.4141 9.52344C65.6536 9.67448 66.0547 9.80729 66.6172 9.92188C67.1797 10.0312 67.6536 10.1562 68.0391 10.2969C69.2318 10.7344 69.8281 11.4922 69.8281 12.5703C69.8281 13.3411 69.4974 13.9661 68.8359 14.4453C68.1745 14.9193 67.3203 15.1562 66.2734 15.1562C65.5651 15.1562 64.9349 15.0312 64.3828 14.7812C63.8359 14.526 63.4062 14.1797 63.0938 13.7422C62.7812 13.2995 62.625 12.8229 62.625 12.3125H64.7656C64.7865 12.7135 64.9349 13.0208 65.2109 13.2344C65.487 13.4479 65.8568 13.5547 66.3203 13.5547C66.7526 13.5547 67.0781 13.474 67.2969 13.3125C67.5208 13.1458 67.6328 12.9297 67.6328 12.6641Z" fill="#FE346E"/>
<rect x="400" y="115" width="400" height="38" rx="4" transform="rotate(-180 400 115)" fill="#FE346E"/>
<rect x="400" y="157" width="400" height="38" rx="4" transform="rotate(-180 400 157)" fill="#8B30FF"/>
<rect x="400" y="199" width="400" height="38" rx="4" transform="rotate(-180 400 199)" fill="#FE346E"/>
<path d="M19.0586 49.4688L21.25 55.6562L23.4297 49.4688H25.7383V58H23.9746V55.668L24.1504 51.6426L21.8477 58H20.6406L18.3438 51.6484L18.5195 55.668V58H16.7617V49.4688H19.0586ZM30.0801 58.1172C29.1504 58.1172 28.3926 57.832 27.8066 57.2617C27.2246 56.6914 26.9336 55.9316 26.9336 54.9824V54.8184C26.9336 54.1816 27.0566 53.6133 27.3027 53.1133C27.5488 52.6094 27.8965 52.2227 28.3457 51.9531C28.7988 51.6797 29.3145 51.543 29.8926 51.543C30.7598 51.543 31.4414 51.8164 31.9375 52.3633C32.4375 52.9102 32.6875 53.6855 32.6875 54.6895V55.3809H28.6504C28.7051 55.7949 28.8691 56.127 29.1426 56.377C29.4199 56.627 29.7695 56.752 30.1914 56.752C30.8438 56.752 31.3535 56.5156 31.7207 56.043L32.5527 56.9746C32.2988 57.334 31.9551 57.6152 31.5215 57.8184C31.0879 58.0176 30.6074 58.1172 30.0801 58.1172ZM29.8867 52.9141C29.5508 52.9141 29.2773 53.0273 29.0664 53.2539C28.8594 53.4805 28.7266 53.8047 28.668 54.2266H31.0234V54.0918C31.0156 53.7168 30.9141 53.4277 30.7188 53.2246C30.5234 53.0176 30.2461 52.9141 29.8867 52.9141ZM37.2168 53.248C36.9863 53.2168 36.7832 53.2012 36.6074 53.2012C35.9668 53.2012 35.5469 53.418 35.3477 53.8516V58H33.6543V51.6602H35.2539L35.3008 52.416C35.6406 51.834 36.1113 51.543 36.7129 51.543C36.9004 51.543 37.0762 51.5684 37.2402 51.6191L37.2168 53.248ZM40.5566 56.752C40.8691 56.752 41.123 56.666 41.3184 56.4941C41.5137 56.3223 41.6152 56.0938 41.623 55.8086H43.2109C43.207 56.2383 43.0898 56.6328 42.8594 56.9922C42.6289 57.3477 42.3125 57.625 41.9102 57.8242C41.5117 58.0195 41.0703 58.1172 40.5859 58.1172C39.6797 58.1172 38.9648 57.8301 38.4414 57.2559C37.918 56.6777 37.6562 55.8809 37.6562 54.8652V54.7539C37.6562 53.7773 37.916 52.998 38.4355 52.416C38.9551 51.834 39.668 51.543 40.5742 51.543C41.3672 51.543 42.002 51.7695 42.4785 52.2227C42.959 52.6719 43.2031 53.2715 43.2109 54.0215H41.623C41.6152 53.6934 41.5137 53.4277 41.3184 53.2246C41.123 53.0176 40.8652 52.9141 40.5449 52.9141C40.1504 52.9141 39.8516 53.0586 39.6484 53.3477C39.4492 53.6328 39.3496 54.0977 39.3496 54.7422V54.918C39.3496 55.5703 39.4492 56.0391 39.6484 56.3242C39.8477 56.6094 40.1504 56.752 40.5566 56.752ZM47.9746 57.3555C47.5566 57.8633 46.9785 58.1172 46.2402 58.1172C45.5605 58.1172 45.041 57.9219 44.6816 57.5312C44.3262 57.1406 44.1445 56.5684 44.1367 55.8145V51.6602H45.8301V55.7559C45.8301 56.416 46.1309 56.7461 46.7324 56.7461C47.3066 56.7461 47.7012 56.5469 47.916 56.1484V51.6602H49.6152V58H48.0215L47.9746 57.3555ZM54.4551 53.248C54.2246 53.2168 54.0215 53.2012 53.8457 53.2012C53.2051 53.2012 52.7852 53.418 52.5859 53.8516V58H50.8926V51.6602H52.4922L52.5391 52.416C52.8789 51.834 53.3496 51.543 53.9512 51.543C54.1387 51.543 54.3145 51.5684 54.4785 51.6191L54.4551 53.248ZM57.748 55.6035L58.9199 51.6602H60.7363L58.1875 58.9844L58.0469 59.3184C57.668 60.1465 57.043 60.5605 56.1719 60.5605C55.9258 60.5605 55.6758 60.5234 55.4219 60.4492V59.166L55.6797 59.1719C56 59.1719 56.2383 59.123 56.3945 59.0254C56.5547 58.9277 56.6797 58.7656 56.7695 58.5391L56.9688 58.0176L54.748 51.6602H56.5703L57.748 55.6035Z" fill="white"/>
<path d="M19.9141 97.8848L21.8477 91.4688H23.8047L20.834 100H19L16.041 91.4688H17.9922L19.9141 97.8848ZM27.1621 100.117C26.2324 100.117 25.4746 99.832 24.8887 99.2617C24.3066 98.6914 24.0156 97.9316 24.0156 96.9824V96.8184C24.0156 96.1816 24.1387 95.6133 24.3848 95.1133C24.6309 94.6094 24.9785 94.2227 25.4277 93.9531C25.8809 93.6797 26.3965 93.543 26.9746 93.543C27.8418 93.543 28.5234 93.8164 29.0195 94.3633C29.5195 94.9102 29.7695 95.6855 29.7695 96.6895V97.3809H25.7324C25.7871 97.7949 25.9512 98.127 26.2246 98.377C26.502 98.627 26.8516 98.752 27.2734 98.752C27.9258 98.752 28.4355 98.5156 28.8027 98.043L29.6348 98.9746C29.3809 99.334 29.0371 99.6152 28.6035 99.8184C28.1699 100.018 27.6895 100.117 27.1621 100.117ZM26.9688 94.9141C26.6328 94.9141 26.3594 95.0273 26.1484 95.2539C25.9414 95.4805 25.8086 95.8047 25.75 96.2266H28.1055V96.0918C28.0977 95.7168 27.9961 95.4277 27.8008 95.2246C27.6055 95.0176 27.3281 94.9141 26.9688 94.9141ZM32.2949 93.6602L32.3477 94.3926C32.8008 93.8262 33.4082 93.543 34.1699 93.543C34.8418 93.543 35.3418 93.7402 35.6699 94.1348C35.998 94.5293 36.166 95.1191 36.1738 95.9043V100H34.4805V95.9453C34.4805 95.5859 34.4023 95.3262 34.2461 95.166C34.0898 95.002 33.8301 94.9199 33.4668 94.9199C32.9902 94.9199 32.6328 95.123 32.3945 95.5293V100H30.7012V93.6602H32.2949ZM41.2598 99.3555C40.8418 99.8633 40.2637 100.117 39.5254 100.117C38.8457 100.117 38.3262 99.9219 37.9668 99.5312C37.6113 99.1406 37.4297 98.5684 37.4219 97.8145V93.6602H39.1152V97.7559C39.1152 98.416 39.416 98.7461 40.0176 98.7461C40.5918 98.7461 40.9863 98.5469 41.2012 98.1484V93.6602H42.9004V100H41.3066L41.2598 99.3555ZM47.6113 98.248C47.6113 98.041 47.5078 97.8789 47.3008 97.7617C47.0977 97.6406 46.7695 97.5332 46.3164 97.4395C44.8086 97.123 44.0547 96.4824 44.0547 95.5176C44.0547 94.9551 44.2871 94.4863 44.752 94.1113C45.2207 93.7324 45.832 93.543 46.5859 93.543C47.3906 93.543 48.0332 93.7324 48.5137 94.1113C48.998 94.4902 49.2402 94.9824 49.2402 95.5879H47.5469C47.5469 95.3457 47.4688 95.1465 47.3125 94.9902C47.1562 94.8301 46.9121 94.75 46.5801 94.75C46.2949 94.75 46.0742 94.8145 45.918 94.9434C45.7617 95.0723 45.6836 95.2363 45.6836 95.4355C45.6836 95.623 45.7715 95.7754 45.9473 95.8926C46.127 96.0059 46.4277 96.1055 46.8496 96.1914C47.2715 96.2734 47.627 96.3672 47.916 96.4727C48.8105 96.8008 49.2578 97.3691 49.2578 98.1777C49.2578 98.7559 49.0098 99.2246 48.5137 99.584C48.0176 99.9395 47.377 100.117 46.5918 100.117C46.0605 100.117 45.5879 100.023 45.1738 99.8359C44.7637 99.6445 44.4414 99.3848 44.207 99.0566C43.9727 98.7246 43.8555 98.3672 43.8555 97.9844H45.4609C45.4766 98.2852 45.5879 98.5156 45.7949 98.6758C46.002 98.8359 46.2793 98.916 46.627 98.916C46.9512 98.916 47.1953 98.8555 47.3594 98.7344C47.5273 98.6094 47.6113 98.4473 47.6113 98.248Z" fill="white"/>
<path d="M21.8945 138.303H18.5195V140.588H22.4805V142H16.7617V133.469H22.4688V134.893H18.5195V136.926H21.8945V138.303ZM27.0742 142C26.9961 141.848 26.9395 141.658 26.9043 141.432C26.4941 141.889 25.9609 142.117 25.3047 142.117C24.6836 142.117 24.168 141.938 23.7578 141.578C23.3516 141.219 23.1484 140.766 23.1484 140.219C23.1484 139.547 23.3965 139.031 23.8926 138.672C24.3926 138.312 25.1133 138.131 26.0547 138.127H26.834V137.764C26.834 137.471 26.7578 137.236 26.6055 137.061C26.457 136.885 26.2207 136.797 25.8965 136.797C25.6113 136.797 25.3867 136.865 25.2227 137.002C25.0625 137.139 24.9824 137.326 24.9824 137.564H23.2891C23.2891 137.197 23.4023 136.857 23.6289 136.545C23.8555 136.232 24.1758 135.988 24.5898 135.812C25.0039 135.633 25.4688 135.543 25.9844 135.543C26.7656 135.543 27.3848 135.74 27.8418 136.135C28.3027 136.525 28.5332 137.076 28.5332 137.787V140.535C28.5371 141.137 28.6211 141.592 28.7852 141.9V142H27.0742ZM25.6738 140.822C25.9238 140.822 26.1543 140.768 26.3652 140.658C26.5762 140.545 26.7324 140.395 26.834 140.207V139.117H26.2012C25.3535 139.117 24.9023 139.41 24.8477 139.996L24.8418 140.096C24.8418 140.307 24.916 140.48 25.0645 140.617C25.2129 140.754 25.416 140.822 25.6738 140.822ZM33.3965 137.248C33.166 137.217 32.9629 137.201 32.7871 137.201C32.1465 137.201 31.7266 137.418 31.5273 137.852V142H29.834V135.66H31.4336L31.4805 136.416C31.8203 135.834 32.291 135.543 32.8926 135.543C33.0801 135.543 33.2559 135.568 33.4199 135.619L33.3965 137.248ZM36.5371 134.102V135.66H37.6211V136.902H36.5371V140.066C36.5371 140.301 36.582 140.469 36.6719 140.57C36.7617 140.672 36.9336 140.723 37.1875 140.723C37.375 140.723 37.541 140.709 37.6855 140.682V141.965C37.3535 142.066 37.0117 142.117 36.6602 142.117C35.4727 142.117 34.8672 141.518 34.8438 140.318V136.902H33.918V135.66H34.8438V134.102H36.5371ZM40.2168 136.352C40.666 135.812 41.2305 135.543 41.9102 135.543C43.2852 135.543 43.9824 136.342 44.002 137.939V142H42.3086V137.986C42.3086 137.623 42.2305 137.355 42.0742 137.184C41.918 137.008 41.6582 136.92 41.2949 136.92C40.7988 136.92 40.4395 137.111 40.2168 137.494V142H38.5234V133H40.2168V136.352Z" fill="white"/>
<path d="M19.0586 175.469L21.25 181.656L23.4297 175.469H25.7383V184H23.9746V181.668L24.1504 177.643L21.8477 184H20.6406L18.3438 177.648L18.5195 181.668V184H16.7617V175.469H19.0586ZM30.8359 184C30.7578 183.848 30.7012 183.658 30.666 183.432C30.2559 183.889 29.7227 184.117 29.0664 184.117C28.4453 184.117 27.9297 183.938 27.5195 183.578C27.1133 183.219 26.9102 182.766 26.9102 182.219C26.9102 181.547 27.1582 181.031 27.6543 180.672C28.1543 180.312 28.875 180.131 29.8164 180.127H30.5957V179.764C30.5957 179.471 30.5195 179.236 30.3672 179.061C30.2188 178.885 29.9824 178.797 29.6582 178.797C29.373 178.797 29.1484 178.865 28.9844 179.002C28.8242 179.139 28.7441 179.326 28.7441 179.564H27.0508C27.0508 179.197 27.1641 178.857 27.3906 178.545C27.6172 178.232 27.9375 177.988 28.3516 177.812C28.7656 177.633 29.2305 177.543 29.7461 177.543C30.5273 177.543 31.1465 177.74 31.6035 178.135C32.0645 178.525 32.2949 179.076 32.2949 179.787V182.535C32.2988 183.137 32.3828 183.592 32.5469 183.9V184H30.8359ZM29.4355 182.822C29.6855 182.822 29.916 182.768 30.127 182.658C30.3379 182.545 30.4941 182.395 30.5957 182.207V181.117H29.9629C29.1152 181.117 28.6641 181.41 28.6094 181.996L28.6035 182.096C28.6035 182.307 28.6777 182.48 28.8262 182.617C28.9746 182.754 29.1777 182.822 29.4355 182.822ZM37.1582 179.248C36.9277 179.217 36.7246 179.201 36.5488 179.201C35.9082 179.201 35.4883 179.418 35.2891 179.852V184H33.5957V177.66H35.1953L35.2422 178.416C35.582 177.834 36.0527 177.543 36.6543 177.543C36.8418 177.543 37.0176 177.568 37.1816 177.619L37.1582 179.248ZM41.4121 182.248C41.4121 182.041 41.3086 181.879 41.1016 181.762C40.8984 181.641 40.5703 181.533 40.1172 181.439C38.6094 181.123 37.8555 180.482 37.8555 179.518C37.8555 178.955 38.0879 178.486 38.5527 178.111C39.0215 177.732 39.6328 177.543 40.3867 177.543C41.1914 177.543 41.834 177.732 42.3145 178.111C42.7988 178.49 43.041 178.982 43.041 179.588H41.3477C41.3477 179.346 41.2695 179.146 41.1133 178.99C40.957 178.83 40.7129 178.75 40.3809 178.75C40.0957 178.75 39.875 178.814 39.7188 178.943C39.5625 179.072 39.4844 179.236 39.4844 179.436C39.4844 179.623 39.5723 179.775 39.748 179.893C39.9277 180.006 40.2285 180.105 40.6504 180.191C41.0723 180.273 41.4277 180.367 41.7168 180.473C42.6113 180.801 43.0586 181.369 43.0586 182.178C43.0586 182.756 42.8105 183.225 42.3145 183.584C41.8184 183.939 41.1777 184.117 40.3926 184.117C39.8613 184.117 39.3887 184.023 38.9746 183.836C38.5645 183.645 38.2422 183.385 38.0078 183.057C37.7734 182.725 37.6562 182.367 37.6562 181.984H39.2617C39.2773 182.285 39.3887 182.516 39.5957 182.676C39.8027 182.836 40.0801 182.916 40.4277 182.916C40.752 182.916 40.9961 182.855 41.1602 182.734C41.3281 182.609 41.4121 182.447 41.4121 182.248Z" fill="white"/>
<path d="M120.199 54.4082C120.199 55.6348 119.969 56.5605 119.508 57.1855C119.051 57.8066 118.354 58.1172 117.416 58.1172C116.494 58.1172 115.799 57.8145 115.33 57.209C114.865 56.5996 114.627 55.6992 114.615 54.5078V53.0312C114.615 51.8047 114.844 50.8848 115.301 50.2715C115.762 49.6582 116.463 49.3516 117.404 49.3516C118.338 49.3516 119.033 49.6504 119.49 50.248C119.951 50.8457 120.188 51.7402 120.199 52.9316V54.4082ZM118.775 52.8145C118.775 52.0137 118.666 51.4277 118.447 51.0566C118.229 50.6816 117.881 50.4941 117.404 50.4941C116.939 50.4941 116.598 50.6719 116.379 51.0273C116.16 51.3789 116.045 51.9297 116.033 52.6797V54.6133C116.033 55.4102 116.145 56.0039 116.367 56.3945C116.59 56.7852 116.939 56.9805 117.416 56.9805C117.873 56.9805 118.211 56.8008 118.43 56.4414C118.648 56.0781 118.764 55.5117 118.775 54.7422V52.8145ZM122.438 56.5C122.703 56.5 122.908 56.5762 123.053 56.7285C123.197 56.877 123.27 57.0645 123.27 57.291C123.27 57.5137 123.197 57.6992 123.053 57.8477C122.908 57.9922 122.703 58.0645 122.438 58.0645C122.184 58.0645 121.982 57.9922 121.834 57.8477C121.686 57.7031 121.611 57.5176 121.611 57.291C121.611 57.0645 121.684 56.877 121.828 56.7285C121.973 56.5762 122.176 56.5 122.438 56.5ZM128.666 58H127.248V51.1504L125.156 51.8652V50.6641L128.484 49.4395H128.666V58ZM136.447 54.959H137.508V56.1016H136.447V58H135.023V56.1016H131.338L131.297 55.2344L134.977 49.4688H136.447V54.959ZM132.791 54.959H135.023V51.3965L134.918 51.584L132.791 54.959ZM144.129 50.2598L140.719 58H139.225L142.629 50.6113H138.217V49.4688H144.129V50.2598ZM153.475 54.1914H149.971V56.8164H154.066V58H148.488V49.4688H154.025V50.6641H149.971V53.0195H153.475V54.1914ZM158.924 58C158.861 57.8789 158.807 57.6816 158.76 57.4082C158.307 57.8809 157.752 58.1172 157.096 58.1172C156.459 58.1172 155.939 57.9355 155.537 57.5723C155.135 57.209 154.934 56.7598 154.934 56.2246C154.934 55.5488 155.184 55.0312 155.684 54.6719C156.188 54.3086 156.906 54.127 157.84 54.127H158.713V53.7109C158.713 53.3828 158.621 53.1211 158.438 52.9258C158.254 52.7266 157.975 52.627 157.6 52.627C157.275 52.627 157.01 52.709 156.803 52.873C156.596 53.0332 156.492 53.2383 156.492 53.4883H155.068C155.068 53.1406 155.184 52.8164 155.414 52.5156C155.645 52.2109 155.957 51.9727 156.352 51.8008C156.75 51.6289 157.193 51.543 157.682 51.543C158.424 51.543 159.016 51.7305 159.457 52.1055C159.898 52.4766 160.125 53 160.137 53.6758V56.5352C160.137 57.1055 160.217 57.5605 160.377 57.9004V58H158.924ZM157.359 56.9746C157.641 56.9746 157.904 56.9062 158.15 56.7695C158.4 56.6328 158.588 56.4492 158.713 56.2188V55.0234H157.945C157.418 55.0234 157.021 55.1152 156.756 55.2988C156.49 55.4824 156.357 55.7422 156.357 56.0781C156.357 56.3516 156.447 56.5703 156.627 56.7344C156.811 56.8945 157.055 56.9746 157.359 56.9746ZM164.947 52.9609C164.76 52.9297 164.566 52.9141 164.367 52.9141C163.715 52.9141 163.275 53.1641 163.049 53.6641V58H161.625V51.6602H162.984L163.02 52.3691C163.363 51.8184 163.84 51.543 164.449 51.543C164.652 51.543 164.82 51.5703 164.953 51.625L164.947 52.9609ZM167.924 50.1191V51.6602H169.043V52.7148H167.924V56.2539C167.924 56.4961 167.971 56.6719 168.064 56.7812C168.162 56.8867 168.334 56.9395 168.58 56.9395C168.744 56.9395 168.91 56.9199 169.078 56.8809V57.9824C168.754 58.0723 168.441 58.1172 168.141 58.1172C167.047 58.1172 166.5 57.5137 166.5 56.3066V52.7148H165.457V51.6602H166.5V50.1191H167.924ZM171.539 52.3516C172.004 51.8125 172.592 51.543 173.303 51.543C174.654 51.543 175.34 52.3145 175.359 53.8574V58H173.936V53.9102C173.936 53.4727 173.84 53.1641 173.648 52.9844C173.461 52.8008 173.184 52.709 172.816 52.709C172.246 52.709 171.82 52.9629 171.539 53.4707V58H170.115V49H171.539V52.3516ZM180.357 56.2773C180.357 56.0234 180.252 55.8301 180.041 55.6973C179.834 55.5645 179.488 55.4473 179.004 55.3457C178.52 55.2441 178.115 55.1152 177.791 54.959C177.08 54.6152 176.725 54.1172 176.725 53.4648C176.725 52.918 176.955 52.4609 177.416 52.0938C177.877 51.7266 178.463 51.543 179.174 51.543C179.932 51.543 180.543 51.7305 181.008 52.1055C181.477 52.4805 181.711 52.9668 181.711 53.5645H180.287C180.287 53.291 180.186 53.0645 179.982 52.8848C179.779 52.7012 179.51 52.6094 179.174 52.6094C178.861 52.6094 178.605 52.6816 178.406 52.8262C178.211 52.9707 178.113 53.1641 178.113 53.4062C178.113 53.625 178.205 53.7949 178.389 53.916C178.572 54.0371 178.943 54.1602 179.502 54.2852C180.061 54.4062 180.498 54.5527 180.814 54.7246C181.135 54.8926 181.371 55.0957 181.523 55.334C181.68 55.5723 181.758 55.8613 181.758 56.2012C181.758 56.7715 181.521 57.2344 181.049 57.5898C180.576 57.9414 179.957 58.1172 179.191 58.1172C178.672 58.1172 178.209 58.0234 177.803 57.8359C177.396 57.6484 177.08 57.3906 176.854 57.0625C176.627 56.7344 176.514 56.3809 176.514 56.002H177.896C177.916 56.3379 178.043 56.5977 178.277 56.7812C178.512 56.9609 178.822 57.0508 179.209 57.0508C179.584 57.0508 179.869 56.9805 180.064 56.8398C180.26 56.6953 180.357 56.5078 180.357 56.2773Z" fill="white"/>
<path d="M120.199 96.4082C120.199 97.6348 119.969 98.5605 119.508 99.1855C119.051 99.8066 118.354 100.117 117.416 100.117C116.494 100.117 115.799 99.8145 115.33 99.209C114.865 98.5996 114.627 97.6992 114.615 96.5078V95.0312C114.615 93.8047 114.844 92.8848 115.301 92.2715C115.762 91.6582 116.463 91.3516 117.404 91.3516C118.338 91.3516 119.033 91.6504 119.49 92.248C119.951 92.8457 120.188 93.7402 120.199 94.9316V96.4082ZM118.775 94.8145C118.775 94.0137 118.666 93.4277 118.447 93.0566C118.229 92.6816 117.881 92.4941 117.404 92.4941C116.939 92.4941 116.598 92.6719 116.379 93.0273C116.16 93.3789 116.045 93.9297 116.033 94.6797V96.6133C116.033 97.4102 116.145 98.0039 116.367 98.3945C116.59 98.7852 116.939 98.9805 117.416 98.9805C117.873 98.9805 118.211 98.8008 118.43 98.4414C118.648 98.0781 118.764 97.5117 118.775 96.7422V94.8145ZM122.438 98.5C122.703 98.5 122.908 98.5762 123.053 98.7285C123.197 98.877 123.27 99.0645 123.27 99.291C123.27 99.5137 123.197 99.6992 123.053 99.8477C122.908 99.9922 122.703 100.064 122.438 100.064C122.184 100.064 121.982 99.9922 121.834 99.8477C121.686 99.7031 121.611 99.5176 121.611 99.291C121.611 99.0645 121.684 98.877 121.828 98.7285C121.973 98.5762 122.176 98.5 122.438 98.5ZM128.848 96.4316C128.371 96.9355 127.814 97.1875 127.178 97.1875C126.428 97.1875 125.83 96.9258 125.385 96.4023C124.939 95.875 124.717 95.1836 124.717 94.3281C124.717 93.7656 124.83 93.2559 125.057 92.7988C125.283 92.3418 125.605 91.9863 126.023 91.7324C126.441 91.4785 126.926 91.3516 127.477 91.3516C128.336 91.3516 129.018 91.6719 129.521 92.3125C130.025 92.9531 130.277 93.8105 130.277 94.8848V95.2832C130.277 96.8223 129.93 97.9961 129.234 98.8047C128.539 99.6133 127.502 100.023 126.123 100.035H125.953V98.8574H126.158C126.998 98.8457 127.643 98.6445 128.092 98.2539C128.541 97.8594 128.793 97.252 128.848 96.4316ZM127.477 96.0742C127.762 96.0742 128.029 95.9922 128.279 95.8281C128.529 95.6641 128.723 95.4375 128.859 95.1484V94.5918C128.859 93.9629 128.73 93.457 128.473 93.0742C128.215 92.6914 127.881 92.5 127.471 92.5C127.061 92.5 126.732 92.6699 126.486 93.0098C126.244 93.3457 126.123 93.7715 126.123 94.2871C126.123 94.8223 126.246 95.2539 126.492 95.582C126.738 95.9102 127.066 96.0742 127.477 96.0742ZM137.191 96.4082C137.191 97.6348 136.961 98.5605 136.5 99.1855C136.043 99.8066 135.346 100.117 134.408 100.117C133.486 100.117 132.791 99.8145 132.322 99.209C131.857 98.5996 131.619 97.6992 131.607 96.5078V95.0312C131.607 93.8047 131.836 92.8848 132.293 92.2715C132.754 91.6582 133.455 91.3516 134.396 91.3516C135.33 91.3516 136.025 91.6504 136.482 92.248C136.943 92.8457 137.18 93.7402 137.191 94.9316V96.4082ZM135.768 94.8145C135.768 94.0137 135.658 93.4277 135.439 93.0566C135.221 92.6816 134.873 92.4941 134.396 92.4941C133.932 92.4941 133.59 92.6719 133.371 93.0273C133.152 93.3789 133.037 93.9297 133.025 94.6797V96.6133C133.025 97.4102 133.137 98.0039 133.359 98.3945C133.582 98.7852 133.932 98.9805 134.408 98.9805C134.865 98.9805 135.203 98.8008 135.422 98.4414C135.641 98.0781 135.756 97.5117 135.768 96.7422V94.8145ZM144.188 100H138.451V99.0215L141.293 95.9219C141.703 95.4648 141.994 95.084 142.166 94.7793C142.342 94.4707 142.43 94.1621 142.43 93.8535C142.43 93.4473 142.314 93.1191 142.084 92.8691C141.857 92.6191 141.551 92.4941 141.164 92.4941C140.703 92.4941 140.346 92.6348 140.092 92.916C139.838 93.1973 139.711 93.582 139.711 94.0703H138.287C138.287 93.5508 138.404 93.084 138.639 92.6699C138.877 92.252 139.215 91.9277 139.652 91.6973C140.094 91.4668 140.602 91.3516 141.176 91.3516C142.004 91.3516 142.656 91.5605 143.133 91.9785C143.613 92.3926 143.854 92.9668 143.854 93.7012C143.854 94.127 143.732 94.5742 143.49 95.043C143.252 95.5078 142.859 96.0371 142.312 96.6309L140.227 98.8633H144.188V100ZM153.475 96.1914H149.971V98.8164H154.066V100H148.488V91.4688H154.025V92.6641H149.971V95.0195H153.475V96.1914ZM158.924 100C158.861 99.8789 158.807 99.6816 158.76 99.4082C158.307 99.8809 157.752 100.117 157.096 100.117C156.459 100.117 155.939 99.9355 155.537 99.5723C155.135 99.209 154.934 98.7598 154.934 98.2246C154.934 97.5488 155.184 97.0312 155.684 96.6719C156.188 96.3086 156.906 96.127 157.84 96.127H158.713V95.7109C158.713 95.3828 158.621 95.1211 158.438 94.9258C158.254 94.7266 157.975 94.627 157.6 94.627C157.275 94.627 157.01 94.709 156.803 94.873C156.596 95.0332 156.492 95.2383 156.492 95.4883H155.068C155.068 95.1406 155.184 94.8164 155.414 94.5156C155.645 94.2109 155.957 93.9727 156.352 93.8008C156.75 93.6289 157.193 93.543 157.682 93.543C158.424 93.543 159.016 93.7305 159.457 94.1055C159.898 94.4766 160.125 95 160.137 95.6758V98.5352C160.137 99.1055 160.217 99.5605 160.377 99.9004V100H158.924ZM157.359 98.9746C157.641 98.9746 157.904 98.9062 158.15 98.7695C158.4 98.6328 158.588 98.4492 158.713 98.2188V97.0234H157.945C157.418 97.0234 157.021 97.1152 156.756 97.2988C156.49 97.4824 156.357 97.7422 156.357 98.0781C156.357 98.3516 156.447 98.5703 156.627 98.7344C156.811 98.8945 157.055 98.9746 157.359 98.9746ZM164.947 94.9609C164.76 94.9297 164.566 94.9141 164.367 94.9141C163.715 94.9141 163.275 95.1641 163.049 95.6641V100H161.625V93.6602H162.984L163.02 94.3691C163.363 93.8184 163.84 93.543 164.449 93.543C164.652 93.543 164.82 93.5703 164.953 93.625L164.947 94.9609ZM167.924 92.1191V93.6602H169.043V94.7148H167.924V98.2539C167.924 98.4961 167.971 98.6719 168.064 98.7812C168.162 98.8867 168.334 98.9395 168.58 98.9395C168.744 98.9395 168.91 98.9199 169.078 98.8809V99.9824C168.754 100.072 168.441 100.117 168.141 100.117C167.047 100.117 166.5 99.5137 166.5 98.3066V94.7148H165.457V93.6602H166.5V92.1191H167.924ZM171.539 94.3516C172.004 93.8125 172.592 93.543 173.303 93.543C174.654 93.543 175.34 94.3145 175.359 95.8574V100H173.936V95.9102C173.936 95.4727 173.84 95.1641 173.648 94.9844C173.461 94.8008 173.184 94.709 172.816 94.709C172.246 94.709 171.82 94.9629 171.539 95.4707V100H170.115V91H171.539V94.3516ZM180.357 98.2773C180.357 98.0234 180.252 97.8301 180.041 97.6973C179.834 97.5645 179.488 97.4473 179.004 97.3457C178.52 97.2441 178.115 97.1152 177.791 96.959C177.08 96.6152 176.725 96.1172 176.725 95.4648C176.725 94.918 176.955 94.4609 177.416 94.0938C177.877 93.7266 178.463 93.543 179.174 93.543C179.932 93.543 180.543 93.7305 181.008 94.1055C181.477 94.4805 181.711 94.9668 181.711 95.5645H180.287C180.287 95.291 180.186 95.0645 179.982 94.8848C179.779 94.7012 179.51 94.6094 179.174 94.6094C178.861 94.6094 178.605 94.6816 178.406 94.8262C178.211 94.9707 178.113 95.1641 178.113 95.4062C178.113 95.625 178.205 95.7949 178.389 95.916C178.572 96.0371 178.943 96.1602 179.502 96.2852C180.061 96.4062 180.498 96.5527 180.814 96.7246C181.135 96.8926 181.371 97.0957 181.523 97.334C181.68 97.5723 181.758 97.8613 181.758 98.2012C181.758 98.7715 181.521 99.2344 181.049 99.5898C180.576 99.9414 179.957 100.117 179.191 100.117C178.672 100.117 178.209 100.023 177.803 99.8359C177.396 99.6484 177.08 99.3906 176.854 99.0625C176.627 98.7344 176.514 98.3809 176.514 98.002H177.896C177.916 98.3379 178.043 98.5977 178.277 98.7812C178.512 98.9609 178.822 99.0508 179.209 99.0508C179.584 99.0508 179.869 98.9805 180.064 98.8398C180.26 98.6953 180.357 98.5078 180.357 98.2773Z" fill="white"/>
<path d="M118.494 142H117.076V135.15L114.984 135.865V134.664L118.312 133.439H118.494V142ZM129.662 138.191H126.158V140.816H130.254V142H124.676V133.469H130.213V134.664H126.158V137.02H129.662V138.191ZM135.111 142C135.049 141.879 134.994 141.682 134.947 141.408C134.494 141.881 133.939 142.117 133.283 142.117C132.646 142.117 132.127 141.936 131.725 141.572C131.322 141.209 131.121 140.76 131.121 140.225C131.121 139.549 131.371 139.031 131.871 138.672C132.375 138.309 133.094 138.127 134.027 138.127H134.9V137.711C134.9 137.383 134.809 137.121 134.625 136.926C134.441 136.727 134.162 136.627 133.787 136.627C133.463 136.627 133.197 136.709 132.99 136.873C132.783 137.033 132.68 137.238 132.68 137.488H131.256C131.256 137.141 131.371 136.816 131.602 136.516C131.832 136.211 132.145 135.973 132.539 135.801C132.938 135.629 133.381 135.543 133.869 135.543C134.611 135.543 135.203 135.73 135.645 136.105C136.086 136.477 136.312 137 136.324 137.676V140.535C136.324 141.105 136.404 141.561 136.564 141.9V142H135.111ZM133.547 140.975C133.828 140.975 134.092 140.906 134.338 140.77C134.588 140.633 134.775 140.449 134.9 140.219V139.023H134.133C133.605 139.023 133.209 139.115 132.943 139.299C132.678 139.482 132.545 139.742 132.545 140.078C132.545 140.352 132.635 140.57 132.814 140.734C132.998 140.895 133.242 140.975 133.547 140.975ZM141.135 136.961C140.947 136.93 140.754 136.914 140.555 136.914C139.902 136.914 139.463 137.164 139.236 137.664V142H137.812V135.66H139.172L139.207 136.369C139.551 135.818 140.027 135.543 140.637 135.543C140.84 135.543 141.008 135.57 141.141 135.625L141.135 136.961ZM144.111 134.119V135.66H145.23V136.715H144.111V140.254C144.111 140.496 144.158 140.672 144.252 140.781C144.35 140.887 144.521 140.939 144.768 140.939C144.932 140.939 145.098 140.92 145.266 140.881V141.982C144.941 142.072 144.629 142.117 144.328 142.117C143.234 142.117 142.688 141.514 142.688 140.307V136.715H141.645V135.66H142.688V134.119H144.111ZM147.727 136.352C148.191 135.812 148.779 135.543 149.49 135.543C150.842 135.543 151.527 136.314 151.547 137.857V142H150.123V137.91C150.123 137.473 150.027 137.164 149.836 136.984C149.648 136.801 149.371 136.709 149.004 136.709C148.434 136.709 148.008 136.963 147.727 137.471V142H146.303V133H147.727V136.352ZM156.545 140.277C156.545 140.023 156.439 139.83 156.229 139.697C156.021 139.564 155.676 139.447 155.191 139.346C154.707 139.244 154.303 139.115 153.979 138.959C153.268 138.615 152.912 138.117 152.912 137.465C152.912 136.918 153.143 136.461 153.604 136.094C154.064 135.727 154.65 135.543 155.361 135.543C156.119 135.543 156.73 135.73 157.195 136.105C157.664 136.48 157.898 136.967 157.898 137.564H156.475C156.475 137.291 156.373 137.064 156.17 136.885C155.967 136.701 155.697 136.609 155.361 136.609C155.049 136.609 154.793 136.682 154.594 136.826C154.398 136.971 154.301 137.164 154.301 137.406C154.301 137.625 154.393 137.795 154.576 137.916C154.76 138.037 155.131 138.16 155.689 138.285C156.248 138.406 156.686 138.553 157.002 138.725C157.322 138.893 157.559 139.096 157.711 139.334C157.867 139.572 157.945 139.861 157.945 140.201C157.945 140.771 157.709 141.234 157.236 141.59C156.764 141.941 156.145 142.117 155.379 142.117C154.859 142.117 154.396 142.023 153.99 141.836C153.584 141.648 153.268 141.391 153.041 141.062C152.814 140.734 152.701 140.381 152.701 140.002H154.084C154.104 140.338 154.23 140.598 154.465 140.781C154.699 140.961 155.01 141.051 155.396 141.051C155.771 141.051 156.057 140.98 156.252 140.84C156.447 140.695 156.545 140.508 156.545 140.277Z" fill="white"/>
<path d="M120.199 180.408C120.199 181.635 119.969 182.561 119.508 183.186C119.051 183.807 118.354 184.117 117.416 184.117C116.494 184.117 115.799 183.814 115.33 183.209C114.865 182.6 114.627 181.699 114.615 180.508V179.031C114.615 177.805 114.844 176.885 115.301 176.271C115.762 175.658 116.463 175.352 117.404 175.352C118.338 175.352 119.033 175.65 119.49 176.248C119.951 176.846 120.188 177.74 120.199 178.932V180.408ZM118.775 178.814C118.775 178.014 118.666 177.428 118.447 177.057C118.229 176.682 117.881 176.494 117.404 176.494C116.939 176.494 116.598 176.672 116.379 177.027C116.16 177.379 116.045 177.93 116.033 178.68V180.613C116.033 181.41 116.145 182.004 116.367 182.395C116.59 182.785 116.939 182.98 117.416 182.98C117.873 182.98 118.211 182.801 118.43 182.441C118.648 182.078 118.764 181.512 118.775 180.742V178.814ZM122.438 182.5C122.703 182.5 122.908 182.576 123.053 182.729C123.197 182.877 123.27 183.064 123.27 183.291C123.27 183.514 123.197 183.699 123.053 183.848C122.908 183.992 122.703 184.064 122.438 184.064C122.184 184.064 121.982 183.992 121.834 183.848C121.686 183.703 121.611 183.518 121.611 183.291C121.611 183.064 121.684 182.877 121.828 182.729C121.973 182.576 122.176 182.5 122.438 182.5ZM130.547 184H124.811V183.021L127.652 179.922C128.062 179.465 128.354 179.084 128.525 178.779C128.701 178.471 128.789 178.162 128.789 177.854C128.789 177.447 128.674 177.119 128.443 176.869C128.217 176.619 127.91 176.494 127.523 176.494C127.062 176.494 126.705 176.635 126.451 176.916C126.197 177.197 126.07 177.582 126.07 178.07H124.646C124.646 177.551 124.764 177.084 124.998 176.67C125.236 176.252 125.574 175.928 126.012 175.697C126.453 175.467 126.961 175.352 127.535 175.352C128.363 175.352 129.016 175.561 129.492 175.979C129.973 176.393 130.213 176.967 130.213 177.701C130.213 178.127 130.092 178.574 129.85 179.043C129.611 179.508 129.219 180.037 128.672 180.631L126.586 182.863H130.547V184ZM137.004 177.719C137.004 178.137 136.896 178.51 136.682 178.838C136.467 179.162 136.174 179.418 135.803 179.605C136.248 179.812 136.59 180.096 136.828 180.455C137.07 180.814 137.191 181.221 137.191 181.674C137.191 182.424 136.938 183.02 136.43 183.461C135.922 183.898 135.246 184.117 134.402 184.117C133.555 184.117 132.875 183.896 132.363 183.455C131.855 183.014 131.602 182.42 131.602 181.674C131.602 181.217 131.723 180.807 131.965 180.443C132.207 180.08 132.547 179.801 132.984 179.605C132.617 179.418 132.326 179.162 132.111 178.838C131.9 178.51 131.795 178.137 131.795 177.719C131.795 176.992 132.029 176.416 132.498 175.99C132.967 175.564 133.6 175.352 134.396 175.352C135.197 175.352 135.832 175.564 136.301 175.99C136.77 176.416 137.004 176.992 137.004 177.719ZM135.768 181.604C135.768 181.182 135.641 180.842 135.387 180.584C135.137 180.322 134.805 180.191 134.391 180.191C133.977 180.191 133.645 180.32 133.395 180.578C133.148 180.836 133.025 181.178 133.025 181.604C133.025 182.021 133.146 182.355 133.389 182.605C133.635 182.855 133.973 182.98 134.402 182.98C134.832 182.98 135.166 182.859 135.404 182.617C135.646 182.375 135.768 182.037 135.768 181.604ZM135.586 177.771C135.586 177.4 135.479 177.096 135.264 176.857C135.049 176.615 134.76 176.494 134.396 176.494C134.033 176.494 133.746 176.609 133.535 176.84C133.324 177.066 133.219 177.377 133.219 177.771C133.219 178.162 133.324 178.473 133.535 178.703C133.75 178.934 134.039 179.049 134.402 179.049C134.766 179.049 135.053 178.934 135.264 178.703C135.479 178.473 135.586 178.162 135.586 177.771ZM143.268 180.959H144.328V182.102H143.268V184H141.844V182.102H138.158L138.117 181.234L141.797 175.469H143.268V180.959ZM139.611 180.959H141.844V177.396L141.738 177.584L139.611 180.959ZM153.475 180.191H149.971V182.816H154.066V184H148.488V175.469H154.025V176.664H149.971V179.02H153.475V180.191ZM158.924 184C158.861 183.879 158.807 183.682 158.76 183.408C158.307 183.881 157.752 184.117 157.096 184.117C156.459 184.117 155.939 183.936 155.537 183.572C155.135 183.209 154.934 182.76 154.934 182.225C154.934 181.549 155.184 181.031 155.684 180.672C156.188 180.309 156.906 180.127 157.84 180.127H158.713V179.711C158.713 179.383 158.621 179.121 158.438 178.926C158.254 178.727 157.975 178.627 157.6 178.627C157.275 178.627 157.01 178.709 156.803 178.873C156.596 179.033 156.492 179.238 156.492 179.488H155.068C155.068 179.141 155.184 178.816 155.414 178.516C155.645 178.211 155.957 177.973 156.352 177.801C156.75 177.629 157.193 177.543 157.682 177.543C158.424 177.543 159.016 177.73 159.457 178.105C159.898 178.477 160.125 179 160.137 179.676V182.535C160.137 183.105 160.217 183.561 160.377 183.9V184H158.924ZM157.359 182.975C157.641 182.975 157.904 182.906 158.15 182.77C158.4 182.633 158.588 182.449 158.713 182.219V181.023H157.945C157.418 181.023 157.021 181.115 156.756 181.299C156.49 181.482 156.357 181.742 156.357 182.078C156.357 182.352 156.447 182.57 156.627 182.734C156.811 182.895 157.055 182.975 157.359 182.975ZM164.947 178.961C164.76 178.93 164.566 178.914 164.367 178.914C163.715 178.914 163.275 179.164 163.049 179.664V184H161.625V177.66H162.984L163.02 178.369C163.363 177.818 163.84 177.543 164.449 177.543C164.652 177.543 164.82 177.57 164.953 177.625L164.947 178.961ZM167.924 176.119V177.66H169.043V178.715H167.924V182.254C167.924 182.496 167.971 182.672 168.064 182.781C168.162 182.887 168.334 182.939 168.58 182.939C168.744 182.939 168.91 182.92 169.078 182.881V183.982C168.754 184.072 168.441 184.117 168.141 184.117C167.047 184.117 166.5 183.514 166.5 182.307V178.715H165.457V177.66H166.5V176.119H167.924ZM171.539 178.352C172.004 177.812 172.592 177.543 173.303 177.543C174.654 177.543 175.34 178.314 175.359 179.857V184H173.936V179.91C173.936 179.473 173.84 179.164 173.648 178.984C173.461 178.801 173.184 178.709 172.816 178.709C172.246 178.709 171.82 178.963 171.539 179.471V184H170.115V175H171.539V178.352ZM180.357 182.277C180.357 182.023 180.252 181.83 180.041 181.697C179.834 181.564 179.488 181.447 179.004 181.346C178.52 181.244 178.115 181.115 177.791 180.959C177.08 180.615 176.725 180.117 176.725 179.465C176.725 178.918 176.955 178.461 177.416 178.094C177.877 177.727 178.463 177.543 179.174 177.543C179.932 177.543 180.543 177.73 181.008 178.105C181.477 178.48 181.711 178.967 181.711 179.564H180.287C180.287 179.291 180.186 179.064 179.982 178.885C179.779 178.701 179.51 178.609 179.174 178.609C178.861 178.609 178.605 178.682 178.406 178.826C178.211 178.971 178.113 179.164 178.113 179.406C178.113 179.625 178.205 179.795 178.389 179.916C178.572 180.037 178.943 180.16 179.502 180.285C180.061 180.406 180.498 180.553 180.814 180.725C181.135 180.893 181.371 181.096 181.523 181.334C181.68 181.572 181.758 181.861 181.758 182.201C181.758 182.771 181.521 183.234 181.049 183.59C180.576 183.941 179.957 184.117 179.191 184.117C178.672 184.117 178.209 184.023 177.803 183.836C177.396 183.648 177.08 183.391 176.854 183.062C176.627 182.734 176.514 182.381 176.514 182.002H177.896C177.916 182.338 178.043 182.598 178.277 182.781C178.512 182.961 178.822 183.051 179.209 183.051C179.584 183.051 179.869 182.98 180.064 182.84C180.26 182.695 180.357 182.508 180.357 182.277Z" fill="white"/>
<path d="M266.316 50.2598L262.906 58H261.412L264.816 50.6113H260.404V49.4688H266.316V50.2598ZM272.275 54.959H273.336V56.1016H272.275V58H270.852V56.1016H267.166L267.125 55.2344L270.805 49.4688H272.275V54.959ZM268.619 54.959H270.852V51.3965L270.746 51.584L268.619 54.959ZM282.641 51.7188C282.641 52.1367 282.533 52.5098 282.318 52.8379C282.104 53.1621 281.811 53.418 281.439 53.6055C281.885 53.8125 282.227 54.0957 282.465 54.4551C282.707 54.8145 282.828 55.2207 282.828 55.6738C282.828 56.4238 282.574 57.0195 282.066 57.4609C281.559 57.8984 280.883 58.1172 280.039 58.1172C279.191 58.1172 278.512 57.8965 278 57.4551C277.492 57.0137 277.238 56.4199 277.238 55.6738C277.238 55.2168 277.359 54.8066 277.602 54.4434C277.844 54.0801 278.184 53.8008 278.621 53.6055C278.254 53.418 277.963 53.1621 277.748 52.8379C277.537 52.5098 277.432 52.1367 277.432 51.7188C277.432 50.9922 277.666 50.416 278.135 49.9902C278.604 49.5645 279.236 49.3516 280.033 49.3516C280.834 49.3516 281.469 49.5645 281.938 49.9902C282.406 50.416 282.641 50.9922 282.641 51.7188ZM281.404 55.6035C281.404 55.1816 281.277 54.8418 281.023 54.584C280.773 54.3223 280.441 54.1914 280.027 54.1914C279.613 54.1914 279.281 54.3203 279.031 54.5781C278.785 54.8359 278.662 55.1777 278.662 55.6035C278.662 56.0215 278.783 56.3555 279.025 56.6055C279.271 56.8555 279.609 56.9805 280.039 56.9805C280.469 56.9805 280.803 56.8594 281.041 56.6172C281.283 56.375 281.404 56.0371 281.404 55.6035ZM281.223 51.7715C281.223 51.4004 281.115 51.0957 280.9 50.8574C280.686 50.6152 280.396 50.4941 280.033 50.4941C279.67 50.4941 279.383 50.6094 279.172 50.8398C278.961 51.0664 278.855 51.377 278.855 51.7715C278.855 52.1621 278.961 52.4727 279.172 52.7031C279.387 52.9336 279.676 53.0488 280.039 53.0488C280.402 53.0488 280.689 52.9336 280.9 52.7031C281.115 52.4727 281.223 52.1621 281.223 51.7715ZM289.648 54.4082C289.648 55.6348 289.418 56.5605 288.957 57.1855C288.5 57.8066 287.803 58.1172 286.865 58.1172C285.943 58.1172 285.248 57.8145 284.779 57.209C284.314 56.5996 284.076 55.6992 284.064 54.5078V53.0312C284.064 51.8047 284.293 50.8848 284.75 50.2715C285.211 49.6582 285.912 49.3516 286.854 49.3516C287.787 49.3516 288.482 49.6504 288.939 50.248C289.4 50.8457 289.637 51.7402 289.648 52.9316V54.4082ZM288.225 52.8145C288.225 52.0137 288.115 51.4277 287.896 51.0566C287.678 50.6816 287.33 50.4941 286.854 50.4941C286.389 50.4941 286.047 50.6719 285.828 51.0273C285.609 51.3789 285.494 51.9297 285.482 52.6797V54.6133C285.482 55.4102 285.594 56.0039 285.816 56.3945C286.039 56.7852 286.389 56.9805 286.865 56.9805C287.322 56.9805 287.66 56.8008 287.879 56.4414C288.098 56.0781 288.213 55.5117 288.225 54.7422V52.8145ZM296.469 54.4082C296.469 55.6348 296.238 56.5605 295.777 57.1855C295.32 57.8066 294.623 58.1172 293.686 58.1172C292.764 58.1172 292.068 57.8145 291.6 57.209C291.135 56.5996 290.896 55.6992 290.885 54.5078V53.0312C290.885 51.8047 291.113 50.8848 291.57 50.2715C292.031 49.6582 292.732 49.3516 293.674 49.3516C294.607 49.3516 295.303 49.6504 295.76 50.248C296.221 50.8457 296.457 51.7402 296.469 52.9316V54.4082ZM295.045 52.8145C295.045 52.0137 294.936 51.4277 294.717 51.0566C294.498 50.6816 294.15 50.4941 293.674 50.4941C293.209 50.4941 292.867 50.6719 292.648 51.0273C292.43 51.3789 292.314 51.9297 292.303 52.6797V54.6133C292.303 55.4102 292.414 56.0039 292.637 56.3945C292.859 56.7852 293.209 56.9805 293.686 56.9805C294.143 56.9805 294.48 56.8008 294.699 56.4414C294.918 56.0781 295.033 55.5117 295.045 54.7422V52.8145ZM306.277 54.4082C306.277 55.6348 306.047 56.5605 305.586 57.1855C305.129 57.8066 304.432 58.1172 303.494 58.1172C302.572 58.1172 301.877 57.8145 301.408 57.209C300.943 56.5996 300.705 55.6992 300.693 54.5078V53.0312C300.693 51.8047 300.922 50.8848 301.379 50.2715C301.84 49.6582 302.541 49.3516 303.482 49.3516C304.416 49.3516 305.111 49.6504 305.568 50.248C306.029 50.8457 306.266 51.7402 306.277 52.9316V54.4082ZM304.854 52.8145C304.854 52.0137 304.744 51.4277 304.525 51.0566C304.307 50.6816 303.959 50.4941 303.482 50.4941C303.018 50.4941 302.676 50.6719 302.457 51.0273C302.238 51.3789 302.123 51.9297 302.111 52.6797V54.6133C302.111 55.4102 302.223 56.0039 302.445 56.3945C302.668 56.7852 303.018 56.9805 303.494 56.9805C303.951 56.9805 304.289 56.8008 304.508 56.4414C304.727 56.0781 304.842 55.5117 304.854 54.7422V52.8145ZM313.098 54.4082C313.098 55.6348 312.867 56.5605 312.406 57.1855C311.949 57.8066 311.252 58.1172 310.314 58.1172C309.393 58.1172 308.697 57.8145 308.229 57.209C307.764 56.5996 307.525 55.6992 307.514 54.5078V53.0312C307.514 51.8047 307.742 50.8848 308.199 50.2715C308.66 49.6582 309.361 49.3516 310.303 49.3516C311.236 49.3516 311.932 49.6504 312.389 50.248C312.85 50.8457 313.086 51.7402 313.098 52.9316V54.4082ZM311.674 52.8145C311.674 52.0137 311.564 51.4277 311.346 51.0566C311.127 50.6816 310.779 50.4941 310.303 50.4941C309.838 50.4941 309.496 50.6719 309.277 51.0273C309.059 51.3789 308.943 51.9297 308.932 52.6797V54.6133C308.932 55.4102 309.043 56.0039 309.266 56.3945C309.488 56.7852 309.838 56.9805 310.314 56.9805C310.771 56.9805 311.109 56.8008 311.328 56.4414C311.547 56.0781 311.662 55.5117 311.674 54.7422V52.8145ZM319.918 54.4082C319.918 55.6348 319.688 56.5605 319.227 57.1855C318.77 57.8066 318.072 58.1172 317.135 58.1172C316.213 58.1172 315.518 57.8145 315.049 57.209C314.584 56.5996 314.346 55.6992 314.334 54.5078V53.0312C314.334 51.8047 314.562 50.8848 315.02 50.2715C315.48 49.6582 316.182 49.3516 317.123 49.3516C318.057 49.3516 318.752 49.6504 319.209 50.248C319.67 50.8457 319.906 51.7402 319.918 52.9316V54.4082ZM318.494 52.8145C318.494 52.0137 318.385 51.4277 318.166 51.0566C317.947 50.6816 317.6 50.4941 317.123 50.4941C316.658 50.4941 316.316 50.6719 316.098 51.0273C315.879 51.3789 315.764 51.9297 315.752 52.6797V54.6133C315.752 55.4102 315.863 56.0039 316.086 56.3945C316.309 56.7852 316.658 56.9805 317.135 56.9805C317.592 56.9805 317.93 56.8008 318.148 56.4414C318.367 56.0781 318.482 55.5117 318.494 54.7422V52.8145ZM326.844 54.3145L325.877 55.3398V58H324.395V49.4688H325.877V53.4707L326.697 52.457L329.193 49.4688H330.986L327.816 53.248L331.168 58H329.41L326.844 54.3145ZM333.166 51.6602L333.207 52.3223C333.652 51.8027 334.262 51.543 335.035 51.543C335.883 51.543 336.463 51.8672 336.775 52.5156C337.236 51.8672 337.885 51.543 338.721 51.543C339.42 51.543 339.939 51.7363 340.279 52.123C340.623 52.5098 340.799 53.0801 340.807 53.834V58H339.383V53.875C339.383 53.4727 339.295 53.1777 339.119 52.9902C338.943 52.8027 338.652 52.709 338.246 52.709C337.922 52.709 337.656 52.7969 337.449 52.9727C337.246 53.1445 337.104 53.3711 337.021 53.6523L337.027 58H335.604V53.8281C335.584 53.082 335.203 52.709 334.461 52.709C333.891 52.709 333.486 52.9414 333.248 53.4062V58H331.824V51.6602H333.166ZM347.914 58H342.178V57.0215L345.02 53.9219C345.43 53.4648 345.721 53.084 345.893 52.7793C346.068 52.4707 346.156 52.1621 346.156 51.8535C346.156 51.4473 346.041 51.1191 345.811 50.8691C345.584 50.6191 345.277 50.4941 344.891 50.4941C344.43 50.4941 344.072 50.6348 343.818 50.916C343.564 51.1973 343.438 51.582 343.438 52.0703H342.014C342.014 51.5508 342.131 51.084 342.365 50.6699C342.604 50.252 342.941 49.9277 343.379 49.6973C343.82 49.4668 344.328 49.3516 344.902 49.3516C345.73 49.3516 346.383 49.5605 346.859 49.9785C347.34 50.3926 347.58 50.9668 347.58 51.7012C347.58 52.127 347.459 52.5742 347.217 53.043C346.979 53.5078 346.586 54.0371 346.039 54.6309L343.953 56.8633H347.914V58Z" fill="white"/>
<path d="M265.455 96.959H266.516V98.1016H265.455V100H264.031V98.1016H260.346L260.305 97.2344L263.984 91.4688H265.455V96.959ZM261.799 96.959H264.031V93.3965L263.926 93.584L261.799 96.959ZM271.889 91.4277V92.6055H271.713C270.916 92.6172 270.279 92.8359 269.803 93.2617C269.326 93.6875 269.043 94.291 268.953 95.0723C269.41 94.5918 269.994 94.3516 270.705 94.3516C271.459 94.3516 272.053 94.6172 272.486 95.1484C272.924 95.6797 273.143 96.3652 273.143 97.2051C273.143 98.0723 272.887 98.7754 272.375 99.3145C271.867 99.8496 271.199 100.117 270.371 100.117C269.52 100.117 268.828 99.8027 268.297 99.1738C267.77 98.5449 267.506 97.7207 267.506 96.7012V96.2148C267.506 94.7188 267.869 93.5469 268.596 92.6992C269.326 91.8516 270.375 91.4277 271.742 91.4277H271.889ZM270.359 95.5C270.047 95.5 269.76 95.5879 269.498 95.7637C269.24 95.9395 269.051 96.1738 268.93 96.4668V96.9004C268.93 97.5332 269.062 98.0371 269.328 98.4121C269.594 98.7832 269.938 98.9688 270.359 98.9688C270.781 98.9688 271.115 98.8105 271.361 98.4941C271.607 98.1777 271.73 97.7617 271.73 97.2461C271.73 96.7305 271.605 96.3105 271.355 95.9863C271.105 95.6621 270.773 95.5 270.359 95.5ZM279.84 96.4082C279.84 97.6348 279.609 98.5605 279.148 99.1855C278.691 99.8066 277.994 100.117 277.057 100.117C276.135 100.117 275.439 99.8145 274.971 99.209C274.506 98.5996 274.268 97.6992 274.256 96.5078V95.0312C274.256 93.8047 274.484 92.8848 274.941 92.2715C275.402 91.6582 276.104 91.3516 277.045 91.3516C277.979 91.3516 278.674 91.6504 279.131 92.248C279.592 92.8457 279.828 93.7402 279.84 94.9316V96.4082ZM278.416 94.8145C278.416 94.0137 278.307 93.4277 278.088 93.0566C277.869 92.6816 277.521 92.4941 277.045 92.4941C276.58 92.4941 276.238 92.6719 276.02 93.0273C275.801 93.3789 275.686 93.9297 275.674 94.6797V96.6133C275.674 97.4102 275.785 98.0039 276.008 98.3945C276.23 98.7852 276.58 98.9805 277.057 98.9805C277.514 98.9805 277.852 98.8008 278.07 98.4414C278.289 98.0781 278.404 97.5117 278.416 96.7422V94.8145ZM289.824 100H284.088V99.0215L286.93 95.9219C287.34 95.4648 287.631 95.084 287.803 94.7793C287.979 94.4707 288.066 94.1621 288.066 93.8535C288.066 93.4473 287.951 93.1191 287.721 92.8691C287.494 92.6191 287.188 92.4941 286.801 92.4941C286.34 92.4941 285.982 92.6348 285.729 92.916C285.475 93.1973 285.348 93.582 285.348 94.0703H283.924C283.924 93.5508 284.041 93.084 284.275 92.6699C284.514 92.252 284.852 91.9277 285.289 91.6973C285.73 91.4668 286.238 91.3516 286.812 91.3516C287.641 91.3516 288.293 91.5605 288.77 91.9785C289.25 92.3926 289.49 92.9668 289.49 93.7012C289.49 94.127 289.369 94.5742 289.127 95.043C288.889 95.5078 288.496 96.0371 287.949 96.6309L285.863 98.8633H289.824V100ZM296.469 96.4082C296.469 97.6348 296.238 98.5605 295.777 99.1855C295.32 99.8066 294.623 100.117 293.686 100.117C292.764 100.117 292.068 99.8145 291.6 99.209C291.135 98.5996 290.896 97.6992 290.885 96.5078V95.0312C290.885 93.8047 291.113 92.8848 291.57 92.2715C292.031 91.6582 292.732 91.3516 293.674 91.3516C294.607 91.3516 295.303 91.6504 295.76 92.248C296.221 92.8457 296.457 93.7402 296.469 94.9316V96.4082ZM295.045 94.8145C295.045 94.0137 294.936 93.4277 294.717 93.0566C294.498 92.6816 294.15 92.4941 293.674 92.4941C293.209 92.4941 292.867 92.6719 292.648 93.0273C292.43 93.3789 292.314 93.9297 292.303 94.6797V96.6133C292.303 97.4102 292.414 98.0039 292.637 98.3945C292.859 98.7852 293.209 98.9805 293.686 98.9805C294.143 98.9805 294.48 98.8008 294.699 98.4414C294.918 98.0781 295.033 97.5117 295.045 96.7422V94.8145ZM303.289 96.4082C303.289 97.6348 303.059 98.5605 302.598 99.1855C302.141 99.8066 301.443 100.117 300.506 100.117C299.584 100.117 298.889 99.8145 298.42 99.209C297.955 98.5996 297.717 97.6992 297.705 96.5078V95.0312C297.705 93.8047 297.934 92.8848 298.391 92.2715C298.852 91.6582 299.553 91.3516 300.494 91.3516C301.428 91.3516 302.123 91.6504 302.58 92.248C303.041 92.8457 303.277 93.7402 303.289 94.9316V96.4082ZM301.865 94.8145C301.865 94.0137 301.756 93.4277 301.537 93.0566C301.318 92.6816 300.971 92.4941 300.494 92.4941C300.029 92.4941 299.688 92.6719 299.469 93.0273C299.25 93.3789 299.135 93.9297 299.123 94.6797V96.6133C299.123 97.4102 299.234 98.0039 299.457 98.3945C299.68 98.7852 300.029 98.9805 300.506 98.9805C300.963 98.9805 301.301 98.8008 301.52 98.4414C301.738 98.0781 301.854 97.5117 301.865 96.7422V94.8145ZM313.098 96.4082C313.098 97.6348 312.867 98.5605 312.406 99.1855C311.949 99.8066 311.252 100.117 310.314 100.117C309.393 100.117 308.697 99.8145 308.229 99.209C307.764 98.5996 307.525 97.6992 307.514 96.5078V95.0312C307.514 93.8047 307.742 92.8848 308.199 92.2715C308.66 91.6582 309.361 91.3516 310.303 91.3516C311.236 91.3516 311.932 91.6504 312.389 92.248C312.85 92.8457 313.086 93.7402 313.098 94.9316V96.4082ZM311.674 94.8145C311.674 94.0137 311.564 93.4277 311.346 93.0566C311.127 92.6816 310.779 92.4941 310.303 92.4941C309.838 92.4941 309.496 92.6719 309.277 93.0273C309.059 93.3789 308.943 93.9297 308.932 94.6797V96.6133C308.932 97.4102 309.043 98.0039 309.266 98.3945C309.488 98.7852 309.838 98.9805 310.314 98.9805C310.771 98.9805 311.109 98.8008 311.328 98.4414C311.547 98.0781 311.662 97.5117 311.674 96.7422V94.8145ZM319.918 96.4082C319.918 97.6348 319.688 98.5605 319.227 99.1855C318.77 99.8066 318.072 100.117 317.135 100.117C316.213 100.117 315.518 99.8145 315.049 99.209C314.584 98.5996 314.346 97.6992 314.334 96.5078V95.0312C314.334 93.8047 314.562 92.8848 315.02 92.2715C315.48 91.6582 316.182 91.3516 317.123 91.3516C318.057 91.3516 318.752 91.6504 319.209 92.248C319.67 92.8457 319.906 93.7402 319.918 94.9316V96.4082ZM318.494 94.8145C318.494 94.0137 318.385 93.4277 318.166 93.0566C317.947 92.6816 317.6 92.4941 317.123 92.4941C316.658 92.4941 316.316 92.6719 316.098 93.0273C315.879 93.3789 315.764 93.9297 315.752 94.6797V96.6133C315.752 97.4102 315.863 98.0039 316.086 98.3945C316.309 98.7852 316.658 98.9805 317.135 98.9805C317.592 98.9805 317.93 98.8008 318.148 98.4414C318.367 98.0781 318.482 97.5117 318.494 96.7422V94.8145ZM326.738 96.4082C326.738 97.6348 326.508 98.5605 326.047 99.1855C325.59 99.8066 324.893 100.117 323.955 100.117C323.033 100.117 322.338 99.8145 321.869 99.209C321.404 98.5996 321.166 97.6992 321.154 96.5078V95.0312C321.154 93.8047 321.383 92.8848 321.84 92.2715C322.301 91.6582 323.002 91.3516 323.943 91.3516C324.877 91.3516 325.572 91.6504 326.029 92.248C326.49 92.8457 326.727 93.7402 326.738 94.9316V96.4082ZM325.314 94.8145C325.314 94.0137 325.205 93.4277 324.986 93.0566C324.768 92.6816 324.42 92.4941 323.943 92.4941C323.479 92.4941 323.137 92.6719 322.918 93.0273C322.699 93.3789 322.584 93.9297 322.572 94.6797V96.6133C322.572 97.4102 322.684 98.0039 322.906 98.3945C323.129 98.7852 323.479 98.9805 323.955 98.9805C324.412 98.9805 324.75 98.8008 324.969 98.4414C325.188 98.0781 325.303 97.5117 325.314 96.7422V94.8145ZM333.664 96.3145L332.697 97.3398V100H331.215V91.4688H332.697V95.4707L333.518 94.457L336.014 91.4688H337.807L334.637 95.248L337.988 100H336.23L333.664 96.3145ZM339.986 93.6602L340.027 94.3223C340.473 93.8027 341.082 93.543 341.855 93.543C342.703 93.543 343.283 93.8672 343.596 94.5156C344.057 93.8672 344.705 93.543 345.541 93.543C346.24 93.543 346.76 93.7363 347.1 94.123C347.443 94.5098 347.619 95.0801 347.627 95.834V100H346.203V95.875C346.203 95.4727 346.115 95.1777 345.939 94.9902C345.764 94.8027 345.473 94.709 345.066 94.709C344.742 94.709 344.477 94.7969 344.27 94.9727C344.066 95.1445 343.924 95.3711 343.842 95.6523L343.848 100H342.424V95.8281C342.404 95.082 342.023 94.709 341.281 94.709C340.711 94.709 340.307 94.9414 340.068 95.4062V100H338.645V93.6602H339.986ZM354.734 100H348.998V99.0215L351.84 95.9219C352.25 95.4648 352.541 95.084 352.713 94.7793C352.889 94.4707 352.977 94.1621 352.977 93.8535C352.977 93.4473 352.861 93.1191 352.631 92.8691C352.404 92.6191 352.098 92.4941 351.711 92.4941C351.25 92.4941 350.893 92.6348 350.639 92.916C350.385 93.1973 350.258 93.582 350.258 94.0703H348.834C348.834 93.5508 348.951 93.084 349.186 92.6699C349.424 92.252 349.762 91.9277 350.199 91.6973C350.641 91.4668 351.148 91.3516 351.723 91.3516C352.551 91.3516 353.203 91.5605 353.68 91.9785C354.16 92.3926 354.4 92.9668 354.4 93.7012C354.4 94.127 354.279 94.5742 354.037 95.043C353.799 95.5078 353.406 96.0371 352.859 96.6309L350.773 98.8633H354.734V100Z" fill="white"/>
<path d="M261.02 137.77L261.482 133.469H266.064V134.699H262.666L262.432 136.738C262.826 136.512 263.271 136.398 263.768 136.398C264.58 136.398 265.211 136.658 265.66 137.178C266.113 137.697 266.34 138.396 266.34 139.275C266.34 140.143 266.09 140.834 265.59 141.35C265.09 141.861 264.404 142.117 263.533 142.117C262.752 142.117 262.104 141.896 261.588 141.455C261.076 141.01 260.799 140.424 260.756 139.697H262.133C262.188 140.111 262.336 140.43 262.578 140.652C262.82 140.871 263.137 140.98 263.527 140.98C263.965 140.98 264.305 140.824 264.547 140.512C264.793 140.199 264.916 139.773 264.916 139.234C264.916 138.715 264.781 138.305 264.512 138.004C264.242 137.699 263.871 137.547 263.398 137.547C263.141 137.547 262.922 137.582 262.742 137.652C262.562 137.719 262.367 137.852 262.156 138.051L261.02 137.77ZM271.314 142H269.896V135.15L267.805 135.865V134.664L271.133 133.439H271.314V142ZM279.84 138.408C279.84 139.635 279.609 140.561 279.148 141.186C278.691 141.807 277.994 142.117 277.057 142.117C276.135 142.117 275.439 141.814 274.971 141.209C274.506 140.6 274.268 139.699 274.256 138.508V137.031C274.256 135.805 274.484 134.885 274.941 134.271C275.402 133.658 276.104 133.352 277.045 133.352C277.979 133.352 278.674 133.65 279.131 134.248C279.592 134.846 279.828 135.74 279.84 136.932V138.408ZM278.416 136.814C278.416 136.014 278.307 135.428 278.088 135.057C277.869 134.682 277.521 134.494 277.045 134.494C276.58 134.494 276.238 134.672 276.02 135.027C275.801 135.379 275.686 135.93 275.674 136.68V138.613C275.674 139.41 275.785 140.004 276.008 140.395C276.23 140.785 276.58 140.98 277.057 140.98C277.514 140.98 277.852 140.801 278.07 140.441C278.289 140.078 278.404 139.512 278.416 138.742V136.814ZM289.648 138.408C289.648 139.635 289.418 140.561 288.957 141.186C288.5 141.807 287.803 142.117 286.865 142.117C285.943 142.117 285.248 141.814 284.779 141.209C284.314 140.6 284.076 139.699 284.064 138.508V137.031C284.064 135.805 284.293 134.885 284.75 134.271C285.211 133.658 285.912 133.352 286.854 133.352C287.787 133.352 288.482 133.65 288.939 134.248C289.4 134.846 289.637 135.74 289.648 136.932V138.408ZM288.225 136.814C288.225 136.014 288.115 135.428 287.896 135.057C287.678 134.682 287.33 134.494 286.854 134.494C286.389 134.494 286.047 134.672 285.828 135.027C285.609 135.379 285.494 135.93 285.482 136.68V138.613C285.482 139.41 285.594 140.004 285.816 140.395C286.039 140.785 286.389 140.98 286.865 140.98C287.322 140.98 287.66 140.801 287.879 140.441C288.098 140.078 288.213 139.512 288.225 138.742V136.814ZM296.586 134.26L293.176 142H291.682L295.086 134.611H290.674V133.469H296.586V134.26ZM303.465 142H297.729V141.021L300.57 137.922C300.98 137.465 301.271 137.084 301.443 136.779C301.619 136.471 301.707 136.162 301.707 135.854C301.707 135.447 301.592 135.119 301.361 134.869C301.135 134.619 300.828 134.494 300.441 134.494C299.98 134.494 299.623 134.635 299.369 134.916C299.115 135.197 298.988 135.582 298.988 136.07H297.564C297.564 135.551 297.682 135.084 297.916 134.67C298.154 134.252 298.492 133.928 298.93 133.697C299.371 133.467 299.879 133.352 300.453 133.352C301.281 133.352 301.934 133.561 302.41 133.979C302.891 134.393 303.131 134.967 303.131 135.701C303.131 136.127 303.01 136.574 302.768 137.043C302.529 137.508 302.137 138.037 301.59 138.631L299.504 140.863H303.465V142ZM313.098 138.408C313.098 139.635 312.867 140.561 312.406 141.186C311.949 141.807 311.252 142.117 310.314 142.117C309.393 142.117 308.697 141.814 308.229 141.209C307.764 140.6 307.525 139.699 307.514 138.508V137.031C307.514 135.805 307.742 134.885 308.199 134.271C308.66 133.658 309.361 133.352 310.303 133.352C311.236 133.352 311.932 133.65 312.389 134.248C312.85 134.846 313.086 135.74 313.098 136.932V138.408ZM311.674 136.814C311.674 136.014 311.564 135.428 311.346 135.057C311.127 134.682 310.779 134.494 310.303 134.494C309.838 134.494 309.496 134.672 309.277 135.027C309.059 135.379 308.943 135.93 308.932 136.68V138.613C308.932 139.41 309.043 140.004 309.266 140.395C309.488 140.785 309.838 140.98 310.314 140.98C310.771 140.98 311.109 140.801 311.328 140.441C311.547 140.078 311.662 139.512 311.674 138.742V136.814ZM319.918 138.408C319.918 139.635 319.688 140.561 319.227 141.186C318.77 141.807 318.072 142.117 317.135 142.117C316.213 142.117 315.518 141.814 315.049 141.209C314.584 140.6 314.346 139.699 314.334 138.508V137.031C314.334 135.805 314.562 134.885 315.02 134.271C315.48 133.658 316.182 133.352 317.123 133.352C318.057 133.352 318.752 133.65 319.209 134.248C319.67 134.846 319.906 135.74 319.918 136.932V138.408ZM318.494 136.814C318.494 136.014 318.385 135.428 318.166 135.057C317.947 134.682 317.6 134.494 317.123 134.494C316.658 134.494 316.316 134.672 316.098 135.027C315.879 135.379 315.764 135.93 315.752 136.68V138.613C315.752 139.41 315.863 140.004 316.086 140.395C316.309 140.785 316.658 140.98 317.135 140.98C317.592 140.98 317.93 140.801 318.148 140.441C318.367 140.078 318.482 139.512 318.494 138.742V136.814ZM326.738 138.408C326.738 139.635 326.508 140.561 326.047 141.186C325.59 141.807 324.893 142.117 323.955 142.117C323.033 142.117 322.338 141.814 321.869 141.209C321.404 140.6 321.166 139.699 321.154 138.508V137.031C321.154 135.805 321.383 134.885 321.84 134.271C322.301 133.658 323.002 133.352 323.943 133.352C324.877 133.352 325.572 133.65 326.029 134.248C326.49 134.846 326.727 135.74 326.738 136.932V138.408ZM325.314 136.814C325.314 136.014 325.205 135.428 324.986 135.057C324.768 134.682 324.42 134.494 323.943 134.494C323.479 134.494 323.137 134.672 322.918 135.027C322.699 135.379 322.584 135.93 322.572 136.68V138.613C322.572 139.41 322.684 140.004 322.906 140.395C323.129 140.785 323.479 140.98 323.955 140.98C324.412 140.98 324.75 140.801 324.969 140.441C325.188 140.078 325.303 139.512 325.314 138.742V136.814ZM333.664 138.314L332.697 139.34V142H331.215V133.469H332.697V137.471L333.518 136.457L336.014 133.469H337.807L334.637 137.248L337.988 142H336.23L333.664 138.314ZM339.986 135.66L340.027 136.322C340.473 135.803 341.082 135.543 341.855 135.543C342.703 135.543 343.283 135.867 343.596 136.516C344.057 135.867 344.705 135.543 345.541 135.543C346.24 135.543 346.76 135.736 347.1 136.123C347.443 136.51 347.619 137.08 347.627 137.834V142H346.203V137.875C346.203 137.473 346.115 137.178 345.939 136.99C345.764 136.803 345.473 136.709 345.066 136.709C344.742 136.709 344.477 136.797 344.27 136.973C344.066 137.145 343.924 137.371 343.842 137.652L343.848 142H342.424V137.828C342.404 137.082 342.023 136.709 341.281 136.709C340.711 136.709 340.307 136.941 340.068 137.406V142H338.645V135.66H339.986ZM354.734 142H348.998V141.021L351.84 137.922C352.25 137.465 352.541 137.084 352.713 136.779C352.889 136.471 352.977 136.162 352.977 135.854C352.977 135.447 352.861 135.119 352.631 134.869C352.404 134.619 352.098 134.494 351.711 134.494C351.25 134.494 350.893 134.635 350.639 134.916C350.385 135.197 350.258 135.582 350.258 136.07H348.834C348.834 135.551 348.951 135.084 349.186 134.67C349.424 134.252 349.762 133.928 350.199 133.697C350.641 133.467 351.148 133.352 351.723 133.352C352.551 133.352 353.203 133.561 353.68 133.979C354.16 134.393 354.4 134.967 354.4 135.701C354.4 136.127 354.279 136.574 354.037 137.043C353.799 137.508 353.406 138.037 352.859 138.631L350.773 140.863H354.734V142Z" fill="white"/>
<path d="M264.494 184H263.076V177.15L260.984 177.865V176.664L264.312 175.439H264.494V184ZM272.275 180.959H273.336V182.102H272.275V184H270.852V182.102H267.166L267.125 181.234L270.805 175.469H272.275V180.959ZM268.619 180.959H270.852V177.396L270.746 177.584L268.619 180.959ZM279.096 180.959H280.156V182.102H279.096V184H277.672V182.102H273.986L273.945 181.234L277.625 175.469H279.096V180.959ZM275.439 180.959H277.672V177.396L277.566 177.584L275.439 180.959ZM289.461 177.719C289.461 178.137 289.354 178.51 289.139 178.838C288.924 179.162 288.631 179.418 288.26 179.605C288.705 179.812 289.047 180.096 289.285 180.455C289.527 180.814 289.648 181.221 289.648 181.674C289.648 182.424 289.395 183.02 288.887 183.461C288.379 183.898 287.703 184.117 286.859 184.117C286.012 184.117 285.332 183.896 284.82 183.455C284.312 183.014 284.059 182.42 284.059 181.674C284.059 181.217 284.18 180.807 284.422 180.443C284.664 180.08 285.004 179.801 285.441 179.605C285.074 179.418 284.783 179.162 284.568 178.838C284.357 178.51 284.252 178.137 284.252 177.719C284.252 176.992 284.486 176.416 284.955 175.99C285.424 175.564 286.057 175.352 286.854 175.352C287.654 175.352 288.289 175.564 288.758 175.99C289.227 176.416 289.461 176.992 289.461 177.719ZM288.225 181.604C288.225 181.182 288.098 180.842 287.844 180.584C287.594 180.322 287.262 180.191 286.848 180.191C286.434 180.191 286.102 180.32 285.852 180.578C285.605 180.836 285.482 181.178 285.482 181.604C285.482 182.021 285.604 182.355 285.846 182.605C286.092 182.855 286.43 182.98 286.859 182.98C287.289 182.98 287.623 182.859 287.861 182.617C288.104 182.375 288.225 182.037 288.225 181.604ZM288.043 177.771C288.043 177.4 287.936 177.096 287.721 176.857C287.506 176.615 287.217 176.494 286.854 176.494C286.49 176.494 286.203 176.609 285.992 176.84C285.781 177.066 285.676 177.377 285.676 177.771C285.676 178.162 285.781 178.473 285.992 178.703C286.207 178.934 286.496 179.049 286.859 179.049C287.223 179.049 287.51 178.934 287.721 178.703C287.936 178.473 288.043 178.162 288.043 177.771ZM296.469 180.408C296.469 181.635 296.238 182.561 295.777 183.186C295.32 183.807 294.623 184.117 293.686 184.117C292.764 184.117 292.068 183.814 291.6 183.209C291.135 182.6 290.896 181.699 290.885 180.508V179.031C290.885 177.805 291.113 176.885 291.57 176.271C292.031 175.658 292.732 175.352 293.674 175.352C294.607 175.352 295.303 175.65 295.76 176.248C296.221 176.846 296.457 177.74 296.469 178.932V180.408ZM295.045 178.814C295.045 178.014 294.936 177.428 294.717 177.057C294.498 176.682 294.15 176.494 293.674 176.494C293.209 176.494 292.867 176.672 292.648 177.027C292.43 177.379 292.314 177.93 292.303 178.68V180.613C292.303 181.41 292.414 182.004 292.637 182.395C292.859 182.785 293.209 182.98 293.686 182.98C294.143 182.98 294.48 182.801 294.699 182.441C294.918 182.078 295.033 181.512 295.045 180.742V178.814ZM303.289 180.408C303.289 181.635 303.059 182.561 302.598 183.186C302.141 183.807 301.443 184.117 300.506 184.117C299.584 184.117 298.889 183.814 298.42 183.209C297.955 182.6 297.717 181.699 297.705 180.508V179.031C297.705 177.805 297.934 176.885 298.391 176.271C298.852 175.658 299.553 175.352 300.494 175.352C301.428 175.352 302.123 175.65 302.58 176.248C303.041 176.846 303.277 177.74 303.289 178.932V180.408ZM301.865 178.814C301.865 178.014 301.756 177.428 301.537 177.057C301.318 176.682 300.971 176.494 300.494 176.494C300.029 176.494 299.688 176.672 299.469 177.027C299.25 177.379 299.135 177.93 299.123 178.68V180.613C299.123 181.41 299.234 182.004 299.457 182.395C299.68 182.785 300.029 182.98 300.506 182.98C300.963 182.98 301.301 182.801 301.52 182.441C301.738 182.078 301.854 181.512 301.865 180.742V178.814ZM313.098 180.408C313.098 181.635 312.867 182.561 312.406 183.186C311.949 183.807 311.252 184.117 310.314 184.117C309.393 184.117 308.697 183.814 308.229 183.209C307.764 182.6 307.525 181.699 307.514 180.508V179.031C307.514 177.805 307.742 176.885 308.199 176.271C308.66 175.658 309.361 175.352 310.303 175.352C311.236 175.352 311.932 175.65 312.389 176.248C312.85 176.846 313.086 177.74 313.098 178.932V180.408ZM311.674 178.814C311.674 178.014 311.564 177.428 311.346 177.057C311.127 176.682 310.779 176.494 310.303 176.494C309.838 176.494 309.496 176.672 309.277 177.027C309.059 177.379 308.943 177.93 308.932 178.68V180.613C308.932 181.41 309.043 182.004 309.266 182.395C309.488 182.785 309.838 182.98 310.314 182.98C310.771 182.98 311.109 182.801 311.328 182.441C311.547 182.078 311.662 181.512 311.674 180.742V178.814ZM319.918 180.408C319.918 181.635 319.688 182.561 319.227 183.186C318.77 183.807 318.072 184.117 317.135 184.117C316.213 184.117 315.518 183.814 315.049 183.209C314.584 182.6 314.346 181.699 314.334 180.508V179.031C314.334 177.805 314.562 176.885 315.02 176.271C315.48 175.658 316.182 175.352 317.123 175.352C318.057 175.352 318.752 175.65 319.209 176.248C319.67 176.846 319.906 177.74 319.918 178.932V180.408ZM318.494 178.814C318.494 178.014 318.385 177.428 318.166 177.057C317.947 176.682 317.6 176.494 317.123 176.494C316.658 176.494 316.316 176.672 316.098 177.027C315.879 177.379 315.764 177.93 315.752 178.68V180.613C315.752 181.41 315.863 182.004 316.086 182.395C316.309 182.785 316.658 182.98 317.135 182.98C317.592 182.98 317.93 182.801 318.148 182.441C318.367 182.078 318.482 181.512 318.494 180.742V178.814ZM326.738 180.408C326.738 181.635 326.508 182.561 326.047 183.186C325.59 183.807 324.893 184.117 323.955 184.117C323.033 184.117 322.338 183.814 321.869 183.209C321.404 182.6 321.166 181.699 321.154 180.508V179.031C321.154 177.805 321.383 176.885 321.84 176.271C322.301 175.658 323.002 175.352 323.943 175.352C324.877 175.352 325.572 175.65 326.029 176.248C326.49 176.846 326.727 177.74 326.738 178.932V180.408ZM325.314 178.814C325.314 178.014 325.205 177.428 324.986 177.057C324.768 176.682 324.42 176.494 323.943 176.494C323.479 176.494 323.137 176.672 322.918 177.027C322.699 177.379 322.584 177.93 322.572 178.68V180.613C322.572 181.41 322.684 182.004 322.906 182.395C323.129 182.785 323.479 182.98 323.955 182.98C324.412 182.98 324.75 182.801 324.969 182.441C325.188 182.078 325.303 181.512 325.314 180.742V178.814ZM333.664 180.314L332.697 181.34V184H331.215V175.469H332.697V179.471L333.518 178.457L336.014 175.469H337.807L334.637 179.248L337.988 184H336.23L333.664 180.314ZM339.986 177.66L340.027 178.322C340.473 177.803 341.082 177.543 341.855 177.543C342.703 177.543 343.283 177.867 343.596 178.516C344.057 177.867 344.705 177.543 345.541 177.543C346.24 177.543 346.76 177.736 347.1 178.123C347.443 178.51 347.619 179.08 347.627 179.834V184H346.203V179.875C346.203 179.473 346.115 179.178 345.939 178.99C345.764 178.803 345.473 178.709 345.066 178.709C344.742 178.709 344.477 178.797 344.27 178.973C344.066 179.145 343.924 179.371 343.842 179.652L343.848 184H342.424V179.828C342.404 179.082 342.023 178.709 341.281 178.709C340.711 178.709 340.307 178.941 340.068 179.406V184H338.645V177.66H339.986ZM354.734 184H348.998V183.021L351.84 179.922C352.25 179.465 352.541 179.084 352.713 178.779C352.889 178.471 352.977 178.162 352.977 177.854C352.977 177.447 352.861 177.119 352.631 176.869C352.404 176.619 352.098 176.494 351.711 176.494C351.25 176.494 350.893 176.635 350.639 176.916C350.385 177.197 350.258 177.582 350.258 178.07H348.834C348.834 177.551 348.951 177.084 349.186 176.67C349.424 176.252 349.762 175.928 350.199 175.697C350.641 175.467 351.148 175.352 351.723 175.352C352.551 175.352 353.203 175.561 353.68 175.979C354.16 176.393 354.4 176.967 354.4 177.701C354.4 178.127 354.279 178.574 354.037 179.043C353.799 179.508 353.406 180.037 352.859 180.631L350.773 182.863H354.734V184Z" fill="white"/>
<circle cy="54" r="5" fill="#FFEBF1"/>
<circle cy="96" r="5" fill="#FFEBF1"/>
<circle cy="138" r="5" fill="#FFEBF1"/>
<circle cy="180" r="5" fill="#FFEBF1"/>
<circle cx="400" cy="54" r="5" fill="#FFEBF1"/>
<circle cx="400" cy="96" r="5" fill="#FFEBF1"/>
<circle cx="400" cy="138" r="5" fill="#FFEBF1"/>
<circle cx="400" cy="180" r="5" fill="#FFEBF1"/>
<line x1="99" y1="35" x2="99" y2="73" stroke="#981F42" stroke-width="2" stroke-dasharray="4 4"/>
<line x1="245" y1="35" x2="245" y2="73" stroke="#981F42" stroke-width="2" stroke-dasharray="4 4"/>
<line x1="99" y1="77" x2="99" y2="115" stroke="#981F42" stroke-width="2" stroke-dasharray="4 4"/>
<line x1="245" y1="77" x2="245" y2="115" stroke="#981F42" stroke-width="2" stroke-dasharray="4 4"/>
<line x1="99" y1="119" x2="99" y2="157" stroke="#531D99" stroke-width="2" stroke-dasharray="4 4"/>
<line x1="245" y1="119" x2="245" y2="157" stroke="#531D99" stroke-width="2" stroke-dasharray="4 4"/>
<line x1="99" y1="161" x2="99" y2="199" stroke="#981F42" stroke-width="2" stroke-dasharray="4 4"/>
<line x1="245" y1="161" x2="245" y2="199" stroke="#981F42" stroke-width="2" stroke-dasharray="4 4"/>
</g>
<defs>
<clipPath id="clip0">
<rect width="400" height="200" fill="white"/>
</clipPath>
</defs>
</svg>
