<svg width="400" height="200" viewBox="0 0 400 200" fill="none" xmlns="http://www.w3.org/2000/svg">
<g clip-path="url(#clip0)">
<rect x="197" y="73" width="197" height="38" rx="4" transform="rotate(-180 197 73)" fill="#8B30FF"/>
<rect x="400" y="73" width="139" height="38" rx="4" transform="rotate(-180 400 73)" fill="#FE346E"/>
<path d="M19.3594 10.9922V15H17.0156V3.625H21.4531C22.3073 3.625 23.0573 3.78125 23.7031 4.09375C24.3542 4.40625 24.8542 4.85156 25.2031 5.42969C25.5521 6.0026 25.7266 6.65625 25.7266 7.39062C25.7266 8.50521 25.3438 9.38542 24.5781 10.0312C23.8177 10.6719 22.763 10.9922 21.4141 10.9922H19.3594ZM19.3594 9.09375H21.4531C22.0729 9.09375 22.5443 8.94792 22.8672 8.65625C23.1953 8.36458 23.3594 7.94792 23.3594 7.40625C23.3594 6.84896 23.1953 6.39844 22.8672 6.05469C22.5391 5.71094 22.0859 5.53385 21.5078 5.52344H19.3594V9.09375ZM29.5781 15H27.3125V3H29.5781V15ZM36.3438 15C36.2396 14.7969 36.1641 14.5443 36.1172 14.2422C35.5703 14.8516 34.8594 15.1562 33.9844 15.1562C33.1562 15.1562 32.4688 14.9167 31.9219 14.4375C31.3802 13.9583 31.1094 13.3542 31.1094 12.625C31.1094 11.7292 31.4401 11.0417 32.1016 10.5625C32.7682 10.0833 33.7292 9.84115 34.9844 9.83594H36.0234V9.35156C36.0234 8.96094 35.9219 8.64844 35.7188 8.41406C35.5208 8.17969 35.2057 8.0625 34.7734 8.0625C34.3932 8.0625 34.0938 8.15365 33.875 8.33594C33.6615 8.51823 33.5547 8.76823 33.5547 9.08594H31.2969C31.2969 8.59635 31.4479 8.14323 31.75 7.72656C32.0521 7.3099 32.4792 6.98438 33.0312 6.75C33.5833 6.51042 34.2031 6.39062 34.8906 6.39062C35.9323 6.39062 36.7578 6.65365 37.3672 7.17969C37.9818 7.70052 38.2891 8.4349 38.2891 9.38281V13.0469C38.2943 13.849 38.4062 14.4557 38.625 14.8672V15H36.3438ZM34.4766 13.4297C34.8099 13.4297 35.1172 13.3568 35.3984 13.2109C35.6797 13.0599 35.888 12.8594 36.0234 12.6094V11.1562H35.1797C34.0495 11.1562 33.4479 11.5469 33.375 12.3281L33.3672 12.4609C33.3672 12.7422 33.4661 12.974 33.6641 13.1562C33.862 13.3385 34.1328 13.4297 34.4766 13.4297ZM42.1016 6.54688L42.1719 7.52344C42.776 6.76823 43.5859 6.39062 44.6016 6.39062C45.4974 6.39062 46.1641 6.65365 46.6016 7.17969C47.0391 7.70573 47.263 8.49219 47.2734 9.53906V15H45.0156V9.59375C45.0156 9.11458 44.9115 8.76823 44.7031 8.55469C44.4948 8.33594 44.1484 8.22656 43.6641 8.22656C43.0286 8.22656 42.5521 8.4974 42.2344 9.03906V15H39.9766V6.54688H42.1016ZM52.8828 15.1562C51.6432 15.1562 50.6328 14.776 49.8516 14.0156C49.0755 13.2552 48.6875 12.2422 48.6875 10.9766V10.7578C48.6875 9.90885 48.8516 9.15104 49.1797 8.48438C49.5078 7.8125 49.9714 7.29688 50.5703 6.9375C51.1745 6.57292 51.862 6.39062 52.6328 6.39062C53.7891 6.39062 54.6979 6.75521 55.3594 7.48438C56.026 8.21354 56.3594 9.2474 56.3594 10.5859V11.5078H50.9766C51.0495 12.0599 51.2682 12.5026 51.6328 12.8359C52.0026 13.1693 52.4688 13.3359 53.0312 13.3359C53.901 13.3359 54.5807 13.0208 55.0703 12.3906L56.1797 13.6328C55.8411 14.112 55.3828 14.487 54.8047 14.7578C54.2266 15.0234 53.5859 15.1562 52.8828 15.1562ZM52.625 8.21875C52.1771 8.21875 51.8125 8.36979 51.5312 8.67188C51.2552 8.97396 51.0781 9.40625 51 9.96875H54.1406V9.78906C54.1302 9.28906 53.9948 8.90365 53.7344 8.63281C53.474 8.35677 53.1042 8.21875 52.625 8.21875ZM60.3516 4.46875V6.54688H61.7969V8.20312H60.3516V12.4219C60.3516 12.7344 60.4115 12.9583 60.5312 13.0938C60.651 13.2292 60.8802 13.2969 61.2188 13.2969C61.4688 13.2969 61.6901 13.2786 61.8828 13.2422V14.9531C61.4401 15.0885 60.9844 15.1562 60.5156 15.1562C58.9323 15.1562 58.125 14.3568 58.0938 12.7578V8.20312H56.8594V6.54688H58.0938V4.46875H60.3516ZM69.7422 4.46875V6.54688H71.1875V8.20312H69.7422V12.4219C69.7422 12.7344 69.8021 12.9583 69.9219 13.0938C70.0417 13.2292 70.2708 13.2969 70.6094 13.2969C70.8594 13.2969 71.0807 13.2786 71.2734 13.2422V14.9531C70.8307 15.0885 70.375 15.1562 69.9062 15.1562C68.3229 15.1562 67.5156 14.3568 67.4844 12.7578V8.20312H66.25V6.54688H67.4844V4.46875H69.7422ZM75.6016 11.8047L77.1641 6.54688H79.5859L76.1875 16.3125L76 16.7578C75.4948 17.862 74.6615 18.4141 73.5 18.4141C73.1719 18.4141 72.8385 18.3646 72.5 18.2656V16.5547L72.8438 16.5625C73.2708 16.5625 73.5885 16.4974 73.7969 16.3672C74.0104 16.237 74.1771 16.0208 74.2969 15.7188L74.5625 15.0234L71.6016 6.54688H74.0312L75.6016 11.8047ZM88.0859 10.8516C88.0859 12.1536 87.7891 13.1979 87.1953 13.9844C86.6068 14.7656 85.8099 15.1562 84.8047 15.1562C83.9505 15.1562 83.2604 14.8594 82.7344 14.2656V18.25H80.4766V6.54688H82.5703L82.6484 7.375C83.1953 6.71875 83.9089 6.39062 84.7891 6.39062C85.8307 6.39062 86.6406 6.77604 87.2188 7.54688C87.7969 8.31771 88.0859 9.38021 88.0859 10.7344V10.8516ZM85.8281 10.6875C85.8281 9.90104 85.6875 9.29427 85.4062 8.86719C85.1302 8.4401 84.7266 8.22656 84.1953 8.22656C83.487 8.22656 83 8.4974 82.7344 9.03906V12.5C83.0104 13.0573 83.5026 13.3359 84.2109 13.3359C85.2891 13.3359 85.8281 12.4531 85.8281 10.6875ZM93.3828 15.1562C92.1432 15.1562 91.1328 14.776 90.3516 14.0156C89.5755 13.2552 89.1875 12.2422 89.1875 10.9766V10.7578C89.1875 9.90885 89.3516 9.15104 89.6797 8.48438C90.0078 7.8125 90.4714 7.29688 91.0703 6.9375C91.6745 6.57292 92.362 6.39062 93.1328 6.39062C94.2891 6.39062 95.1979 6.75521 95.8594 7.48438C96.526 8.21354 96.8594 9.2474 96.8594 10.5859V11.5078H91.4766C91.5495 12.0599 91.7682 12.5026 92.1328 12.8359C92.5026 13.1693 92.9688 13.3359 93.5312 13.3359C94.401 13.3359 95.0807 13.0208 95.5703 12.3906L96.6797 13.6328C96.3411 14.112 95.8828 14.487 95.3047 14.7578C94.7266 15.0234 94.0859 15.1562 93.3828 15.1562ZM93.125 8.21875C92.6771 8.21875 92.3125 8.36979 92.0312 8.67188C91.7552 8.97396 91.5781 9.40625 91.5 9.96875H94.6406V9.78906C94.6302 9.28906 94.4948 8.90365 94.2344 8.63281C93.974 8.35677 93.6042 8.21875 93.125 8.21875Z" fill="#8B30FF"/>
<path d="M280.359 10.9922V15H278.016V3.625H282.453C283.307 3.625 284.057 3.78125 284.703 4.09375C285.354 4.40625 285.854 4.85156 286.203 5.42969C286.552 6.0026 286.727 6.65625 286.727 7.39062C286.727 8.50521 286.344 9.38542 285.578 10.0312C284.818 10.6719 283.763 10.9922 282.414 10.9922H280.359ZM280.359 9.09375H282.453C283.073 9.09375 283.544 8.94792 283.867 8.65625C284.195 8.36458 284.359 7.94792 284.359 7.40625C284.359 6.84896 284.195 6.39844 283.867 6.05469C283.539 5.71094 283.086 5.53385 282.508 5.52344H280.359V9.09375ZM290.578 15H288.312V3H290.578V15ZM297.344 15C297.24 14.7969 297.164 14.5443 297.117 14.2422C296.57 14.8516 295.859 15.1562 294.984 15.1562C294.156 15.1562 293.469 14.9167 292.922 14.4375C292.38 13.9583 292.109 13.3542 292.109 12.625C292.109 11.7292 292.44 11.0417 293.102 10.5625C293.768 10.0833 294.729 9.84115 295.984 9.83594H297.023V9.35156C297.023 8.96094 296.922 8.64844 296.719 8.41406C296.521 8.17969 296.206 8.0625 295.773 8.0625C295.393 8.0625 295.094 8.15365 294.875 8.33594C294.661 8.51823 294.555 8.76823 294.555 9.08594H292.297C292.297 8.59635 292.448 8.14323 292.75 7.72656C293.052 7.3099 293.479 6.98438 294.031 6.75C294.583 6.51042 295.203 6.39062 295.891 6.39062C296.932 6.39062 297.758 6.65365 298.367 7.17969C298.982 7.70052 299.289 8.4349 299.289 9.38281V13.0469C299.294 13.849 299.406 14.4557 299.625 14.8672V15H297.344ZM295.477 13.4297C295.81 13.4297 296.117 13.3568 296.398 13.2109C296.68 13.0599 296.888 12.8594 297.023 12.6094V11.1562H296.18C295.049 11.1562 294.448 11.5469 294.375 12.3281L294.367 12.4609C294.367 12.7422 294.466 12.974 294.664 13.1562C294.862 13.3385 295.133 13.4297 295.477 13.4297ZM303.102 6.54688L303.172 7.52344C303.776 6.76823 304.586 6.39062 305.602 6.39062C306.497 6.39062 307.164 6.65365 307.602 7.17969C308.039 7.70573 308.263 8.49219 308.273 9.53906V15H306.016V9.59375C306.016 9.11458 305.911 8.76823 305.703 8.55469C305.495 8.33594 305.148 8.22656 304.664 8.22656C304.029 8.22656 303.552 8.4974 303.234 9.03906V15H300.977V6.54688H303.102ZM313.883 15.1562C312.643 15.1562 311.633 14.776 310.852 14.0156C310.076 13.2552 309.688 12.2422 309.688 10.9766V10.7578C309.688 9.90885 309.852 9.15104 310.18 8.48438C310.508 7.8125 310.971 7.29688 311.57 6.9375C312.174 6.57292 312.862 6.39062 313.633 6.39062C314.789 6.39062 315.698 6.75521 316.359 7.48438C317.026 8.21354 317.359 9.2474 317.359 10.5859V11.5078H311.977C312.049 12.0599 312.268 12.5026 312.633 12.8359C313.003 13.1693 313.469 13.3359 314.031 13.3359C314.901 13.3359 315.581 13.0208 316.07 12.3906L317.18 13.6328C316.841 14.112 316.383 14.487 315.805 14.7578C315.227 15.0234 314.586 15.1562 313.883 15.1562ZM313.625 8.21875C313.177 8.21875 312.812 8.36979 312.531 8.67188C312.255 8.97396 312.078 9.40625 312 9.96875H315.141V9.78906C315.13 9.28906 314.995 8.90365 314.734 8.63281C314.474 8.35677 314.104 8.21875 313.625 8.21875ZM321.352 4.46875V6.54688H322.797V8.20312H321.352V12.4219C321.352 12.7344 321.411 12.9583 321.531 13.0938C321.651 13.2292 321.88 13.2969 322.219 13.2969C322.469 13.2969 322.69 13.2786 322.883 13.2422V14.9531C322.44 15.0885 321.984 15.1562 321.516 15.1562C319.932 15.1562 319.125 14.3568 319.094 12.7578V8.20312H317.859V6.54688H319.094V4.46875H321.352ZM328.633 12.6641C328.633 12.388 328.495 12.1719 328.219 12.0156C327.948 11.8542 327.51 11.7109 326.906 11.5859C324.896 11.1641 323.891 10.3099 323.891 9.02344C323.891 8.27344 324.201 7.64844 324.82 7.14844C325.445 6.64323 326.26 6.39062 327.266 6.39062C328.339 6.39062 329.195 6.64323 329.836 7.14844C330.482 7.65365 330.805 8.3099 330.805 9.11719H328.547C328.547 8.79427 328.443 8.52865 328.234 8.32031C328.026 8.10677 327.701 8 327.258 8C326.878 8 326.583 8.08594 326.375 8.25781C326.167 8.42969 326.062 8.64844 326.062 8.91406C326.062 9.16406 326.18 9.36719 326.414 9.52344C326.654 9.67448 327.055 9.80729 327.617 9.92188C328.18 10.0312 328.654 10.1562 329.039 10.2969C330.232 10.7344 330.828 11.4922 330.828 12.5703C330.828 13.3411 330.497 13.9661 329.836 14.4453C329.174 14.9193 328.32 15.1562 327.273 15.1562C326.565 15.1562 325.935 15.0312 325.383 14.7812C324.836 14.526 324.406 14.1797 324.094 13.7422C323.781 13.2995 323.625 12.8229 323.625 12.3125H325.766C325.786 12.7135 325.935 13.0208 326.211 13.2344C326.487 13.4479 326.857 13.5547 327.32 13.5547C327.753 13.5547 328.078 13.474 328.297 13.3125C328.521 13.1458 328.633 12.9297 328.633 12.6641Z" fill="#FE346E"/>
<rect x="197" y="115" width="197" height="38" rx="4" transform="rotate(-180 197 115)" fill="#8B30FF"/>
<rect x="400" y="115" width="139" height="38" rx="4" transform="rotate(-180 400 115)" fill="#FE346E"/>
<rect x="197" y="157" width="197" height="38" rx="4" transform="rotate(-180 197 157)" fill="#8B30FF"/>
<rect x="400" y="157" width="139" height="38" rx="4" transform="rotate(-180 400 157)" fill="#FE346E"/>
<rect x="197" y="199" width="197" height="38" rx="4" transform="rotate(-180 197 199)" fill="#8B30FF"/>
<rect x="400" y="199" width="139" height="38" rx="4" transform="rotate(-180 400 199)" fill="#FE346E"/>
<path d="M23.7695 53.9277C23.7695 54.7676 23.6211 55.5039 23.3242 56.1367C23.0273 56.7695 22.6016 57.2578 22.0469 57.6016C21.4961 57.9453 20.8633 58.1172 20.1484 58.1172C19.4414 58.1172 18.8105 57.9473 18.2559 57.6074C17.7012 57.2676 17.2715 56.7832 16.9668 56.1543C16.6621 55.5215 16.5078 54.7949 16.5039 53.9746V53.5527C16.5039 52.7129 16.6543 51.9746 16.9551 51.3379C17.2598 50.6973 17.6875 50.207 18.2383 49.8672C18.793 49.5234 19.4258 49.3516 20.1367 49.3516C20.8477 49.3516 21.4785 49.5234 22.0293 49.8672C22.584 50.207 23.0117 50.6973 23.3125 51.3379C23.6172 51.9746 23.7695 52.7109 23.7695 53.5469V53.9277ZM21.9883 53.541C21.9883 52.6465 21.8281 51.9668 21.5078 51.502C21.1875 51.0371 20.7305 50.8047 20.1367 50.8047C19.5469 50.8047 19.0918 51.0352 18.7715 51.4961C18.4512 51.9531 18.2891 52.625 18.2852 53.5117V53.9277C18.2852 54.7988 18.4453 55.4746 18.7656 55.9551C19.0859 56.4355 19.5469 56.6758 20.1484 56.6758C20.7383 56.6758 21.1914 56.4453 21.5078 55.9844C21.8242 55.5195 21.9844 54.8438 21.9883 53.957V53.541ZM27.5723 56.752C27.8848 56.752 28.1387 56.666 28.334 56.4941C28.5293 56.3223 28.6309 56.0938 28.6387 55.8086H30.2266C30.2227 56.2383 30.1055 56.6328 29.875 56.9922C29.6445 57.3477 29.3281 57.625 28.9258 57.8242C28.5273 58.0195 28.0859 58.1172 27.6016 58.1172C26.6953 58.1172 25.9805 57.8301 25.457 57.2559C24.9336 56.6777 24.6719 55.8809 24.6719 54.8652V54.7539C24.6719 53.7773 24.9316 52.998 25.4512 52.416C25.9707 51.834 26.6836 51.543 27.5898 51.543C28.3828 51.543 29.0176 51.7695 29.4941 52.2227C29.9746 52.6719 30.2188 53.2715 30.2266 54.0215H28.6387C28.6309 53.6934 28.5293 53.4277 28.334 53.2246C28.1387 53.0176 27.8809 52.9141 27.5605 52.9141C27.166 52.9141 26.8672 53.0586 26.6641 53.3477C26.4648 53.6328 26.3652 54.0977 26.3652 54.7422V54.918C26.3652 55.5703 26.4648 56.0391 26.6641 56.3242C26.8633 56.6094 27.166 56.752 27.5723 56.752ZM34.1113 58.1172C33.1816 58.1172 32.4238 57.832 31.8379 57.2617C31.2559 56.6914 30.9648 55.9316 30.9648 54.9824V54.8184C30.9648 54.1816 31.0879 53.6133 31.334 53.1133C31.5801 52.6094 31.9277 52.2227 32.377 51.9531C32.8301 51.6797 33.3457 51.543 33.9238 51.543C34.791 51.543 35.4727 51.8164 35.9688 52.3633C36.4688 52.9102 36.7188 53.6855 36.7188 54.6895V55.3809H32.6816C32.7363 55.7949 32.9004 56.127 33.1738 56.377C33.4512 56.627 33.8008 56.752 34.2227 56.752C34.875 56.752 35.3848 56.5156 35.752 56.043L36.584 56.9746C36.3301 57.334 35.9863 57.6152 35.5527 57.8184C35.1191 58.0176 34.6387 58.1172 34.1113 58.1172ZM33.918 52.9141C33.582 52.9141 33.3086 53.0273 33.0977 53.2539C32.8906 53.4805 32.7578 53.8047 32.6992 54.2266H35.0547V54.0918C35.0469 53.7168 34.9453 53.4277 34.75 53.2246C34.5547 53.0176 34.2773 52.9141 33.918 52.9141ZM41.3594 58C41.2812 57.8477 41.2246 57.6582 41.1895 57.4316C40.7793 57.8887 40.2461 58.1172 39.5898 58.1172C38.9688 58.1172 38.4531 57.9375 38.043 57.5781C37.6367 57.2188 37.4336 56.7656 37.4336 56.2188C37.4336 55.5469 37.6816 55.0312 38.1777 54.6719C38.6777 54.3125 39.3984 54.1309 40.3398 54.127H41.1191V53.7637C41.1191 53.4707 41.043 53.2363 40.8906 53.0605C40.7422 52.8848 40.5059 52.7969 40.1816 52.7969C39.8965 52.7969 39.6719 52.8652 39.5078 53.002C39.3477 53.1387 39.2676 53.3262 39.2676 53.5645H37.5742C37.5742 53.1973 37.6875 52.8574 37.9141 52.5449C38.1406 52.2324 38.4609 51.9883 38.875 51.8125C39.2891 51.6328 39.7539 51.543 40.2695 51.543C41.0508 51.543 41.6699 51.7402 42.127 52.1348C42.5879 52.5254 42.8184 53.0762 42.8184 53.7871V56.5352C42.8223 57.1367 42.9062 57.5918 43.0703 57.9004V58H41.3594ZM39.959 56.8223C40.209 56.8223 40.4395 56.7676 40.6504 56.6582C40.8613 56.5449 41.0176 56.3945 41.1191 56.207V55.1172H40.4863C39.6387 55.1172 39.1875 55.4102 39.1328 55.9961L39.127 56.0957C39.127 56.3066 39.2012 56.4805 39.3496 56.6172C39.498 56.7539 39.7012 56.8223 39.959 56.8223ZM45.6777 51.6602L45.7305 52.3926C46.1836 51.8262 46.791 51.543 47.5527 51.543C48.2246 51.543 48.7246 51.7402 49.0527 52.1348C49.3809 52.5293 49.5488 53.1191 49.5566 53.9043V58H47.8633V53.9453C47.8633 53.5859 47.7852 53.3262 47.6289 53.166C47.4727 53.002 47.2129 52.9199 46.8496 52.9199C46.373 52.9199 46.0156 53.123 45.7773 53.5293V58H44.084V51.6602H45.6777ZM59.541 54.8887C59.541 55.8652 59.3184 56.6484 58.873 57.2383C58.4316 57.8242 57.834 58.1172 57.0801 58.1172C56.4395 58.1172 55.9219 57.8945 55.5273 57.4492V60.4375H53.834V51.6602H55.4043L55.4629 52.2812C55.873 51.7891 56.4082 51.543 57.0684 51.543C57.8496 51.543 58.457 51.832 58.8906 52.4102C59.3242 52.9883 59.541 53.7852 59.541 54.8008V54.8887ZM57.8477 54.7656C57.8477 54.1758 57.7422 53.7207 57.5312 53.4004C57.3242 53.0801 57.0215 52.9199 56.623 52.9199C56.0918 52.9199 55.7266 53.123 55.5273 53.5293V56.125C55.7344 56.543 56.1035 56.752 56.6348 56.752C57.4434 56.752 57.8477 56.0898 57.8477 54.7656ZM62.3828 58H60.6836V49H62.3828V58ZM67.457 58C67.3789 57.8477 67.3223 57.6582 67.2871 57.4316C66.877 57.8887 66.3438 58.1172 65.6875 58.1172C65.0664 58.1172 64.5508 57.9375 64.1406 57.5781C63.7344 57.2188 63.5312 56.7656 63.5312 56.2188C63.5312 55.5469 63.7793 55.0312 64.2754 54.6719C64.7754 54.3125 65.4961 54.1309 66.4375 54.127H67.2168V53.7637C67.2168 53.4707 67.1406 53.2363 66.9883 53.0605C66.8398 52.8848 66.6035 52.7969 66.2793 52.7969C65.9941 52.7969 65.7695 52.8652 65.6055 53.002C65.4453 53.1387 65.3652 53.3262 65.3652 53.5645H63.6719C63.6719 53.1973 63.7852 52.8574 64.0117 52.5449C64.2383 52.2324 64.5586 51.9883 64.9727 51.8125C65.3867 51.6328 65.8516 51.543 66.3672 51.543C67.1484 51.543 67.7676 51.7402 68.2246 52.1348C68.6855 52.5254 68.916 53.0762 68.916 53.7871V56.5352C68.9199 57.1367 69.0039 57.5918 69.168 57.9004V58H67.457ZM66.0566 56.8223C66.3066 56.8223 66.5371 56.7676 66.748 56.6582C66.959 56.5449 67.1152 56.3945 67.2168 56.207V55.1172H66.584C65.7363 55.1172 65.2852 55.4102 65.2305 55.9961L65.2246 56.0957C65.2246 56.3066 65.2988 56.4805 65.4473 56.6172C65.5957 56.7539 65.7988 56.8223 66.0566 56.8223ZM71.7754 51.6602L71.8281 52.3926C72.2812 51.8262 72.8887 51.543 73.6504 51.543C74.3223 51.543 74.8223 51.7402 75.1504 52.1348C75.4785 52.5293 75.6465 53.1191 75.6543 53.9043V58H73.9609V53.9453C73.9609 53.5859 73.8828 53.3262 73.7266 53.166C73.5703 53.002 73.3105 52.9199 72.9473 52.9199C72.4707 52.9199 72.1133 53.123 71.875 53.5293V58H70.1816V51.6602H71.7754ZM79.8613 58.1172C78.9316 58.1172 78.1738 57.832 77.5879 57.2617C77.0059 56.6914 76.7148 55.9316 76.7148 54.9824V54.8184C76.7148 54.1816 76.8379 53.6133 77.084 53.1133C77.3301 52.6094 77.6777 52.2227 78.127 51.9531C78.5801 51.6797 79.0957 51.543 79.6738 51.543C80.541 51.543 81.2227 51.8164 81.7188 52.3633C82.2188 52.9102 82.4688 53.6855 82.4688 54.6895V55.3809H78.4316C78.4863 55.7949 78.6504 56.127 78.9238 56.377C79.2012 56.627 79.5508 56.752 79.9727 56.752C80.625 56.752 81.1348 56.5156 81.502 56.043L82.334 56.9746C82.0801 57.334 81.7363 57.6152 81.3027 57.8184C80.8691 58.0176 80.3887 58.1172 79.8613 58.1172ZM79.668 52.9141C79.332 52.9141 79.0586 53.0273 78.8477 53.2539C78.6406 53.4805 78.5078 53.8047 78.4492 54.2266H80.8047V54.0918C80.7969 53.7168 80.6953 53.4277 80.5 53.2246C80.3047 53.0176 80.0273 52.9141 79.668 52.9141ZM85.4629 50.1016V51.6602H86.5469V52.9023H85.4629V56.0664C85.4629 56.3008 85.5078 56.4688 85.5977 56.5703C85.6875 56.6719 85.8594 56.7227 86.1133 56.7227C86.3008 56.7227 86.4668 56.709 86.6113 56.6816V57.9648C86.2793 58.0664 85.9375 58.1172 85.5859 58.1172C84.3984 58.1172 83.793 57.5176 83.7695 56.3184V52.9023H82.8438V51.6602H83.7695V50.1016H85.4629Z" fill="white"/>
<path d="M280.059 49.4688L282.25 55.6562L284.43 49.4688H286.738V58H284.975V55.668L285.15 51.6426L282.848 58H281.641L279.344 51.6484L279.52 55.668V58H277.762V49.4688H280.059ZM291.08 58.1172C290.15 58.1172 289.393 57.832 288.807 57.2617C288.225 56.6914 287.934 55.9316 287.934 54.9824V54.8184C287.934 54.1816 288.057 53.6133 288.303 53.1133C288.549 52.6094 288.896 52.2227 289.346 51.9531C289.799 51.6797 290.314 51.543 290.893 51.543C291.76 51.543 292.441 51.8164 292.938 52.3633C293.438 52.9102 293.688 53.6855 293.688 54.6895V55.3809H289.65C289.705 55.7949 289.869 56.127 290.143 56.377C290.42 56.627 290.77 56.752 291.191 56.752C291.844 56.752 292.354 56.5156 292.721 56.043L293.553 56.9746C293.299 57.334 292.955 57.6152 292.521 57.8184C292.088 58.0176 291.607 58.1172 291.08 58.1172ZM290.887 52.9141C290.551 52.9141 290.277 53.0273 290.066 53.2539C289.859 53.4805 289.727 53.8047 289.668 54.2266H292.023V54.0918C292.016 53.7168 291.914 53.4277 291.719 53.2246C291.523 53.0176 291.246 52.9141 290.887 52.9141ZM298.217 53.248C297.986 53.2168 297.783 53.2012 297.607 53.2012C296.967 53.2012 296.547 53.418 296.348 53.8516V58H294.654V51.6602H296.254L296.301 52.416C296.641 51.834 297.111 51.543 297.713 51.543C297.9 51.543 298.076 51.5684 298.24 51.6191L298.217 53.248ZM301.557 56.752C301.869 56.752 302.123 56.666 302.318 56.4941C302.514 56.3223 302.615 56.0938 302.623 55.8086H304.211C304.207 56.2383 304.09 56.6328 303.859 56.9922C303.629 57.3477 303.312 57.625 302.91 57.8242C302.512 58.0195 302.07 58.1172 301.586 58.1172C300.68 58.1172 299.965 57.8301 299.441 57.2559C298.918 56.6777 298.656 55.8809 298.656 54.8652V54.7539C298.656 53.7773 298.916 52.998 299.436 52.416C299.955 51.834 300.668 51.543 301.574 51.543C302.367 51.543 303.002 51.7695 303.479 52.2227C303.959 52.6719 304.203 53.2715 304.211 54.0215H302.623C302.615 53.6934 302.514 53.4277 302.318 53.2246C302.123 53.0176 301.865 52.9141 301.545 52.9141C301.15 52.9141 300.852 53.0586 300.648 53.3477C300.449 53.6328 300.35 54.0977 300.35 54.7422V54.918C300.35 55.5703 300.449 56.0391 300.648 56.3242C300.848 56.6094 301.15 56.752 301.557 56.752ZM308.975 57.3555C308.557 57.8633 307.979 58.1172 307.24 58.1172C306.561 58.1172 306.041 57.9219 305.682 57.5312C305.326 57.1406 305.145 56.5684 305.137 55.8145V51.6602H306.83V55.7559C306.83 56.416 307.131 56.7461 307.732 56.7461C308.307 56.7461 308.701 56.5469 308.916 56.1484V51.6602H310.615V58H309.021L308.975 57.3555ZM315.455 53.248C315.225 53.2168 315.021 53.2012 314.846 53.2012C314.205 53.2012 313.785 53.418 313.586 53.8516V58H311.893V51.6602H313.492L313.539 52.416C313.879 51.834 314.35 51.543 314.951 51.543C315.139 51.543 315.314 51.5684 315.479 51.6191L315.455 53.248ZM318.748 55.6035L319.92 51.6602H321.736L319.188 58.9844L319.047 59.3184C318.668 60.1465 318.043 60.5605 317.172 60.5605C316.926 60.5605 316.676 60.5234 316.422 60.4492V59.166L316.68 59.1719C317 59.1719 317.238 59.123 317.395 59.0254C317.555 58.9277 317.68 58.7656 317.77 58.5391L317.969 58.0176L315.748 51.6602H317.57L318.748 55.6035Z" fill="white"/>
<path d="M23.1836 92.8926H20.5703V100H18.8125V92.8926H16.2344V91.4688H23.1836V92.8926ZM26.4707 100.117C25.541 100.117 24.7832 99.832 24.1973 99.2617C23.6152 98.6914 23.3242 97.9316 23.3242 96.9824V96.8184C23.3242 96.1816 23.4473 95.6133 23.6934 95.1133C23.9395 94.6094 24.2871 94.2227 24.7363 93.9531C25.1895 93.6797 25.7051 93.543 26.2832 93.543C27.1504 93.543 27.832 93.8164 28.3281 94.3633C28.8281 94.9102 29.0781 95.6855 29.0781 96.6895V97.3809H25.041C25.0957 97.7949 25.2598 98.127 25.5332 98.377C25.8105 98.627 26.1602 98.752 26.582 98.752C27.2344 98.752 27.7441 98.5156 28.1113 98.043L28.9434 98.9746C28.6895 99.334 28.3457 99.6152 27.9121 99.8184C27.4785 100.018 26.998 100.117 26.4707 100.117ZM26.2773 94.9141C25.9414 94.9141 25.668 95.0273 25.457 95.2539C25.25 95.4805 25.1172 95.8047 25.0586 96.2266H27.4141V96.0918C27.4062 95.7168 27.3047 95.4277 27.1094 95.2246C26.9141 95.0176 26.6367 94.9141 26.2773 94.9141ZM33.6074 95.248C33.377 95.2168 33.1738 95.2012 32.998 95.2012C32.3574 95.2012 31.9375 95.418 31.7383 95.8516V100H30.0449V93.6602H31.6445L31.6914 94.416C32.0312 93.834 32.502 93.543 33.1035 93.543C33.291 93.543 33.4668 93.5684 33.6309 93.6191L33.6074 95.248ZM37.9902 95.248C37.7598 95.2168 37.5566 95.2012 37.3809 95.2012C36.7402 95.2012 36.3203 95.418 36.1211 95.8516V100H34.4277V93.6602H36.0273L36.0742 94.416C36.4141 93.834 36.8848 93.543 37.4863 93.543C37.6738 93.543 37.8496 93.5684 38.0137 93.6191L37.9902 95.248ZM41.6113 100.117C40.6816 100.117 39.9238 99.832 39.3379 99.2617C38.7559 98.6914 38.4648 97.9316 38.4648 96.9824V96.8184C38.4648 96.1816 38.5879 95.6133 38.834 95.1133C39.0801 94.6094 39.4277 94.2227 39.877 93.9531C40.3301 93.6797 40.8457 93.543 41.4238 93.543C42.291 93.543 42.9727 93.8164 43.4688 94.3633C43.9688 94.9102 44.2188 95.6855 44.2188 96.6895V97.3809H40.1816C40.2363 97.7949 40.4004 98.127 40.6738 98.377C40.9512 98.627 41.3008 98.752 41.7227 98.752C42.375 98.752 42.8848 98.5156 43.252 98.043L44.084 98.9746C43.8301 99.334 43.4863 99.6152 43.0527 99.8184C42.6191 100.018 42.1387 100.117 41.6113 100.117ZM41.418 94.9141C41.082 94.9141 40.8086 95.0273 40.5977 95.2539C40.3906 95.4805 40.2578 95.8047 40.1992 96.2266H42.5547V96.0918C42.5469 95.7168 42.4453 95.4277 42.25 95.2246C42.0547 95.0176 41.7773 94.9141 41.418 94.9141ZM48.6191 98.248C48.6191 98.041 48.5156 97.8789 48.3086 97.7617C48.1055 97.6406 47.7773 97.5332 47.3242 97.4395C45.8164 97.123 45.0625 96.4824 45.0625 95.5176C45.0625 94.9551 45.2949 94.4863 45.7598 94.1113C46.2285 93.7324 46.8398 93.543 47.5938 93.543C48.3984 93.543 49.041 93.7324 49.5215 94.1113C50.0059 94.4902 50.248 94.9824 50.248 95.5879H48.5547C48.5547 95.3457 48.4766 95.1465 48.3203 94.9902C48.1641 94.8301 47.9199 94.75 47.5879 94.75C47.3027 94.75 47.082 94.8145 46.9258 94.9434C46.7695 95.0723 46.6914 95.2363 46.6914 95.4355C46.6914 95.623 46.7793 95.7754 46.9551 95.8926C47.1348 96.0059 47.4355 96.1055 47.8574 96.1914C48.2793 96.2734 48.6348 96.3672 48.9238 96.4727C49.8184 96.8008 50.2656 97.3691 50.2656 98.1777C50.2656 98.7559 50.0176 99.2246 49.5215 99.584C49.0254 99.9395 48.3848 100.117 47.5996 100.117C47.0684 100.117 46.5957 100.023 46.1816 99.8359C45.7715 99.6445 45.4492 99.3848 45.2148 99.0566C44.9805 98.7246 44.8633 98.3672 44.8633 97.9844H46.4688C46.4844 98.2852 46.5957 98.5156 46.8027 98.6758C47.0098 98.8359 47.2871 98.916 47.6348 98.916C47.959 98.916 48.2031 98.8555 48.3672 98.7344C48.5352 98.6094 48.6191 98.4473 48.6191 98.248ZM53.3887 92.1016V93.6602H54.4727V94.9023H53.3887V98.0664C53.3887 98.3008 53.4336 98.4688 53.5234 98.5703C53.6133 98.6719 53.7852 98.7227 54.0391 98.7227C54.2266 98.7227 54.3926 98.709 54.5371 98.6816V99.9648C54.2051 100.066 53.8633 100.117 53.5117 100.117C52.3242 100.117 51.7188 99.5176 51.6953 98.3184V94.9023H50.7695V93.6602H51.6953V92.1016H53.3887ZM58.9785 95.248C58.748 95.2168 58.5449 95.2012 58.3691 95.2012C57.7285 95.2012 57.3086 95.418 57.1094 95.8516V100H55.416V93.6602H57.0156L57.0625 94.416C57.4023 93.834 57.873 93.543 58.4746 93.543C58.6621 93.543 58.8379 93.5684 59.002 93.6191L58.9785 95.248ZM61.5859 100H59.8867V93.6602H61.5859V100ZM59.7871 92.0195C59.7871 91.7656 59.8711 91.5566 60.0391 91.3926C60.2109 91.2285 60.4434 91.1465 60.7363 91.1465C61.0254 91.1465 61.2559 91.2285 61.4277 91.3926C61.5996 91.5566 61.6855 91.7656 61.6855 92.0195C61.6855 92.2773 61.5977 92.4883 61.4219 92.6523C61.25 92.8164 61.0215 92.8984 60.7363 92.8984C60.4512 92.8984 60.2207 92.8164 60.0449 92.6523C59.873 92.4883 59.7871 92.2773 59.7871 92.0195ZM66.6602 100C66.582 99.8477 66.5254 99.6582 66.4902 99.4316C66.0801 99.8887 65.5469 100.117 64.8906 100.117C64.2695 100.117 63.7539 99.9375 63.3438 99.5781C62.9375 99.2188 62.7344 98.7656 62.7344 98.2188C62.7344 97.5469 62.9824 97.0312 63.4785 96.6719C63.9785 96.3125 64.6992 96.1309 65.6406 96.127H66.4199V95.7637C66.4199 95.4707 66.3438 95.2363 66.1914 95.0605C66.043 94.8848 65.8066 94.7969 65.4824 94.7969C65.1973 94.7969 64.9727 94.8652 64.8086 95.002C64.6484 95.1387 64.5684 95.3262 64.5684 95.5645H62.875C62.875 95.1973 62.9883 94.8574 63.2148 94.5449C63.4414 94.2324 63.7617 93.9883 64.1758 93.8125C64.5898 93.6328 65.0547 93.543 65.5703 93.543C66.3516 93.543 66.9707 93.7402 67.4277 94.1348C67.8887 94.5254 68.1191 95.0762 68.1191 95.7871V98.5352C68.123 99.1367 68.207 99.5918 68.3711 99.9004V100H66.6602ZM65.2598 98.8223C65.5098 98.8223 65.7402 98.7676 65.9512 98.6582C66.1621 98.5449 66.3184 98.3945 66.4199 98.207V97.1172H65.7871C64.9395 97.1172 64.4883 97.4102 64.4336 97.9961L64.4277 98.0957C64.4277 98.3066 64.502 98.4805 64.6504 98.6172C64.7988 98.7539 65.002 98.8223 65.2598 98.8223ZM71.207 100H69.5078V91H71.207V100ZM81.3027 96.8887C81.3027 97.8652 81.0801 98.6484 80.6348 99.2383C80.1934 99.8242 79.5957 100.117 78.8418 100.117C78.2012 100.117 77.6836 99.8945 77.2891 99.4492V102.438H75.5957V93.6602H77.166L77.2246 94.2812C77.6348 93.7891 78.1699 93.543 78.8301 93.543C79.6113 93.543 80.2188 93.832 80.6523 94.4102C81.0859 94.9883 81.3027 95.7852 81.3027 96.8008V96.8887ZM79.6094 96.7656C79.6094 96.1758 79.5039 95.7207 79.293 95.4004C79.0859 95.0801 78.7832 94.9199 78.3848 94.9199C77.8535 94.9199 77.4883 95.123 77.2891 95.5293V98.125C77.4961 98.543 77.8652 98.752 78.3965 98.752C79.2051 98.752 79.6094 98.0898 79.6094 96.7656ZM84.1445 100H82.4453V91H84.1445V100ZM89.2188 100C89.1406 99.8477 89.084 99.6582 89.0488 99.4316C88.6387 99.8887 88.1055 100.117 87.4492 100.117C86.8281 100.117 86.3125 99.9375 85.9023 99.5781C85.4961 99.2188 85.293 98.7656 85.293 98.2188C85.293 97.5469 85.541 97.0312 86.0371 96.6719C86.5371 96.3125 87.2578 96.1309 88.1992 96.127H88.9785V95.7637C88.9785 95.4707 88.9023 95.2363 88.75 95.0605C88.6016 94.8848 88.3652 94.7969 88.041 94.7969C87.7559 94.7969 87.5312 94.8652 87.3672 95.002C87.207 95.1387 87.127 95.3262 87.127 95.5645H85.4336C85.4336 95.1973 85.5469 94.8574 85.7734 94.5449C86 94.2324 86.3203 93.9883 86.7344 93.8125C87.1484 93.6328 87.6133 93.543 88.1289 93.543C88.9102 93.543 89.5293 93.7402 89.9863 94.1348C90.4473 94.5254 90.6777 95.0762 90.6777 95.7871V98.5352C90.6816 99.1367 90.7656 99.5918 90.9297 99.9004V100H89.2188ZM87.8184 98.8223C88.0684 98.8223 88.2988 98.7676 88.5098 98.6582C88.7207 98.5449 88.877 98.3945 88.9785 98.207V97.1172H88.3457C87.498 97.1172 87.0469 97.4102 86.9922 97.9961L86.9863 98.0957C86.9863 98.3066 87.0605 98.4805 87.209 98.6172C87.3574 98.7539 87.5605 98.8223 87.8184 98.8223ZM93.5371 93.6602L93.5898 94.3926C94.043 93.8262 94.6504 93.543 95.4121 93.543C96.084 93.543 96.584 93.7402 96.9121 94.1348C97.2402 94.5293 97.4082 95.1191 97.416 95.9043V100H95.7227V95.9453C95.7227 95.5859 95.6445 95.3262 95.4883 95.166C95.332 95.002 95.0723 94.9199 94.709 94.9199C94.2324 94.9199 93.875 95.123 93.6367 95.5293V100H91.9434V93.6602H93.5371ZM101.623 100.117C100.693 100.117 99.9355 99.832 99.3496 99.2617C98.7676 98.6914 98.4766 97.9316 98.4766 96.9824V96.8184C98.4766 96.1816 98.5996 95.6133 98.8457 95.1133C99.0918 94.6094 99.4395 94.2227 99.8887 93.9531C100.342 93.6797 100.857 93.543 101.436 93.543C102.303 93.543 102.984 93.8164 103.48 94.3633C103.98 94.9102 104.23 95.6855 104.23 96.6895V97.3809H100.193C100.248 97.7949 100.412 98.127 100.686 98.377C100.963 98.627 101.312 98.752 101.734 98.752C102.387 98.752 102.896 98.5156 103.264 98.043L104.096 98.9746C103.842 99.334 103.498 99.6152 103.064 99.8184C102.631 100.018 102.15 100.117 101.623 100.117ZM101.43 94.9141C101.094 94.9141 100.82 95.0273 100.609 95.2539C100.402 95.4805 100.27 95.8047 100.211 96.2266H102.566V96.0918C102.559 95.7168 102.457 95.4277 102.262 95.2246C102.066 95.0176 101.789 94.9141 101.43 94.9141ZM107.225 92.1016V93.6602H108.309V94.9023H107.225V98.0664C107.225 98.3008 107.27 98.4688 107.359 98.5703C107.449 98.6719 107.621 98.7227 107.875 98.7227C108.062 98.7227 108.229 98.709 108.373 98.6816V99.9648C108.041 100.066 107.699 100.117 107.348 100.117C106.16 100.117 105.555 99.5176 105.531 98.3184V94.9023H104.605V93.6602H105.531V92.1016H107.225Z" fill="white"/>
<path d="M280.914 97.8848L282.848 91.4688H284.805L281.834 100H280L277.041 91.4688H278.992L280.914 97.8848ZM288.162 100.117C287.232 100.117 286.475 99.832 285.889 99.2617C285.307 98.6914 285.016 97.9316 285.016 96.9824V96.8184C285.016 96.1816 285.139 95.6133 285.385 95.1133C285.631 94.6094 285.979 94.2227 286.428 93.9531C286.881 93.6797 287.396 93.543 287.975 93.543C288.842 93.543 289.523 93.8164 290.02 94.3633C290.52 94.9102 290.77 95.6855 290.77 96.6895V97.3809H286.732C286.787 97.7949 286.951 98.127 287.225 98.377C287.502 98.627 287.852 98.752 288.273 98.752C288.926 98.752 289.436 98.5156 289.803 98.043L290.635 98.9746C290.381 99.334 290.037 99.6152 289.604 99.8184C289.17 100.018 288.689 100.117 288.162 100.117ZM287.969 94.9141C287.633 94.9141 287.359 95.0273 287.148 95.2539C286.941 95.4805 286.809 95.8047 286.75 96.2266H289.105V96.0918C289.098 95.7168 288.996 95.4277 288.801 95.2246C288.605 95.0176 288.328 94.9141 287.969 94.9141ZM293.295 93.6602L293.348 94.3926C293.801 93.8262 294.408 93.543 295.17 93.543C295.842 93.543 296.342 93.7402 296.67 94.1348C296.998 94.5293 297.166 95.1191 297.174 95.9043V100H295.48V95.9453C295.48 95.5859 295.402 95.3262 295.246 95.166C295.09 95.002 294.83 94.9199 294.467 94.9199C293.99 94.9199 293.633 95.123 293.395 95.5293V100H291.701V93.6602H293.295ZM302.26 99.3555C301.842 99.8633 301.264 100.117 300.525 100.117C299.846 100.117 299.326 99.9219 298.967 99.5312C298.611 99.1406 298.43 98.5684 298.422 97.8145V93.6602H300.115V97.7559C300.115 98.416 300.416 98.7461 301.018 98.7461C301.592 98.7461 301.986 98.5469 302.201 98.1484V93.6602H303.9V100H302.307L302.26 99.3555ZM308.611 98.248C308.611 98.041 308.508 97.8789 308.301 97.7617C308.098 97.6406 307.77 97.5332 307.316 97.4395C305.809 97.123 305.055 96.4824 305.055 95.5176C305.055 94.9551 305.287 94.4863 305.752 94.1113C306.221 93.7324 306.832 93.543 307.586 93.543C308.391 93.543 309.033 93.7324 309.514 94.1113C309.998 94.4902 310.24 94.9824 310.24 95.5879H308.547C308.547 95.3457 308.469 95.1465 308.312 94.9902C308.156 94.8301 307.912 94.75 307.58 94.75C307.295 94.75 307.074 94.8145 306.918 94.9434C306.762 95.0723 306.684 95.2363 306.684 95.4355C306.684 95.623 306.771 95.7754 306.947 95.8926C307.127 96.0059 307.428 96.1055 307.85 96.1914C308.271 96.2734 308.627 96.3672 308.916 96.4727C309.811 96.8008 310.258 97.3691 310.258 98.1777C310.258 98.7559 310.01 99.2246 309.514 99.584C309.018 99.9395 308.377 100.117 307.592 100.117C307.061 100.117 306.588 100.023 306.174 99.8359C305.764 99.6445 305.441 99.3848 305.207 99.0566C304.973 98.7246 304.855 98.3672 304.855 97.9844H306.461C306.477 98.2852 306.588 98.5156 306.795 98.6758C307.002 98.8359 307.279 98.916 307.627 98.916C307.951 98.916 308.195 98.8555 308.359 98.7344C308.527 98.6094 308.611 98.4473 308.611 98.248Z" fill="white"/>
<path d="M18.6309 142H16.873V133.469H18.6309V142ZM22.791 140.752C23.1035 140.752 23.3574 140.666 23.5527 140.494C23.748 140.322 23.8496 140.094 23.8574 139.809H25.4453C25.4414 140.238 25.3242 140.633 25.0938 140.992C24.8633 141.348 24.5469 141.625 24.1445 141.824C23.7461 142.02 23.3047 142.117 22.8203 142.117C21.9141 142.117 21.1992 141.83 20.6758 141.256C20.1523 140.678 19.8906 139.881 19.8906 138.865V138.754C19.8906 137.777 20.1504 136.998 20.6699 136.416C21.1895 135.834 21.9023 135.543 22.8086 135.543C23.6016 135.543 24.2363 135.77 24.7129 136.223C25.1934 136.672 25.4375 137.271 25.4453 138.021H23.8574C23.8496 137.693 23.748 137.428 23.5527 137.225C23.3574 137.018 23.0996 136.914 22.7793 136.914C22.3848 136.914 22.0859 137.059 21.8828 137.348C21.6836 137.633 21.584 138.098 21.584 138.742V138.918C21.584 139.57 21.6836 140.039 21.8828 140.324C22.082 140.609 22.3848 140.752 22.791 140.752ZM29.3301 142.117C28.4004 142.117 27.6426 141.832 27.0566 141.262C26.4746 140.691 26.1836 139.932 26.1836 138.982V138.818C26.1836 138.182 26.3066 137.613 26.5527 137.113C26.7988 136.609 27.1465 136.223 27.5957 135.953C28.0488 135.68 28.5645 135.543 29.1426 135.543C30.0098 135.543 30.6914 135.816 31.1875 136.363C31.6875 136.91 31.9375 137.686 31.9375 138.689V139.381H27.9004C27.9551 139.795 28.1191 140.127 28.3926 140.377C28.6699 140.627 29.0195 140.752 29.4414 140.752C30.0938 140.752 30.6035 140.516 30.9707 140.043L31.8027 140.975C31.5488 141.334 31.2051 141.615 30.7715 141.818C30.3379 142.018 29.8574 142.117 29.3301 142.117ZM29.1367 136.914C28.8008 136.914 28.5273 137.027 28.3164 137.254C28.1094 137.48 27.9766 137.805 27.918 138.227H30.2734V138.092C30.2656 137.717 30.1641 137.428 29.9688 137.225C29.7734 137.018 29.4961 136.914 29.1367 136.914ZM41.5996 138.889C41.5996 139.865 41.377 140.648 40.9316 141.238C40.4902 141.824 39.8926 142.117 39.1387 142.117C38.498 142.117 37.9805 141.895 37.5859 141.449V144.438H35.8926V135.66H37.4629L37.5215 136.281C37.9316 135.789 38.4668 135.543 39.127 135.543C39.9082 135.543 40.5156 135.832 40.9492 136.41C41.3828 136.988 41.5996 137.785 41.5996 138.801V138.889ZM39.9062 138.766C39.9062 138.176 39.8008 137.721 39.5898 137.4C39.3828 137.08 39.0801 136.92 38.6816 136.92C38.1504 136.92 37.7852 137.123 37.5859 137.529V140.125C37.793 140.543 38.1621 140.752 38.6934 140.752C39.502 140.752 39.9062 140.09 39.9062 138.766ZM44.4414 142H42.7422V133H44.4414V142ZM49.5156 142C49.4375 141.848 49.3809 141.658 49.3457 141.432C48.9355 141.889 48.4023 142.117 47.7461 142.117C47.125 142.117 46.6094 141.938 46.1992 141.578C45.793 141.219 45.5898 140.766 45.5898 140.219C45.5898 139.547 45.8379 139.031 46.334 138.672C46.834 138.312 47.5547 138.131 48.4961 138.127H49.2754V137.764C49.2754 137.471 49.1992 137.236 49.0469 137.061C48.8984 136.885 48.6621 136.797 48.3379 136.797C48.0527 136.797 47.8281 136.865 47.6641 137.002C47.5039 137.139 47.4238 137.326 47.4238 137.564H45.7305C45.7305 137.197 45.8438 136.857 46.0703 136.545C46.2969 136.232 46.6172 135.988 47.0312 135.812C47.4453 135.633 47.9102 135.543 48.4258 135.543C49.207 135.543 49.8262 135.74 50.2832 136.135C50.7441 136.525 50.9746 137.076 50.9746 137.787V140.535C50.9785 141.137 51.0625 141.592 51.2266 141.9V142H49.5156ZM48.1152 140.822C48.3652 140.822 48.5957 140.768 48.8066 140.658C49.0176 140.545 49.1738 140.395 49.2754 140.207V139.117H48.6426C47.7949 139.117 47.3438 139.41 47.2891 139.996L47.2832 140.096C47.2832 140.307 47.3574 140.48 47.5059 140.617C47.6543 140.754 47.8574 140.822 48.1152 140.822ZM53.834 135.66L53.8867 136.393C54.3398 135.826 54.9473 135.543 55.709 135.543C56.3809 135.543 56.8809 135.74 57.209 136.135C57.5371 136.529 57.7051 137.119 57.7129 137.904V142H56.0195V137.945C56.0195 137.586 55.9414 137.326 55.7852 137.166C55.6289 137.002 55.3691 136.92 55.0059 136.92C54.5293 136.92 54.1719 137.123 53.9336 137.529V142H52.2402V135.66H53.834ZM61.9199 142.117C60.9902 142.117 60.2324 141.832 59.6465 141.262C59.0645 140.691 58.7734 139.932 58.7734 138.982V138.818C58.7734 138.182 58.8965 137.613 59.1426 137.113C59.3887 136.609 59.7363 136.223 60.1855 135.953C60.6387 135.68 61.1543 135.543 61.7324 135.543C62.5996 135.543 63.2812 135.816 63.7773 136.363C64.2773 136.91 64.5273 137.686 64.5273 138.689V139.381H60.4902C60.5449 139.795 60.709 140.127 60.9824 140.377C61.2598 140.627 61.6094 140.752 62.0312 140.752C62.6836 140.752 63.1934 140.516 63.5605 140.043L64.3926 140.975C64.1387 141.334 63.7949 141.615 63.3613 141.818C62.9277 142.018 62.4473 142.117 61.9199 142.117ZM61.7266 136.914C61.3906 136.914 61.1172 137.027 60.9062 137.254C60.6992 137.48 60.5664 137.805 60.5078 138.227H62.8633V138.092C62.8555 137.717 62.7539 137.428 62.5586 137.225C62.3633 137.018 62.0859 136.914 61.7266 136.914ZM67.5215 134.102V135.66H68.6055V136.902H67.5215V140.066C67.5215 140.301 67.5664 140.469 67.6562 140.57C67.7461 140.672 67.918 140.723 68.1719 140.723C68.3594 140.723 68.5254 140.709 68.6699 140.682V141.965C68.3379 142.066 67.9961 142.117 67.6445 142.117C66.457 142.117 65.8516 141.518 65.8281 140.318V136.902H64.9023V135.66H65.8281V134.102H67.5215Z" fill="white"/>
<path d="M282.895 138.303H279.52V140.588H283.48V142H277.762V133.469H283.469V134.893H279.52V136.926H282.895V138.303ZM288.074 142C287.996 141.848 287.939 141.658 287.904 141.432C287.494 141.889 286.961 142.117 286.305 142.117C285.684 142.117 285.168 141.938 284.758 141.578C284.352 141.219 284.148 140.766 284.148 140.219C284.148 139.547 284.396 139.031 284.893 138.672C285.393 138.312 286.113 138.131 287.055 138.127H287.834V137.764C287.834 137.471 287.758 137.236 287.605 137.061C287.457 136.885 287.221 136.797 286.896 136.797C286.611 136.797 286.387 136.865 286.223 137.002C286.062 137.139 285.982 137.326 285.982 137.564H284.289C284.289 137.197 284.402 136.857 284.629 136.545C284.855 136.232 285.176 135.988 285.59 135.812C286.004 135.633 286.469 135.543 286.984 135.543C287.766 135.543 288.385 135.74 288.842 136.135C289.303 136.525 289.533 137.076 289.533 137.787V140.535C289.537 141.137 289.621 141.592 289.785 141.9V142H288.074ZM286.674 140.822C286.924 140.822 287.154 140.768 287.365 140.658C287.576 140.545 287.732 140.395 287.834 140.207V139.117H287.201C286.354 139.117 285.902 139.41 285.848 139.996L285.842 140.096C285.842 140.307 285.916 140.48 286.064 140.617C286.213 140.754 286.416 140.822 286.674 140.822ZM294.396 137.248C294.166 137.217 293.963 137.201 293.787 137.201C293.146 137.201 292.727 137.418 292.527 137.852V142H290.834V135.66H292.434L292.48 136.416C292.82 135.834 293.291 135.543 293.893 135.543C294.08 135.543 294.256 135.568 294.42 135.619L294.396 137.248ZM297.537 134.102V135.66H298.621V136.902H297.537V140.066C297.537 140.301 297.582 140.469 297.672 140.57C297.762 140.672 297.934 140.723 298.188 140.723C298.375 140.723 298.541 140.709 298.686 140.682V141.965C298.354 142.066 298.012 142.117 297.66 142.117C296.473 142.117 295.867 141.518 295.844 140.318V136.902H294.918V135.66H295.844V134.102H297.537ZM301.217 136.352C301.666 135.812 302.23 135.543 302.91 135.543C304.285 135.543 304.982 136.342 305.002 137.939V142H303.309V137.986C303.309 137.623 303.23 137.355 303.074 137.184C302.918 137.008 302.658 136.92 302.295 136.92C301.799 136.92 301.439 137.111 301.217 137.494V142H299.523V133H301.217V136.352Z" fill="white"/>
<path d="M23.459 181.158C23.3926 182.076 23.0527 182.799 22.4395 183.326C21.8301 183.854 21.0254 184.117 20.0254 184.117C18.9316 184.117 18.0703 183.75 17.4414 183.016C16.8164 182.277 16.5039 181.266 16.5039 179.98V179.459C16.5039 178.639 16.6484 177.916 16.9375 177.291C17.2266 176.666 17.6387 176.188 18.1738 175.855C18.7129 175.52 19.3379 175.352 20.0488 175.352C21.0332 175.352 21.8262 175.615 22.4277 176.143C23.0293 176.67 23.377 177.41 23.4707 178.363H21.7129C21.6699 177.812 21.5156 177.414 21.25 177.168C20.9883 176.918 20.5879 176.793 20.0488 176.793C19.4629 176.793 19.0234 177.004 18.7305 177.426C18.4414 177.844 18.293 178.494 18.2852 179.377V180.021C18.2852 180.943 18.4238 181.617 18.7012 182.043C18.9824 182.469 19.4238 182.682 20.0254 182.682C20.5684 182.682 20.9727 182.559 21.2383 182.312C21.5078 182.062 21.6621 181.678 21.7012 181.158H23.459ZM26.2891 184H24.5898V177.66H26.2891V184ZM24.4902 176.02C24.4902 175.766 24.5742 175.557 24.7422 175.393C24.9141 175.229 25.1465 175.146 25.4395 175.146C25.7285 175.146 25.959 175.229 26.1309 175.393C26.3027 175.557 26.3887 175.766 26.3887 176.02C26.3887 176.277 26.3008 176.488 26.125 176.652C25.9531 176.816 25.7246 176.898 25.4395 176.898C25.1543 176.898 24.9238 176.816 24.748 176.652C24.5762 176.488 24.4902 176.277 24.4902 176.02ZM29.7168 176.102V177.66H30.8008V178.902H29.7168V182.066C29.7168 182.301 29.7617 182.469 29.8516 182.57C29.9414 182.672 30.1133 182.723 30.3672 182.723C30.5547 182.723 30.7207 182.709 30.8652 182.682V183.965C30.5332 184.066 30.1914 184.117 29.8398 184.117C28.6523 184.117 28.0469 183.518 28.0234 182.318V178.902H27.0977V177.66H28.0234V176.102H29.7168ZM34.1113 181.604L35.2832 177.66H37.0996L34.5508 184.984L34.4102 185.318C34.0312 186.146 33.4062 186.561 32.5352 186.561C32.2891 186.561 32.0391 186.523 31.7852 186.449V185.166L32.043 185.172C32.3633 185.172 32.6016 185.123 32.7578 185.025C32.918 184.928 33.043 184.766 33.1328 184.539L33.332 184.018L31.1113 177.66H32.9336L34.1113 181.604ZM46.4629 180.889C46.4629 181.865 46.2402 182.648 45.7949 183.238C45.3535 183.824 44.7559 184.117 44.002 184.117C43.3613 184.117 42.8438 183.895 42.4492 183.449V186.438H40.7559V177.66H42.3262L42.3848 178.281C42.7949 177.789 43.3301 177.543 43.9902 177.543C44.7715 177.543 45.3789 177.832 45.8125 178.41C46.2461 178.988 46.4629 179.785 46.4629 180.801V180.889ZM44.7695 180.766C44.7695 180.176 44.6641 179.721 44.4531 179.4C44.2461 179.08 43.9434 178.92 43.5449 178.92C43.0137 178.92 42.6484 179.123 42.4492 179.529V182.125C42.6562 182.543 43.0254 182.752 43.5566 182.752C44.3652 182.752 44.7695 182.09 44.7695 180.766ZM49.3047 184H47.6055V175H49.3047V184ZM54.3789 184C54.3008 183.848 54.2441 183.658 54.209 183.432C53.7988 183.889 53.2656 184.117 52.6094 184.117C51.9883 184.117 51.4727 183.938 51.0625 183.578C50.6562 183.219 50.4531 182.766 50.4531 182.219C50.4531 181.547 50.7012 181.031 51.1973 180.672C51.6973 180.312 52.418 180.131 53.3594 180.127H54.1387V179.764C54.1387 179.471 54.0625 179.236 53.9102 179.061C53.7617 178.885 53.5254 178.797 53.2012 178.797C52.916 178.797 52.6914 178.865 52.5273 179.002C52.3672 179.139 52.2871 179.326 52.2871 179.564H50.5938C50.5938 179.197 50.707 178.857 50.9336 178.545C51.1602 178.232 51.4805 177.988 51.8945 177.812C52.3086 177.633 52.7734 177.543 53.2891 177.543C54.0703 177.543 54.6895 177.74 55.1465 178.135C55.6074 178.525 55.8379 179.076 55.8379 179.787V182.535C55.8418 183.137 55.9258 183.592 56.0898 183.9V184H54.3789ZM52.9785 182.822C53.2285 182.822 53.459 182.768 53.6699 182.658C53.8809 182.545 54.0371 182.395 54.1387 182.207V181.117H53.5059C52.6582 181.117 52.207 181.41 52.1523 181.996L52.1465 182.096C52.1465 182.307 52.2207 182.48 52.3691 182.617C52.5176 182.754 52.7207 182.822 52.9785 182.822ZM58.6973 177.66L58.75 178.393C59.2031 177.826 59.8105 177.543 60.5723 177.543C61.2441 177.543 61.7441 177.74 62.0723 178.135C62.4004 178.529 62.5684 179.119 62.5762 179.904V184H60.8828V179.945C60.8828 179.586 60.8047 179.326 60.6484 179.166C60.4922 179.002 60.2324 178.92 59.8691 178.92C59.3926 178.92 59.0352 179.123 58.7969 179.529V184H57.1035V177.66H58.6973ZM66.7832 184.117C65.8535 184.117 65.0957 183.832 64.5098 183.262C63.9277 182.691 63.6367 181.932 63.6367 180.982V180.818C63.6367 180.182 63.7598 179.613 64.0059 179.113C64.252 178.609 64.5996 178.223 65.0488 177.953C65.502 177.68 66.0176 177.543 66.5957 177.543C67.4629 177.543 68.1445 177.816 68.6406 178.363C69.1406 178.91 69.3906 179.686 69.3906 180.689V181.381H65.3535C65.4082 181.795 65.5723 182.127 65.8457 182.377C66.123 182.627 66.4727 182.752 66.8945 182.752C67.5469 182.752 68.0566 182.516 68.4238 182.043L69.2559 182.975C69.002 183.334 68.6582 183.615 68.2246 183.818C67.791 184.018 67.3105 184.117 66.7832 184.117ZM66.5898 178.914C66.2539 178.914 65.9805 179.027 65.7695 179.254C65.5625 179.48 65.4297 179.805 65.3711 180.227H67.7266V180.092C67.7188 179.717 67.6172 179.428 67.4219 179.225C67.2266 179.018 66.9492 178.914 66.5898 178.914ZM72.3848 176.102V177.66H73.4688V178.902H72.3848V182.066C72.3848 182.301 72.4297 182.469 72.5195 182.57C72.6094 182.672 72.7812 182.723 73.0352 182.723C73.2227 182.723 73.3887 182.709 73.5332 182.682V183.965C73.2012 184.066 72.8594 184.117 72.5078 184.117C71.3203 184.117 70.7148 183.518 70.6914 182.318V178.902H69.7656V177.66H70.6914V176.102H72.3848Z" fill="white"/>
<path d="M280.059 175.469L282.25 181.656L284.43 175.469H286.738V184H284.975V181.668L285.15 177.643L282.848 184H281.641L279.344 177.648L279.52 181.668V184H277.762V175.469H280.059ZM291.836 184C291.758 183.848 291.701 183.658 291.666 183.432C291.256 183.889 290.723 184.117 290.066 184.117C289.445 184.117 288.93 183.938 288.52 183.578C288.113 183.219 287.91 182.766 287.91 182.219C287.91 181.547 288.158 181.031 288.654 180.672C289.154 180.312 289.875 180.131 290.816 180.127H291.596V179.764C291.596 179.471 291.52 179.236 291.367 179.061C291.219 178.885 290.982 178.797 290.658 178.797C290.373 178.797 290.148 178.865 289.984 179.002C289.824 179.139 289.744 179.326 289.744 179.564H288.051C288.051 179.197 288.164 178.857 288.391 178.545C288.617 178.232 288.938 177.988 289.352 177.812C289.766 177.633 290.23 177.543 290.746 177.543C291.527 177.543 292.146 177.74 292.604 178.135C293.064 178.525 293.295 179.076 293.295 179.787V182.535C293.299 183.137 293.383 183.592 293.547 183.9V184H291.836ZM290.436 182.822C290.686 182.822 290.916 182.768 291.127 182.658C291.338 182.545 291.494 182.395 291.596 182.207V181.117H290.963C290.115 181.117 289.664 181.41 289.609 181.996L289.604 182.096C289.604 182.307 289.678 182.48 289.826 182.617C289.975 182.754 290.178 182.822 290.436 182.822ZM298.158 179.248C297.928 179.217 297.725 179.201 297.549 179.201C296.908 179.201 296.488 179.418 296.289 179.852V184H294.596V177.66H296.195L296.242 178.416C296.582 177.834 297.053 177.543 297.654 177.543C297.842 177.543 298.018 177.568 298.182 177.619L298.158 179.248ZM302.412 182.248C302.412 182.041 302.309 181.879 302.102 181.762C301.898 181.641 301.57 181.533 301.117 181.439C299.609 181.123 298.855 180.482 298.855 179.518C298.855 178.955 299.088 178.486 299.553 178.111C300.021 177.732 300.633 177.543 301.387 177.543C302.191 177.543 302.834 177.732 303.314 178.111C303.799 178.49 304.041 178.982 304.041 179.588H302.348C302.348 179.346 302.27 179.146 302.113 178.99C301.957 178.83 301.713 178.75 301.381 178.75C301.096 178.75 300.875 178.814 300.719 178.943C300.562 179.072 300.484 179.236 300.484 179.436C300.484 179.623 300.572 179.775 300.748 179.893C300.928 180.006 301.229 180.105 301.65 180.191C302.072 180.273 302.428 180.367 302.717 180.473C303.611 180.801 304.059 181.369 304.059 182.178C304.059 182.756 303.811 183.225 303.314 183.584C302.818 183.939 302.178 184.117 301.393 184.117C300.861 184.117 300.389 184.023 299.975 183.836C299.564 183.645 299.242 183.385 299.008 183.057C298.773 182.725 298.656 182.367 298.656 181.984H300.262C300.277 182.285 300.389 182.516 300.596 182.676C300.803 182.836 301.08 182.916 301.428 182.916C301.752 182.916 301.996 182.855 302.16 182.734C302.328 182.609 302.412 182.447 302.412 182.248Z" fill="white"/>
<circle cx="197" cy="54" r="5" fill="#FFEBF1"/>
<circle cx="261" cy="54" r="5" fill="#FFEBF1"/>
<circle cy="54" r="5" fill="#FFEBF1"/>
<circle cx="197" cy="96" r="5" fill="#FFEBF1"/>
<circle cx="261" cy="96" r="5" fill="#FFEBF1"/>
<circle cy="96" r="5" fill="#FFEBF1"/>
<circle cx="197" cy="138" r="5" fill="#FFEBF1"/>
<circle cx="261" cy="138" r="5" fill="#FFEBF1"/>
<circle cy="138" r="5" fill="#FFEBF1"/>
<circle cx="197" cy="180" r="5" fill="#FFEBF1"/>
<circle cx="261" cy="180" r="5" fill="#FFEBF1"/>
<circle cy="180" r="5" fill="#FFEBF1"/>
<circle cx="400" cy="54" r="5" fill="#FFEBF1"/>
<circle cx="400" cy="96" r="5" fill="#FFEBF1"/>
<circle cx="400" cy="138" r="5" fill="#FFEBF1"/>
<circle cx="400" cy="180" r="5" fill="#FFEBF1"/>
<path d="M253 54C229 54 229 96 205 96" stroke="#FC7DE1" stroke-width="4" stroke-linecap="round" stroke-linejoin="round"/>
<path d="M253 96C229 96 229 96 205 96" stroke="#FC7DE1" stroke-width="4" stroke-linecap="round" stroke-linejoin="round"/>
<path d="M253 138C229 138 229 96 205 96" stroke="#FC7DE1" stroke-width="4" stroke-linecap="round" stroke-linejoin="round"/>
<path d="M253 180C229 180 229 96 205 96" stroke="#FC7DE1" stroke-width="4" stroke-linecap="round" stroke-linejoin="round"/>
<circle cx="261" cy="54" r="2" fill="#FE346E"/>
<circle cx="261" cy="96" r="2" fill="#FE346E"/>
<circle cx="261" cy="138" r="2" fill="#FE346E"/>
<circle cx="261" cy="180" r="2" fill="#FE346E"/>
<circle cx="197" cy="96" r="2" fill="#8B30FF"/>
</g>
<defs>
<clipPath id="clip0">
<rect width="400" height="200" fill="white"/>
</clipPath>
</defs>
</svg>
