<svg width="416" height="94" viewBox="0 0 416 94" fill="none" xmlns="http://www.w3.org/2000/svg">
<g clip-path="url(#clip0)">
<path d="M146.863 27.121L134.44 45.756L122.017 27.121H114.815V72.094H121.357V37.924L134.44 57.548L147.523 37.924V72.094H154.064V27.121H146.863Z" fill="#181F3F"/>
<path d="M185.137 39.387V42.791C182.242 40.41 178.539 38.978 174.507 38.978C165.264 38.978 157.744 46.498 157.744 55.741C157.744 64.984 165.264 72.504 174.507 72.504C178.539 72.504 182.242 71.072 185.137 68.691V72.095H191.679V39.387H185.137ZM174.507 65.961C168.871 65.961 164.286 61.376 164.286 55.74C164.286 50.104 168.871 45.519 174.507 45.519C180.143 45.519 184.728 50.104 184.728 55.74C184.728 61.376 180.143 65.961 174.507 65.961Z" fill="#181F3F"/>
<path d="M296.751 39.387C292.842 39.387 289.338 41.119 286.939 43.845C284.54 41.119 281.036 39.387 277.127 39.387C274.743 39.387 272.513 40.038 270.585 41.157V39.387H264.044V52.47V72.094H270.585V52.47C270.585 48.863 273.52 45.929 277.127 45.929C280.734 45.929 283.669 48.864 283.669 52.47V72.094H290.211V52.47C290.211 48.863 293.146 45.929 296.752 45.929C300.359 45.929 303.294 48.864 303.294 52.47V72.094H309.836V52.47C309.834 45.256 303.965 39.387 296.751 39.387Z" fill="#181F3F"/>
<path d="M224.794 69.04L222.341 66.462L212.072 55.671L226.63 39.387H217.855L203.943 54.949V27.121H197.402V72.094H203.943V56.619L218.67 72.094H222.341H224.794H227.701L224.794 69.04Z" fill="#181F3F"/>
<path d="M259.216 59.011C259.429 57.941 259.546 56.848 259.546 55.74C259.546 51.788 258.163 48.157 255.866 45.288C252.792 41.448 248.074 38.977 242.783 38.977C239.3 38.977 236.063 40.047 233.38 41.872C228.942 44.891 226.021 49.98 226.021 55.74C226.021 61.5 228.943 66.589 233.38 69.608C236.063 71.433 239.3 72.503 242.783 72.503C247.545 72.503 252.099 70.467 255.277 66.917C255.485 66.684 255.672 66.437 255.866 66.194C256.315 65.632 256.739 65.054 257.11 64.445L250.381 62.576C248.444 64.728 245.677 65.962 242.783 65.962C238.567 65.962 234.94 63.395 233.38 59.743C233.278 59.505 233.192 59.259 233.109 59.012H259.216V59.011ZM233.109 52.47C233.193 52.223 233.278 51.977 233.38 51.739C234.94 48.087 238.567 45.52 242.783 45.52C247.274 45.52 251.09 48.436 252.458 52.47H233.109Z" fill="#181F3F"/>
<path d="M340.906 39.387V42.791C338.011 40.41 334.308 38.978 330.276 38.978C321.033 38.978 313.513 46.498 313.513 55.741C313.513 64.984 321.033 72.504 330.276 72.504C334.308 72.504 338.011 71.072 340.906 68.691V72.095H347.448V39.387H340.906ZM330.276 65.961C324.64 65.961 320.055 61.376 320.055 55.74C320.055 50.104 324.64 45.519 330.276 45.519C335.912 45.519 340.497 50.104 340.497 55.74C340.497 61.376 335.912 65.961 330.276 65.961Z" fill="#181F3F"/>
<path d="M367.842 55.671L382.399 39.387H373.624L359.713 54.949V27.121H353.171V72.094H359.713V56.619L374.44 72.094H383.47L367.842 55.671Z" fill="#181F3F"/>
<path d="M414.986 59.011C415.199 57.941 415.316 56.848 415.316 55.74C415.316 51.788 413.933 48.157 411.636 45.288C408.562 41.448 403.844 38.977 398.553 38.977C395.07 38.977 391.833 40.047 389.15 41.872C384.712 44.891 381.791 49.98 381.791 55.74C381.791 61.5 384.713 66.589 389.15 69.608C391.833 71.433 395.07 72.503 398.553 72.503C403.315 72.503 407.869 70.467 411.047 66.917C411.255 66.684 411.442 66.437 411.636 66.194C412.085 65.632 412.509 65.054 412.88 64.445L406.151 62.576C404.214 64.728 401.447 65.962 398.553 65.962C394.337 65.962 390.71 63.395 389.15 59.743C389.048 59.505 388.962 59.259 388.879 59.012H414.986V59.011ZM388.878 52.47C388.962 52.223 389.047 51.977 389.149 51.739C390.709 48.087 394.336 45.52 398.552 45.52C403.043 45.52 406.859 48.436 408.227 52.47H388.878Z" fill="#181F3F"/>
<path d="M17.664 18.372C2.061 33.975 2.061 59.364 17.664 74.967L74.259 18.372C58.656 2.768 33.268 2.768 17.664 18.372Z" fill="#FE346E"/>
<path d="M74.259 74.967C89.862 59.364 89.862 33.975 74.259 18.372L17.664 74.967C33.268 90.57 58.656 90.57 74.259 74.967Z" fill="#0037FF"/>
<path d="M56.667 57.167C48.865 64.969 48.865 77.663 56.667 85.464L84.964 57.167C77.163 49.365 64.468 49.365 56.667 57.167Z" fill="#07F0B9"/>
<path d="M84.964 85.464C92.766 77.662 92.766 64.968 84.964 57.167L56.667 85.464C64.468 93.266 77.163 93.266 84.964 85.464Z" fill="#0037FF"/>
<path fill-rule="evenodd" clip-rule="evenodd" d="M92.6313 2.121L82.024 12.7283L79.9027 10.607L90.51 -0.000320435L92.6313 2.121Z" fill="#181F3F"/>
<path fill-rule="evenodd" clip-rule="evenodd" d="M12.7283 82.024L2.121 92.6313L-0.000320435 90.51L10.607 79.9027L12.7283 82.024Z" fill="#181F3F"/>
</g>
<defs>
<clipPath id="clip0">
<rect width="415.315" height="92.631" fill="white"/>
</clipPath>
</defs>
</svg>
