<svg width="99" height="99" viewBox="0 0 99 99" fill="none" xmlns="http://www.w3.org/2000/svg">
<path d="M20.543 21.251C4.93999 36.854 4.93999 62.243 20.543 77.846L77.138 21.251C61.535 5.647 36.147 5.647 20.543 21.251Z" fill="#FE346E"/>
<path d="M77.138 77.846C92.741 62.243 92.741 36.854 77.138 21.251L20.543 77.846C36.147 93.449 61.535 93.449 77.138 77.846Z" fill="#0037FF"/>
<path d="M59.546 60.046C51.744 67.848 51.744 80.542 59.546 88.343L87.843 60.046C80.042 52.244 67.347 52.244 59.546 60.046Z" fill="#07F0B9"/>
<path d="M87.843 88.343C95.645 80.541 95.645 67.847 87.843 60.046L59.546 88.343C67.347 96.145 80.042 96.145 87.843 88.343Z" fill="#0037FF"/>
<path fill-rule="evenodd" clip-rule="evenodd" d="M95.5103 5L84.903 15.6073L82.7817 13.486L93.389 2.87868L95.5103 5Z" fill="#181F3F"/>
<path fill-rule="evenodd" clip-rule="evenodd" d="M15.6073 84.903L5 95.5103L2.87868 93.389L13.486 82.7817L15.6073 84.903Z" fill="#181F3F"/>
</svg>
