<svg width="80" height="80" viewBox="0 0 80 80" fill="none" xmlns="http://www.w3.org/2000/svg"><path fill-rule="evenodd" clip-rule="evenodd" d="M60.5 80H14v-.008C6.223 79.728 0 73.34 0 65.5c0-7.883 6.29-14.297 14.126-14.495C15.376 38.645 25.81 29 38.5 29c8.974 0 16.82 4.824 21.088 12.02.302-.013.606-.02.912-.02C71.27 41 80 49.73 80 60.5c0 10.602-8.462 19.228-19 19.494V80h-.5z" fill="#FE346E"/><path fill-rule="evenodd" clip-rule="evenodd" d="M40 0L16 23h17v34h14V23h17L40 0z" fill="#FFD600"/><path fill="#181F3F" d="M47 80H33V66h14z"/></svg>