<svg width="400" height="200" viewBox="0 0 400 200" fill="none" xmlns="http://www.w3.org/2000/svg"><g clip-path="url(#clip0)"><path d="M19.36 10.992V15h-2.344V3.625h4.437c.854 0 1.604.156 2.25.469.651.312 1.151.758 1.5 1.336.35.573.524 1.226.524 1.96 0 1.115-.383 1.995-1.149 2.641-.76.64-1.815.961-3.164.961H19.36zm0-1.898h2.093c.62 0 1.091-.146 1.414-.438.328-.291.492-.708.492-1.25 0-.557-.164-1.008-.492-1.351-.328-.344-.781-.521-1.36-.532H19.36v3.57zM29.577 15h-2.265V3h2.265v12zm6.766 0a2.507 2.507 0 01-.227-.758c-.547.61-1.258.914-2.133.914-.828 0-1.515-.24-2.062-.719a2.316 2.316 0 01-.813-1.812c0-.896.331-1.583.993-2.063.666-.479 1.627-.72 2.882-.726h1.04v-.484c0-.391-.102-.704-.305-.938-.198-.234-.513-.351-.946-.351-.38 0-.68.09-.898.273-.214.182-.32.432-.32.75h-2.258c0-.49.15-.943.453-1.36.302-.416.73-.742 1.281-.976.552-.24 1.172-.36 1.86-.36 1.041 0 1.867.264 2.476.79.615.52.922 1.255.922 2.203v3.664c.005.802.117 1.409.336 1.82V15h-2.281zm-1.867-1.57c.333 0 .64-.073.921-.22.282-.15.49-.35.625-.6v-1.454h-.843c-1.13 0-1.732.39-1.805 1.172l-.008.133c0 .281.1.513.297.695.198.182.469.274.813.274zm7.625-6.883l.07.976c.604-.755 1.414-1.132 2.43-1.132.895 0 1.562.263 2 .789.437.526.661 1.312.671 2.36V15h-2.257V9.594c0-.48-.105-.826-.313-1.04-.208-.218-.555-.327-1.039-.327-.635 0-1.112.27-1.43.812V15h-2.257V6.547h2.125zm10.78 8.61c-1.239 0-2.25-.381-3.03-1.141-.776-.76-1.164-1.774-1.164-3.04v-.218c0-.85.164-1.607.492-2.274.328-.671.791-1.187 1.39-1.546.605-.365 1.292-.547 2.063-.547 1.156 0 2.065.364 2.726 1.093.667.73 1 1.763 1 3.102v.922h-5.382c.073.552.291.995.656 1.328.37.333.836.5 1.398.5.87 0 1.55-.315 2.04-.945l1.109 1.242a3.425 3.425 0 01-1.375 1.125 4.55 4.55 0 01-1.922.398zm-.257-6.938c-.448 0-.813.15-1.094.453-.276.302-.453.734-.531 1.297h3.14v-.18c-.01-.5-.145-.885-.406-1.156-.26-.276-.63-.414-1.109-.414zm7.727-3.75v2.078h1.445v1.656h-1.445v4.219c0 .312.06.536.18.672.119.135.348.203.687.203.25 0 .471-.018.664-.055v1.711a4.648 4.648 0 01-1.367.203c-1.584 0-2.391-.8-2.422-2.398V8.203h-1.235V6.547h1.235V4.469h2.258zm7.28 8.195c0-.276-.137-.492-.413-.648-.271-.162-.709-.305-1.313-.43-2.01-.422-3.015-1.276-3.015-2.563 0-.75.31-1.375.93-1.875.624-.505 1.44-.757 2.445-.757 1.072 0 1.93.252 2.57.757.646.506.969 1.162.969 1.97h-2.258a1.08 1.08 0 00-.313-.798c-.208-.213-.533-.32-.976-.32-.38 0-.675.086-.883.258a.814.814 0 00-.313.656c0 .25.118.453.352.61.24.15.64.283 1.203.398.563.11 1.037.234 1.422.375 1.193.437 1.79 1.195 1.79 2.273 0 .771-.332 1.396-.993 1.875-.662.474-1.516.711-2.563.711-.708 0-1.338-.125-1.89-.375-.547-.255-.977-.601-1.29-1.039a2.431 2.431 0 01-.468-1.43h2.14c.022.402.17.709.446.922.276.214.646.32 1.11.32.432 0 .757-.08.976-.242a.773.773 0 00.336-.648z" fill="#FE346E"/><rect x="400" y="73" width="400" height="38" rx="4" transform="rotate(-180 400 73)" fill="#FE346E"/><rect x="329" y="176" width="258" height="38" rx="4" transform="rotate(-180 329 176)" fill="#8B30FF"/><rect x="221" y="146" width="40" height="22" rx="11" fill="#531D99"/><rect x="127" y="146" width="72" height="22" rx="11" fill="#531D99"/><path d="M233.324 161a1.879 1.879 0 01-.17-.568c-.41.457-.943.685-1.599.685-.621 0-1.137-.179-1.547-.539a1.737 1.737 0 01-.61-1.359c0-.672.248-1.188.745-1.547.5-.36 1.22-.541 2.162-.545h.779v-.363c0-.293-.076-.528-.229-.703-.148-.176-.384-.264-.709-.264-.285 0-.509.068-.673.205-.161.137-.241.324-.241.562h-1.693c0-.367.113-.707.34-1.019.226-.313.547-.557.961-.733a3.48 3.48 0 011.394-.269c.782 0 1.401.197 1.858.592.461.39.691.941.691 1.652v2.748c.004.602.088 1.057.252 1.365v.1h-1.711zm-1.4-1.178c.25 0 .48-.054.691-.164.211-.113.367-.263.469-.451v-1.09h-.633c-.847 0-1.299.293-1.353.879l-.006.1c0 .211.074.384.222.521.149.137.352.205.61.205zm7.722-3.574a4.631 4.631 0 00-.609-.047c-.641 0-1.06.217-1.26.651V161h-1.693v-6.34h1.6l.046.756c.34-.582.811-.873 1.413-.873.187 0 .363.025.527.076l-.024 1.629zm3.622 4.869c-.93 0-1.688-.285-2.274-.855-.582-.571-.873-1.33-.873-2.28v-.164c0-.636.123-1.205.369-1.705.246-.504.594-.89 1.043-1.16a2.94 2.94 0 011.547-.41c.867 0 1.549.273 2.045.82.5.547.75 1.323.75 2.326v.692h-4.037c.055.414.219.746.492.996.277.25.627.375 1.049.375.652 0 1.162-.236 1.529-.709l.832.932c-.254.359-.597.64-1.031.843a3.4 3.4 0 01-1.441.299zm-.194-5.203c-.336 0-.609.113-.82.34-.207.226-.34.551-.399.973h2.356v-.135c-.008-.375-.109-.664-.305-.867-.195-.207-.472-.311-.832-.311zm7.442 5.086a1.879 1.879 0 01-.17-.568c-.41.457-.944.685-1.6.685-.621 0-1.137-.179-1.547-.539a1.736 1.736 0 01-.609-1.359c0-.672.248-1.188.744-1.547.5-.36 1.221-.541 2.162-.545h.779v-.363c0-.293-.076-.528-.228-.703-.149-.176-.385-.264-.709-.264-.285 0-.51.068-.674.205-.16.137-.24.324-.24.562h-1.694c0-.367.114-.707.34-1.019.227-.313.547-.557.961-.733a3.481 3.481 0 011.395-.269c.781 0 1.4.197 1.857.592.461.39.692.941.692 1.652v2.748c.004.602.087 1.057.252 1.365v.1h-1.711zm-1.401-1.178c.25 0 .481-.054.692-.164.211-.113.367-.263.468-.451v-1.09h-.632c-.848 0-1.299.293-1.354.879l-.006.1c0 .211.074.384.223.521.148.137.351.205.609.205zm-161.388-2.291c0-.894.119-1.746.357-2.554a6.703 6.703 0 011.055-2.145c.465-.625.968-1.059 1.511-1.301l.328.914c-.57.422-1.015 1.075-1.335 1.957-.32.883-.48 1.914-.48 3.094v.182c0 1.183.157 2.218.474 3.105.316.887.763 1.549 1.341 1.987l-.328.896c-.53-.238-1.027-.66-1.488-1.266a6.613 6.613 0 01-1.049-2.086 8.934 8.934 0 01-.386-2.472v-.311zM98.9 161h-1.693v-6.527l-2.021.627v-1.377l3.533-1.266h.181V161zm8.52-3.527c0 1.179-.244 2.082-.732 2.707-.489.625-1.204.937-2.145.937-.93 0-1.641-.306-2.133-.92-.492-.613-.744-1.492-.756-2.636v-1.571c0-1.191.246-2.095.739-2.713.496-.617 1.209-.925 2.138-.925.93 0 1.641.306 2.133.919.492.61.744 1.487.756 2.631v1.571zm-1.693-1.723c0-.707-.098-1.221-.293-1.541-.192-.324-.493-.486-.903-.486-.398 0-.693.154-.885.463-.187.304-.287.783-.298 1.435v2.074c0 .696.093 1.213.281 1.553.191.336.496.504.914.504.414 0 .713-.162.896-.486.184-.325.28-.821.288-1.489v-2.027zm8.584 1.723c0 1.179-.245 2.082-.733 2.707s-1.203.937-2.144.937c-.93 0-1.641-.306-2.133-.92-.492-.613-.744-1.492-.756-2.636v-1.571c0-1.191.246-2.095.738-2.713.496-.617 1.209-.925 2.139-.925.93 0 1.64.306 2.133.919.492.61.744 1.487.756 2.631v1.571zm-1.694-1.723c0-.707-.097-1.221-.293-1.541-.191-.324-.492-.486-.902-.486-.399 0-.693.154-.885.463-.187.304-.287.783-.299 1.435v2.074c0 .696.094 1.213.282 1.553.191.336.496.504.914.504.414 0 .712-.162.896-.486.184-.325.279-.821.287-1.489v-2.027zm6.434 5.982h-1.26l3.141-9.263h1.259l-3.14 9.263zm87.517-4.066c0 .883-.127 1.732-.38 2.549a6.937 6.937 0 01-1.096 2.162c-.477.625-.987 1.055-1.53 1.289l-.328-.896c.555-.418.993-1.063 1.313-1.934.32-.871.486-1.873.498-3.006v-.31c0-1.168-.16-2.198-.481-3.088-.316-.891-.759-1.559-1.33-2.004l.328-.897c.532.231 1.032.649 1.5 1.254a6.757 6.757 0 011.096 2.115c.262.805.399 1.639.41 2.502v.264zm4.032 1.148l1.798-1.834-1.798-1.834.996-.984 1.781 1.822 1.787-1.822.996.984-1.799 1.834 1.799 1.834-.996.985-1.787-1.817-1.781 1.817-.996-.985zm58.466-2.589h2.116v1.529h-2.116v2.391h-1.611v-2.391h-2.121v-1.529h2.121v-2.291h1.611v2.291zm7.196-4.424l.797.463c-.336.531-.51 1.07-.522 1.617v.978h-1.342v-.879c0-.367.102-.757.305-1.171.207-.418.461-.754.762-1.008zm2.009 0l.797.463c-.336.531-.509 1.07-.521 1.617v.978h-1.342v-.879c0-.367.102-.757.305-1.171a3.1 3.1 0 01.761-1.008zm7.038 5.502h-3.375v2.285h3.961V161h-5.719v-8.531h5.707v1.424h-3.949v2.033h3.375v1.377zm5.179 3.697a1.908 1.908 0 01-.17-.568c-.41.457-.943.685-1.599.685-.621 0-1.137-.179-1.547-.539a1.737 1.737 0 01-.61-1.359c0-.672.249-1.188.745-1.547.5-.36 1.22-.541 2.162-.545h.779v-.363c0-.293-.076-.528-.228-.703-.149-.176-.385-.264-.709-.264-.286 0-.51.068-.674.205a.701.701 0 00-.241.562h-1.693c0-.367.113-.707.34-1.019.227-.313.547-.557.961-.733a3.48 3.48 0 011.394-.269c.782 0 1.401.197 1.858.592.461.39.691.941.691 1.652v2.748c.004.602.088 1.057.252 1.365v.1h-1.711zm-1.4-1.178c.25 0 .48-.054.691-.164.211-.113.367-.263.469-.451v-1.09h-.633c-.847 0-1.299.293-1.353.879l-.006.1c0 .211.074.384.223.521.148.137.351.205.609.205zm7.723-3.574a4.658 4.658 0 00-.61-.047c-.64 0-1.06.217-1.26.651V161h-1.693v-6.34h1.6l.047.756c.339-.582.81-.873 1.412-.873.187 0 .363.025.527.076l-.023 1.629zm3.14-3.146v1.558h1.084v1.242h-1.084v3.164c0 .235.045.403.135.504.09.102.262.153.516.153.187 0 .353-.014.498-.041v1.283a3.506 3.506 0 01-1.026.152c-1.187 0-1.793-.599-1.816-1.799v-3.416h-.926v-1.242h.926v-1.558h1.693zm3.68 2.25c.449-.54 1.014-.809 1.693-.809 1.375 0 2.072.799 2.092 2.396V161h-1.693v-4.014c0-.363-.078-.631-.235-.802-.156-.176-.416-.264-.779-.264-.496 0-.855.191-1.078.574V161h-1.693v-9h1.693v3.352zm5.162-.264l-.797-.463c.336-.527.51-1.072.522-1.635V152h1.347v.908c0 .352-.097.733-.293 1.143-.195.41-.455.756-.779 1.037zm2.033 0l-.797-.463c.336-.527.51-1.072.522-1.635V152h1.347v.908c0 .352-.097.733-.293 1.143-.195.41-.455.756-.779 1.037zm-169.931 2.215h-3.375v2.285h3.96V161h-5.718v-8.531h5.707v1.424h-3.949v2.033h3.375v1.377zm5.179 3.697a1.879 1.879 0 01-.17-.568c-.41.457-.943.685-1.599.685-.621 0-1.137-.179-1.547-.539a1.737 1.737 0 01-.61-1.359c0-.672.248-1.188.745-1.547.5-.36 1.22-.541 2.162-.545h.779v-.363c0-.293-.076-.528-.229-.703-.148-.176-.384-.264-.709-.264-.285 0-.509.068-.673.205-.161.137-.241.324-.241.562h-1.693c0-.367.113-.707.34-1.019.226-.313.547-.557.961-.733a3.48 3.48 0 011.394-.269c.782 0 1.401.197 1.858.592.461.39.691.941.691 1.652v2.748c.004.602.088 1.057.252 1.365v.1h-1.711zm-1.4-1.178c.25 0 .48-.054.691-.164.211-.113.367-.263.469-.451v-1.09h-.633c-.847 0-1.299.293-1.353.879l-.006.1c0 .211.074.384.222.521.149.137.352.205.61.205zm7.722-3.574a4.631 4.631 0 00-.609-.047c-.641 0-1.06.217-1.26.651V161h-1.693v-6.34h1.6l.046.756c.34-.582.811-.873 1.413-.873.187 0 .363.025.527.076l-.024 1.629zm3.141-3.146v1.558h1.084v1.242h-1.084v3.164c0 .235.045.403.135.504.09.102.262.153.516.153.187 0 .353-.014.498-.041v1.283a3.506 3.506 0 01-1.026.152c-1.187 0-1.793-.599-1.816-1.799v-3.416h-.926v-1.242h.926v-1.558h1.693zm3.68 2.25c.449-.54 1.013-.809 1.693-.809 1.375 0 2.072.799 2.092 2.396V161h-1.693v-4.014c0-.363-.079-.631-.235-.802-.156-.176-.416-.264-.779-.264-.496 0-.856.191-1.078.574V161h-1.694v-9h1.694v3.352zm5.15 4.816c0-.27.09-.488.27-.656a.976.976 0 01.685-.252c.278 0 .506.084.686.252a.849.849 0 01.275.656.85.85 0 01-.269.65c-.18.164-.41.246-.692.246a.976.976 0 01-.685-.246.848.848 0 01-.27-.65zm7.078.832a1.908 1.908 0 01-.17-.568c-.41.457-.943.685-1.599.685-.621 0-1.137-.179-1.547-.539a1.736 1.736 0 01-.609-1.359c0-.672.248-1.188.744-1.547.5-.36 1.22-.541 2.162-.545h.779v-.363c0-.293-.076-.528-.228-.703-.149-.176-.385-.264-.709-.264-.286 0-.51.068-.674.205-.16.137-.24.324-.24.562h-1.694c0-.367.113-.707.34-1.019.227-.313.547-.557.961-.733a3.48 3.48 0 011.394-.269c.782 0 1.401.197 1.858.592.461.39.691.941.691 1.652v2.748c.004.602.088 1.057.252 1.365v.1h-1.711zm-1.4-1.178c.25 0 .48-.054.691-.164.211-.113.368-.263.469-.451v-1.09h-.633c-.847 0-1.299.293-1.353.879l-.006.1c0 .211.074.384.223.521.148.137.351.205.609.205zm7.723-3.574a4.658 4.658 0 00-.61-.047c-.64 0-1.06.217-1.26.651V161h-1.693v-6.34h1.6l.047.756c.339-.582.81-.873 1.412-.873.187 0 .363.025.527.076l-.023 1.629zm3.621 4.869c-.93 0-1.688-.285-2.274-.855-.582-.571-.873-1.33-.873-2.28v-.164c0-.636.123-1.205.369-1.705.246-.504.594-.89 1.043-1.16a2.94 2.94 0 011.547-.41c.867 0 1.549.273 2.045.82.5.547.75 1.323.75 2.326v.692h-4.037c.055.414.219.746.492.996.278.25.627.375 1.049.375.652 0 1.162-.236 1.529-.709l.832.932c-.254.359-.597.64-1.031.843a3.4 3.4 0 01-1.441.299zm-.194-5.203c-.336 0-.609.113-.82.34-.207.226-.34.551-.398.973h2.355v-.135c-.008-.375-.109-.664-.305-.867-.195-.207-.472-.311-.832-.311zm7.442 5.086a1.879 1.879 0 01-.17-.568c-.41.457-.944.685-1.6.685-.621 0-1.137-.179-1.547-.539a1.736 1.736 0 01-.609-1.359c0-.672.248-1.188.744-1.547.5-.36 1.221-.541 2.162-.545h.779v-.363c0-.293-.076-.528-.228-.703-.148-.176-.385-.264-.709-.264-.285 0-.51.068-.674.205-.16.137-.24.324-.24.562h-1.693c0-.367.113-.707.339-1.019.227-.313.547-.557.961-.733a3.481 3.481 0 011.395-.269c.781 0 1.4.197 1.857.592.461.39.692.941.692 1.652v2.748c.004.602.088 1.057.252 1.365v.1h-1.711zm-1.401-1.178c.25 0 .481-.054.692-.164.211-.113.367-.263.468-.451v-1.09h-.632c-.848 0-1.299.293-1.354.879l-.006.1c0 .211.075.384.223.521.148.137.352.205.609.205zM19.059 49.469l2.191 6.187 2.18-6.187h2.308V58h-1.763v-2.332l.175-4.025L21.848 58H20.64l-2.297-6.352.175 4.02V58h-1.757v-8.531h2.297zM30.836 58a1.882 1.882 0 01-.17-.568c-.41.457-.943.685-1.6.685-.62 0-1.136-.18-1.546-.539a1.737 1.737 0 01-.61-1.36c0-.671.248-1.187.744-1.546.5-.36 1.221-.541 2.162-.545h.78v-.363c0-.293-.076-.528-.229-.704-.148-.175-.385-.263-.709-.263-.285 0-.51.068-.674.205-.16.137-.24.324-.24.563h-1.693c0-.368.113-.708.34-1.02.226-.313.547-.557.96-.733.415-.18.88-.269 1.395-.269.781 0 1.4.197 1.858.592.46.39.69.941.69 1.652v2.748c.005.602.089 1.057.253 1.365v.1h-1.711zm-1.4-1.178c.25 0 .48-.054.691-.164.21-.113.367-.264.469-.451v-1.09h-.633c-.848 0-1.299.293-1.354.88l-.006.099c0 .21.075.385.223.521.149.137.352.205.61.205zm7.722-3.574a4.608 4.608 0 00-.61-.047c-.64 0-1.06.217-1.259.65V58h-1.693v-6.34h1.6l.046.756c.34-.582.81-.873 1.412-.873.188 0 .364.025.528.076l-.024 1.629zm4.254 3c0-.207-.103-.37-.31-.486-.204-.121-.532-.229-.985-.322-1.508-.317-2.261-.958-2.261-1.922 0-.563.232-1.032.697-1.407.469-.379 1.08-.568 1.834-.568.804 0 1.447.19 1.928.568.484.38.726.871.726 1.477h-1.693a.81.81 0 00-.235-.598c-.156-.16-.4-.24-.732-.24-.285 0-.506.065-.662.193a.61.61 0 00-.235.492c0 .188.088.34.264.458.18.113.48.212.902.298.422.082.778.176 1.067.282.894.328 1.342.896 1.342 1.705 0 .578-.248 1.047-.744 1.406-.497.355-1.137.533-1.922.533-.532 0-1.004-.094-1.418-.281a2.41 2.41 0 01-.967-.78 1.823 1.823 0 01-.352-1.072h1.606c.015.301.127.532.334.692.207.16.484.24.832.24.324 0 .568-.06.732-.182a.58.58 0 00.252-.486zm78.787-1.84c0 1.227-.23 2.152-.691 2.777-.457.622-1.154.932-2.092.932-.922 0-1.617-.302-2.086-.908-.465-.61-.703-1.51-.715-2.701V53.03c0-1.226.229-2.146.686-2.76.461-.613 1.162-.92 2.103-.92.934 0 1.629.3 2.086.897.461.598.698 1.492.709 2.684v1.476zm-1.424-1.593c0-.801-.109-1.387-.328-1.758-.218-.375-.566-.563-1.043-.563-.465 0-.806.178-1.025.533-.219.352-.334.903-.346 1.653v1.933c0 .797.112 1.39.334 1.782.223.39.572.585 1.049.585.457 0 .795-.18 1.014-.539.218-.363.334-.93.345-1.699v-1.927zm3.663 3.685c.265 0 .47.076.615.228a.776.776 0 01.217.563.769.769 0 01-.217.557c-.145.144-.35.217-.615.217-.254 0-.456-.073-.604-.217a.745.745 0 01-.223-.557c0-.226.073-.414.217-.563.145-.152.348-.228.61-.228zm8.109 1.5h-5.736v-.978l2.841-3.1c.41-.457.702-.838.873-1.143.176-.308.264-.617.264-.926 0-.406-.115-.734-.346-.984-.226-.25-.533-.375-.92-.375-.461 0-.818.14-1.072.422-.254.281-.381.666-.381 1.154h-1.424c0-.52.118-.986.352-1.4a2.455 2.455 0 011.014-.973c.441-.23.949-.345 1.523-.345.828 0 1.481.209 1.957.627.481.414.721.988.721 1.722 0 .426-.121.873-.363 1.342-.239.465-.631.994-1.178 1.588l-2.086 2.232h3.961V58zm6.457-6.281c0 .418-.108.79-.322 1.119-.215.324-.508.58-.879.767.445.208.787.49 1.025.85.242.36.363.766.363 1.219 0 .75-.253 1.346-.761 1.787-.508.437-1.184.656-2.028.656-.847 0-1.527-.22-2.039-.662-.508-.441-.761-1.035-.761-1.781 0-.457.121-.867.363-1.23a2.334 2.334 0 011.019-.839 2.256 2.256 0 01-.873-.767 2.024 2.024 0 01-.316-1.12c0-.726.234-1.302.703-1.728.469-.425 1.102-.638 1.898-.638.801 0 1.436.213 1.905.638.469.426.703 1.002.703 1.729zm-1.236 3.884c0-.421-.127-.761-.381-1.019-.25-.262-.582-.393-.996-.393-.414 0-.746.13-.996.387-.247.258-.37.6-.37 1.025 0 .419.121.752.364 1.002.246.25.584.376 1.013.376.43 0 .764-.122 1.002-.364.242-.242.364-.58.364-1.014zm-.182-3.831c0-.372-.107-.676-.322-.915-.215-.242-.504-.363-.868-.363-.363 0-.65.115-.861.346-.211.226-.316.537-.316.931 0 .391.105.702.316.932.215.23.504.346.867.346.364 0 .651-.115.862-.346.215-.23.322-.54.322-.931zm7.682 3.187h1.06v1.143h-1.06V58h-1.424v-1.898h-3.686l-.041-.868 3.68-5.765h1.471v5.49zm-3.657 0h2.233v-3.563l-.106.188-2.127 3.375zm13.864-.768h-3.504v2.625h4.095V58h-5.578v-8.531h5.537v1.195h-4.054v2.355h3.504v1.172zM158.924 58c-.063-.121-.117-.318-.164-.592a2.216 2.216 0 01-1.664.71c-.637 0-1.157-.183-1.559-.546a1.744 1.744 0 01-.603-1.347c0-.676.25-1.194.75-1.553.504-.363 1.222-.545 2.156-.545h.873v-.416c0-.328-.092-.59-.275-.785-.184-.2-.463-.299-.838-.299-.325 0-.59.082-.797.246a.745.745 0 00-.311.615h-1.424c0-.347.116-.672.346-.972.231-.305.543-.543.938-.715a3.32 3.32 0 011.33-.258c.742 0 1.334.188 1.775.563.441.37.668.894.68 1.57v2.86c0 .57.08 1.024.24 1.364v.1h-1.453zm-1.565-1.025c.282 0 .545-.069.791-.206.25-.136.438-.32.563-.55v-1.196h-.768c-.527 0-.924.092-1.189.276a.892.892 0 00-.399.78c0 .273.09.491.27.655.184.16.428.24.732.24zm7.588-4.014a3.525 3.525 0 00-.58-.047c-.652 0-1.092.25-1.318.75V58h-1.424v-6.34h1.359l.036.71c.343-.552.82-.827 1.429-.827.203 0 .371.027.504.082l-.006 1.336zm2.977-2.842v1.541h1.119v1.055h-1.119v3.539c0 .242.047.418.14.527.098.106.27.159.516.159.164 0 .33-.02.498-.06v1.102a3.5 3.5 0 01-.937.135c-1.094 0-1.641-.603-1.641-1.81v-3.592h-1.043V51.66h1.043v-1.54h1.424zm3.615 2.233a2.23 2.23 0 011.764-.809c1.351 0 2.037.772 2.056 2.314V58h-1.423v-4.09c0-.437-.096-.746-.288-.926-.187-.183-.464-.275-.832-.275-.57 0-.996.254-1.277.762V58h-1.424v-9h1.424v3.352zm8.818 3.925a.643.643 0 00-.316-.58c-.207-.133-.553-.25-1.037-.351a5.355 5.355 0 01-1.213-.387c-.711-.344-1.066-.842-1.066-1.494 0-.547.23-1.004.691-1.371.461-.367 1.047-.551 1.758-.551.758 0 1.369.188 1.834.563.469.374.703.86.703 1.459h-1.424c0-.274-.101-.5-.305-.68-.203-.184-.472-.276-.808-.276-.313 0-.569.073-.768.217a.686.686 0 00-.293.58c0 .219.092.389.276.51.183.121.554.244 1.113.37.559.12.996.267 1.312.439.321.168.557.37.709.609.157.238.235.527.235.867 0 .57-.237 1.033-.709 1.389-.473.351-1.092.527-1.858.527-.519 0-.982-.094-1.388-.281a2.277 2.277 0 01-.949-.773 1.828 1.828 0 01-.34-1.061h1.382c.02.336.147.596.381.78.235.179.545.269.932.269.375 0 .66-.07.855-.211a.668.668 0 00.293-.563zM264.494 58h-1.418v-6.85l-2.092.715v-1.2l3.328-1.225h.182V58zm7.781-3.041h1.061v1.143h-1.061V58h-1.423v-1.898h-3.686l-.041-.868 3.68-5.765h1.47v5.49zm-3.656 0h2.233v-3.563l-.106.188-2.127 3.375zm10.477 0h1.06v1.143h-1.06V58h-1.424v-1.898h-3.686l-.041-.868 3.68-5.765h1.471v5.49zm-3.657 0h2.233v-3.563l-.106.188-2.127 3.375zm14.022-3.24c0 .418-.107.79-.322 1.119-.215.324-.508.58-.879.767.445.208.787.49 1.025.85.242.36.363.766.363 1.219 0 .75-.253 1.346-.761 1.787-.508.437-1.184.656-2.028.656-.847 0-1.527-.22-2.039-.662-.508-.441-.761-1.035-.761-1.781 0-.457.121-.867.363-1.23a2.334 2.334 0 011.019-.839 2.256 2.256 0 01-.873-.767 2.024 2.024 0 01-.316-1.12c0-.726.234-1.302.703-1.728.469-.425 1.102-.638 1.899-.638.8 0 1.435.213 1.904.638.469.426.703 1.002.703 1.729zm-1.236 3.884c0-.421-.127-.761-.381-1.019-.25-.262-.582-.393-.996-.393-.414 0-.746.13-.996.387-.247.258-.37.6-.37 1.025 0 .419.122.752.364 1.002.246.25.584.376 1.013.376.43 0 .764-.122 1.002-.364.243-.242.364-.58.364-1.014zm-.182-3.831c0-.372-.107-.676-.322-.915-.215-.242-.504-.363-.867-.363-.364 0-.651.115-.862.346-.211.226-.316.537-.316.931 0 .391.105.702.316.932.215.23.504.346.867.346.364 0 .651-.115.862-.346.215-.23.322-.54.322-.931zm8.426 2.636c0 1.227-.231 2.152-.692 2.777-.457.622-1.154.932-2.091.932-.922 0-1.618-.302-2.086-.908-.465-.61-.704-1.51-.715-2.701V53.03c0-1.226.228-2.146.685-2.76.461-.613 1.162-.92 2.104-.92.933 0 1.629.3 2.086.897.461.598.697 1.492.709 2.684v1.476zm-1.424-1.593c0-.801-.109-1.387-.328-1.758-.219-.375-.567-.563-1.043-.563-.465 0-.807.178-1.026.533-.218.352-.334.903-.345 1.653v1.933c0 .797.111 1.39.334 1.782.222.39.572.585 1.049.585.457 0 .794-.18 1.013-.539.219-.363.334-.93.346-1.699v-1.927zm8.244 1.593c0 1.227-.23 2.152-.691 2.777-.457.622-1.155.932-2.092.932-.922 0-1.617-.302-2.086-.908-.465-.61-.703-1.51-.715-2.701V53.03c0-1.226.229-2.146.686-2.76.461-.613 1.162-.92 2.103-.92.934 0 1.629.3 2.086.897.461.598.697 1.492.709 2.684v1.476zm-1.424-1.593c0-.801-.109-1.387-.328-1.758-.219-.375-.566-.563-1.043-.563-.465 0-.806.178-1.025.533-.219.352-.334.903-.346 1.653v1.933c0 .797.111 1.39.334 1.782.223.39.572.585 1.049.585.457 0 .795-.18 1.014-.539.218-.363.334-.93.345-1.699v-1.927zm11.233 1.593c0 1.227-.231 2.152-.692 2.777-.457.622-1.154.932-2.092.932-.921 0-1.617-.302-2.085-.908-.465-.61-.704-1.51-.715-2.701V53.03c0-1.226.228-2.146.685-2.76.461-.613 1.162-.92 2.104-.92.933 0 1.629.3 2.086.897.461.598.697 1.492.709 2.684v1.476zm-1.424-1.593c0-.801-.11-1.387-.328-1.758-.219-.375-.567-.563-1.043-.563-.465 0-.807.178-1.026.533-.218.352-.334.903-.345 1.653v1.933c0 .797.111 1.39.334 1.782.222.39.572.585 1.048.585.457 0 .795-.18 1.014-.539.219-.363.334-.93.346-1.699v-1.927zm8.244 1.593c0 1.227-.23 2.152-.691 2.777-.457.622-1.155.932-2.092.932-.922 0-1.617-.302-2.086-.908-.465-.61-.703-1.51-.715-2.701V53.03c0-1.226.228-2.146.686-2.76.46-.613 1.162-.92 2.103-.92.934 0 1.629.3 2.086.897.461.598.697 1.492.709 2.684v1.476zm-1.424-1.593c0-.801-.109-1.387-.328-1.758-.219-.375-.566-.563-1.043-.563-.465 0-.807.178-1.025.533-.219.352-.334.903-.346 1.653v1.933c0 .797.111 1.39.334 1.782.223.39.572.585 1.049.585.457 0 .795-.18 1.013-.539.219-.363.334-.93.346-1.699v-1.927zm8.244 1.593c0 1.227-.23 2.152-.691 2.777-.457.622-1.154.932-2.092.932-.922 0-1.617-.302-2.086-.908-.465-.61-.703-1.51-.715-2.701V53.03c0-1.226.229-2.146.686-2.76.461-.613 1.162-.92 2.103-.92.934 0 1.629.3 2.086.897.461.598.698 1.492.709 2.684v1.476zm-1.424-1.593c0-.801-.109-1.387-.328-1.758-.218-.375-.566-.563-1.043-.563-.464 0-.806.178-1.025.533-.219.352-.334.903-.346 1.653v1.933c0 .797.112 1.39.334 1.782.223.39.573.585 1.049.585.457 0 .795-.18 1.014-.539.219-.363.334-.93.345-1.699v-1.927zm8.35 1.5l-.967 1.025V58h-1.482v-8.531h1.482v4.002l.821-1.014 2.496-2.988h1.793l-3.17 3.779L337.988 58h-1.758l-2.566-3.685zm6.322-2.655l.041.662c.446-.52 1.055-.779 1.828-.779.848 0 1.428.324 1.741.973.461-.649 1.109-.973 1.945-.973.699 0 1.219.193 1.559.58.343.387.519.957.527 1.711V58h-1.424v-4.125c0-.402-.088-.697-.264-.885-.175-.187-.466-.281-.873-.281-.324 0-.589.088-.796.264a1.36 1.36 0 00-.428.68l.006 4.347h-1.424v-4.172c-.02-.746-.401-1.119-1.143-1.119-.57 0-.974.232-1.213.697V58h-1.423v-6.34h1.341zM354.734 58h-5.736v-.978l2.842-3.1c.41-.457.701-.838.873-1.143.176-.308.264-.617.264-.926 0-.406-.116-.734-.346-.984-.227-.25-.533-.375-.92-.375-.461 0-.818.14-1.072.422-.254.281-.381.666-.381 1.154h-1.424c0-.52.117-.986.352-1.4a2.458 2.458 0 011.013-.973c.442-.23.949-.345 1.524-.345.828 0 1.48.209 1.957.627.48.414.72.988.72 1.722 0 .426-.121.873-.363 1.342-.238.465-.631.994-1.178 1.588l-2.086 2.232h3.961V58z" fill="#fff"/><circle cy="54" r="5" fill="#FFEBF1"/><circle cx="231" cy="54" r="5" fill="#FFEBF1"/><circle cx="215.5" cy="96.5" r="10.5" fill="#FC7DE1"/><circle cx="200" cy="138" r="5" fill="#FFEBF1"/><path d="M200 138.5c0-31 31-50 31-84.5" stroke="#FC7DE1" stroke-width="4" stroke-linecap="round" stroke-linejoin="round"/><circle cx="400" cy="54" r="5" fill="#FFEBF1"/><path stroke="#981F42" stroke-width="2" stroke-dasharray="4 4" d="M99 35v38m146-38v38"/><path d="M218.035 95.629h-5.238v-1.383h5.238v1.383zm0 2.537h-5.238v-1.383h5.238v1.383z" fill="#fff"/></g><defs><clipPath id="clip0"><path fill="#fff" d="M0 0h400v200H0z"/></clipPath></defs></svg>