<svg width="400" height="200" viewBox="0 0 400 200" fill="none" xmlns="http://www.w3.org/2000/svg"><g clip-path="url(#clip0)"><circle cy="54" r="5" fill="#E6EBFF"/><circle cy="96" r="5" fill="#E6EBFF"/><circle cy="180" r="5" fill="#E6EBFF"/><rect y="20" width="400" height="116" rx="4" fill="#FC7DE1"/><rect x="16" y="36" width="176" height="38" rx="4" fill="#fff"/><rect x="384" y="120" width="79" height="38" rx="4" transform="rotate(180 384 120)" fill="#FEDFF8"/><circle cx="345" cy="120" r="5" fill="#FC7DE1"/><circle cx="345" cy="120" r="2" fill="#FEDFF8"/><rect x="263" y="200" width="125" height="38" rx="4" transform="rotate(-180 263 200)" fill="#0037FF"/><rect x="154" y="170" width="45" height="22" rx="11" fill="#002199"/><path d="M164.736 178.628v4.362c0 .308.056.52.168.636.116.116.276.174.48.174.196 0 .392-.062.588-.186.196-.124.36-.292.492-.504v-4.482h1.896V185h-1.656l-.084-.744c-.216.312-.5.548-.852.708-.352.16-.72.24-1.104.24-.616 0-1.074-.178-1.374-.534-.3-.36-.45-.842-.45-1.446v-4.596h1.896zm7.855 5.22c.316 0 .57-.05.762-.15.196-.1.294-.25.294-.45a.52.52 0 00-.114-.342c-.076-.092-.222-.18-.438-.264a10.454 10.454 0 00-.96-.3c-.584-.156-1.06-.38-1.428-.672-.364-.292-.546-.72-.546-1.284 0-.568.236-1.038.708-1.41.476-.372 1.162-.558 2.058-.558.568 0 1.062.074 1.482.222.424.144.79.328 1.098.552l-.756 1.116a3.744 3.744 0 00-.852-.39c-.304-.1-.61-.15-.918-.15-.608 0-.912.164-.912.492 0 .108.038.202.114.282.08.076.228.156.444.24.216.08.532.18.948.3.412.116.77.25 1.074.402.308.152.546.356.714.612.168.252.252.586.252 1.002 0 .464-.138.854-.414 1.17-.276.312-.642.546-1.098.702a4.608 4.608 0 01-1.5.234c-.616 0-1.16-.088-1.632-.264a3.897 3.897 0 01-1.206-.696l.954-1.068c.248.192.528.352.84.48.316.128.66.192 1.032.192zm6.284-1.482c.064.52.234.894.51 1.122.276.224.616.336 1.02.336.292 0 .574-.048.846-.144a3.86 3.86 0 00.786-.384l.762 1.032a3.71 3.71 0 01-1.092.63 4.004 4.004 0 01-1.452.246c-.728 0-1.338-.144-1.83-.432a2.795 2.795 0 01-1.11-1.2c-.248-.508-.372-1.092-.372-1.752 0-.628.12-1.198.36-1.71.24-.516.59-.926 1.05-1.23.464-.308 1.03-.462 1.698-.462.608 0 1.134.13 1.578.39.448.26.794.634 1.038 1.122.248.488.372 1.074.372 1.758 0 .108-.004.224-.012.348a3.633 3.633 0 01-.024.33h-4.128zm1.176-2.676c-.34 0-.614.122-.822.366-.208.244-.334.634-.378 1.17h2.34c-.004-.464-.094-.836-.27-1.116-.176-.28-.466-.42-.87-.42zm4.435 5.31v-1.272h.84v-3.84h-.84v-1.26h2.286l.348 1.434c.228-.548.518-.956.87-1.224.356-.268.79-.402 1.302-.402.216 0 .408.018.576.054.168.032.326.078.474.138l-.354 2.664H188.8v-1.176c-.36.064-.676.26-.948.588a3.421 3.421 0 00-.63 1.2v1.824h1.26V185h-3.996zm20.776-1.134c0-.244.06-.466.18-.666.12-.204.282-.366.486-.486a1.27 1.27 0 01.672-.186c.248 0 .472.062.672.186.204.12.366.282.486.486.12.2.18.422.18.666 0 .24-.06.462-.18.666-.12.204-.282.366-.486.486a1.25 1.25 0 01-.672.186 1.27 1.27 0 01-.672-.186 1.348 1.348 0 01-.486-.486 1.29 1.29 0 01-.18-.666zm9.097-7.77v6.9c0 .256.072.44.216.552.148.108.35.162.606.162.164 0 .322-.018.474-.054.152-.04.294-.086.426-.138l.456 1.266a4.04 4.04 0 01-.78.294 4.007 4.007 0 01-1.062.126c-.768 0-1.332-.22-1.692-.66-.36-.444-.54-1.038-.54-1.782v-5.37h-1.878v-1.296h3.774zm6.632 2.322c.656 0 1.214.14 1.674.42.46.28.812.674 1.056 1.182.244.504.366 1.096.366 1.776 0 1.064-.272 1.898-.816 2.502-.544.604-1.304.906-2.28.906-.976 0-1.736-.298-2.28-.894-.544-.596-.816-1.43-.816-2.502 0-.676.122-1.268.366-1.776a2.811 2.811 0 011.062-1.188c.464-.284 1.02-.426 1.668-.426zm0 1.398c-.388 0-.676.16-.864.48-.184.316-.276.82-.276 1.512 0 .704.092 1.214.276 1.53.188.316.476.474.864.474s.674-.158.858-.474c.188-.316.282-.83.282-1.542 0-.688-.094-1.19-.282-1.506-.184-.316-.47-.474-.858-.474zm10.093-2.208l.444 1.392a3.376 3.376 0 01-.786.192c-.3.04-.65.06-1.05.06.4.172.704.386.912.642.212.252.318.584.318.996 0 .412-.11.78-.33 1.104-.22.32-.532.572-.936.756-.404.184-.882.276-1.434.276a3.58 3.58 0 01-.738-.072c-.14.072-.21.194-.21.366 0 .1.04.19.12.27.084.08.278.12.582.12h1.044c.74 0 1.33.174 1.77.522.44.348.66.788.66 1.32 0 .652-.286 1.166-.858 1.542-.572.376-1.422.564-2.55.564-.816 0-1.448-.084-1.896-.252-.444-.164-.754-.4-.93-.708-.172-.304-.258-.666-.258-1.086h1.68c0 .184.036.334.108.45.076.12.218.208.426.264.212.056.518.084.918.084.404 0 .712-.032.924-.096.212-.064.356-.152.432-.264a.6.6 0 00.12-.366.552.552 0 00-.222-.456c-.148-.116-.382-.174-.702-.174h-1.014c-.688 0-1.188-.126-1.5-.378-.312-.256-.468-.554-.468-.894 0-.236.062-.46.186-.672.128-.212.306-.39.534-.534-.408-.216-.7-.47-.876-.762-.176-.296-.264-.65-.264-1.062 0-.48.122-.892.366-1.236.244-.348.58-.616 1.008-.804.432-.188.924-.282 1.476-.282a5.78 5.78 0 001.242-.096c.352-.076.668-.178.948-.306.28-.132.548-.272.804-.42zm-2.946 2.052c-.3 0-.538.096-.714.288-.176.188-.264.448-.264.78 0 .352.09.622.27.81.18.188.416.282.708.282.648 0 .972-.372.972-1.116 0-.696-.324-1.044-.972-1.044zm7.231-4.368c.328 0 .596.102.804.306.208.204.312.458.312.762s-.104.56-.312.768c-.208.204-.476.306-.804.306-.332 0-.604-.102-.816-.306a1.044 1.044 0 01-.312-.768c0-.304.104-.558.312-.762.212-.204.484-.306.816-.306zm1.146 3.336v5.076h1.62V185h-5.322v-1.296h1.806v-3.78h-1.746v-1.296h3.642zm3.302 6.372v-6.372h1.656l.132.738c.284-.32.584-.558.9-.714a2.408 2.408 0 011.08-.234c.544 0 .972.166 1.284.498.312.332.468.8.468 1.404V185h-1.896v-4.134c0-.392-.044-.664-.132-.816-.084-.156-.244-.234-.48-.234-.2 0-.392.064-.576.192-.18.128-.36.306-.54.534V185h-1.896z" fill="#fff"/><circle cx="263" cy="181" r="5" fill="#E6EBFF"/><circle cx="263" cy="181" r="2" fill="#0037FF"/><path d="M36.049 53.96a3.528 3.528 0 00-.58-.046c-.653 0-1.092.25-1.319.75V59h-1.423v-6.34h1.359l.035.71c.344-.552.82-.827 1.43-.827.203 0 .37.027.504.082l-.006 1.336zM38.463 59h-1.424v-6.34h1.424V59zm-1.512-7.986c0-.22.069-.4.205-.545.14-.145.34-.217.598-.217.258 0 .457.072.598.217a.75.75 0 01.21.545c0 .214-.07.394-.21.539-.141.14-.34.21-.598.21-.258 0-.457-.07-.598-.21a.754.754 0 01-.205-.54zm5.672 6.966c.355 0 .65-.103.885-.31a1.06 1.06 0 00.375-.768h1.342a2.107 2.107 0 01-.37 1.108c-.23.34-.542.61-.937.808-.395.2-.82.3-1.277.3-.887 0-1.59-.288-2.11-.862-.52-.574-.779-1.367-.779-2.379v-.147c0-.964.258-1.736.773-2.314.516-.582 1.22-.873 2.11-.873.754 0 1.367.22 1.84.662.476.438.726 1.014.75 1.729h-1.342a1.297 1.297 0 00-.375-.897c-.23-.234-.526-.352-.885-.352-.46 0-.816.168-1.066.505-.25.332-.377.837-.381 1.517v.228c0 .688.123 1.202.369 1.542.25.336.61.504 1.078.504zm5.736-1.699l-.632.65V59h-1.424v-9h1.424v5.191l.445-.556 1.752-1.975h1.71l-2.355 2.643L51.887 59H50.24l-1.88-2.719zm5.098 1.219c.266 0 .47.076.615.228a.774.774 0 01.217.563.766.766 0 01-.217.557c-.144.144-.35.217-.615.217-.254 0-.455-.073-.604-.217a.743.743 0 01-.222-.557c0-.226.072-.414.217-.563.144-.152.347-.228.609-.228zm6.018-.223a.644.644 0 00-.317-.58c-.207-.133-.553-.25-1.037-.351a5.35 5.35 0 01-1.213-.387c-.71-.344-1.066-.842-1.066-1.494 0-.547.23-1.004.691-1.371.461-.367 1.047-.551 1.758-.551.758 0 1.37.188 1.834.563.469.374.703.86.703 1.459h-1.424c0-.274-.101-.5-.304-.68-.203-.184-.473-.276-.809-.276-.313 0-.568.073-.768.217a.686.686 0 00-.293.58c0 .219.092.389.276.51.184.121.554.244 1.113.37.559.12.996.267 1.313.439.32.168.556.37.709.609.156.238.234.527.234.867 0 .57-.236 1.033-.709 1.389-.473.351-1.092.527-1.857.527-.52 0-.983-.094-1.39-.281a2.286 2.286 0 01-.948-.773 1.83 1.83 0 01-.34-1.061h1.383c.02.336.146.596.38.78.235.179.546.269.932.269.375 0 .66-.07.856-.211a.67.67 0 00.293-.563zM65.908 59c-.062-.121-.117-.318-.164-.592a2.216 2.216 0 01-1.664.71c-.637 0-1.156-.183-1.558-.546a1.743 1.743 0 01-.604-1.347c0-.676.25-1.194.75-1.553.504-.363 1.223-.545 2.156-.545h.873v-.416c0-.328-.091-.59-.275-.785-.184-.2-.463-.299-.838-.299-.324 0-.59.082-.797.246a.745.745 0 00-.31.615h-1.424c0-.347.115-.672.345-.972a2.29 2.29 0 01.938-.715 3.324 3.324 0 011.33-.258c.742 0 1.334.188 1.775.563.442.37.668.894.68 1.57v2.86c0 .57.08 1.024.24 1.364v.1h-1.453zm-1.564-1.025c.281 0 .545-.069.79-.206.25-.136.438-.32.563-.55v-1.196h-.767c-.528 0-.924.092-1.19.276a.892.892 0 00-.398.78c0 .273.09.491.27.655.183.16.427.24.732.24zm5.59-5.315l.04.733c.47-.567 1.085-.85 1.846-.85 1.32 0 1.993.756 2.016 2.267V59h-1.424v-4.107c0-.403-.088-.7-.264-.891-.171-.195-.455-.293-.85-.293-.573 0-1.001.26-1.282.78V59h-1.424v-6.34h1.342zm7.963 5.32c.355 0 .65-.103.884-.31a1.06 1.06 0 00.375-.768h1.342a2.106 2.106 0 01-.37 1.108c-.23.34-.542.61-.937.808-.394.2-.82.3-1.277.3-.887 0-1.59-.288-2.11-.862-.519-.574-.779-1.367-.779-2.379v-.147c0-.964.258-1.736.774-2.314.515-.582 1.219-.873 2.11-.873.753 0 1.366.22 1.839.662.477.438.727 1.014.75 1.729h-1.342a1.297 1.297 0 00-.375-.897c-.23-.234-.525-.352-.885-.352-.46 0-.816.168-1.066.505-.25.332-.377.837-.38 1.517v.228c0 .688.122 1.202.368 1.542.25.336.61.504 1.079.504zm5.08-4.628a2.228 2.228 0 011.763-.809c1.352 0 2.037.772 2.057 2.314V59h-1.424v-4.09c0-.437-.096-.746-.287-.926-.188-.183-.465-.275-.832-.275-.57 0-.996.254-1.277.762V59h-1.424v-9h1.424v3.352zm8.056 5.765c-.902 0-1.635-.283-2.197-.85-.559-.57-.838-1.328-.838-2.273v-.176c0-.633.121-1.197.363-1.693.246-.5.59-.889 1.032-1.166a2.718 2.718 0 011.476-.416c.863 0 1.53.275 1.998.826.473.55.71 1.33.71 2.338v.574h-4.143c.043.524.216.938.521 1.242.309.305.695.457 1.16.457.653 0 1.184-.263 1.594-.79l.768.732a2.58 2.58 0 01-1.02.885c-.422.207-.896.31-1.424.31zm-.17-5.431c-.39 0-.707.136-.949.41-.238.273-.39.654-.457 1.142h2.713v-.105c-.031-.477-.158-.836-.38-1.078-.224-.246-.532-.37-.927-.37zm5.344 4.177h3.375V59h-5.144v-.932l3.216-4.26h-3.158V52.66h4.963v.903l-3.252 4.3zm5.402-.363c.266 0 .471.076.616.228a.775.775 0 01.216.563.768.768 0 01-.216.557c-.145.144-.35.217-.616.217-.254 0-.455-.073-.603-.217a.741.741 0 01-.223-.557c0-.226.072-.414.217-.563.145-.152.348-.228.609-.228zm5.069.48c.355 0 .65-.103.884-.31.235-.207.36-.463.376-.768h1.341a2.097 2.097 0 01-.369 1.108c-.23.34-.543.61-.937.808-.395.2-.821.3-1.278.3-.886 0-1.59-.288-2.109-.862-.52-.574-.779-1.367-.779-2.379v-.147c0-.964.257-1.736.773-2.314.516-.582 1.219-.873 2.109-.873.754 0 1.368.22 1.84.662.477.438.727 1.014.75 1.729h-1.341a1.298 1.298 0 00-.376-.897c-.23-.234-.525-.352-.884-.352-.461 0-.817.168-1.067.505-.25.332-.377.837-.381 1.517v.228c0 .688.124 1.202.37 1.542.25.336.609.504 1.078.504zm3.41-2.208c0-.622.123-1.18.369-1.676.246-.5.592-.883 1.037-1.149.445-.27.957-.404 1.535-.404.856 0 1.549.275 2.08.826.536.55.825 1.281.868 2.191l.005.334c0 .626-.121 1.184-.363 1.676a2.638 2.638 0 01-1.031 1.143c-.445.27-.961.404-1.547.404-.895 0-1.611-.297-2.15-.89-.536-.598-.803-1.393-.803-2.385v-.07zm1.424.123c0 .652.134 1.164.404 1.535.27.367.645.55 1.125.55s.854-.187 1.119-.562c.27-.375.404-.924.404-1.646 0-.641-.138-1.149-.416-1.524a1.31 1.31 0 00-1.119-.563c-.465 0-.834.186-1.107.557-.274.367-.41.918-.41 1.653zm7.013-3.235l.041.662c.446-.52 1.055-.779 1.829-.779.847 0 1.427.324 1.74.973.461-.649 1.109-.973 1.945-.973.699 0 1.219.193 1.559.58.343.387.519.957.527 1.711V59h-1.424v-4.125c0-.402-.088-.697-.263-.885-.176-.187-.467-.281-.874-.281-.324 0-.589.088-.796.264a1.36 1.36 0 00-.428.68l.006 4.347h-1.424v-4.172c-.02-.746-.401-1.119-1.143-1.119-.57 0-.974.232-1.213.697V59h-1.423v-6.34h1.341zm212.995 50.928h3.732V105h-5.49v-8.531h1.758v7.119zm4.371-1.817c0-.628.121-1.189.363-1.681s.59-.873 1.043-1.143c.457-.27.986-.404 1.588-.404.855 0 1.553.262 2.092.785.543.524.845 1.234.908 2.133l.011.434c0 .972-.271 1.753-.814 2.343-.543.586-1.271.879-2.186.879-.914 0-1.644-.293-2.191-.879-.543-.586-.814-1.383-.814-2.39v-.077zm1.693.124c0 .601.113 1.062.34 1.382.226.317.551.475.972.475.411 0 .731-.156.961-.469.231-.316.346-.82.346-1.512 0-.589-.115-1.046-.346-1.371-.23-.324-.554-.486-.972-.486-.414 0-.735.162-.961.486-.227.321-.34.819-.34 1.495zm5.109-.112c0-.972.231-1.756.692-2.35.465-.593 1.09-.89 1.875-.89.695 0 1.236.238 1.623.715l.07-.598h1.535v6.129c0 .555-.127 1.037-.381 1.447a2.41 2.41 0 01-1.06.938c-.457.215-.992.322-1.606.322-.464 0-.918-.094-1.359-.281-.441-.184-.775-.422-1.002-.715l.75-1.031c.422.472.934.709 1.535.709.449 0 .799-.121 1.049-.364.25-.238.375-.578.375-1.019v-.34c-.391.441-.904.662-1.541.662-.762 0-1.379-.297-1.852-.89-.468-.598-.703-1.389-.703-2.373v-.071zm1.694.123c0 .574.115 1.026.345 1.354.231.324.547.486.95.486.515 0 .884-.193 1.107-.58V100.5c-.227-.387-.592-.58-1.096-.58-.406 0-.726.166-.961.498-.23.332-.345.828-.345 1.488zm7.195 3.094h-1.699v-6.34h1.699V105zm-1.799-7.98c0-.254.084-.463.252-.627.172-.165.404-.246.697-.246.289 0 .52.081.692.246a.829.829 0 01.258.626.826.826 0 01-.264.633c-.172.164-.4.246-.686.246-.285 0-.515-.082-.691-.246a.836.836 0 01-.258-.633zm4.758 1.64l.053.733c.453-.567 1.06-.85 1.822-.85.672 0 1.172.197 1.5.592.328.394.496.984.504 1.769V105h-1.693v-4.055c0-.359-.079-.619-.235-.779-.156-.164-.416-.246-.779-.246-.477 0-.834.203-1.072.609V105h-1.694v-6.34h1.594z" fill="#FC7DE1"/><rect x="384" y="74" width="176" height="38" rx="4" transform="rotate(180 384 74)" fill="#fff"/><rect x="128" y="12" width="97" height="4" rx="2" transform="rotate(-180 128 12)" fill="#FC7DE1"/><rect x="27" y="12" width="27" height="4" rx="2" transform="rotate(-180 27 12)" fill="#FC7DE1"/><path d="M224.797 54.482c0-.37.117-.673.351-.908.239-.238.553-.357.944-.357.402 0 .72.119.955.357.234.235.351.543.351.926v.217c0 .367-.117.668-.351.902-.231.23-.547.346-.949.346-.387 0-.7-.112-.938-.334-.234-.227-.355-.522-.363-.885v-.264zm4.195 0c0-.37.117-.673.352-.908.238-.238.552-.357.943-.357.402 0 .721.119.955.357.235.235.352.543.352.926v.217c0 .367-.117.668-.352.902-.23.23-.547.346-.949.346-.387 0-.699-.112-.938-.334-.234-.227-.355-.522-.363-.885v-.264zm4.196 0c0-.37.117-.673.351-.908.238-.238.553-.357.943-.357.403 0 .721.119.956.357.234.235.351.543.351.926v.217c0 .367-.117.668-.351.902-.231.23-.547.346-.95.346-.386 0-.699-.112-.937-.334-.235-.227-.356-.522-.363-.885v-.264zm4.195 0c0-.37.117-.673.351-.908.239-.238.553-.357.944-.357.402 0 .72.119.955.357.234.235.351.543.351.926v.217c0 .367-.117.668-.351.902-.231.23-.547.346-.949.346-.387 0-.7-.112-.938-.334-.234-.227-.355-.522-.363-.885v-.264zm4.195 0c0-.37.117-.673.352-.908.238-.238.552-.357.943-.357.402 0 .721.119.955.357.234.235.352.543.352.926v.217c0 .367-.118.668-.352.902-.23.23-.547.346-.949.346-.387 0-.699-.112-.938-.334-.234-.227-.355-.522-.363-.885v-.264zm4.195 0c0-.37.118-.673.352-.908.238-.238.553-.357.943-.357.403 0 .721.119.955.357.235.235.352.543.352.926v.217c0 .367-.117.668-.352.902-.23.23-.546.346-.949.346-.386 0-.699-.112-.937-.334-.235-.227-.356-.522-.364-.885v-.264zm4.196 0c0-.37.117-.673.351-.908.239-.238.553-.357.944-.357.402 0 .72.119.955.357.234.235.351.543.351.926v.217c0 .367-.117.668-.351.902-.231.23-.547.346-.949.346-.387 0-.7-.112-.938-.334-.234-.227-.355-.522-.363-.885v-.264zm4.195 0c0-.37.117-.673.352-.908.238-.238.552-.357.943-.357.402 0 .721.119.955.357.234.235.352.543.352.926v.217c0 .367-.118.668-.352.902-.23.23-.547.346-.949.346-.387 0-.699-.112-.938-.334-.234-.227-.355-.522-.363-.885v-.264zm4.195 0c0-.37.118-.673.352-.908.238-.238.553-.357.943-.357.403 0 .721.119.955.357.235.235.352.543.352.926v.217c0 .367-.117.668-.352.902-.23.23-.547.346-.949.346-.387 0-.699-.112-.937-.334-.235-.227-.356-.522-.364-.885v-.264zm4.196 0c0-.37.117-.673.351-.908.239-.238.553-.357.944-.357.402 0 .72.119.955.357.234.235.351.543.351.926v.217c0 .367-.117.668-.351.902-.231.23-.547.346-.95.346-.386 0-.699-.112-.937-.334-.234-.227-.356-.522-.363-.885v-.264zm4.195 0c0-.37.117-.673.352-.908.238-.238.552-.357.943-.357.402 0 .721.119.955.357.234.235.352.543.352.926v.217c0 .367-.118.668-.352.902-.23.23-.547.346-.949.346-.387 0-.699-.112-.938-.334-.234-.227-.355-.522-.363-.885v-.264zm4.195 0c0-.37.117-.673.352-.908.238-.238.553-.357.943-.357.403 0 .721.119.955.357.235.235.352.543.352.926v.217c0 .367-.117.668-.352.902-.23.23-.547.346-.949.346-.387 0-.699-.112-.937-.334-.235-.227-.356-.522-.364-.885v-.264zm4.196 0c0-.37.117-.673.351-.908.238-.238.553-.357.944-.357.402 0 .72.119.955.357.234.235.351.543.351.926v.217c0 .367-.117.668-.351.902-.231.23-.547.346-.95.346-.386 0-.699-.112-.937-.334-.234-.227-.356-.522-.363-.885v-.264zm4.195 0c0-.37.117-.673.352-.908.238-.238.552-.357.943-.357.402 0 .721.119.955.357.234.235.352.543.352.926v.217c0 .367-.118.668-.352.902-.231.23-.547.346-.949.346-.387 0-.699-.112-.938-.334-.234-.227-.355-.522-.363-.885v-.264zm4.195 0c0-.37.117-.673.352-.908.238-.238.553-.357.943-.357.403 0 .721.119.955.357.235.235.352.543.352.926v.217c0 .367-.117.668-.352.902-.23.23-.547.346-.949.346-.387 0-.699-.112-.937-.334-.235-.227-.356-.522-.364-.885v-.264zm4.196 0c0-.37.117-.673.351-.908.238-.238.553-.357.943-.357.403 0 .721.119.956.357.234.235.351.543.351.926v.217c0 .367-.117.668-.351.902-.231.23-.547.346-.95.346-.386 0-.699-.112-.937-.334-.235-.227-.356-.522-.363-.885v-.264zm4.195 0c0-.37.117-.673.351-.908.239-.238.553-.357.944-.357.402 0 .721.119.955.357.234.235.351.543.351.926v.217c0 .367-.117.668-.351.902-.231.23-.547.346-.949.346-.387 0-.7-.112-.938-.334-.234-.227-.355-.522-.363-.885v-.264zm4.195 0c0-.37.117-.673.352-.908.238-.238.552-.357.943-.357.402 0 .721.119.955.357.235.235.352.543.352.926v.217c0 .367-.117.668-.352.902-.23.23-.547.346-.949.346-.387 0-.699-.112-.938-.334-.234-.227-.355-.522-.363-.885v-.264zm4.195 0c0-.37.118-.673.352-.908.238-.238.553-.357.943-.357.403 0 .721.119.955.357.235.235.352.543.352.926v.217c0 .367-.117.668-.352.902-.23.23-.546.346-.949.346-.386 0-.699-.112-.937-.334-.235-.227-.356-.522-.364-.885v-.264zm4.196 0c0-.37.117-.673.351-.908.239-.238.553-.357.944-.357.402 0 .72.119.955.357.234.235.351.543.351.926v.217c0 .367-.117.668-.351.902-.231.23-.547.346-.949.346-.387 0-.7-.112-.938-.334-.234-.227-.355-.522-.363-.885v-.264zm4.195 0c0-.37.117-.673.352-.908.238-.238.552-.357.943-.357.402 0 .721.119.955.357.235.235.352.543.352.926v.217c0 .367-.117.668-.352.902-.23.23-.547.346-.949.346-.387 0-.699-.112-.938-.334-.234-.227-.355-.522-.363-.885v-.264zm4.195 0c0-.37.118-.673.352-.908.238-.238.553-.357.943-.357.403 0 .721.119.955.357.235.235.352.543.352.926v.217c0 .367-.117.668-.352.902-.23.23-.546.346-.949.346-.387 0-.699-.112-.937-.334-.235-.227-.356-.522-.364-.885v-.264zm4.196 0c0-.37.117-.673.351-.908.239-.238.553-.357.944-.357.402 0 .72.119.955.357.234.235.351.543.351.926v.217c0 .367-.117.668-.351.902-.231.23-.547.346-.949.346-.387 0-.7-.112-.938-.334-.234-.227-.355-.522-.363-.885v-.264zm4.195 0c0-.37.117-.673.352-.908.238-.238.552-.357.943-.357.402 0 .721.119.955.357.234.235.352.543.352.926v.217c0 .367-.118.668-.352.902-.23.23-.547.346-.949.346-.387 0-.699-.112-.938-.334-.234-.227-.355-.522-.363-.885v-.264zm4.195 0c0-.37.118-.673.352-.908.238-.238.553-.357.943-.357.403 0 .721.119.955.357.235.235.352.543.352.926v.217c0 .367-.117.668-.352.902-.23.23-.546.346-.949.346-.387 0-.699-.112-.937-.334-.235-.227-.356-.522-.364-.885v-.264zm4.196 0c0-.37.117-.673.351-.908.239-.238.553-.357.944-.357.402 0 .72.119.955.357.234.235.351.543.351.926v.217c0 .367-.117.668-.351.902-.231.23-.547.346-.95.346-.386 0-.699-.112-.937-.334-.234-.227-.355-.522-.363-.885v-.264zm4.195 0c0-.37.117-.673.352-.908.238-.238.552-.357.943-.357.402 0 .721.119.955.357.234.235.352.543.352.926v.217c0 .367-.118.668-.352.902-.23.23-.547.346-.949.346-.387 0-.699-.112-.938-.334-.234-.227-.355-.522-.363-.885v-.264zm4.195 0c0-.37.118-.673.352-.908.238-.238.553-.357.943-.357.403 0 .721.119.955.357.235.235.352.543.352.926v.217c0 .367-.117.668-.352.902-.23.23-.547.346-.949.346-.387 0-.699-.112-.937-.334-.235-.227-.356-.522-.364-.885v-.264zm4.196 0c0-.37.117-.673.351-.908.238-.238.553-.357.944-.357.402 0 .72.119.955.357.234.235.351.543.351.926v.217c0 .367-.117.668-.351.902-.231.23-.547.346-.95.346-.386 0-.699-.112-.937-.334-.234-.227-.356-.522-.363-.885v-.264zm4.195 0c0-.37.117-.673.351-.908.239-.238.553-.357.944-.357.402 0 .721.119.955.357.234.235.351.543.351.926v.217c0 .367-.117.668-.351.902-.231.23-.547.346-.949.346-.387 0-.7-.112-.938-.334-.234-.227-.355-.522-.363-.885v-.264zm4.195 0c0-.37.117-.673.352-.908.238-.238.553-.357.943-.357.403 0 .721.119.955.357.235.235.352.543.352.926v.217c0 .367-.117.668-.352.902-.23.23-.547.346-.949.346-.387 0-.699-.112-.937-.334-.235-.227-.356-.522-.364-.885v-.264zm4.196 0c0-.37.117-.673.351-.908.238-.238.553-.357.943-.357.403 0 .721.119.956.357.234.235.351.543.351.926v.217c0 .367-.117.668-.351.902-.231.23-.547.346-.95.346-.386 0-.699-.112-.937-.334-.235-.227-.356-.522-.363-.885v-.264z" fill="#FC7DE1"/><rect x="57" y="105" width="10" height="4" rx="2" transform="rotate(-180 57 105)" fill="#FEDFF8"/><rect x="43" y="105" width="27" height="4" rx="2" transform="rotate(-180 43 105)" fill="#FEDFF8"/><rect x="147" y="105" width="86" height="4" rx="2" transform="rotate(-180 147 105)" fill="#FEDFF8"/><path d="M271 181c49 0 74-29 74-53" stroke="#FFD600" stroke-width="4" stroke-linecap="round" stroke-linejoin="round"/></g><defs><clipPath id="clip0"><path fill="#fff" d="M0 0h400v200H0z"/></clipPath></defs></svg>