<svg width="400" height="200" viewBox="0 0 400 200" fill="none" xmlns="http://www.w3.org/2000/svg"><g clip-path="url(#clip0)"><rect x="197" y="73" width="197" height="38" rx="4" transform="rotate(-180 197 73)" fill="#8B30FF"/><rect x="400" y="73" width="139" height="38" rx="4" transform="rotate(-180 400 73)" fill="#FE346E"/><path d="M19.36 10.992V15h-2.344V3.625h4.437c.854 0 1.604.156 2.25.469.651.312 1.151.758 1.5 1.336.35.573.524 1.226.524 1.96 0 1.115-.383 1.995-1.149 2.641-.76.64-1.815.961-3.164.961H19.36zm0-1.898h2.093c.62 0 1.091-.146 1.414-.438.328-.291.492-.708.492-1.25 0-.557-.164-1.008-.492-1.351-.328-.344-.781-.521-1.36-.532H19.36v3.57zM29.577 15h-2.265V3h2.265v12zm6.766 0a2.507 2.507 0 01-.227-.758c-.547.61-1.258.914-2.133.914-.828 0-1.515-.24-2.062-.719a2.316 2.316 0 01-.813-1.812c0-.896.331-1.583.993-2.063.666-.479 1.627-.72 2.882-.726h1.04v-.484c0-.391-.102-.704-.305-.938-.198-.234-.513-.351-.946-.351-.38 0-.68.09-.898.273-.214.182-.32.432-.32.75h-2.258c0-.49.15-.943.453-1.36.302-.416.73-.742 1.281-.976.552-.24 1.172-.36 1.86-.36 1.041 0 1.867.264 2.476.79.615.52.922 1.255.922 2.203v3.664c.005.802.117 1.409.336 1.82V15h-2.281zm-1.867-1.57c.333 0 .64-.073.921-.22.282-.15.49-.35.625-.6v-1.454h-.843c-1.13 0-1.732.39-1.805 1.172l-.008.133c0 .281.1.513.297.695.198.182.469.274.813.274zm7.625-6.883l.07.976c.604-.755 1.414-1.132 2.43-1.132.895 0 1.562.263 2 .789.437.526.661 1.312.671 2.36V15h-2.257V9.594c0-.48-.105-.826-.313-1.04-.208-.218-.555-.327-1.039-.327-.635 0-1.112.27-1.43.812V15h-2.257V6.547h2.125zm10.78 8.61c-1.239 0-2.25-.381-3.03-1.141-.776-.76-1.164-1.774-1.164-3.04v-.218c0-.85.164-1.607.492-2.274.328-.671.791-1.187 1.39-1.546.605-.365 1.292-.547 2.063-.547 1.156 0 2.065.364 2.726 1.093.667.73 1 1.763 1 3.102v.922h-5.382c.073.552.291.995.656 1.328.37.333.836.5 1.398.5.87 0 1.55-.315 2.04-.945l1.109 1.242a3.425 3.425 0 01-1.375 1.125 4.55 4.55 0 01-1.922.398zm-.257-6.938c-.448 0-.813.15-1.094.453-.276.302-.453.734-.531 1.297h3.14v-.18c-.01-.5-.145-.885-.406-1.156-.26-.276-.63-.414-1.109-.414zm7.727-3.75v2.078h1.445v1.656h-1.445v4.219c0 .312.06.536.18.672.119.135.348.203.687.203.25 0 .471-.018.664-.055v1.711a4.648 4.648 0 01-1.367.203c-1.584 0-2.391-.8-2.422-2.398V8.203h-1.235V6.547h1.235V4.469h2.258zm9.39 0v2.078h1.445v1.656h-1.445v4.219c0 .312.06.536.18.672.12.135.349.203.687.203.25 0 .472-.018.664-.055v1.711a4.648 4.648 0 01-1.367.203c-1.583 0-2.39-.8-2.422-2.398V8.203H66.25V6.547h1.234V4.469h2.258zm5.86 7.336l1.562-5.258h2.422l-3.398 9.765-.188.446c-.505 1.104-1.338 1.656-2.5 1.656-.328 0-.662-.05-1-.148v-1.711l.344.008c.427 0 .745-.066.953-.196.213-.13.38-.346.5-.648l.266-.696-2.961-8.476h2.43l1.57 5.258zm12.484-.953c0 1.302-.297 2.346-.89 3.132-.59.782-1.386 1.172-2.391 1.172-.855 0-1.545-.297-2.07-.89v3.984h-2.258V6.547h2.093l.078.828c.547-.656 1.26-.984 2.141-.984 1.042 0 1.852.385 2.43 1.156.578.77.867 1.833.867 3.187v.118zm-2.258-.165c0-.786-.14-1.393-.422-1.82-.276-.427-.68-.64-1.21-.64-.709 0-1.196.27-1.462.812V12.5c.276.557.769.836 1.477.836 1.078 0 1.617-.883 1.617-2.649zm7.555 4.47c-1.24 0-2.25-.381-3.031-1.141-.776-.76-1.165-1.774-1.165-3.04v-.218c0-.85.165-1.607.493-2.274.328-.671.791-1.187 1.39-1.546.605-.365 1.292-.547 2.063-.547 1.156 0 2.065.364 2.726 1.093.667.73 1 1.763 1 3.102v.922h-5.382c.072.552.291.995.656 1.328.37.333.836.5 1.398.5.87 0 1.55-.315 2.04-.945l1.109 1.242a3.425 3.425 0 01-1.375 1.125 4.55 4.55 0 01-1.922.398zm-.258-6.938c-.448 0-.813.15-1.094.453-.276.302-.453.734-.531 1.297h3.14v-.18c-.01-.5-.145-.885-.406-1.156-.26-.276-.63-.414-1.109-.414z" fill="#8B30FF"/><path d="M280.359 10.992V15h-2.343V3.625h4.437c.854 0 1.604.156 2.25.469.651.312 1.151.758 1.5 1.336.349.573.524 1.226.524 1.96 0 1.115-.383 1.995-1.149 2.641-.76.64-1.815.961-3.164.961h-2.055zm0-1.898h2.094c.62 0 1.091-.146 1.414-.438.328-.291.492-.708.492-1.25 0-.557-.164-1.008-.492-1.351-.328-.344-.781-.521-1.359-.532h-2.149v3.57zM290.578 15h-2.266V3h2.266v12zm6.766 0a2.515 2.515 0 01-.227-.758c-.547.61-1.258.914-2.133.914-.828 0-1.515-.24-2.062-.719a2.316 2.316 0 01-.813-1.812c0-.896.331-1.583.993-2.063.666-.479 1.627-.72 2.882-.726h1.039v-.484c0-.391-.101-.704-.304-.938-.198-.234-.513-.351-.946-.351-.38 0-.679.09-.898.273-.214.182-.32.432-.32.75h-2.258c0-.49.151-.943.453-1.36.302-.416.729-.742 1.281-.976.552-.24 1.172-.36 1.86-.36 1.041 0 1.867.264 2.476.79.615.52.922 1.255.922 2.203v3.664c.005.802.117 1.409.336 1.82V15h-2.281zm-1.867-1.57c.333 0 .64-.073.921-.22.282-.15.49-.35.625-.6v-1.454h-.843c-1.131 0-1.732.39-1.805 1.172l-.008.133c0 .281.099.513.297.695.198.182.469.274.813.274zm7.625-6.883l.07.976c.604-.755 1.414-1.132 2.43-1.132.895 0 1.562.263 2 .789.437.526.661 1.312.671 2.36V15h-2.257V9.594c0-.48-.105-.826-.313-1.04-.208-.218-.555-.327-1.039-.327-.635 0-1.112.27-1.43.812V15h-2.257V6.547h2.125zm10.781 8.61c-1.24 0-2.25-.381-3.031-1.141-.776-.76-1.164-1.774-1.164-3.04v-.218c0-.85.164-1.607.492-2.274.328-.671.791-1.187 1.39-1.546.604-.365 1.292-.547 2.063-.547 1.156 0 2.065.364 2.726 1.093.667.73 1 1.763 1 3.102v.922h-5.382c.072.552.291.995.656 1.328.37.333.836.5 1.398.5.87 0 1.55-.315 2.039-.945l1.11 1.242a3.425 3.425 0 01-1.375 1.125 4.55 4.55 0 01-1.922.398zm-.258-6.938c-.448 0-.813.15-1.094.453-.276.302-.453.734-.531 1.297h3.141v-.18c-.011-.5-.146-.885-.407-1.156-.26-.276-.63-.414-1.109-.414zm7.727-3.75v2.078h1.445v1.656h-1.445v4.219c0 .312.059.536.179.672.12.135.349.203.688.203.25 0 .471-.018.664-.055v1.711a4.652 4.652 0 01-1.367.203c-1.584 0-2.391-.8-2.422-2.398V8.203h-1.235V6.547h1.235V4.469h2.258zm7.281 8.195c0-.276-.138-.492-.414-.648-.271-.162-.709-.305-1.313-.43-2.01-.422-3.015-1.276-3.015-2.563 0-.75.31-1.375.929-1.875.625-.505 1.44-.757 2.446-.757 1.073 0 1.929.252 2.57.757.646.506.969 1.162.969 1.97h-2.258c0-.324-.104-.59-.313-.798-.208-.213-.533-.32-.976-.32-.38 0-.675.086-.883.258a.815.815 0 00-.313.656c0 .25.118.453.352.61.24.15.641.283 1.203.398.563.11 1.037.234 1.422.375 1.193.437 1.789 1.195 1.789 2.273 0 .771-.331 1.396-.992 1.875-.662.474-1.516.711-2.563.711-.708 0-1.338-.125-1.89-.375-.547-.255-.977-.601-1.289-1.039a2.428 2.428 0 01-.469-1.43h2.141c.02.402.169.709.445.922.276.214.646.32 1.109.32.433 0 .758-.08.977-.242a.773.773 0 00.336-.648z" fill="#FE346E"/><rect x="197" y="115" width="197" height="38" rx="4" transform="rotate(-180 197 115)" fill="#8B30FF"/><rect x="400" y="115" width="139" height="38" rx="4" transform="rotate(-180 400 115)" fill="#FE346E"/><rect x="197" y="157" width="197" height="38" rx="4" transform="rotate(-180 197 157)" fill="#8B30FF"/><rect x="400" y="157" width="139" height="38" rx="4" transform="rotate(-180 400 157)" fill="#FE346E"/><rect x="197" y="199" width="197" height="38" rx="4" transform="rotate(-180 197 199)" fill="#8B30FF"/><rect x="400" y="199" width="139" height="38" rx="4" transform="rotate(-180 400 199)" fill="#FE346E"/><path d="M23.77 53.928c0 .84-.149 1.576-.446 2.209-.297.633-.722 1.12-1.277 1.465-.55.343-1.184.515-1.899.515-.707 0-1.337-.17-1.892-.51-.555-.34-.985-.824-1.29-1.453-.304-.633-.458-1.36-.462-2.18v-.421c0-.84.15-1.578.451-2.215.305-.64.733-1.131 1.283-1.47.555-.345 1.188-.516 1.899-.516.71 0 1.341.171 1.892.515.555.34.983.83 1.284 1.47.304.638.457 1.374.457 2.21v.38zm-1.782-.387c0-.894-.16-1.574-.48-2.039-.32-.465-.777-.697-1.371-.697-.59 0-1.045.23-1.366.691-.32.457-.482 1.129-.486 2.016v.416c0 .87.16 1.547.48 2.027.32.48.782.72 1.383.72.59 0 1.043-.23 1.36-.69.316-.465.476-1.141.48-2.028v-.416zm5.584 3.211c.313 0 .567-.086.762-.258a.903.903 0 00.305-.685h1.588c-.004.43-.122.824-.352 1.183-.23.356-.547.633-.95.832-.398.196-.84.293-1.323.293-.907 0-1.622-.287-2.145-.861-.523-.578-.785-1.375-.785-2.39v-.112c0-.977.26-1.756.78-2.338.519-.582 1.232-.873 2.138-.873.793 0 1.428.227 1.904.68.48.449.725 1.049.733 1.799h-1.588c-.008-.329-.11-.594-.305-.797-.195-.207-.453-.31-.773-.31-.395 0-.694.144-.897.433-.2.285-.299.75-.299 1.394v.176c0 .652.1 1.121.3 1.406.198.285.501.428.907.428zm6.54 1.365c-.93 0-1.688-.285-2.274-.855-.582-.57-.873-1.33-.873-2.28v-.164c0-.636.123-1.205.369-1.705.246-.504.594-.89 1.043-1.16a2.94 2.94 0 011.547-.41c.867 0 1.549.273 2.045.82.5.547.75 1.322.75 2.327v.69h-4.037c.054.415.218.747.492.997.277.25.627.375 1.049.375.652 0 1.162-.236 1.529-.709l.832.932c-.254.359-.598.64-1.031.843-.434.2-.914.3-1.442.3zm-.194-5.203c-.336 0-.61.113-.82.34-.207.227-.34.55-.399.973h2.356v-.135c-.008-.375-.11-.664-.305-.867-.195-.207-.473-.31-.832-.31zM41.359 58a1.876 1.876 0 01-.17-.568c-.41.457-.943.685-1.6.685-.62 0-1.136-.18-1.546-.539a1.737 1.737 0 01-.61-1.36c0-.671.249-1.187.745-1.546.5-.36 1.22-.541 2.162-.545h.78v-.363c0-.293-.077-.528-.23-.704-.148-.175-.384-.263-.708-.263-.285 0-.51.068-.674.205-.16.137-.24.324-.24.563h-1.694c0-.368.114-.708.34-1.02.227-.313.547-.557.961-.733.414-.18.879-.269 1.395-.269.78 0 1.4.197 1.857.592.46.39.691.941.691 1.652v2.748c.004.602.088 1.057.252 1.365v.1h-1.71zm-1.4-1.178c.25 0 .48-.054.691-.164a1.12 1.12 0 00.47-.451v-1.09h-.634c-.847 0-1.298.293-1.353.88l-.006.099c0 .21.074.385.223.521.148.137.351.205.609.205zm5.719-5.162l.053.733c.453-.567 1.06-.85 1.822-.85.672 0 1.172.197 1.5.592.328.394.496.984.504 1.77V58h-1.694v-4.055c0-.36-.078-.619-.234-.779-.156-.164-.416-.246-.78-.246-.476 0-.833.203-1.072.61V58h-1.693v-6.34h1.594zm13.862 3.23c0 .976-.223 1.76-.668 2.35-.441.585-1.039.878-1.793.878-.64 0-1.158-.222-1.553-.668v2.989h-1.693V51.66h1.57l.059.621c.41-.492.945-.738 1.605-.738.782 0 1.389.289 1.823.867.433.578.65 1.375.65 2.39v.089zm-1.693-.123c0-.59-.106-1.045-.317-1.366-.207-.32-.51-.48-.908-.48-.531 0-.896.203-1.096.61v2.595c.207.418.576.627 1.108.627.808 0 1.213-.662 1.213-1.986zM62.383 58h-1.7v-9h1.7v9zm5.074 0a1.882 1.882 0 01-.17-.568c-.41.457-.943.685-1.6.685-.62 0-1.136-.18-1.546-.539a1.737 1.737 0 01-.61-1.36c0-.671.248-1.187.744-1.546.5-.36 1.221-.541 2.162-.545h.78v-.363c0-.293-.076-.528-.229-.704-.148-.175-.385-.263-.709-.263-.285 0-.51.068-.673.205-.16.137-.24.324-.24.563h-1.694c0-.368.113-.708.34-1.02.226-.313.547-.557.96-.733.415-.18.88-.269 1.395-.269.781 0 1.4.197 1.858.592.46.39.691.941.691 1.652v2.748c.004.602.088 1.057.252 1.365v.1h-1.711zm-1.4-1.178c.25 0 .48-.054.691-.164.211-.113.367-.264.469-.451v-1.09h-.633c-.848 0-1.299.293-1.353.88l-.006.099c0 .21.074.385.222.521.149.137.352.205.61.205zm5.718-5.162l.053.733c.453-.567 1.06-.85 1.822-.85.672 0 1.172.197 1.5.592.328.394.496.984.504 1.77V58h-1.693v-4.055c0-.36-.078-.619-.234-.779-.157-.164-.416-.246-.78-.246-.476 0-.834.203-1.072.61V58h-1.693v-6.34h1.593zm8.086 6.457c-.93 0-1.687-.285-2.273-.855-.582-.57-.873-1.33-.873-2.28v-.164c0-.636.123-1.205.369-1.705.246-.504.594-.89 1.043-1.16a2.94 2.94 0 011.547-.41c.867 0 1.549.273 2.045.82.5.547.75 1.322.75 2.327v.69h-4.037c.054.415.218.747.492.997.277.25.627.375 1.049.375.652 0 1.162-.236 1.529-.709l.832.932c-.254.359-.598.64-1.031.843-.434.2-.914.3-1.442.3zm-.193-5.203c-.336 0-.61.113-.82.34-.207.227-.34.55-.399.973h2.356v-.135c-.008-.375-.11-.664-.305-.867-.195-.207-.473-.31-.832-.31zm5.795-2.812v1.558h1.084v1.242h-1.084v3.164c0 .235.045.403.135.504.09.102.261.153.515.153.188 0 .354-.014.498-.041v1.283a3.485 3.485 0 01-1.025.152c-1.188 0-1.793-.6-1.817-1.799v-3.416h-.925V51.66h.925v-1.558h1.694zm194.596-.633l2.191 6.187 2.18-6.187h2.308V58h-1.763v-2.332l.175-4.025L282.848 58h-1.207l-2.297-6.352.176 4.02V58h-1.758v-8.531h2.297zm11.021 8.648c-.93 0-1.687-.285-2.273-.855-.582-.57-.873-1.33-.873-2.28v-.164c0-.636.123-1.205.369-1.705a2.69 2.69 0 011.043-1.16c.453-.273.968-.41 1.547-.41.867 0 1.548.273 2.045.82.5.547.75 1.322.75 2.327v.69h-4.038c.055.415.219.747.493.997.277.25.627.375 1.048.375.653 0 1.163-.236 1.53-.709l.832.932c-.254.359-.598.64-1.032.843a3.41 3.41 0 01-1.441.3zm-.193-5.203c-.336 0-.61.113-.821.34-.207.227-.339.55-.398.973h2.355v-.135c-.007-.375-.109-.664-.304-.867-.196-.207-.473-.31-.832-.31zm7.33.334a4.62 4.62 0 00-.61-.047c-.64 0-1.06.217-1.259.65V58h-1.694v-6.34h1.6l.047.756c.34-.582.81-.873 1.412-.873.187 0 .363.025.527.076l-.023 1.629zm3.34 3.504c.312 0 .566-.086.761-.258a.902.902 0 00.305-.685h1.588a2.18 2.18 0 01-.352 1.183c-.23.356-.547.633-.949.832-.398.196-.84.293-1.324.293-.906 0-1.621-.287-2.145-.861-.523-.578-.785-1.375-.785-2.39v-.112c0-.977.26-1.756.78-2.338.519-.582 1.232-.873 2.138-.873.793 0 1.428.227 1.905.68.48.449.724 1.049.732 1.799h-1.588c-.008-.329-.109-.594-.305-.797-.195-.207-.453-.31-.773-.31-.395 0-.693.144-.897.433-.199.285-.298.75-.298 1.394v.176c0 .652.099 1.121.298 1.406.2.285.502.428.909.428zm7.418.603c-.418.508-.996.762-1.735.762-.679 0-1.199-.195-1.558-.586-.356-.39-.537-.963-.545-1.716V51.66h1.693v4.096c0 .66.301.99.902.99.575 0 .969-.2 1.184-.598V51.66h1.699V58h-1.594l-.046-.645zm6.48-4.107a4.606 4.606 0 00-.609-.047c-.641 0-1.061.217-1.26.65V58h-1.693v-6.34h1.599l.047.756c.34-.582.811-.873 1.412-.873.188 0 .363.025.528.076l-.024 1.629zm3.293 2.355l1.172-3.943h1.816l-2.548 7.324-.141.334c-.379.829-1.004 1.242-1.875 1.242-.246 0-.496-.037-.75-.11v-1.284l.258.006c.32 0 .558-.049.715-.147.16-.097.285-.26.375-.486l.199-.521-2.221-6.358h1.822l1.178 3.944zM23.184 92.893H20.57V100h-1.758v-7.107h-2.578v-1.424h6.95v1.424zm3.287 7.224c-.93 0-1.688-.285-2.274-.855-.582-.57-.873-1.33-.873-2.28v-.164c0-.636.123-1.205.37-1.705.245-.504.593-.89 1.042-1.16.453-.273.97-.41 1.547-.41.867 0 1.549.273 2.045.82.5.547.75 1.323.75 2.326v.692h-4.037c.055.414.219.746.492.996.277.25.627.375 1.049.375.652 0 1.162-.236 1.53-.709l.831.932c-.254.359-.597.64-1.03.843-.434.2-.915.299-1.442.299zm-.194-5.203c-.336 0-.609.113-.82.34-.207.227-.34.55-.398.973h2.355v-.135c-.008-.375-.11-.664-.305-.867-.195-.207-.472-.31-.832-.31zm7.33.334a4.607 4.607 0 00-.609-.047c-.64 0-1.06.217-1.26.65V100h-1.693v-6.34h1.6l.046.756c.34-.582.811-.873 1.412-.873.188 0 .364.025.528.076l-.024 1.629zm4.383 0a4.607 4.607 0 00-.61-.047c-.64 0-1.06.217-1.259.65V100h-1.693v-6.34h1.6l.046.756c.34-.582.81-.873 1.412-.873.188 0 .364.025.528.076l-.024 1.629zm3.621 4.869c-.93 0-1.687-.285-2.273-.855-.582-.57-.873-1.33-.873-2.28v-.164c0-.636.123-1.205.369-1.705.246-.504.594-.89 1.043-1.16a2.94 2.94 0 011.547-.41c.867 0 1.549.273 2.045.82.5.547.75 1.323.75 2.326v.692h-4.037c.054.414.218.746.492.996.277.25.627.375 1.049.375.652 0 1.162-.236 1.529-.709l.832.932c-.254.359-.598.64-1.031.843-.434.2-.914.299-1.442.299zm-.193-5.203c-.336 0-.61.113-.82.34-.207.227-.34.55-.399.973h2.356v-.135c-.008-.375-.11-.664-.305-.867-.195-.207-.473-.31-.832-.31zm7.201 3.334c0-.207-.103-.37-.31-.486-.203-.121-.532-.229-.985-.323-1.508-.316-2.261-.957-2.261-1.921 0-.563.232-1.032.697-1.407.468-.379 1.08-.568 1.834-.568.804 0 1.447.19 1.928.568.484.38.726.871.726 1.477h-1.693a.81.81 0 00-.235-.598c-.156-.16-.4-.24-.732-.24-.285 0-.506.064-.662.193a.61.61 0 00-.235.493c0 .187.088.34.264.457.18.113.48.213.902.298.422.082.778.176 1.067.282.894.328 1.342.896 1.342 1.705 0 .578-.248 1.047-.744 1.406-.497.355-1.137.533-1.922.533a3.41 3.41 0 01-1.418-.281 2.41 2.41 0 01-.967-.78 1.824 1.824 0 01-.352-1.072h1.606c.015.301.127.532.334.692.207.16.484.24.832.24.324 0 .568-.06.732-.182a.58.58 0 00.252-.486zm4.77-6.146v1.558h1.084v1.242h-1.084v3.164c0 .235.045.403.134.504.09.102.262.153.516.153.188 0 .354-.014.498-.041v1.283a3.498 3.498 0 01-1.025.152c-1.188 0-1.793-.6-1.817-1.799v-3.416h-.925V93.66h.925v-1.558h1.694zm5.59 3.146a4.608 4.608 0 00-.61-.047c-.64 0-1.06.217-1.26.65V100h-1.693v-6.34h1.6l.047.756c.34-.582.81-.873 1.412-.873.187 0 .363.025.527.076l-.024 1.629zM61.585 100h-1.7v-6.34h1.7V100zm-1.799-7.98c0-.254.084-.463.252-.627.172-.165.404-.246.697-.246.29 0 .52.081.692.246a.829.829 0 01.258.626.827.827 0 01-.264.633c-.172.164-.4.246-.686.246-.285 0-.515-.082-.691-.246a.836.836 0 01-.258-.633zM66.66 100a1.88 1.88 0 01-.17-.568c-.41.457-.943.685-1.6.685-.62 0-1.136-.18-1.546-.539a1.737 1.737 0 01-.61-1.36c0-.671.248-1.187.744-1.546.5-.36 1.221-.541 2.163-.545h.779v-.363c0-.293-.076-.528-.229-.703-.148-.176-.384-.264-.709-.264-.285 0-.51.068-.673.205-.16.137-.24.324-.24.563h-1.694c0-.368.113-.708.34-1.02.226-.313.547-.557.96-.733.415-.18.88-.269 1.395-.269.782 0 1.4.197 1.858.592.46.39.691.941.691 1.652v2.748c.004.602.088 1.057.252 1.365v.1h-1.71zm-1.4-1.178c.25 0 .48-.054.691-.164.211-.113.367-.264.469-.451v-1.09h-.633c-.848 0-1.299.293-1.353.88l-.006.099c0 .21.074.385.222.521.149.137.352.205.61.205zM71.207 100h-1.7v-9h1.7v9zm10.096-3.111c0 .976-.223 1.76-.668 2.35-.442.585-1.04.878-1.793.878-.64 0-1.158-.223-1.553-.668v2.989h-1.693V93.66h1.57l.059.621c.41-.492.945-.738 1.605-.738.781 0 1.389.289 1.822.867.434.578.65 1.375.65 2.39v.089zm-1.694-.123c0-.59-.105-1.045-.316-1.366-.207-.32-.51-.48-.908-.48-.532 0-.897.203-1.096.61v2.595c.207.418.576.627 1.108.627.808 0 1.212-.662 1.212-1.986zM84.144 100h-1.699v-9h1.7v9zm5.075 0a1.88 1.88 0 01-.17-.568c-.41.457-.944.685-1.6.685-.62 0-1.136-.18-1.547-.539a1.737 1.737 0 01-.609-1.36c0-.671.248-1.187.744-1.546.5-.36 1.22-.541 2.162-.545h.78v-.363c0-.293-.077-.528-.229-.703-.148-.176-.385-.264-.709-.264-.285 0-.51.068-.674.205-.16.137-.24.324-.24.563h-1.693c0-.368.113-.708.34-1.02.226-.313.546-.557.96-.733.414-.18.88-.269 1.395-.269.781 0 1.4.197 1.857.592.461.39.692.941.692 1.652v2.748c.004.602.088 1.057.252 1.365v.1h-1.711zm-1.4-1.178c.25 0 .48-.054.69-.164.212-.113.368-.264.47-.451v-1.09h-.633c-.848 0-1.3.293-1.354.88l-.006.099c0 .21.075.385.223.521.148.137.352.205.61.205zm5.718-5.162l.053.733c.453-.567 1.06-.85 1.822-.85.672 0 1.172.197 1.5.592.328.394.496.984.504 1.77V100h-1.693v-4.055c0-.36-.079-.619-.235-.779-.156-.164-.416-.246-.779-.246-.477 0-.834.203-1.072.61V100h-1.694v-6.34h1.594zm8.086 6.457c-.93 0-1.688-.285-2.273-.855-.582-.57-.873-1.33-.873-2.28v-.164c0-.636.123-1.205.369-1.705a2.69 2.69 0 011.043-1.16c.453-.273.968-.41 1.547-.41.867 0 1.548.273 2.044.82.5.547.75 1.323.75 2.326v.692h-4.037c.055.414.219.746.493.996.277.25.626.375 1.048.375.653 0 1.162-.236 1.53-.709l.832.932c-.254.359-.598.64-1.032.843-.433.2-.914.299-1.441.299zm-.193-5.203c-.336 0-.61.113-.821.34-.207.227-.339.55-.398.973h2.355v-.135c-.007-.375-.109-.664-.304-.867-.196-.207-.473-.31-.832-.31zm5.795-2.812v1.558h1.084v1.242h-1.084v3.164c0 .235.045.403.134.504.09.102.262.153.516.153.187 0 .354-.014.498-.041v1.283a3.498 3.498 0 01-1.025.152c-1.188 0-1.793-.6-1.817-1.799v-3.416h-.926V93.66h.926v-1.558h1.694zm173.689 5.783l1.934-6.416h1.957L281.834 100H280l-2.959-8.531h1.951l1.922 6.416zm7.248 2.232c-.93 0-1.687-.285-2.273-.855-.582-.57-.873-1.33-.873-2.28v-.164c0-.636.123-1.205.369-1.705.246-.504.594-.89 1.043-1.16.453-.273.968-.41 1.547-.41.867 0 1.548.273 2.045.82.5.547.75 1.323.75 2.326v.692h-4.038c.055.414.219.746.493.996.277.25.627.375 1.048.375.653 0 1.163-.236 1.53-.709l.832.932c-.254.359-.598.64-1.031.843a3.41 3.41 0 01-1.442.299zm-.193-5.203c-.336 0-.61.113-.821.34-.207.227-.339.55-.398.973h2.355v-.135c-.007-.375-.109-.664-.304-.867-.196-.207-.473-.31-.832-.31zm5.326-1.254l.053.733c.453-.567 1.06-.85 1.822-.85.672 0 1.172.197 1.5.592.328.394.496.984.504 1.77V100h-1.694v-4.055c0-.36-.078-.619-.234-.779-.156-.164-.416-.246-.779-.246-.477 0-.834.203-1.072.61V100h-1.694v-6.34h1.594zm8.965 5.696c-.418.507-.996.761-1.735.761-.679 0-1.199-.195-1.558-.586-.356-.39-.537-.963-.545-1.717V93.66h1.693v4.096c0 .66.301.99.903.99.574 0 .968-.2 1.183-.598V93.66h1.699V100h-1.593l-.047-.644zm6.351-1.108c0-.207-.103-.37-.31-.486-.203-.121-.531-.229-.985-.323-1.507-.316-2.261-.957-2.261-1.921 0-.563.232-1.032.697-1.407.469-.379 1.08-.568 1.834-.568.805 0 1.447.19 1.928.568.484.38.726.871.726 1.477h-1.693a.807.807 0 00-.235-.598c-.156-.16-.4-.24-.732-.24-.285 0-.506.064-.662.193a.61.61 0 00-.234.493c0 .187.087.34.263.457.18.113.481.213.903.298.421.082.777.176 1.066.282.895.328 1.342.896 1.342 1.705 0 .578-.248 1.047-.744 1.406-.496.355-1.137.533-1.922.533a3.41 3.41 0 01-1.418-.281 2.408 2.408 0 01-.967-.78 1.827 1.827 0 01-.352-1.072h1.606c.016.301.127.532.334.692.207.16.484.24.832.24.324 0 .568-.06.732-.182a.58.58 0 00.252-.486zM18.63 142h-1.757v-8.531h1.758V142zm4.161-1.248c.313 0 .566-.086.762-.258a.903.903 0 00.304-.685h1.588a2.186 2.186 0 01-.351 1.183c-.23.356-.547.633-.95.832-.398.196-.84.293-1.324.293-.906 0-1.62-.287-2.144-.861-.524-.578-.785-1.375-.785-2.391v-.111c0-.977.26-1.756.779-2.338.52-.582 1.232-.873 2.139-.873.793 0 1.427.227 1.904.68.48.449.724 1.048.732 1.798h-1.588c-.007-.328-.109-.593-.304-.796-.196-.207-.453-.311-.774-.311-.394 0-.693.145-.896.434-.2.285-.299.75-.299 1.394v.176c0 .652.1 1.121.299 1.406.199.285.502.428.908.428zm6.54 1.365c-.93 0-1.688-.285-2.274-.855-.582-.571-.873-1.33-.873-2.28v-.164c0-.636.123-1.205.369-1.705a2.69 2.69 0 011.043-1.16c.453-.273.968-.41 1.547-.41.867 0 1.548.273 2.044.82.5.547.75 1.323.75 2.326v.692H27.9c.055.414.22.746.493.996.277.25.627.375 1.048.375.653 0 1.163-.236 1.53-.709l.832.932c-.254.359-.598.64-1.032.843a3.4 3.4 0 01-1.44.299zm-.194-5.203c-.336 0-.61.113-.82.34-.208.226-.34.551-.399.973h2.355v-.135c-.007-.375-.109-.664-.304-.867-.196-.207-.473-.311-.832-.311zm12.463 1.975c0 .976-.223 1.759-.668 2.349-.442.586-1.04.879-1.793.879-.641 0-1.159-.222-1.553-.668v2.989h-1.693v-8.778h1.57l.059.621c.41-.492.945-.738 1.605-.738.781 0 1.389.289 1.822.867.434.578.65 1.375.65 2.391v.088zm-1.694-.123c0-.59-.105-1.045-.316-1.366-.207-.32-.51-.48-.908-.48-.532 0-.897.203-1.096.609v2.596c.207.418.576.627 1.107.627.809 0 1.213-.662 1.213-1.986zM44.441 142h-1.699v-9h1.7v9zm5.075 0a1.882 1.882 0 01-.17-.568c-.41.457-.944.685-1.6.685-.621 0-1.137-.179-1.547-.539a1.736 1.736 0 01-.61-1.359c0-.672.249-1.188.745-1.547.5-.36 1.22-.541 2.162-.545h.78v-.363c0-.293-.077-.528-.23-.703-.148-.176-.384-.264-.708-.264-.285 0-.51.068-.674.205-.16.137-.24.324-.24.562H45.73a1.7 1.7 0 01.34-1.019c.227-.313.547-.557.961-.733a3.481 3.481 0 011.395-.269c.781 0 1.4.197 1.857.592.461.39.692.941.692 1.652v2.748c.003.602.087 1.057.252 1.365v.1h-1.711zm-1.4-1.178c.25 0 .48-.054.69-.164a1.11 1.11 0 00.47-.451v-1.09h-.633c-.848 0-1.3.293-1.354.879l-.006.1c0 .211.074.384.223.521.148.137.351.205.61.205zm5.718-5.162l.053.733c.453-.567 1.06-.85 1.822-.85.672 0 1.172.197 1.5.592.328.394.496.984.504 1.769V142h-1.694v-4.055c0-.359-.078-.619-.234-.779-.156-.164-.416-.246-.78-.246-.476 0-.833.203-1.071.609V142H52.24v-6.34h1.594zm8.086 6.457c-.93 0-1.688-.285-2.273-.855-.582-.571-.874-1.33-.874-2.28v-.164c0-.636.123-1.205.37-1.705.246-.504.593-.89 1.042-1.16.454-.273.97-.41 1.547-.41.868 0 1.55.273 2.045.82.5.547.75 1.323.75 2.326v.692H60.49c.055.414.219.746.492.996.278.25.627.375 1.05.375.652 0 1.161-.236 1.529-.709l.832.932c-.254.359-.598.64-1.032.843a3.4 3.4 0 01-1.441.299zm-.193-5.203c-.336 0-.61.113-.82.34-.208.226-.34.551-.4.973h2.356v-.135c-.008-.375-.11-.664-.304-.867-.196-.207-.473-.311-.832-.311zm5.795-2.812v1.558h1.084v1.242h-1.084v3.164c0 .235.044.403.134.504.09.102.262.153.516.153.187 0 .353-.014.498-.041v1.283a3.504 3.504 0 01-1.026.152c-1.187 0-1.792-.599-1.816-1.799v-3.416h-.926v-1.242h.926v-1.558h1.694zm215.373 4.201h-3.375v2.285h3.96V142h-5.718v-8.531h5.707v1.424h-3.949v2.033h3.375v1.377zm5.179 3.697a1.879 1.879 0 01-.17-.568c-.41.457-.943.685-1.599.685-.621 0-1.137-.179-1.547-.539a1.737 1.737 0 01-.61-1.359c0-.672.248-1.188.745-1.547.5-.36 1.22-.541 2.162-.545h.779v-.363c0-.293-.076-.528-.229-.703-.148-.176-.384-.264-.709-.264-.285 0-.509.068-.673.205-.161.137-.241.324-.241.562h-1.693c0-.367.113-.707.34-1.019.226-.313.547-.557.961-.733a3.48 3.48 0 011.394-.269c.782 0 1.401.197 1.858.592.461.39.691.941.691 1.652v2.748c.004.602.088 1.057.252 1.365v.1h-1.711zm-1.4-1.178c.25 0 .48-.054.691-.164.211-.113.367-.263.469-.451v-1.09h-.633c-.847 0-1.299.293-1.353.879l-.006.1c0 .211.074.384.222.521.149.137.352.205.61.205zm7.722-3.574a4.631 4.631 0 00-.609-.047c-.641 0-1.06.217-1.26.651V142h-1.693v-6.34h1.6l.046.756c.34-.582.811-.873 1.413-.873.187 0 .363.025.527.076l-.024 1.629zm3.141-3.146v1.558h1.084v1.242h-1.084v3.164c0 .235.045.403.135.504.09.102.262.153.516.153.187 0 .353-.014.498-.041v1.283a3.506 3.506 0 01-1.026.152c-1.187 0-1.793-.599-1.816-1.799v-3.416h-.926v-1.242h.926v-1.558h1.693zm3.68 2.25c.449-.54 1.013-.809 1.693-.809 1.375 0 2.072.799 2.092 2.396V142h-1.693v-4.014c0-.363-.079-.631-.235-.802-.156-.176-.416-.264-.779-.264-.496 0-.856.191-1.078.574V142h-1.694v-9h1.694v3.352zM23.459 181.158c-.066.918-.406 1.641-1.02 2.168-.609.528-1.414.791-2.414.791-1.093 0-1.955-.367-2.584-1.101-.625-.739-.937-1.75-.937-3.036v-.521c0-.82.144-1.543.433-2.168.29-.625.702-1.103 1.237-1.436.539-.335 1.164-.503 1.875-.503.984 0 1.777.263 2.379.791.601.527.949 1.267 1.043 2.22h-1.758c-.043-.551-.197-.949-.463-1.195-.262-.25-.662-.375-1.201-.375-.586 0-1.026.211-1.319.633-.289.418-.437 1.068-.445 1.951v.644c0 .922.139 1.596.416 2.022.281.426.723.639 1.324.639.543 0 .948-.123 1.213-.37.27-.25.424-.634.463-1.154h1.758zm2.83 2.842h-1.7v-6.34h1.7V184zm-1.799-7.98c0-.254.084-.463.252-.627.172-.164.404-.247.697-.247.29 0 .52.083.692.247a.83.83 0 01.258.627.826.826 0 01-.264.632c-.172.164-.4.246-.686.246-.285 0-.515-.082-.691-.246a.836.836 0 01-.258-.632zm5.227.082v1.558H30.8v1.242h-1.084v3.164c0 .235.045.403.135.504.09.102.261.153.515.153.188 0 .354-.014.498-.041v1.283a3.504 3.504 0 01-1.025.152c-1.188 0-1.793-.599-1.817-1.799v-3.416h-.925v-1.242h.925v-1.558h1.694zm4.394 5.502l1.172-3.944H37.1l-2.55 7.324-.14.334c-.379.828-1.004 1.243-1.875 1.243-.246 0-.496-.038-.75-.112v-1.283l.258.006c.32 0 .559-.049.715-.147.16-.097.285-.259.375-.486l.199-.521-2.22-6.358h1.822l1.177 3.944zm12.352-.715c0 .976-.223 1.759-.668 2.349-.442.586-1.04.879-1.793.879-.64 0-1.158-.222-1.553-.668v2.989h-1.693v-8.778h1.57l.059.621c.41-.492.945-.738 1.605-.738.782 0 1.389.289 1.822.867.434.578.65 1.375.65 2.391v.088zm-1.694-.123c0-.59-.105-1.045-.316-1.366-.207-.32-.51-.48-.908-.48-.531 0-.897.203-1.096.609v2.596c.207.418.576.627 1.108.627.808 0 1.212-.662 1.212-1.986zM49.306 184h-1.7v-9h1.7v9zm5.074 0a1.879 1.879 0 01-.17-.568c-.41.457-.943.685-1.6.685-.62 0-1.136-.179-1.547-.539a1.736 1.736 0 01-.609-1.359c0-.672.248-1.188.744-1.547.5-.36 1.221-.541 2.162-.545h.78v-.363c0-.293-.077-.528-.229-.703-.148-.176-.385-.264-.709-.264-.285 0-.51.068-.674.205-.16.137-.24.324-.24.562h-1.693c0-.367.113-.707.34-1.019.226-.313.547-.557.96-.733a3.48 3.48 0 011.395-.269c.781 0 1.4.197 1.858.592.46.39.69.941.69 1.652v2.748c.005.602.089 1.057.253 1.365v.1H54.38zm-1.4-1.178c.25 0 .48-.054.69-.164a1.11 1.11 0 00.47-.451v-1.09h-.633c-.848 0-1.299.293-1.354.879l-.005.1c0 .211.074.384.222.521.149.137.352.205.61.205zm5.718-5.162l.053.733c.453-.567 1.06-.85 1.822-.85.672 0 1.172.197 1.5.592.328.394.496.984.504 1.769V184h-1.693v-4.055c0-.359-.078-.619-.235-.779-.156-.164-.416-.246-.779-.246-.476 0-.834.203-1.072.609V184h-1.694v-6.34h1.594zm8.086 6.457c-.93 0-1.687-.285-2.273-.855-.582-.571-.873-1.33-.873-2.28v-.164c0-.636.123-1.205.369-1.705.246-.504.594-.89 1.043-1.16a2.94 2.94 0 011.547-.41c.867 0 1.548.273 2.045.82.5.547.75 1.323.75 2.326v.692h-4.038c.055.414.22.746.493.996.277.25.627.375 1.048.375.653 0 1.163-.236 1.53-.709l.832.932c-.254.359-.598.64-1.031.843a3.4 3.4 0 01-1.442.299zm-.193-5.203c-.336 0-.61.113-.82.34-.207.226-.34.551-.399.973h2.356v-.135c-.008-.375-.11-.664-.305-.867-.195-.207-.473-.311-.832-.311zm5.795-2.812v1.558h1.084v1.242h-1.084v3.164c0 .235.045.403.134.504.09.102.262.153.516.153.188 0 .354-.014.498-.041v1.283a3.504 3.504 0 01-1.025.152c-1.188 0-1.793-.599-1.817-1.799v-3.416h-.925v-1.242h.925v-1.558h1.694zm207.673-.633l2.191 6.187 2.18-6.187h2.308V184h-1.763v-2.332l.175-4.025-2.302 6.357h-1.207l-2.297-6.352.176 4.02V184h-1.758v-8.531h2.297zM291.836 184a1.879 1.879 0 01-.17-.568c-.41.457-.943.685-1.6.685-.621 0-1.136-.179-1.546-.539a1.734 1.734 0 01-.61-1.359c0-.672.248-1.188.744-1.547.5-.36 1.221-.541 2.162-.545h.78v-.363c0-.293-.076-.528-.229-.703-.148-.176-.385-.264-.709-.264-.285 0-.51.068-.674.205-.16.137-.24.324-.24.562h-1.693c0-.367.113-.707.34-1.019.226-.313.547-.557.961-.733a3.476 3.476 0 011.394-.269c.781 0 1.4.197 1.858.592.46.39.691.941.691 1.652v2.748c.004.602.088 1.057.252 1.365v.1h-1.711zm-1.4-1.178c.25 0 .48-.054.691-.164.211-.113.367-.263.469-.451v-1.09h-.633c-.848 0-1.299.293-1.354.879l-.005.1c0 .211.074.384.222.521.149.137.352.205.61.205zm7.722-3.574a4.631 4.631 0 00-.609-.047c-.641 0-1.061.217-1.26.651V184h-1.693v-6.34h1.599l.047.756c.34-.582.811-.873 1.412-.873.188 0 .364.025.528.076l-.024 1.629zm4.254 3c0-.207-.103-.369-.31-.486-.204-.121-.532-.229-.985-.323-1.508-.316-2.262-.957-2.262-1.921 0-.563.233-1.032.698-1.407.468-.379 1.08-.568 1.834-.568.804 0 1.447.189 1.927.568.485.379.727.871.727 1.477h-1.693a.808.808 0 00-.235-.598c-.156-.16-.4-.24-.732-.24-.285 0-.506.064-.662.193a.61.61 0 00-.235.493c0 .187.088.339.264.457.18.113.481.212.902.298.422.082.778.176 1.067.282.894.328 1.342.896 1.342 1.705 0 .578-.248 1.047-.745 1.406-.496.355-1.136.533-1.921.533-.532 0-1.004-.094-1.418-.281a2.4 2.4 0 01-.967-.779 1.822 1.822 0 01-.352-1.073h1.606c.015.301.127.532.334.692.207.16.484.24.832.24.324 0 .568-.061.732-.182a.58.58 0 00.252-.486z" fill="#fff"/><circle cx="197" cy="54" r="5" fill="#FFEBF1"/><circle cx="261" cy="54" r="5" fill="#FFEBF1"/><circle cy="54" r="5" fill="#FFEBF1"/><circle cx="197" cy="96" r="5" fill="#FFEBF1"/><circle cx="261" cy="96" r="5" fill="#FFEBF1"/><circle cy="96" r="5" fill="#FFEBF1"/><circle cx="197" cy="138" r="5" fill="#FFEBF1"/><circle cx="261" cy="138" r="5" fill="#FFEBF1"/><circle cy="138" r="5" fill="#FFEBF1"/><circle cx="197" cy="180" r="5" fill="#FFEBF1"/><circle cx="261" cy="180" r="5" fill="#FFEBF1"/><circle cy="180" r="5" fill="#FFEBF1"/><circle cx="400" cy="54" r="5" fill="#FFEBF1"/><circle cx="400" cy="96" r="5" fill="#FFEBF1"/><circle cx="400" cy="138" r="5" fill="#FFEBF1"/><circle cx="400" cy="180" r="5" fill="#FFEBF1"/><path d="M253 54c-24 0-24 42-48 42m48 0h-48m48 42c-24 0-24-42-48-42m48 84c-24 0-24-84-48-84" stroke="#FC7DE1" stroke-width="4" stroke-linecap="round" stroke-linejoin="round"/><circle cx="261" cy="54" r="2" fill="#FE346E"/><circle cx="261" cy="96" r="2" fill="#FE346E"/><circle cx="261" cy="138" r="2" fill="#FE346E"/><circle cx="261" cy="180" r="2" fill="#FE346E"/><circle cx="197" cy="96" r="2" fill="#8B30FF"/></g><defs><clipPath id="clip0"><path fill="#fff" d="M0 0h400v200H0z"/></clipPath></defs></svg>