<svg width="400" height="200" viewBox="0 0 400 200" fill="none" xmlns="http://www.w3.org/2000/svg"><g clip-path="url(#clip0)"><rect x="400" y="73" width="400" height="38" rx="4" transform="rotate(-180 400 73)" fill="#FE346E"/><rect x="400" y="11" width="97" height="4" rx="2" transform="rotate(-180 400 11)" fill="#FC7DE1"/><rect x="299" y="11" width="27" height="4" rx="2" transform="rotate(-180 299 11)" fill="#FC7DE1"/><path d="M19.36 10.992V15h-2.344V3.625h4.437c.854 0 1.604.156 2.25.469.651.312 1.151.758 1.5 1.336.35.573.524 1.226.524 1.96 0 1.115-.383 1.995-1.149 2.641-.76.64-1.815.961-3.164.961H19.36zm0-1.898h2.093c.62 0 1.091-.146 1.414-.438.328-.291.492-.708.492-1.25 0-.557-.164-1.008-.492-1.351-.328-.344-.781-.521-1.36-.532H19.36v3.57zM29.577 15h-2.265V3h2.265v12zm6.766 0a2.507 2.507 0 01-.227-.758c-.547.61-1.258.914-2.133.914-.828 0-1.515-.24-2.062-.719a2.316 2.316 0 01-.813-1.812c0-.896.331-1.583.993-2.063.666-.479 1.627-.72 2.882-.726h1.04v-.484c0-.391-.102-.704-.305-.938-.198-.234-.513-.351-.946-.351-.38 0-.68.09-.898.273-.214.182-.32.432-.32.75h-2.258c0-.49.15-.943.453-1.36.302-.416.73-.742 1.281-.976.552-.24 1.172-.36 1.86-.36 1.041 0 1.867.264 2.476.79.615.52.922 1.255.922 2.203v3.664c.005.802.117 1.409.336 1.82V15h-2.281zm-1.867-1.57c.333 0 .64-.073.921-.22.282-.15.49-.35.625-.6v-1.454h-.843c-1.13 0-1.732.39-1.805 1.172l-.008.133c0 .281.1.513.297.695.198.182.469.274.813.274zm7.625-6.883l.07.976c.604-.755 1.414-1.132 2.43-1.132.895 0 1.562.263 2 .789.437.526.661 1.312.671 2.36V15h-2.257V9.594c0-.48-.105-.826-.313-1.04-.208-.218-.555-.327-1.039-.327-.635 0-1.112.27-1.43.812V15h-2.257V6.547h2.125zm10.78 8.61c-1.239 0-2.25-.381-3.03-1.141-.776-.76-1.164-1.774-1.164-3.04v-.218c0-.85.164-1.607.492-2.274.328-.671.791-1.187 1.39-1.546.605-.365 1.292-.547 2.063-.547 1.156 0 2.065.364 2.726 1.093.667.73 1 1.763 1 3.102v.922h-5.382c.073.552.291.995.656 1.328.37.333.836.5 1.398.5.87 0 1.55-.315 2.04-.945l1.109 1.242a3.425 3.425 0 01-1.375 1.125 4.55 4.55 0 01-1.922.398zm-.257-6.938c-.448 0-.813.15-1.094.453-.276.302-.453.734-.531 1.297h3.14v-.18c-.01-.5-.145-.885-.406-1.156-.26-.276-.63-.414-1.109-.414zm7.727-3.75v2.078h1.445v1.656h-1.445v4.219c0 .312.06.536.18.672.119.135.348.203.687.203.25 0 .471-.018.664-.055v1.711a4.648 4.648 0 01-1.367.203c-1.584 0-2.391-.8-2.422-2.398V8.203h-1.235V6.547h1.235V4.469h2.258zm7.28 8.195c0-.276-.137-.492-.413-.648-.271-.162-.709-.305-1.313-.43-2.01-.422-3.015-1.276-3.015-2.563 0-.75.31-1.375.93-1.875.624-.505 1.44-.757 2.445-.757 1.072 0 1.93.252 2.57.757.646.506.969 1.162.969 1.97h-2.258a1.08 1.08 0 00-.313-.798c-.208-.213-.533-.32-.976-.32-.38 0-.675.086-.883.258a.814.814 0 00-.313.656c0 .25.118.453.352.61.24.15.64.283 1.203.398.563.11 1.037.234 1.422.375 1.193.437 1.79 1.195 1.79 2.273 0 .771-.332 1.396-.993 1.875-.662.474-1.516.711-2.563.711-.708 0-1.338-.125-1.89-.375-.547-.255-.977-.601-1.29-1.039a2.431 2.431 0 01-.468-1.43h2.14c.022.402.17.709.446.922.276.214.646.32 1.11.32.432 0 .757-.08.976-.242a.773.773 0 00.336-.648z" fill="#FE346E"/><rect x="400" y="115" width="400" height="38" rx="4" transform="rotate(-180 400 115)" fill="#FE346E"/><rect x="400" y="157" width="400" height="38" rx="4" transform="rotate(-180 400 157)" fill="#8B30FF"/><rect x="400" y="199" width="400" height="38" rx="4" transform="rotate(-180 400 199)" fill="#FE346E"/><path d="M19.059 49.469l2.191 6.187 2.18-6.187h2.308V58h-1.763v-2.332l.175-4.025L21.848 58H20.64l-2.297-6.352.175 4.02V58h-1.757v-8.531h2.297zm11.021 8.648c-.93 0-1.687-.285-2.273-.855-.582-.57-.873-1.33-.873-2.28v-.164c0-.636.123-1.205.369-1.705a2.69 2.69 0 011.043-1.16c.453-.273.968-.41 1.547-.41.867 0 1.548.273 2.044.82.5.547.75 1.322.75 2.327v.69H28.65c.055.415.22.747.493.997.277.25.627.375 1.048.375.653 0 1.163-.236 1.53-.709l.832.932c-.254.359-.598.64-1.031.843-.434.2-.915.3-1.442.3zm-.193-5.203c-.336 0-.61.113-.82.34-.208.227-.34.55-.399.973h2.355v-.135c-.007-.375-.109-.664-.304-.867-.196-.207-.473-.31-.832-.31zm7.33.334a4.608 4.608 0 00-.61-.047c-.64 0-1.06.217-1.26.65V58h-1.693v-6.34h1.6l.047.756c.34-.582.81-.873 1.412-.873.187 0 .363.025.527.076l-.023 1.629zm3.34 3.504c.312 0 .566-.086.761-.258a.903.903 0 00.305-.685h1.588a2.18 2.18 0 01-.352 1.183c-.23.356-.547.633-.949.832-.398.196-.84.293-1.324.293-.906 0-1.621-.287-2.145-.861-.523-.578-.785-1.375-.785-2.39v-.112c0-.977.26-1.756.78-2.338.52-.582 1.232-.873 2.138-.873.793 0 1.428.227 1.904.68.481.449.725 1.049.733 1.799h-1.588c-.008-.329-.11-.594-.305-.797-.195-.207-.453-.31-.773-.31-.395 0-.693.144-.897.433-.199.285-.298.75-.298 1.394v.176c0 .652.1 1.121.298 1.406.2.285.502.428.909.428zm7.418.603c-.418.508-.997.762-1.735.762-.68 0-1.199-.195-1.558-.586-.356-.39-.538-.963-.545-1.716V51.66h1.693v4.096c0 .66.3.99.902.99.575 0 .97-.2 1.184-.598V51.66h1.7V58h-1.594l-.047-.645zm6.48-4.107a4.608 4.608 0 00-.61-.047c-.64 0-1.06.217-1.26.65V58h-1.692v-6.34h1.6l.046.756c.34-.582.81-.873 1.412-.873.188 0 .364.025.527.076l-.023 1.629zm3.293 2.355l1.172-3.943h1.816l-2.548 7.324-.141.334c-.379.829-1.004 1.242-1.875 1.242-.246 0-.496-.037-.75-.11v-1.284l.258.006c.32 0 .558-.049.715-.147.16-.097.285-.26.374-.486l.2-.521-2.221-6.358h1.822l1.178 3.944zM19.914 97.885l1.934-6.416h1.957L20.834 100H19l-2.959-8.531h1.951l1.922 6.416zm7.248 2.232c-.93 0-1.687-.285-2.273-.855-.582-.57-.873-1.33-.873-2.28v-.164c0-.636.123-1.205.369-1.705a2.69 2.69 0 011.043-1.16c.453-.273.968-.41 1.547-.41.867 0 1.548.273 2.044.82.5.547.75 1.323.75 2.326v.692h-4.037c.055.414.22.746.493.996.277.25.627.375 1.048.375.653 0 1.163-.236 1.53-.709l.832.932c-.254.359-.598.64-1.032.843-.433.2-.914.299-1.44.299zm-.193-5.203c-.336 0-.61.113-.82.34-.208.227-.34.55-.399.973h2.355v-.135c-.007-.375-.109-.664-.304-.867-.195-.207-.473-.31-.832-.31zm5.326-1.254l.053.733c.453-.567 1.06-.85 1.822-.85.672 0 1.172.197 1.5.592.328.394.496.984.504 1.77V100H34.48v-4.055c0-.36-.078-.619-.234-.779-.156-.164-.416-.246-.78-.246-.476 0-.833.203-1.072.61V100h-1.693v-6.34h1.594zm8.965 5.696c-.418.507-.996.761-1.735.761-.68 0-1.199-.195-1.558-.586-.356-.39-.537-.963-.545-1.717V93.66h1.693v4.096c0 .66.301.99.903.99.574 0 .968-.2 1.183-.598V93.66h1.7V100h-1.594l-.047-.644zm6.351-1.108c0-.207-.103-.37-.31-.486-.203-.121-.532-.229-.985-.323-1.507-.316-2.261-.957-2.261-1.921 0-.563.232-1.032.697-1.407.469-.379 1.08-.568 1.834-.568.805 0 1.447.19 1.928.568.484.38.726.871.726 1.477h-1.693a.81.81 0 00-.234-.598c-.157-.16-.4-.24-.733-.24-.285 0-.506.064-.662.193a.61.61 0 00-.234.493c0 .187.088.34.263.457.18.113.48.213.903.298.422.082.777.176 1.066.282.895.328 1.342.896 1.342 1.705 0 .578-.248 1.047-.744 1.406-.496.355-1.137.533-1.922.533a3.41 3.41 0 01-1.418-.281 2.41 2.41 0 01-.967-.78 1.824 1.824 0 01-.352-1.072h1.606c.016.301.127.532.334.692.207.16.484.24.832.24.324 0 .568-.06.732-.182a.58.58 0 00.252-.486zm-25.716 40.055H18.52v2.285h3.96V142h-5.718v-8.531h5.707v1.424h-3.95v2.033h3.376v1.377zm5.18 3.697a1.882 1.882 0 01-.17-.568c-.41.457-.944.685-1.6.685-.621 0-1.137-.179-1.547-.539a1.736 1.736 0 01-.61-1.359c0-.672.248-1.188.745-1.547.5-.36 1.22-.541 2.162-.545h.779v-.363c0-.293-.076-.528-.229-.703-.148-.176-.384-.264-.709-.264-.285 0-.51.068-.673.205-.16.137-.24.324-.24.562h-1.694c0-.367.113-.707.34-1.019.226-.313.547-.557.96-.733a3.481 3.481 0 011.395-.269c.782 0 1.4.197 1.858.592.46.39.691.941.691 1.652v2.748c.004.602.088 1.057.252 1.365v.1h-1.71zm-1.401-1.178c.25 0 .48-.054.691-.164a1.11 1.11 0 00.469-.451v-1.09h-.633c-.848 0-1.299.293-1.353.879l-.006.1c0 .211.074.384.223.521.148.137.351.205.609.205zm7.723-3.574a4.646 4.646 0 00-.61-.047c-.64 0-1.06.217-1.26.651V142h-1.693v-6.34h1.6l.046.756c.34-.582.811-.873 1.413-.873.187 0 .363.025.527.076l-.023 1.629zm3.14-3.146v1.558h1.084v1.242h-1.084v3.164c0 .235.045.403.135.504.09.102.262.153.516.153.187 0 .353-.014.497-.041v1.283a3.504 3.504 0 01-1.025.152c-1.187 0-1.793-.599-1.816-1.799v-3.416h-.926v-1.242h.926v-1.558h1.693zm3.68 2.25c.449-.54 1.014-.809 1.693-.809 1.375 0 2.072.799 2.092 2.396V142h-1.693v-4.014c0-.363-.078-.631-.235-.802-.156-.176-.416-.264-.78-.264-.495 0-.854.191-1.077.574V142h-1.694v-9h1.694v3.352zm-21.158 39.117l2.191 6.187 2.18-6.187h2.308V184h-1.763v-2.332l.175-4.025L21.848 184H20.64l-2.297-6.352.175 4.02V184h-1.757v-8.531h2.297zM30.836 184a1.882 1.882 0 01-.17-.568c-.41.457-.943.685-1.6.685-.62 0-1.136-.179-1.546-.539a1.736 1.736 0 01-.61-1.359c0-.672.248-1.188.744-1.547.5-.36 1.221-.541 2.162-.545h.78v-.363c0-.293-.076-.528-.229-.703-.148-.176-.385-.264-.709-.264-.285 0-.51.068-.674.205-.16.137-.24.324-.24.562h-1.693a1.7 1.7 0 01.34-1.019c.226-.313.547-.557.96-.733a3.48 3.48 0 011.395-.269c.781 0 1.4.197 1.858.592.46.39.69.941.69 1.652v2.748c.005.602.089 1.057.253 1.365v.1h-1.711zm-1.4-1.178c.25 0 .48-.054.691-.164a1.11 1.11 0 00.469-.451v-1.09h-.633c-.848 0-1.299.293-1.354.879l-.006.1c0 .211.075.384.223.521.149.137.352.205.61.205zm7.722-3.574a4.646 4.646 0 00-.61-.047c-.64 0-1.06.217-1.259.651V184h-1.693v-6.34h1.6l.046.756c.34-.582.81-.873 1.412-.873.188 0 .364.025.528.076l-.024 1.629zm4.254 3c0-.207-.103-.369-.31-.486-.204-.121-.532-.229-.985-.323-1.508-.316-2.261-.957-2.261-1.921 0-.563.232-1.032.697-1.407.469-.379 1.08-.568 1.834-.568.804 0 1.447.189 1.928.568.484.379.726.871.726 1.477h-1.693a.81.81 0 00-.235-.598c-.156-.16-.4-.24-.732-.24-.285 0-.506.064-.662.193a.61.61 0 00-.235.493c0 .187.088.339.264.457.18.113.48.212.902.298.422.082.778.176 1.067.282.894.328 1.342.896 1.342 1.705 0 .578-.248 1.047-.744 1.406-.497.355-1.137.533-1.922.533a3.411 3.411 0 01-1.418-.281 2.407 2.407 0 01-.967-.779 1.825 1.825 0 01-.352-1.073h1.606c.015.301.127.532.334.692.207.16.484.24.832.24.324 0 .568-.061.732-.182a.58.58 0 00.252-.486zm78.787-127.84c0 1.227-.23 2.152-.691 2.777-.457.622-1.154.932-2.092.932-.922 0-1.617-.302-2.086-.908-.465-.61-.703-1.51-.715-2.701V53.03c0-1.226.229-2.146.686-2.76.461-.613 1.162-.92 2.103-.92.934 0 1.629.3 2.086.897.461.598.698 1.492.709 2.684v1.476zm-1.424-1.593c0-.801-.109-1.387-.328-1.758-.218-.375-.566-.563-1.043-.563-.465 0-.806.178-1.025.533-.219.352-.334.903-.346 1.653v1.933c0 .797.112 1.39.334 1.782.223.39.572.585 1.049.585.457 0 .795-.18 1.014-.539.218-.363.334-.93.345-1.699v-1.927zm3.663 3.685c.265 0 .47.076.615.228a.776.776 0 01.217.563.769.769 0 01-.217.557c-.145.144-.35.217-.615.217-.254 0-.456-.073-.604-.217a.745.745 0 01-.223-.557c0-.226.073-.414.217-.563.145-.152.348-.228.61-.228zm6.228 1.5h-1.418v-6.85l-2.092.715v-1.2l3.328-1.225h.182V58zm7.781-3.041h1.061v1.143h-1.061V58h-1.424v-1.898h-3.685l-.041-.868 3.68-5.765h1.47v5.49zm-3.656 0h2.232v-3.563l-.105.188-2.127 3.375zm11.338-4.7L140.719 58h-1.494l3.404-7.389h-4.412V49.47h5.912v.79zm9.346 3.932h-3.504v2.625h4.095V58h-5.578v-8.531h5.537v1.195h-4.054v2.355h3.504v1.172zM158.924 58c-.063-.121-.117-.318-.164-.592a2.216 2.216 0 01-1.664.71c-.637 0-1.157-.183-1.559-.546a1.744 1.744 0 01-.603-1.347c0-.676.25-1.194.75-1.553.504-.363 1.222-.545 2.156-.545h.873v-.416c0-.328-.092-.59-.275-.785-.184-.2-.463-.299-.838-.299-.325 0-.59.082-.797.246a.745.745 0 00-.311.615h-1.424c0-.347.116-.672.346-.972.231-.305.543-.543.938-.715a3.32 3.32 0 011.33-.258c.742 0 1.334.188 1.775.563.441.37.668.894.68 1.57v2.86c0 .57.08 1.024.24 1.364v.1h-1.453zm-1.565-1.025c.282 0 .545-.069.791-.206.25-.136.438-.32.563-.55v-1.196h-.768c-.527 0-.924.092-1.189.276a.892.892 0 00-.399.78c0 .273.09.491.27.655.184.16.428.24.732.24zm7.588-4.014a3.525 3.525 0 00-.58-.047c-.652 0-1.092.25-1.318.75V58h-1.424v-6.34h1.359l.036.71c.343-.552.82-.827 1.429-.827.203 0 .371.027.504.082l-.006 1.336zm2.977-2.842v1.541h1.119v1.055h-1.119v3.539c0 .242.047.418.14.527.098.106.27.159.516.159.164 0 .33-.02.498-.06v1.102a3.5 3.5 0 01-.937.135c-1.094 0-1.641-.603-1.641-1.81v-3.592h-1.043V51.66h1.043v-1.54h1.424zm3.615 2.233a2.23 2.23 0 011.764-.809c1.351 0 2.037.772 2.056 2.314V58h-1.423v-4.09c0-.437-.096-.746-.288-.926-.187-.183-.464-.275-.832-.275-.57 0-.996.254-1.277.762V58h-1.424v-9h1.424v3.352zm8.818 3.925a.643.643 0 00-.316-.58c-.207-.133-.553-.25-1.037-.351a5.355 5.355 0 01-1.213-.387c-.711-.344-1.066-.842-1.066-1.494 0-.547.23-1.004.691-1.371.461-.367 1.047-.551 1.758-.551.758 0 1.369.188 1.834.563.469.374.703.86.703 1.459h-1.424c0-.274-.101-.5-.305-.68-.203-.184-.472-.276-.808-.276-.313 0-.569.073-.768.217a.686.686 0 00-.293.58c0 .219.092.389.276.51.183.121.554.244 1.113.37.559.12.996.267 1.312.439.321.168.557.37.709.609.157.238.235.527.235.867 0 .57-.237 1.033-.709 1.389-.473.351-1.092.527-1.858.527-.519 0-.982-.094-1.388-.281a2.277 2.277 0 01-.949-.773 1.828 1.828 0 01-.34-1.061h1.382c.02.336.147.596.381.78.235.179.545.269.932.269.375 0 .66-.07.855-.211a.668.668 0 00.293-.563zm-60.158 40.131c0 1.227-.23 2.153-.691 2.778-.457.62-1.154.931-2.092.931-.922 0-1.617-.303-2.086-.908-.465-.61-.703-1.51-.715-2.701V95.03c0-1.226.229-2.146.686-2.76.461-.613 1.162-.92 2.103-.92.934 0 1.629.3 2.086.897.461.598.698 1.492.709 2.684v1.476zm-1.424-1.594c0-.8-.109-1.386-.328-1.757-.218-.375-.566-.563-1.043-.563-.465 0-.806.178-1.025.533-.219.352-.334.903-.346 1.653v1.933c0 .797.112 1.39.334 1.781.223.391.572.587 1.049.587.457 0 .795-.18 1.014-.54.218-.363.334-.93.345-1.699v-1.928zm3.663 3.686c.265 0 .47.076.615.228a.776.776 0 01.217.563.769.769 0 01-.217.557c-.145.144-.35.216-.615.216-.254 0-.456-.072-.604-.216a.745.745 0 01-.223-.557c0-.227.073-.414.217-.563.145-.152.348-.228.61-.228zm6.41-2.068c-.477.504-1.034.755-1.67.755-.75 0-1.348-.261-1.793-.785-.446-.527-.668-1.218-.668-2.074 0-.562.113-1.072.34-1.53.226-.456.548-.812.966-1.066.418-.254.903-.38 1.454-.38.859 0 1.541.32 2.044.96.504.641.756 1.499.756 2.573v.398c0 1.54-.347 2.713-1.043 3.522-.695.808-1.732 1.218-3.111 1.23h-.17v-1.178h.205c.84-.011 1.485-.213 1.934-.603.449-.395.701-1.002.756-1.822zm-1.371-.358c.285 0 .552-.082.802-.246.25-.164.444-.39.58-.68v-.556c0-.63-.129-1.135-.386-1.518-.258-.383-.592-.574-1.002-.574-.41 0-.739.17-.985.51-.242.336-.363.761-.363 1.277 0 .535.123.967.369 1.295.246.328.574.492.985.492zm9.714.334c0 1.227-.23 2.153-.691 2.778-.457.62-1.154.931-2.092.931-.922 0-1.617-.303-2.086-.908-.465-.61-.703-1.51-.715-2.701V95.03c0-1.226.229-2.146.686-2.76.461-.613 1.162-.92 2.103-.92.934 0 1.629.3 2.086.897.461.598.698 1.492.709 2.684v1.476zm-1.423-1.594c0-.8-.11-1.386-.329-1.757-.218-.375-.566-.563-1.043-.563-.464 0-.806.178-1.025.533-.219.352-.334.903-.346 1.653v1.933c0 .797.112 1.39.334 1.781.223.391.573.587 1.049.587.457 0 .795-.18 1.014-.54.219-.363.334-.93.346-1.699v-1.928zm8.42 5.186h-5.737v-.978l2.842-3.1c.41-.457.701-.838.873-1.143.176-.308.264-.617.264-.925 0-.407-.116-.735-.346-.985-.227-.25-.533-.375-.92-.375-.461 0-.818.14-1.072.422-.254.281-.381.666-.381 1.154h-1.424c0-.52.117-.986.352-1.4a2.458 2.458 0 011.013-.973c.442-.23.95-.345 1.524-.345.828 0 1.48.209 1.957.626.48.415.721.989.721 1.723 0 .426-.122.873-.364 1.342-.238.465-.631.994-1.178 1.588l-2.085 2.232h3.961V100zm9.287-3.809h-3.504v2.625h4.095V100h-5.578v-8.531h5.537v1.195h-4.054v2.355h3.504v1.172zm5.449 3.809c-.063-.121-.117-.318-.164-.592a2.216 2.216 0 01-1.664.709c-.637 0-1.157-.181-1.559-.545a1.744 1.744 0 01-.603-1.347c0-.676.25-1.194.75-1.553.504-.363 1.222-.545 2.156-.545h.873v-.416c0-.328-.092-.59-.275-.785-.184-.2-.463-.299-.838-.299-.325 0-.59.082-.797.246a.745.745 0 00-.311.615h-1.424c0-.347.116-.672.346-.972.231-.305.543-.543.938-.715a3.32 3.32 0 011.33-.258c.742 0 1.334.188 1.775.563.441.37.668.894.68 1.57v2.86c0 .57.08 1.025.24 1.364v.1h-1.453zm-1.565-1.025c.282 0 .545-.069.791-.206.25-.136.438-.32.563-.55v-1.196h-.768c-.527 0-.924.092-1.189.276a.892.892 0 00-.399.78c0 .273.09.491.27.655.184.16.428.24.732.24zm7.588-4.014a3.525 3.525 0 00-.58-.047c-.652 0-1.092.25-1.318.75V100h-1.424v-6.34h1.359l.036.71c.343-.552.82-.827 1.429-.827.203 0 .371.027.504.082l-.006 1.336zm2.977-2.842v1.541h1.119v1.055h-1.119v3.539c0 .242.047.418.14.527.098.106.27.158.516.158.164 0 .33-.02.498-.058v1.101a3.5 3.5 0 01-.937.135c-1.094 0-1.641-.603-1.641-1.81v-3.592h-1.043V93.66h1.043v-1.54h1.424zm3.615 2.233a2.23 2.23 0 011.764-.809c1.351 0 2.037.771 2.056 2.314V100h-1.423v-4.09c0-.437-.096-.746-.288-.926-.187-.183-.464-.275-.832-.275-.57 0-.996.254-1.277.762V100h-1.424v-9h1.424v3.352zm8.818 3.925a.643.643 0 00-.316-.58c-.207-.133-.553-.25-1.037-.351a5.355 5.355 0 01-1.213-.387c-.711-.344-1.066-.842-1.066-1.494 0-.547.23-1.004.691-1.371.461-.367 1.047-.551 1.758-.551.758 0 1.369.188 1.834.563.469.375.703.86.703 1.459h-1.424c0-.274-.101-.5-.305-.68-.203-.184-.472-.276-.808-.276-.313 0-.569.073-.768.217a.686.686 0 00-.293.58c0 .219.092.389.276.51.183.121.554.244 1.113.37.559.12.996.267 1.312.439.321.168.557.37.709.609.157.238.235.527.235.867 0 .57-.237 1.033-.709 1.389-.473.351-1.092.527-1.858.527-.519 0-.982-.094-1.388-.281a2.277 2.277 0 01-.949-.773 1.828 1.828 0 01-.34-1.061h1.382c.02.336.147.596.381.78.235.179.545.269.932.269.375 0 .66-.07.855-.211a.668.668 0 00.293-.563zM118.494 142h-1.418v-6.85l-2.092.715v-1.201l3.328-1.225h.182V142zm11.168-3.809h-3.504v2.625h4.096V142h-5.578v-8.531h5.537v1.195h-4.055v2.356h3.504v1.171zm5.449 3.809c-.062-.121-.117-.318-.164-.592a2.215 2.215 0 01-1.664.709c-.637 0-1.156-.181-1.558-.545a1.74 1.74 0 01-.604-1.347c0-.676.25-1.194.75-1.553.504-.363 1.223-.545 2.156-.545h.873v-.416c0-.328-.091-.59-.275-.785-.184-.199-.463-.299-.838-.299-.324 0-.59.082-.797.246a.744.744 0 00-.31.615h-1.424c0-.347.115-.672.346-.972.23-.305.543-.543.937-.715a3.325 3.325 0 011.33-.258c.742 0 1.334.187 1.776.562.441.372.667.895.679 1.571v2.859c0 .57.08 1.026.24 1.365v.1h-1.453zm-1.564-1.025c.281 0 .545-.069.791-.205a1.37 1.37 0 00.562-.551v-1.196h-.767c-.528 0-.924.092-1.19.276a.892.892 0 00-.398.779c0 .274.09.492.269.656.184.161.428.241.733.241zm7.588-4.014a3.556 3.556 0 00-.58-.047c-.653 0-1.092.25-1.319.75V142h-1.424v-6.34h1.36l.035.709c.344-.551.82-.826 1.43-.826.203 0 .371.027.504.082l-.006 1.336zm2.976-2.842v1.541h1.119v1.055h-1.119v3.539c0 .242.047.418.141.527.098.106.269.158.516.158.164 0 .33-.019.498-.058v1.101c-.325.09-.637.135-.938.135-1.094 0-1.64-.603-1.64-1.81v-3.592h-1.043v-1.055h1.043v-1.541h1.423zm3.616 2.233a2.223 2.223 0 011.763-.809c1.352 0 2.037.771 2.057 2.314V142h-1.424v-4.09c0-.437-.096-.746-.287-.926-.188-.183-.465-.275-.832-.275-.57 0-.996.254-1.277.762V142h-1.424v-9h1.424v3.352zm8.818 3.925a.646.646 0 00-.316-.58c-.208-.133-.553-.25-1.038-.351a5.374 5.374 0 01-1.212-.387c-.711-.344-1.067-.842-1.067-1.494 0-.547.231-1.004.692-1.371.46-.367 1.046-.551 1.757-.551.758 0 1.369.187 1.834.562.469.375.703.862.703 1.459h-1.423c0-.273-.102-.5-.305-.679-.203-.184-.473-.276-.809-.276-.312 0-.568.073-.767.217a.685.685 0 00-.293.58c0 .219.092.389.275.51.184.121.555.244 1.113.369.559.121.997.268 1.313.44.32.168.557.371.709.609.156.238.234.527.234.867 0 .57-.236 1.033-.709 1.389-.472.351-1.091.527-1.857.527-.52 0-.983-.094-1.389-.281a2.287 2.287 0 01-.949-.774 1.826 1.826 0 01-.34-1.06h1.383c.02.336.146.596.381.779.234.18.545.27.931.27.375 0 .661-.071.856-.211a.671.671 0 00.293-.563zm-36.346 40.131c0 1.227-.23 2.153-.691 2.778-.457.621-1.154.931-2.092.931-.922 0-1.617-.303-2.086-.908-.465-.609-.703-1.51-.715-2.701v-1.477c0-1.226.229-2.146.686-2.76.461-.613 1.162-.919 2.103-.919.934 0 1.629.298 2.086.896.461.598.698 1.492.709 2.684v1.476zm-1.424-1.594c0-.8-.109-1.386-.328-1.757-.218-.375-.566-.563-1.043-.563-.465 0-.806.178-1.025.533-.219.352-.334.903-.346 1.653v1.933c0 .797.112 1.391.334 1.782.223.39.572.585 1.049.585.457 0 .795-.179 1.014-.539.218-.363.334-.929.345-1.699v-1.928zm3.663 3.686c.265 0 .47.076.615.229a.773.773 0 01.217.562.77.77 0 01-.217.557c-.145.144-.35.216-.615.216-.254 0-.456-.072-.604-.216a.746.746 0 01-.223-.557c0-.227.073-.414.217-.562.145-.153.348-.229.61-.229zm8.109 1.5h-5.736v-.979l2.841-3.099c.41-.457.702-.838.873-1.143.176-.308.264-.617.264-.925 0-.407-.115-.735-.346-.985-.226-.25-.533-.375-.92-.375-.461 0-.818.141-1.072.422-.254.281-.381.666-.381 1.154h-1.424c0-.519.118-.986.352-1.4a2.459 2.459 0 011.014-.973c.441-.23.949-.345 1.523-.345.828 0 1.481.209 1.957.627.481.414.721.988.721 1.722 0 .426-.121.873-.363 1.342-.239.465-.631.994-1.178 1.588l-2.086 2.232h3.961V184zm6.457-6.281c0 .418-.108.791-.322 1.119-.215.324-.508.58-.879.767.445.207.787.491 1.025.85.242.359.363.766.363 1.219 0 .75-.253 1.346-.761 1.787-.508.437-1.184.656-2.028.656-.847 0-1.527-.221-2.039-.662-.508-.441-.761-1.035-.761-1.781 0-.457.121-.867.363-1.231a2.34 2.34 0 011.019-.838 2.252 2.252 0 01-.873-.767 2.023 2.023 0 01-.316-1.119c0-.727.234-1.303.703-1.729.469-.426 1.102-.638 1.898-.638.801 0 1.436.212 1.905.638.469.426.703 1.002.703 1.729zm-1.236 3.885c0-.422-.127-.762-.381-1.02-.25-.262-.582-.393-.996-.393-.414 0-.746.129-.996.387-.247.258-.37.6-.37 1.026 0 .417.121.751.364 1.001.246.25.584.375 1.013.375.43 0 .764-.121 1.002-.363.242-.242.364-.58.364-1.013zm-.182-3.833c0-.371-.107-.675-.322-.914-.215-.242-.504-.363-.868-.363-.363 0-.65.115-.861.346-.211.226-.316.537-.316.931 0 .391.105.702.316.932.215.231.504.346.867.346.364 0 .651-.115.862-.346.215-.23.322-.541.322-.932zm7.682 3.188h1.06v1.143h-1.06V184h-1.424v-1.898h-3.686l-.041-.868 3.68-5.765h1.471v5.49zm-3.657 0h2.233v-3.563l-.106.188-2.127 3.375zm13.864-.768h-3.504v2.625h4.095V184h-5.578v-8.531h5.537v1.195h-4.054v2.356h3.504v1.171zm5.449 3.809c-.063-.121-.117-.318-.164-.592a2.215 2.215 0 01-1.664.709c-.637 0-1.157-.181-1.559-.545a1.743 1.743 0 01-.603-1.347c0-.676.25-1.194.75-1.553.504-.363 1.222-.545 2.156-.545h.873v-.416c0-.328-.092-.59-.275-.785-.184-.199-.463-.299-.838-.299-.325 0-.59.082-.797.246a.745.745 0 00-.311.615h-1.424c0-.347.116-.672.346-.972.231-.305.543-.543.938-.715a3.318 3.318 0 011.33-.258c.742 0 1.334.187 1.775.562.441.372.668.895.68 1.571v2.859c0 .57.08 1.026.24 1.365v.1h-1.453zm-1.565-1.025c.282 0 .545-.069.791-.205.25-.137.438-.321.563-.551v-1.196h-.768c-.527 0-.924.092-1.189.276a.89.89 0 00-.399.779c0 .274.09.492.27.656.184.161.428.241.732.241zm7.588-4.014a3.547 3.547 0 00-.58-.047c-.652 0-1.092.25-1.318.75V184h-1.424v-6.34h1.359l.036.709c.343-.551.82-.826 1.429-.826.203 0 .371.027.504.082l-.006 1.336zm2.977-2.842v1.541h1.119v1.055h-1.119v3.539c0 .242.047.418.14.527.098.106.27.158.516.158.164 0 .33-.019.498-.058v1.101a3.5 3.5 0 01-.937.135c-1.094 0-1.641-.603-1.641-1.81v-3.592h-1.043v-1.055h1.043v-1.541h1.424zm3.615 2.233a2.227 2.227 0 011.764-.809c1.351 0 2.037.771 2.056 2.314V184h-1.423v-4.09c0-.437-.096-.746-.288-.926-.187-.183-.464-.275-.832-.275-.57 0-.996.254-1.277.762V184h-1.424v-9h1.424v3.352zm8.818 3.925a.644.644 0 00-.316-.58c-.207-.133-.553-.25-1.037-.351a5.384 5.384 0 01-1.213-.387c-.711-.344-1.066-.842-1.066-1.494 0-.547.23-1.004.691-1.371.461-.367 1.047-.551 1.758-.551.758 0 1.369.187 1.834.562.469.375.703.862.703 1.459h-1.424c0-.273-.101-.5-.305-.679-.203-.184-.472-.276-.808-.276-.313 0-.569.073-.768.217a.687.687 0 00-.293.58c0 .219.092.389.276.51.183.121.554.244 1.113.369.559.121.996.268 1.312.44.321.168.557.371.709.609.157.238.235.527.235.867 0 .57-.237 1.033-.709 1.389-.473.351-1.092.527-1.858.527-.519 0-.982-.094-1.388-.281a2.275 2.275 0 01-.949-.774 1.826 1.826 0 01-.34-1.06h1.382c.02.336.147.596.381.779.235.18.545.27.932.27.375 0 .66-.071.855-.211a.669.669 0 00.293-.563zM266.316 50.26l-3.41 7.74h-1.494l3.404-7.389h-4.412V49.47h5.912v.79zm5.959 4.699h1.061v1.143h-1.061V58h-1.423v-1.898h-3.686l-.041-.868 3.68-5.765h1.47v5.49zm-3.656 0h2.233v-3.563l-.106.188-2.127 3.375zm14.022-3.24c0 .418-.108.79-.323 1.119-.214.324-.507.58-.879.767.446.208.788.49 1.026.85.242.36.363.766.363 1.219 0 .75-.254 1.346-.762 1.787-.507.437-1.183.656-2.027.656-.848 0-1.527-.22-2.039-.662-.508-.441-.762-1.035-.762-1.781 0-.457.121-.867.364-1.23a2.334 2.334 0 011.019-.839 2.256 2.256 0 01-.873-.767 2.024 2.024 0 01-.316-1.12c0-.726.234-1.302.703-1.728.469-.425 1.101-.638 1.898-.638.801 0 1.436.213 1.905.638.468.426.703 1.002.703 1.729zm-1.237 3.884c0-.421-.127-.761-.381-1.019-.25-.262-.582-.393-.996-.393-.414 0-.746.13-.996.387-.246.258-.369.6-.369 1.025 0 .419.121.752.363 1.002.246.25.584.376 1.014.376.43 0 .764-.122 1.002-.364.242-.242.363-.58.363-1.014zm-.181-3.831c0-.372-.108-.676-.323-.915-.214-.242-.504-.363-.867-.363s-.65.115-.861.346c-.211.226-.317.537-.317.931 0 .391.106.702.317.932.215.23.504.346.867.346s.65-.115.861-.346c.215-.23.323-.54.323-.931zm8.425 2.636c0 1.227-.23 2.152-.691 2.777-.457.622-1.154.932-2.092.932-.922 0-1.617-.302-2.086-.908-.465-.61-.703-1.51-.715-2.701V53.03c0-1.226.229-2.146.686-2.76.461-.613 1.162-.92 2.104-.92.933 0 1.628.3 2.085.897.461.598.698 1.492.709 2.684v1.476zm-1.423-1.593c0-.801-.11-1.387-.329-1.758-.218-.375-.566-.563-1.042-.563-.465 0-.807.178-1.026.533-.219.352-.334.903-.346 1.653v1.933c0 .797.112 1.39.334 1.782.223.39.573.585 1.049.585.457 0 .795-.18 1.014-.539.219-.363.334-.93.346-1.699v-1.927zm8.244 1.593c0 1.227-.231 2.152-.692 2.777-.457.622-1.154.932-2.091.932-.922 0-1.618-.302-2.086-.908-.465-.61-.704-1.51-.715-2.701V53.03c0-1.226.228-2.146.685-2.76.461-.613 1.162-.92 2.104-.92.933 0 1.629.3 2.086.897.461.598.697 1.492.709 2.684v1.476zm-1.424-1.593c0-.801-.109-1.387-.328-1.758-.219-.375-.567-.563-1.043-.563-.465 0-.807.178-1.026.533-.218.352-.334.903-.345 1.653v1.933c0 .797.111 1.39.334 1.782.222.39.572.585 1.049.585.457 0 .794-.18 1.013-.539.219-.363.334-.93.346-1.699v-1.927zm11.232 1.593c0 1.227-.23 2.152-.691 2.777-.457.622-1.154.932-2.092.932-.922 0-1.617-.302-2.086-.908-.465-.61-.703-1.51-.715-2.701V53.03c0-1.226.229-2.146.686-2.76.461-.613 1.162-.92 2.103-.92.934 0 1.629.3 2.086.897.461.598.698 1.492.709 2.684v1.476zm-1.423-1.593c0-.801-.11-1.387-.329-1.758-.218-.375-.566-.563-1.043-.563-.464 0-.806.178-1.025.533-.219.352-.334.903-.346 1.653v1.933c0 .797.112 1.39.334 1.782.223.39.573.585 1.049.585.457 0 .795-.18 1.014-.539.219-.363.334-.93.346-1.699v-1.927zm8.244 1.593c0 1.227-.231 2.152-.692 2.777-.457.622-1.154.932-2.092.932-.921 0-1.617-.302-2.085-.908-.465-.61-.704-1.51-.715-2.701V53.03c0-1.226.228-2.146.685-2.76.461-.613 1.162-.92 2.104-.92.933 0 1.629.3 2.086.897.461.598.697 1.492.709 2.684v1.476zm-1.424-1.593c0-.801-.11-1.387-.328-1.758-.219-.375-.567-.563-1.043-.563-.465 0-.807.178-1.026.533-.218.352-.334.903-.345 1.653v1.933c0 .797.111 1.39.334 1.782.222.39.572.585 1.048.585.457 0 .795-.18 1.014-.539.219-.363.334-.93.346-1.699v-1.927zm8.244 1.593c0 1.227-.23 2.152-.691 2.777-.457.622-1.155.932-2.092.932-.922 0-1.617-.302-2.086-.908-.465-.61-.703-1.51-.715-2.701V53.03c0-1.226.228-2.146.686-2.76.46-.613 1.162-.92 2.103-.92.934 0 1.629.3 2.086.897.461.598.697 1.492.709 2.684v1.476zm-1.424-1.593c0-.801-.109-1.387-.328-1.758-.219-.375-.566-.563-1.043-.563-.465 0-.807.178-1.025.533-.219.352-.334.903-.346 1.653v1.933c0 .797.111 1.39.334 1.782.223.39.572.585 1.049.585.457 0 .795-.18 1.013-.539.219-.363.334-.93.346-1.699v-1.927zm8.35 1.5l-.967 1.025V58h-1.482v-8.531h1.482v4.002l.82-1.014 2.496-2.988h1.793l-3.17 3.779L331.168 58h-1.758l-2.566-3.685zm6.322-2.655l.041.662c.445-.52 1.055-.779 1.828-.779.848 0 1.428.324 1.74.973.461-.649 1.11-.973 1.946-.973.699 0 1.218.193 1.558.58.344.387.52.957.528 1.711V58h-1.424v-4.125c0-.402-.088-.697-.264-.885-.176-.187-.467-.281-.873-.281-.324 0-.59.088-.797.264a1.374 1.374 0 00-.428.68l.006 4.347h-1.423v-4.172c-.02-.746-.401-1.119-1.143-1.119-.57 0-.975.232-1.213.697V58h-1.424v-6.34h1.342zM347.914 58h-5.736v-.978l2.842-3.1c.41-.457.701-.838.873-1.143.175-.308.263-.617.263-.926 0-.406-.115-.734-.345-.984-.227-.25-.534-.375-.92-.375-.461 0-.819.14-1.073.422-.254.281-.38.666-.38 1.154h-1.424c0-.52.117-.986.351-1.4a2.46 2.46 0 011.014-.973c.441-.23.949-.345 1.523-.345.828 0 1.481.209 1.957.627.481.414.721.988.721 1.722 0 .426-.121.873-.363 1.342-.238.465-.631.994-1.178 1.588l-2.086 2.232h3.961V58zm-82.459 38.959h1.061v1.143h-1.061V100h-1.424v-1.898h-3.685l-.041-.868 3.679-5.765h1.471v5.49zm-3.656 0h2.232v-3.563l-.105.188-2.127 3.375zm10.09-5.531v1.178h-.176c-.797.011-1.434.23-1.91.656-.477.425-.76 1.029-.85 1.81.457-.48 1.041-.72 1.752-.72.754 0 1.348.265 1.781.796.438.532.657 1.217.657 2.057 0 .867-.256 1.57-.768 2.11-.508.535-1.176.802-2.004.802-.851 0-1.543-.314-2.074-.943-.527-.63-.791-1.453-.791-2.473v-.486c0-1.496.363-2.668 1.09-3.516.73-.847 1.779-1.271 3.146-1.271h.147zm-1.53 4.072a1.545 1.545 0 00-1.429.967v.433c0 .633.132 1.137.398 1.512.266.371.61.557 1.031.557.422 0 .756-.158 1.002-.475.246-.316.369-.732.369-1.248 0-.515-.125-.935-.375-1.26a1.195 1.195 0 00-.996-.486zm9.481.908c0 1.227-.231 2.153-.692 2.778-.457.62-1.154.931-2.091.931-.922 0-1.618-.303-2.086-.908-.465-.61-.703-1.51-.715-2.701V95.03c0-1.226.228-2.146.685-2.76.461-.613 1.163-.92 2.104-.92.934 0 1.629.3 2.086.897.461.598.697 1.492.709 2.684v1.476zm-1.424-1.594c0-.8-.109-1.386-.328-1.757-.219-.375-.567-.563-1.043-.563-.465 0-.807.178-1.025.533-.219.352-.334.903-.346 1.653v1.933c0 .797.111 1.39.334 1.781.222.391.572.587 1.049.587.457 0 .795-.18 1.013-.54.219-.363.334-.93.346-1.699v-1.928zM289.824 100h-5.736v-.978l2.842-3.1c.41-.457.701-.838.873-1.143a1.85 1.85 0 00.263-.925c0-.407-.115-.735-.345-.985-.227-.25-.533-.375-.92-.375-.461 0-.819.14-1.072.422-.254.281-.381.666-.381 1.154h-1.424c0-.52.117-.986.351-1.4a2.467 2.467 0 011.014-.973c.441-.23.949-.345 1.523-.345.829 0 1.481.209 1.958.626.48.415.72.989.72 1.723 0 .426-.121.873-.363 1.342-.238.465-.631.994-1.178 1.588l-2.086 2.232h3.961V100zm6.645-3.592c0 1.227-.231 2.153-.692 2.778-.457.62-1.154.931-2.091.931-.922 0-1.618-.303-2.086-.908-.465-.61-.704-1.51-.715-2.701V95.03c0-1.226.228-2.146.685-2.76.461-.613 1.162-.92 2.104-.92.933 0 1.629.3 2.086.897.461.598.697 1.492.709 2.684v1.476zm-1.424-1.594c0-.8-.109-1.386-.328-1.757-.219-.375-.567-.563-1.043-.563-.465 0-.807.178-1.026.533-.218.352-.334.903-.345 1.653v1.933c0 .797.111 1.39.334 1.781.222.391.572.587 1.049.587.457 0 .794-.18 1.013-.54.219-.363.334-.93.346-1.699v-1.928zm8.244 1.594c0 1.227-.23 2.153-.691 2.778-.457.62-1.155.931-2.092.931-.922 0-1.617-.303-2.086-.908-.465-.61-.703-1.51-.715-2.701V95.03c0-1.226.229-2.146.686-2.76.461-.613 1.162-.92 2.103-.92.934 0 1.629.3 2.086.897.461.598.697 1.492.709 2.684v1.476zm-1.424-1.594c0-.8-.109-1.386-.328-1.757-.219-.375-.566-.563-1.043-.563-.465 0-.806.178-1.025.533-.219.352-.334.903-.346 1.653v1.933c0 .797.111 1.39.334 1.781.223.391.572.587 1.049.587.457 0 .795-.18 1.014-.54.218-.363.334-.93.345-1.699v-1.928zm11.233 1.594c0 1.227-.231 2.153-.692 2.778-.457.62-1.154.931-2.092.931-.921 0-1.617-.303-2.085-.908-.465-.61-.704-1.51-.715-2.701V95.03c0-1.226.228-2.146.685-2.76.461-.613 1.162-.92 2.104-.92.933 0 1.629.3 2.086.897.461.598.697 1.492.709 2.684v1.476zm-1.424-1.594c0-.8-.11-1.386-.328-1.757-.219-.375-.567-.563-1.043-.563-.465 0-.807.178-1.026.533-.218.352-.334.903-.345 1.653v1.933c0 .797.111 1.39.334 1.781.222.391.572.587 1.048.587.457 0 .795-.18 1.014-.54.219-.363.334-.93.346-1.699v-1.928zm8.244 1.594c0 1.227-.23 2.153-.691 2.778-.457.62-1.155.931-2.092.931-.922 0-1.617-.303-2.086-.908-.465-.61-.703-1.51-.715-2.701V95.03c0-1.226.228-2.146.686-2.76.46-.613 1.162-.92 2.103-.92.934 0 1.629.3 2.086.897.461.598.697 1.492.709 2.684v1.476zm-1.424-1.594c0-.8-.109-1.386-.328-1.757-.219-.375-.566-.563-1.043-.563-.465 0-.807.178-1.025.533-.219.352-.334.903-.346 1.653v1.933c0 .797.111 1.39.334 1.781.223.391.572.587 1.049.587.457 0 .795-.18 1.013-.54.219-.363.334-.93.346-1.699v-1.928zm8.244 1.594c0 1.227-.23 2.153-.691 2.778-.457.62-1.154.931-2.092.931-.922 0-1.617-.303-2.086-.908-.465-.61-.703-1.51-.715-2.701V95.03c0-1.226.229-2.146.686-2.76.461-.613 1.162-.92 2.103-.92.934 0 1.629.3 2.086.897.461.598.698 1.492.709 2.684v1.476zm-1.424-1.594c0-.8-.109-1.386-.328-1.757-.218-.375-.566-.563-1.043-.563-.464 0-.806.178-1.025.533-.219.352-.334.903-.346 1.653v1.933c0 .797.112 1.39.334 1.781.223.391.573.587 1.049.587.457 0 .795-.18 1.014-.54.219-.363.334-.93.345-1.699v-1.928zm8.35 1.5l-.967 1.026V100h-1.482v-8.531h1.482v4.002l.821-1.014 2.496-2.988h1.793l-3.17 3.779 3.351 4.752h-1.758l-2.566-3.686zm6.322-2.654l.041.662c.446-.52 1.055-.779 1.828-.779.848 0 1.428.324 1.741.973.461-.649 1.109-.973 1.945-.973.699 0 1.219.193 1.559.58.343.387.519.957.527 1.711V100h-1.424v-4.125c0-.402-.088-.697-.264-.885-.175-.187-.466-.281-.873-.281-.324 0-.589.088-.796.264a1.36 1.36 0 00-.428.68l.006 4.347h-1.424v-4.172c-.02-.746-.401-1.119-1.143-1.119-.57 0-.974.232-1.213.697V100h-1.423v-6.34h1.341zm14.748 6.34h-5.736v-.978l2.842-3.1c.41-.457.701-.838.873-1.143.176-.308.264-.617.264-.925 0-.407-.116-.735-.346-.985-.227-.25-.533-.375-.92-.375-.461 0-.818.14-1.072.422-.254.281-.381.666-.381 1.154h-1.424c0-.52.117-.986.352-1.4a2.458 2.458 0 011.013-.973c.442-.23.949-.345 1.524-.345.828 0 1.48.209 1.957.626.48.415.72.989.72 1.723 0 .426-.121.873-.363 1.342-.238.465-.631.994-1.178 1.588l-2.086 2.232h3.961V100zm-93.714 37.77l.462-4.301h4.582v1.23h-3.398l-.234 2.039c.394-.226.839-.34 1.336-.34.812 0 1.443.26 1.892.78.453.519.68 1.218.68 2.097 0 .868-.25 1.559-.75 2.075-.5.511-1.186.767-2.057.767-.781 0-1.429-.221-1.945-.662-.512-.445-.789-1.031-.832-1.758h1.377c.055.414.203.733.445.955.242.219.559.328.949.328.438 0 .778-.156 1.02-.468.246-.313.369-.739.369-1.278 0-.519-.135-.929-.404-1.23-.27-.305-.641-.457-1.114-.457-.257 0-.476.035-.656.105-.18.067-.375.2-.586.399l-1.136-.281zm10.294 4.23h-1.418v-6.85l-2.091.715v-1.201l3.328-1.225h.181V142zm8.526-3.592c0 1.227-.231 2.153-.692 2.778-.457.621-1.154.931-2.091.931-.922 0-1.618-.303-2.086-.908-.465-.609-.703-1.51-.715-2.701v-1.477c0-1.226.228-2.146.685-2.76.461-.613 1.163-.919 2.104-.919.934 0 1.629.298 2.086.896.461.598.697 1.492.709 2.684v1.476zm-1.424-1.594c0-.8-.109-1.386-.328-1.757-.219-.375-.567-.563-1.043-.563-.465 0-.807.178-1.025.533-.219.352-.334.903-.346 1.653v1.933c0 .797.111 1.391.334 1.782.222.39.572.585 1.049.585.457 0 .795-.179 1.013-.539.219-.363.334-.929.346-1.699v-1.928zm11.232 1.594c0 1.227-.23 2.153-.691 2.778-.457.621-1.154.931-2.092.931-.922 0-1.617-.303-2.086-.908-.465-.609-.703-1.51-.715-2.701v-1.477c0-1.226.229-2.146.686-2.76.461-.613 1.162-.919 2.104-.919.933 0 1.628.298 2.085.896.461.598.698 1.492.709 2.684v1.476zm-1.423-1.594c0-.8-.11-1.386-.329-1.757-.218-.375-.566-.563-1.042-.563-.465 0-.807.178-1.026.533-.219.352-.334.903-.346 1.653v1.933c0 .797.112 1.391.334 1.782.223.39.573.585 1.049.585.457 0 .795-.179 1.014-.539.219-.363.334-.929.346-1.699v-1.928zm8.361-2.554l-3.41 7.74h-1.494l3.404-7.389h-4.412v-1.142h5.912v.791zm6.879 7.74h-5.736v-.979l2.841-3.099c.41-.457.701-.838.873-1.143.176-.308.264-.617.264-.925 0-.407-.115-.735-.346-.985-.226-.25-.533-.375-.92-.375-.461 0-.818.141-1.072.422-.254.281-.381.666-.381 1.154h-1.424c0-.519.118-.986.352-1.4a2.459 2.459 0 011.014-.973c.441-.23.949-.345 1.523-.345.828 0 1.481.209 1.957.627.481.414.721.988.721 1.722 0 .426-.121.873-.363 1.342-.239.465-.631.994-1.178 1.588l-2.086 2.232h3.961V142zm9.633-3.592c0 1.227-.231 2.153-.692 2.778-.457.621-1.154.931-2.092.931-.921 0-1.617-.303-2.085-.908-.465-.609-.704-1.51-.715-2.701v-1.477c0-1.226.228-2.146.685-2.76.461-.613 1.162-.919 2.104-.919.933 0 1.629.298 2.086.896.461.598.697 1.492.709 2.684v1.476zm-1.424-1.594c0-.8-.11-1.386-.328-1.757-.219-.375-.567-.563-1.043-.563-.465 0-.807.178-1.026.533-.218.352-.334.903-.345 1.653v1.933c0 .797.111 1.391.334 1.782.222.39.572.585 1.048.585.457 0 .795-.179 1.014-.539.219-.363.334-.929.346-1.699v-1.928zm8.244 1.594c0 1.227-.23 2.153-.691 2.778-.457.621-1.155.931-2.092.931-.922 0-1.617-.303-2.086-.908-.465-.609-.703-1.51-.715-2.701v-1.477c0-1.226.228-2.146.686-2.76.46-.613 1.162-.919 2.103-.919.934 0 1.629.298 2.086.896.461.598.697 1.492.709 2.684v1.476zm-1.424-1.594c0-.8-.109-1.386-.328-1.757-.219-.375-.566-.563-1.043-.563-.465 0-.807.178-1.025.533-.219.352-.334.903-.346 1.653v1.933c0 .797.111 1.391.334 1.782.223.39.572.585 1.049.585.457 0 .795-.179 1.013-.539.219-.363.334-.929.346-1.699v-1.928zm8.244 1.594c0 1.227-.23 2.153-.691 2.778-.457.621-1.154.931-2.092.931-.922 0-1.617-.303-2.086-.908-.465-.609-.703-1.51-.715-2.701v-1.477c0-1.226.229-2.146.686-2.76.461-.613 1.162-.919 2.103-.919.934 0 1.629.298 2.086.896.461.598.698 1.492.709 2.684v1.476zm-1.424-1.594c0-.8-.109-1.386-.328-1.757-.218-.375-.566-.563-1.043-.563-.464 0-.806.178-1.025.533-.219.352-.334.903-.346 1.653v1.933c0 .797.112 1.391.334 1.782.223.39.573.585 1.049.585.457 0 .795-.179 1.014-.539.219-.363.334-.929.345-1.699v-1.928zm8.35 1.5l-.967 1.026V142h-1.482v-8.531h1.482v4.002l.821-1.014 2.496-2.988h1.793l-3.17 3.779 3.351 4.752h-1.758l-2.566-3.686zm6.322-2.654l.041.662c.446-.519 1.055-.779 1.828-.779.848 0 1.428.324 1.741.973.461-.649 1.109-.973 1.945-.973.699 0 1.219.193 1.559.58.343.387.519.957.527 1.711V142h-1.424v-4.125c0-.402-.088-.697-.264-.885-.175-.187-.466-.281-.873-.281-.324 0-.589.088-.796.264a1.36 1.36 0 00-.428.679l.006 4.348h-1.424v-4.172c-.02-.746-.401-1.119-1.143-1.119-.57 0-.974.232-1.213.697V142h-1.423v-6.34h1.341zm14.748 6.34h-5.736v-.979l2.842-3.099c.41-.457.701-.838.873-1.143.176-.308.264-.617.264-.925 0-.407-.116-.735-.346-.985-.227-.25-.533-.375-.92-.375-.461 0-.818.141-1.072.422-.254.281-.381.666-.381 1.154h-1.424c0-.519.117-.986.352-1.4a2.462 2.462 0 011.013-.973c.442-.23.949-.345 1.524-.345.828 0 1.48.209 1.957.627.48.414.72.988.72 1.722 0 .426-.121.873-.363 1.342-.238.465-.631.994-1.178 1.588l-2.086 2.232h3.961V142zm-90.24 42h-1.418v-6.85l-2.092.715v-1.201l3.328-1.225h.182V184zm7.781-3.041h1.061v1.143h-1.061V184h-1.423v-1.898h-3.686l-.041-.868 3.68-5.765h1.47v5.49zm-3.656 0h2.233v-3.563l-.106.188-2.127 3.375zm10.477 0h1.06v1.143h-1.06V184h-1.424v-1.898h-3.686l-.041-.868 3.68-5.765h1.471v5.49zm-3.657 0h2.233v-3.563l-.106.188-2.127 3.375zm14.022-3.24c0 .418-.107.791-.322 1.119-.215.324-.508.58-.879.767.445.207.787.491 1.025.85.242.359.363.766.363 1.219 0 .75-.253 1.346-.761 1.787-.508.437-1.184.656-2.028.656-.847 0-1.527-.221-2.039-.662-.508-.441-.761-1.035-.761-1.781 0-.457.121-.867.363-1.231a2.34 2.34 0 011.019-.838 2.252 2.252 0 01-.873-.767 2.023 2.023 0 01-.316-1.119c0-.727.234-1.303.703-1.729.469-.426 1.102-.638 1.899-.638.8 0 1.435.212 1.904.638.469.426.703 1.002.703 1.729zm-1.236 3.885c0-.422-.127-.762-.381-1.02-.25-.262-.582-.393-.996-.393-.414 0-.746.129-.996.387-.247.258-.37.6-.37 1.026 0 .417.122.751.364 1.001.246.25.584.375 1.013.375.43 0 .764-.121 1.002-.363.243-.242.364-.58.364-1.013zm-.182-3.833c0-.371-.107-.675-.322-.914-.215-.242-.504-.363-.867-.363-.364 0-.651.115-.862.346-.211.226-.316.537-.316.931 0 .391.105.702.316.932.215.231.504.346.867.346.364 0 .651-.115.862-.346.215-.23.322-.541.322-.932zm8.426 2.637c0 1.227-.231 2.153-.692 2.778-.457.621-1.154.931-2.091.931-.922 0-1.618-.303-2.086-.908-.465-.609-.704-1.51-.715-2.701v-1.477c0-1.226.228-2.146.685-2.76.461-.613 1.162-.919 2.104-.919.933 0 1.629.298 2.086.896.461.598.697 1.492.709 2.684v1.476zm-1.424-1.594c0-.8-.109-1.386-.328-1.757-.219-.375-.567-.563-1.043-.563-.465 0-.807.178-1.026.533-.218.352-.334.903-.345 1.653v1.933c0 .797.111 1.391.334 1.782.222.39.572.585 1.049.585.457 0 .794-.179 1.013-.539.219-.363.334-.929.346-1.699v-1.928zm8.244 1.594c0 1.227-.23 2.153-.691 2.778-.457.621-1.155.931-2.092.931-.922 0-1.617-.303-2.086-.908-.465-.609-.703-1.51-.715-2.701v-1.477c0-1.226.229-2.146.686-2.76.461-.613 1.162-.919 2.103-.919.934 0 1.629.298 2.086.896.461.598.697 1.492.709 2.684v1.476zm-1.424-1.594c0-.8-.109-1.386-.328-1.757-.219-.375-.566-.563-1.043-.563-.465 0-.806.178-1.025.533-.219.352-.334.903-.346 1.653v1.933c0 .797.111 1.391.334 1.782.223.39.572.585 1.049.585.457 0 .795-.179 1.014-.539.218-.363.334-.929.345-1.699v-1.928zm11.233 1.594c0 1.227-.231 2.153-.692 2.778-.457.621-1.154.931-2.092.931-.921 0-1.617-.303-2.085-.908-.465-.609-.704-1.51-.715-2.701v-1.477c0-1.226.228-2.146.685-2.76.461-.613 1.162-.919 2.104-.919.933 0 1.629.298 2.086.896.461.598.697 1.492.709 2.684v1.476zm-1.424-1.594c0-.8-.11-1.386-.328-1.757-.219-.375-.567-.563-1.043-.563-.465 0-.807.178-1.026.533-.218.352-.334.903-.345 1.653v1.933c0 .797.111 1.391.334 1.782.222.39.572.585 1.048.585.457 0 .795-.179 1.014-.539.219-.363.334-.929.346-1.699v-1.928zm8.244 1.594c0 1.227-.23 2.153-.691 2.778-.457.621-1.155.931-2.092.931-.922 0-1.617-.303-2.086-.908-.465-.609-.703-1.51-.715-2.701v-1.477c0-1.226.228-2.146.686-2.76.46-.613 1.162-.919 2.103-.919.934 0 1.629.298 2.086.896.461.598.697 1.492.709 2.684v1.476zm-1.424-1.594c0-.8-.109-1.386-.328-1.757-.219-.375-.566-.563-1.043-.563-.465 0-.807.178-1.025.533-.219.352-.334.903-.346 1.653v1.933c0 .797.111 1.391.334 1.782.223.39.572.585 1.049.585.457 0 .795-.179 1.013-.539.219-.363.334-.929.346-1.699v-1.928zm8.244 1.594c0 1.227-.23 2.153-.691 2.778-.457.621-1.154.931-2.092.931-.922 0-1.617-.303-2.086-.908-.465-.609-.703-1.51-.715-2.701v-1.477c0-1.226.229-2.146.686-2.76.461-.613 1.162-.919 2.103-.919.934 0 1.629.298 2.086.896.461.598.698 1.492.709 2.684v1.476zm-1.424-1.594c0-.8-.109-1.386-.328-1.757-.218-.375-.566-.563-1.043-.563-.464 0-.806.178-1.025.533-.219.352-.334.903-.346 1.653v1.933c0 .797.112 1.391.334 1.782.223.39.573.585 1.049.585.457 0 .795-.179 1.014-.539.219-.363.334-.929.345-1.699v-1.928zm8.35 1.5l-.967 1.026V184h-1.482v-8.531h1.482v4.002l.821-1.014 2.496-2.988h1.793l-3.17 3.779 3.351 4.752h-1.758l-2.566-3.686zm6.322-2.654l.041.662c.446-.519 1.055-.779 1.828-.779.848 0 1.428.324 1.741.973.461-.649 1.109-.973 1.945-.973.699 0 1.219.193 1.559.58.343.387.519.957.527 1.711V184h-1.424v-4.125c0-.402-.088-.697-.264-.885-.175-.187-.466-.281-.873-.281-.324 0-.589.088-.796.264a1.36 1.36 0 00-.428.679l.006 4.348h-1.424v-4.172c-.02-.746-.401-1.119-1.143-1.119-.57 0-.974.232-1.213.697V184h-1.423v-6.34h1.341zm14.748 6.34h-5.736v-.979l2.842-3.099c.41-.457.701-.838.873-1.143.176-.308.264-.617.264-.925 0-.407-.116-.735-.346-.985-.227-.25-.533-.375-.92-.375-.461 0-.818.141-1.072.422-.254.281-.381.666-.381 1.154h-1.424c0-.519.117-.986.352-1.4a2.462 2.462 0 011.013-.973c.442-.23.949-.345 1.524-.345.828 0 1.48.209 1.957.627.48.414.72.988.72 1.722 0 .426-.121.873-.363 1.342-.238.465-.631.994-1.178 1.588l-2.086 2.232h3.961V184z" fill="#fff"/><circle cy="54" r="5" fill="#FFEBF1"/><circle cy="96" r="5" fill="#FFEBF1"/><circle cy="138" r="5" fill="#FFEBF1"/><circle cy="180" r="5" fill="#FFEBF1"/><circle cx="400" cy="54" r="5" fill="#FFEBF1"/><circle cx="400" cy="96" r="5" fill="#FFEBF1"/><circle cx="400" cy="138" r="5" fill="#FFEBF1"/><circle cx="400" cy="180" r="5" fill="#FFEBF1"/><path stroke="#981F42" stroke-width="2" stroke-dasharray="4 4" d="M99 35v38m146-38v38M99 77v38m146-38v38"/><path stroke="#531D99" stroke-width="2" stroke-dasharray="4 4" d="M99 119v38m146-38v38"/><path stroke="#981F42" stroke-width="2" stroke-dasharray="4 4" d="M99 161v38m146-38v38"/></g><defs><clipPath id="clip0"><path fill="#fff" d="M0 0h400v200H0z"/></clipPath></defs></svg>