<svg width="416" height="94" viewBox="0 0 416 94" fill="none" xmlns="http://www.w3.org/2000/svg"><g clip-path="url(#clip0)"><path d="M146.863 27.121L134.44 45.756l-12.423-18.635h-7.202v44.973h6.542v-34.17l13.083 19.624 13.083-19.624v34.17h6.541V27.121h-7.201zm38.274 12.266v3.404a16.682 16.682 0 00-10.63-3.813c-9.243 0-16.763 7.52-16.763 16.763 0 9.243 7.52 16.763 16.763 16.763 4.032 0 7.735-1.432 10.63-3.813v3.404h6.542V39.387h-6.542zm-10.63 26.574c-5.636 0-10.221-4.585-10.221-10.221s4.585-10.221 10.221-10.221 10.221 4.585 10.221 10.221-4.585 10.221-10.221 10.221zm122.244-26.574c-3.909 0-7.413 1.732-9.812 4.458-2.399-2.726-5.903-4.458-9.812-4.458-2.384 0-4.614.651-6.542 1.77v-1.77h-6.541v32.707h6.541V52.47a6.549 6.549 0 016.542-6.541 6.55 6.55 0 016.542 6.541v19.624h6.542V52.47a6.549 6.549 0 016.541-6.541 6.55 6.55 0 016.542 6.541v19.624h6.542V52.47c-.002-7.214-5.871-13.083-13.085-13.083zM224.794 69.04l-2.453-2.578-10.269-10.791 14.558-16.284h-8.775l-13.912 15.562V27.121h-6.541v44.973h6.541V56.619l14.727 15.475h9.031l-2.907-3.054z" fill="#181F3F"/><path d="M259.216 59.011c.213-1.07.33-2.163.33-3.271a16.67 16.67 0 00-3.68-10.452c-3.074-3.84-7.792-6.311-13.083-6.311-3.483 0-6.72 1.07-9.403 2.895-4.438 3.019-7.359 8.108-7.359 13.868s2.922 10.849 7.359 13.868a16.666 16.666 0 009.403 2.895 16.79 16.79 0 0012.494-5.586c.208-.233.395-.48.589-.723.449-.562.873-1.14 1.244-1.749l-6.729-1.869a10.235 10.235 0 01-7.598 3.386c-4.216 0-7.843-2.567-9.403-6.219a9.678 9.678 0 01-.271-.731h26.107v-.001zm-26.107-6.541c.084-.247.169-.493.271-.731 1.56-3.652 5.187-6.219 9.403-6.219 4.491 0 8.307 2.916 9.675 6.95h-19.349zm107.797-13.083v3.404a16.682 16.682 0 00-10.63-3.813c-9.243 0-16.763 7.52-16.763 16.763 0 9.243 7.52 16.763 16.763 16.763 4.032 0 7.735-1.432 10.63-3.813v3.404h6.542V39.387h-6.542zm-10.63 26.574c-5.636 0-10.221-4.585-10.221-10.221s4.585-10.221 10.221-10.221 10.221 4.585 10.221 10.221-4.585 10.221-10.221 10.221zm37.566-10.29l14.557-16.284h-8.775l-13.911 15.562V27.121h-6.542v44.973h6.542V56.619l14.727 15.475h9.03l-15.628-16.423z" fill="#181F3F"/><path d="M414.986 59.011c.213-1.07.33-2.163.33-3.271a16.67 16.67 0 00-3.68-10.452c-3.074-3.84-7.792-6.311-13.083-6.311-3.483 0-6.72 1.07-9.403 2.895-4.438 3.019-7.359 8.108-7.359 13.868s2.922 10.849 7.359 13.868a16.666 16.666 0 009.403 2.895 16.79 16.79 0 0012.494-5.586c.208-.233.395-.48.589-.723.449-.562.873-1.14 1.244-1.749l-6.729-1.869a10.235 10.235 0 01-7.598 3.386c-4.216 0-7.843-2.567-9.403-6.219a9.678 9.678 0 01-.271-.731h26.107v-.001zm-26.108-6.541c.084-.247.169-.493.271-.731 1.56-3.652 5.187-6.219 9.403-6.219 4.491 0 8.307 2.916 9.675 6.95h-19.349z" fill="#181F3F"/><path d="M17.664 18.372c-15.603 15.603-15.603 40.992 0 56.595l56.595-56.595c-15.603-15.604-40.991-15.604-56.595 0z" fill="#FE346E"/><path d="M74.259 74.967c15.603-15.603 15.603-40.992 0-56.595L17.664 74.967c15.604 15.603 40.992 15.603 56.595 0z" fill="#0037FF"/><path d="M56.667 57.167c-7.802 7.802-7.802 20.496 0 28.297l28.297-28.297c-7.801-7.802-20.496-7.802-28.297 0z" fill="#07F0B9"/><path d="M84.964 85.464c7.802-7.802 7.802-20.496 0-28.297L56.667 85.464c7.801 7.802 20.496 7.802 28.297 0z" fill="#0037FF"/><path fill-rule="evenodd" clip-rule="evenodd" d="M92.631 2.121L82.024 12.728l-2.121-2.121L90.51 0l2.121 2.121zM12.728 82.024L2.121 92.631 0 90.51l10.607-10.607 2.121 2.121z" fill="#181F3F"/></g><defs><clipPath id="clip0"><path fill="#fff" d="M0 0h415.315v92.631H0z"/></clipPath></defs></svg>