<svg width="99" height="99" viewBox="0 0 99 99" fill="none" xmlns="http://www.w3.org/2000/svg"><path d="M20.543 21.251c-15.603 15.603-15.603 40.992 0 56.595l56.595-56.595c-15.603-15.604-40.991-15.604-56.595 0z" fill="#FE346E"/><path d="M77.138 77.846c15.603-15.603 15.603-40.992 0-56.595L20.543 77.846c15.604 15.603 40.992 15.603 56.595 0z" fill="#0037FF"/><path d="M59.546 60.046c-7.802 7.802-7.802 20.496 0 28.297l28.297-28.297c-7.801-7.802-20.496-7.802-28.297 0z" fill="#07F0B9"/><path d="M87.843 88.343c7.802-7.802 7.802-20.496 0-28.297L59.546 88.343c7.801 7.802 20.496 7.802 28.297 0z" fill="#0037FF"/><path fill-rule="evenodd" clip-rule="evenodd" d="M95.51 5L84.903 15.607l-2.121-2.121L93.389 2.879 95.51 5zM15.607 84.903L5 95.51l-2.121-2.12 10.607-10.607 2.121 2.121z" fill="#181F3F"/></svg>